%TF.GenerationSoftware,KiCad,Pcbnew,7.0.5*%
%TF.CreationDate,2023-09-08T12:24:23+07:00*%
%TF.ProjectId,Node_Vote,4e6f6465-5f56-46f7-9465-2e6b69636164,rev?*%
%TF.SameCoordinates,Original*%
%TF.FileFunction,Drillmap*%
%TF.FilePolarity,Positive*%
%FSLAX45Y45*%
G04 Gerber Fmt 4.5, Leading zero omitted, Abs format (unit mm)*
G04 Created by KiCad (PCBNEW 7.0.5) date 2023-09-08 12:24:23*
%MOMM*%
%LPD*%
G01*
G04 APERTURE LIST*
%ADD10C,0.100000*%
%ADD11C,0.200000*%
%ADD12C,0.030000*%
%ADD13C,0.040000*%
%ADD14C,0.050000*%
%ADD15C,0.055000*%
%ADD16C,0.090000*%
%ADD17C,0.110000*%
%ADD18C,0.130000*%
%ADD19C,0.320000*%
G04 APERTURE END LIST*
D10*
X0Y-7100000D02*
X0Y-800000D01*
X8000000Y-7900000D02*
G75*
G03*
X8800000Y-7100000I0J800000D01*
G01*
X0Y-7100000D02*
G75*
G03*
X800000Y-7900000I800000J0D01*
G01*
X8800000Y-800000D02*
G75*
G03*
X8000000Y0I-800000J0D01*
G01*
X8800000Y-7100000D02*
X8800000Y-800000D01*
X800000Y0D02*
G75*
G03*
X0Y-800000I0J-800000D01*
G01*
X8000000Y-7900000D02*
X800000Y-7900000D01*
X800000Y0D02*
X8000000Y0D01*
D11*
D12*
X1071900Y-3255000D02*
X1101900Y-3285000D01*
X1101900Y-3255000D02*
X1071900Y-3285000D01*
X1071900Y-3327500D02*
X1101900Y-3357500D01*
X1101900Y-3327500D02*
X1071900Y-3357500D01*
X1071900Y-3400000D02*
X1101900Y-3430000D01*
X1101900Y-3400000D02*
X1071900Y-3430000D01*
X1192904Y-650700D02*
X1222904Y-680700D01*
X1222904Y-650700D02*
X1192904Y-680700D01*
X1266900Y-1507500D02*
X1296900Y-1537500D01*
X1296900Y-1507500D02*
X1266900Y-1537500D01*
X1456900Y-1070000D02*
X1486900Y-1100000D01*
X1486900Y-1070000D02*
X1456900Y-1100000D01*
X1626900Y-890000D02*
X1656900Y-920000D01*
X1656900Y-890000D02*
X1626900Y-920000D01*
X1721900Y-2145000D02*
X1751900Y-2175000D01*
X1751900Y-2145000D02*
X1721900Y-2175000D01*
X1751900Y-890000D02*
X1781900Y-920000D01*
X1781900Y-890000D02*
X1751900Y-920000D01*
X1787350Y-1290000D02*
X1817350Y-1320000D01*
X1817350Y-1290000D02*
X1787350Y-1320000D01*
X1816900Y-1975000D02*
X1846900Y-2005000D01*
X1846900Y-1975000D02*
X1816900Y-2005000D01*
X2091900Y-1840000D02*
X2121900Y-1870000D01*
X2121900Y-1840000D02*
X2091900Y-1870000D01*
X2343300Y-1024750D02*
X2373300Y-1054750D01*
X2373300Y-1024750D02*
X2343300Y-1054750D01*
X2686900Y-2385000D02*
X2716900Y-2415000D01*
X2716900Y-2385000D02*
X2686900Y-2415000D01*
X2686900Y-2457500D02*
X2716900Y-2487500D01*
X2716900Y-2457500D02*
X2686900Y-2487500D01*
X2686900Y-2530000D02*
X2716900Y-2560000D01*
X2716900Y-2530000D02*
X2686900Y-2560000D01*
X2791900Y-2530000D02*
X2821900Y-2560000D01*
X2821900Y-2530000D02*
X2791900Y-2560000D01*
X2896900Y-1695250D02*
X2926900Y-1725250D01*
X2926900Y-1695250D02*
X2896900Y-1725250D01*
X2896900Y-2530000D02*
X2926900Y-2560000D01*
X2926900Y-2530000D02*
X2896900Y-2560000D01*
X2956900Y-3255000D02*
X2986900Y-3285000D01*
X2986900Y-3255000D02*
X2956900Y-3285000D01*
X2956900Y-3327500D02*
X2986900Y-3357500D01*
X2986900Y-3327500D02*
X2956900Y-3357500D01*
X2956900Y-3400000D02*
X2986900Y-3430000D01*
X2986900Y-3400000D02*
X2956900Y-3430000D01*
X3001900Y-2530000D02*
X3031900Y-2560000D01*
X3031900Y-2530000D02*
X3001900Y-2560000D01*
X3106900Y-2385000D02*
X3136900Y-2415000D01*
X3136900Y-2385000D02*
X3106900Y-2415000D01*
X3106900Y-2457500D02*
X3136900Y-2487500D01*
X3136900Y-2457500D02*
X3106900Y-2487500D01*
X3106900Y-2530000D02*
X3136900Y-2560000D01*
X3136900Y-2530000D02*
X3106900Y-2560000D01*
X3146900Y-1140000D02*
X3176900Y-1170000D01*
X3176900Y-1140000D02*
X3146900Y-1170000D01*
X4069400Y-960000D02*
X4099400Y-990000D01*
X4099400Y-960000D02*
X4069400Y-990000D01*
X4326900Y-1160000D02*
X4356900Y-1190000D01*
X4356900Y-1160000D02*
X4326900Y-1190000D01*
X4326900Y-2395672D02*
X4356900Y-2425672D01*
X4356900Y-2395672D02*
X4326900Y-2425672D01*
X4326900Y-2473004D02*
X4356900Y-2503004D01*
X4356900Y-2473004D02*
X4326900Y-2503004D01*
X4326900Y-2550000D02*
X4356900Y-2580000D01*
X4356900Y-2550000D02*
X4326900Y-2580000D01*
X4469873Y-1461754D02*
X4499873Y-1491754D01*
X4499873Y-1461754D02*
X4469873Y-1491754D01*
X4481900Y-2550000D02*
X4511900Y-2580000D01*
X4511900Y-2550000D02*
X4481900Y-2580000D01*
X4501900Y-1160000D02*
X4531900Y-1190000D01*
X4531900Y-1160000D02*
X4501900Y-1190000D01*
X4563567Y-2550000D02*
X4593567Y-2580000D01*
X4593567Y-2550000D02*
X4563567Y-2580000D01*
X4591900Y-295000D02*
X4621900Y-325000D01*
X4621900Y-295000D02*
X4591900Y-325000D01*
X4645233Y-2550000D02*
X4675233Y-2580000D01*
X4675233Y-2550000D02*
X4645233Y-2580000D01*
X4709400Y-960000D02*
X4739400Y-990000D01*
X4739400Y-960000D02*
X4709400Y-990000D01*
X4709400Y-1661754D02*
X4739400Y-1691754D01*
X4739400Y-1661754D02*
X4709400Y-1691754D01*
X4709400Y-1861004D02*
X4739400Y-1891004D01*
X4739400Y-1861004D02*
X4709400Y-1891004D01*
X4709400Y-2061004D02*
X4739400Y-2091004D01*
X4739400Y-2061004D02*
X4709400Y-2091004D01*
X4726900Y-2550000D02*
X4756900Y-2580000D01*
X4756900Y-2550000D02*
X4726900Y-2580000D01*
X4829400Y-3445000D02*
X4859400Y-3475000D01*
X4859400Y-3445000D02*
X4829400Y-3475000D01*
X4876900Y-2395672D02*
X4906900Y-2425672D01*
X4906900Y-2395672D02*
X4876900Y-2425672D01*
X4876900Y-2473004D02*
X4906900Y-2503004D01*
X4906900Y-2473004D02*
X4876900Y-2503004D01*
X4876900Y-2550000D02*
X4906900Y-2580000D01*
X4906900Y-2550000D02*
X4876900Y-2580000D01*
X4901900Y-3445000D02*
X4931900Y-3475000D01*
X4931900Y-3445000D02*
X4901900Y-3475000D01*
X4974400Y-3445000D02*
X5004400Y-3475000D01*
X5004400Y-3445000D02*
X4974400Y-3475000D01*
X6741900Y-3255000D02*
X6771900Y-3285000D01*
X6771900Y-3255000D02*
X6741900Y-3285000D01*
X6741900Y-3327500D02*
X6771900Y-3357500D01*
X6771900Y-3327500D02*
X6741900Y-3357500D01*
X6741900Y-3400000D02*
X6771900Y-3430000D01*
X6771900Y-3400000D02*
X6741900Y-3430000D01*
X6805800Y-2390504D02*
X6835800Y-2420504D01*
X6835800Y-2390504D02*
X6805800Y-2420504D01*
X6854497Y-1462403D02*
X6884497Y-1492403D01*
X6884497Y-1462403D02*
X6854497Y-1492403D01*
X6855800Y-861754D02*
X6885800Y-891754D01*
X6885800Y-861754D02*
X6855800Y-891754D01*
X6855800Y-1060504D02*
X6885800Y-1090504D01*
X6885800Y-1060504D02*
X6855800Y-1090504D01*
X7036900Y-295000D02*
X7066900Y-325000D01*
X7066900Y-295000D02*
X7036900Y-325000D01*
X7445800Y-2814504D02*
X7475800Y-2844504D01*
X7475800Y-2814504D02*
X7445800Y-2844504D01*
X7651900Y-790000D02*
X7681900Y-820000D01*
X7681900Y-790000D02*
X7651900Y-820000D01*
X7706657Y-1660504D02*
X7736657Y-1690504D01*
X7736657Y-1660504D02*
X7706657Y-1690504D01*
D13*
X4840800Y-876754D02*
G75*
G03*
X4840800Y-876754I-20000J0D01*
G01*
D14*
X1221900Y-2270000D02*
X1221900Y-2320000D01*
X1196900Y-2295000D02*
X1246900Y-2295000D01*
X1336400Y-2270000D02*
X1336400Y-2320000D01*
X1311400Y-2295000D02*
X1361400Y-2295000D01*
X277678Y-523181D02*
X277678Y-487826D01*
X242322Y-487826D01*
X242322Y-523181D01*
X277678Y-523181D01*
X277678Y-7423181D02*
X277678Y-7387826D01*
X242322Y-7387826D01*
X242322Y-7423181D01*
X277678Y-7423181D01*
X347972Y-353476D02*
X347972Y-318120D01*
X312617Y-318120D01*
X312617Y-353476D01*
X347972Y-353476D01*
X347972Y-692887D02*
X347972Y-657532D01*
X312617Y-657532D01*
X312617Y-692887D01*
X347972Y-692887D01*
X347972Y-7253476D02*
X347972Y-7218120D01*
X312617Y-7218120D01*
X312617Y-7253476D01*
X347972Y-7253476D01*
X347972Y-7592887D02*
X347972Y-7557531D01*
X312617Y-7557531D01*
X312617Y-7592887D01*
X347972Y-7592887D01*
X517678Y-283182D02*
X517678Y-247826D01*
X482322Y-247826D01*
X482322Y-283182D01*
X517678Y-283182D01*
X517678Y-763181D02*
X517678Y-727826D01*
X482322Y-727826D01*
X482322Y-763181D01*
X517678Y-763181D01*
X517678Y-7183181D02*
X517678Y-7147826D01*
X482322Y-7147826D01*
X482322Y-7183181D01*
X517678Y-7183181D01*
X517678Y-7663181D02*
X517678Y-7627826D01*
X482322Y-7627826D01*
X482322Y-7663181D01*
X517678Y-7663181D01*
X687383Y-353476D02*
X687383Y-318120D01*
X652028Y-318120D01*
X652028Y-353476D01*
X687383Y-353476D01*
X687383Y-692887D02*
X687383Y-657532D01*
X652028Y-657532D01*
X652028Y-692887D01*
X687383Y-692887D01*
X687383Y-7253476D02*
X687383Y-7218120D01*
X652028Y-7218120D01*
X652028Y-7253476D01*
X687383Y-7253476D01*
X687383Y-7592887D02*
X687383Y-7557531D01*
X652028Y-7557531D01*
X652028Y-7592887D01*
X687383Y-7592887D01*
X757678Y-523181D02*
X757678Y-487826D01*
X722322Y-487826D01*
X722322Y-523181D01*
X757678Y-523181D01*
X757678Y-7423181D02*
X757678Y-7387826D01*
X722322Y-7387826D01*
X722322Y-7423181D01*
X757678Y-7423181D01*
X1039578Y-162678D02*
X1039578Y-127322D01*
X1004222Y-127322D01*
X1004222Y-162678D01*
X1039578Y-162678D01*
D11*
X1046900Y-177500D02*
X1046900Y-112500D01*
X1046900Y-112500D02*
G75*
G03*
X996900Y-112500I-25000J0D01*
G01*
X996900Y-112500D02*
X996900Y-177500D01*
X996900Y-177500D02*
G75*
G03*
X1046900Y-177500I25000J0D01*
G01*
D14*
X1739578Y-162678D02*
X1739578Y-127322D01*
X1704222Y-127322D01*
X1704222Y-162678D01*
X1739578Y-162678D01*
D11*
X1746900Y-177500D02*
X1746900Y-112500D01*
X1746900Y-112500D02*
G75*
G03*
X1696900Y-112500I-25000J0D01*
G01*
X1696900Y-112500D02*
X1696900Y-177500D01*
X1696900Y-177500D02*
G75*
G03*
X1746900Y-177500I25000J0D01*
G01*
D14*
X8077678Y-523181D02*
X8077678Y-487826D01*
X8042322Y-487826D01*
X8042322Y-523181D01*
X8077678Y-523181D01*
X8077678Y-7423181D02*
X8077678Y-7387826D01*
X8042322Y-7387826D01*
X8042322Y-7423181D01*
X8077678Y-7423181D01*
X8147972Y-353476D02*
X8147972Y-318120D01*
X8112617Y-318120D01*
X8112617Y-353476D01*
X8147972Y-353476D01*
X8147972Y-692887D02*
X8147972Y-657532D01*
X8112617Y-657532D01*
X8112617Y-692887D01*
X8147972Y-692887D01*
X8147972Y-7253476D02*
X8147972Y-7218120D01*
X8112617Y-7218120D01*
X8112617Y-7253476D01*
X8147972Y-7253476D01*
X8147972Y-7592887D02*
X8147972Y-7557531D01*
X8112617Y-7557531D01*
X8112617Y-7592887D01*
X8147972Y-7592887D01*
X8317678Y-283182D02*
X8317678Y-247826D01*
X8282322Y-247826D01*
X8282322Y-283182D01*
X8317678Y-283182D01*
X8317678Y-763181D02*
X8317678Y-727826D01*
X8282322Y-727826D01*
X8282322Y-763181D01*
X8317678Y-763181D01*
X8317678Y-7183181D02*
X8317678Y-7147826D01*
X8282322Y-7147826D01*
X8282322Y-7183181D01*
X8317678Y-7183181D01*
X8317678Y-7663181D02*
X8317678Y-7627826D01*
X8282322Y-7627826D01*
X8282322Y-7663181D01*
X8317678Y-7663181D01*
X8487383Y-353476D02*
X8487383Y-318120D01*
X8452028Y-318120D01*
X8452028Y-353476D01*
X8487383Y-353476D01*
X8487383Y-692887D02*
X8487383Y-657532D01*
X8452028Y-657532D01*
X8452028Y-692887D01*
X8487383Y-692887D01*
X8487383Y-7253476D02*
X8487383Y-7218120D01*
X8452028Y-7218120D01*
X8452028Y-7253476D01*
X8487383Y-7253476D01*
X8487383Y-7592887D02*
X8487383Y-7557531D01*
X8452028Y-7557531D01*
X8452028Y-7592887D01*
X8487383Y-7592887D01*
X8557678Y-523181D02*
X8557678Y-487826D01*
X8522322Y-487826D01*
X8522322Y-523181D01*
X8557678Y-523181D01*
X8557678Y-7423181D02*
X8557678Y-7387826D01*
X8522322Y-7387826D01*
X8522322Y-7423181D01*
X8557678Y-7423181D01*
D15*
X1121900Y-442500D02*
X1149400Y-415000D01*
X1121900Y-387500D01*
X1094400Y-415000D01*
X1121900Y-442500D01*
D11*
X1136900Y-387500D02*
X1106900Y-387500D01*
X1106900Y-387500D02*
G75*
G03*
X1106900Y-442500I0J-27500D01*
G01*
X1106900Y-442500D02*
X1136900Y-442500D01*
X1136900Y-442500D02*
G75*
G03*
X1136900Y-387500I0J27500D01*
G01*
D15*
X1621900Y-442500D02*
X1649400Y-415000D01*
X1621900Y-387500D01*
X1594400Y-415000D01*
X1621900Y-442500D01*
D11*
X1636900Y-387500D02*
X1606900Y-387500D01*
X1606900Y-387500D02*
G75*
G03*
X1606900Y-442500I0J-27500D01*
G01*
X1606900Y-442500D02*
X1636900Y-442500D01*
X1636900Y-442500D02*
G75*
G03*
X1636900Y-387500I0J27500D01*
G01*
D16*
X551900Y-1153500D02*
X641900Y-1243500D01*
X641900Y-1153500D02*
X551900Y-1243500D01*
X641900Y-1198500D02*
G75*
G03*
X641900Y-1198500I-45000J0D01*
G01*
X551900Y-1407500D02*
X641900Y-1497500D01*
X641900Y-1407500D02*
X551900Y-1497500D01*
X641900Y-1452500D02*
G75*
G03*
X641900Y-1452500I-45000J0D01*
G01*
X551900Y-1787500D02*
X641900Y-1877500D01*
X641900Y-1787500D02*
X551900Y-1877500D01*
X641900Y-1832500D02*
G75*
G03*
X641900Y-1832500I-45000J0D01*
G01*
X551900Y-2041500D02*
X641900Y-2131500D01*
X641900Y-2041500D02*
X551900Y-2131500D01*
X641900Y-2086500D02*
G75*
G03*
X641900Y-2086500I-45000J0D01*
G01*
X1391383Y-3055000D02*
X1481383Y-3145000D01*
X1481383Y-3055000D02*
X1391383Y-3145000D01*
X1481383Y-3100000D02*
G75*
G03*
X1481383Y-3100000I-45000J0D01*
G01*
X1645383Y-3055000D02*
X1735383Y-3145000D01*
X1735383Y-3055000D02*
X1645383Y-3145000D01*
X1735383Y-3100000D02*
G75*
G03*
X1735383Y-3100000I-45000J0D01*
G01*
X3282794Y-3055000D02*
X3372794Y-3145000D01*
X3372794Y-3055000D02*
X3282794Y-3145000D01*
X3372794Y-3100000D02*
G75*
G03*
X3372794Y-3100000I-45000J0D01*
G01*
X3531900Y-1153500D02*
X3621900Y-1243500D01*
X3621900Y-1153500D02*
X3531900Y-1243500D01*
X3621900Y-1198500D02*
G75*
G03*
X3621900Y-1198500I-45000J0D01*
G01*
X3531900Y-1407500D02*
X3621900Y-1497500D01*
X3621900Y-1407500D02*
X3531900Y-1497500D01*
X3621900Y-1452500D02*
G75*
G03*
X3621900Y-1452500I-45000J0D01*
G01*
X3531900Y-1787500D02*
X3621900Y-1877500D01*
X3621900Y-1787500D02*
X3531900Y-1877500D01*
X3621900Y-1832500D02*
G75*
G03*
X3621900Y-1832500I-45000J0D01*
G01*
X3531900Y-2041500D02*
X3621900Y-2131500D01*
X3621900Y-2041500D02*
X3531900Y-2131500D01*
X3621900Y-2086500D02*
G75*
G03*
X3621900Y-2086500I-45000J0D01*
G01*
X3536794Y-3055000D02*
X3626794Y-3145000D01*
X3626794Y-3055000D02*
X3536794Y-3145000D01*
X3626794Y-3100000D02*
G75*
G03*
X3626794Y-3100000I-45000J0D01*
G01*
X5174206Y-3055000D02*
X5264206Y-3145000D01*
X5264206Y-3055000D02*
X5174206Y-3145000D01*
X5264206Y-3100000D02*
G75*
G03*
X5264206Y-3100000I-45000J0D01*
G01*
X5428206Y-3055000D02*
X5518206Y-3145000D01*
X5518206Y-3055000D02*
X5428206Y-3145000D01*
X5518206Y-3100000D02*
G75*
G03*
X5518206Y-3100000I-45000J0D01*
G01*
X7065617Y-3055000D02*
X7155617Y-3145000D01*
X7155617Y-3055000D02*
X7065617Y-3145000D01*
X7155617Y-3100000D02*
G75*
G03*
X7155617Y-3100000I-45000J0D01*
G01*
X7319617Y-3055000D02*
X7409617Y-3145000D01*
X7409617Y-3055000D02*
X7319617Y-3145000D01*
X7409617Y-3100000D02*
G75*
G03*
X7409617Y-3100000I-45000J0D01*
G01*
D10*
X8100000Y-1110000D02*
X8200000Y-1210000D01*
X8200000Y-1110000D02*
X8100000Y-1210000D01*
X8150000Y-1110000D02*
X8150000Y-1210000D01*
X8100000Y-1160000D02*
X8200000Y-1160000D01*
X8100000Y-1870000D02*
X8200000Y-1970000D01*
X8200000Y-1870000D02*
X8100000Y-1970000D01*
X8150000Y-1870000D02*
X8150000Y-1970000D01*
X8100000Y-1920000D02*
X8200000Y-1920000D01*
X8400000Y-2525504D02*
X8500000Y-2625504D01*
X8500000Y-2525504D02*
X8400000Y-2625504D01*
X8450000Y-2525504D02*
X8450000Y-2625504D01*
X8400000Y-2575504D02*
X8500000Y-2575504D01*
X8400000Y-2779504D02*
X8500000Y-2879504D01*
X8500000Y-2779504D02*
X8400000Y-2879504D01*
X8450000Y-2779504D02*
X8450000Y-2879504D01*
X8400000Y-2829504D02*
X8500000Y-2829504D01*
X8400000Y-3033504D02*
X8500000Y-3133504D01*
X8500000Y-3033504D02*
X8400000Y-3133504D01*
X8450000Y-3033504D02*
X8450000Y-3133504D01*
X8400000Y-3083504D02*
X8500000Y-3083504D01*
X8400000Y-3287504D02*
X8500000Y-3387504D01*
X8500000Y-3287504D02*
X8400000Y-3387504D01*
X8450000Y-3287504D02*
X8450000Y-3387504D01*
X8400000Y-3337504D02*
X8500000Y-3337504D01*
X8400000Y-3541504D02*
X8500000Y-3641504D01*
X8500000Y-3541504D02*
X8400000Y-3641504D01*
X8450000Y-3541504D02*
X8450000Y-3641504D01*
X8400000Y-3591504D02*
X8500000Y-3591504D01*
X8400000Y-3795504D02*
X8500000Y-3895504D01*
X8500000Y-3795504D02*
X8400000Y-3895504D01*
X8450000Y-3795504D02*
X8450000Y-3895504D01*
X8400000Y-3845504D02*
X8500000Y-3845504D01*
D17*
X2621900Y-465000D02*
X2731900Y-575000D01*
X2731900Y-465000D02*
X2621900Y-575000D01*
X2715791Y-558891D02*
X2715791Y-481109D01*
X2638009Y-481109D01*
X2638009Y-558891D01*
X2715791Y-558891D01*
D11*
X2621900Y-490000D02*
X2621900Y-550000D01*
X2621900Y-550000D02*
G75*
G03*
X2731900Y-550000I55000J0D01*
G01*
X2731900Y-550000D02*
X2731900Y-490000D01*
X2731900Y-490000D02*
G75*
G03*
X2621900Y-490000I-55000J0D01*
G01*
D17*
X3881900Y-465000D02*
X3991900Y-575000D01*
X3991900Y-465000D02*
X3881900Y-575000D01*
X3975791Y-558891D02*
X3975791Y-481109D01*
X3898009Y-481109D01*
X3898009Y-558891D01*
X3975791Y-558891D01*
D11*
X3881900Y-490000D02*
X3881900Y-550000D01*
X3881900Y-550000D02*
G75*
G03*
X3991900Y-550000I55000J0D01*
G01*
X3991900Y-550000D02*
X3991900Y-490000D01*
X3991900Y-490000D02*
G75*
G03*
X3881900Y-490000I-55000J0D01*
G01*
D18*
X873883Y-3640504D02*
X1003883Y-3770504D01*
X1003883Y-3640504D02*
X873883Y-3770504D01*
X938883Y-3770504D02*
X1003883Y-3705504D01*
X938883Y-3640504D01*
X873883Y-3705504D01*
X938883Y-3770504D01*
X873883Y-4140504D02*
X1003883Y-4270504D01*
X1003883Y-4140504D02*
X873883Y-4270504D01*
X938883Y-4270504D02*
X1003883Y-4205504D01*
X938883Y-4140504D01*
X873883Y-4205504D01*
X938883Y-4270504D01*
X2123883Y-3640504D02*
X2253883Y-3770504D01*
X2253883Y-3640504D02*
X2123883Y-3770504D01*
X2188883Y-3770504D02*
X2253883Y-3705504D01*
X2188883Y-3640504D01*
X2123883Y-3705504D01*
X2188883Y-3770504D01*
X2123883Y-4140504D02*
X2253883Y-4270504D01*
X2253883Y-4140504D02*
X2123883Y-4270504D01*
X2188883Y-4270504D02*
X2253883Y-4205504D01*
X2188883Y-4140504D01*
X2123883Y-4205504D01*
X2188883Y-4270504D01*
X2765294Y-3640504D02*
X2895294Y-3770504D01*
X2895294Y-3640504D02*
X2765294Y-3770504D01*
X2830294Y-3770504D02*
X2895294Y-3705504D01*
X2830294Y-3640504D01*
X2765294Y-3705504D01*
X2830294Y-3770504D01*
X2765294Y-4140504D02*
X2895294Y-4270504D01*
X2895294Y-4140504D02*
X2765294Y-4270504D01*
X2830294Y-4270504D02*
X2895294Y-4205504D01*
X2830294Y-4140504D01*
X2765294Y-4205504D01*
X2830294Y-4270504D01*
X2941900Y-455000D02*
X3071900Y-585000D01*
X3071900Y-455000D02*
X2941900Y-585000D01*
X3006900Y-585000D02*
X3071900Y-520000D01*
X3006900Y-455000D01*
X2941900Y-520000D01*
X3006900Y-585000D01*
X3241900Y-455000D02*
X3371900Y-585000D01*
X3371900Y-455000D02*
X3241900Y-585000D01*
X3306900Y-585000D02*
X3371900Y-520000D01*
X3306900Y-455000D01*
X3241900Y-520000D01*
X3306900Y-585000D01*
X3541900Y-455000D02*
X3671900Y-585000D01*
X3671900Y-455000D02*
X3541900Y-585000D01*
X3606900Y-585000D02*
X3671900Y-520000D01*
X3606900Y-455000D01*
X3541900Y-520000D01*
X3606900Y-585000D01*
X4015294Y-3640504D02*
X4145294Y-3770504D01*
X4145294Y-3640504D02*
X4015294Y-3770504D01*
X4080294Y-3770504D02*
X4145294Y-3705504D01*
X4080294Y-3640504D01*
X4015294Y-3705504D01*
X4080294Y-3770504D01*
X4015294Y-4140504D02*
X4145294Y-4270504D01*
X4145294Y-4140504D02*
X4015294Y-4270504D01*
X4080294Y-4270504D02*
X4145294Y-4205504D01*
X4080294Y-4140504D01*
X4015294Y-4205504D01*
X4080294Y-4270504D01*
X4656706Y-3640504D02*
X4786706Y-3770504D01*
X4786706Y-3640504D02*
X4656706Y-3770504D01*
X4721706Y-3770504D02*
X4786706Y-3705504D01*
X4721706Y-3640504D01*
X4656706Y-3705504D01*
X4721706Y-3770504D01*
X4656706Y-4140504D02*
X4786706Y-4270504D01*
X4786706Y-4140504D02*
X4656706Y-4270504D01*
X4721706Y-4270504D02*
X4786706Y-4205504D01*
X4721706Y-4140504D01*
X4656706Y-4205504D01*
X4721706Y-4270504D01*
X5906705Y-3640504D02*
X6036705Y-3770504D01*
X6036705Y-3640504D02*
X5906705Y-3770504D01*
X5971705Y-3770504D02*
X6036705Y-3705504D01*
X5971705Y-3640504D01*
X5906705Y-3705504D01*
X5971705Y-3770504D01*
X5906705Y-4140504D02*
X6036705Y-4270504D01*
X6036705Y-4140504D02*
X5906705Y-4270504D01*
X5971705Y-4270504D02*
X6036705Y-4205504D01*
X5971705Y-4140504D01*
X5906705Y-4205504D01*
X5971705Y-4270504D01*
X6548117Y-3640504D02*
X6678117Y-3770504D01*
X6678117Y-3640504D02*
X6548117Y-3770504D01*
X6613117Y-3770504D02*
X6678117Y-3705504D01*
X6613117Y-3640504D01*
X6548117Y-3705504D01*
X6613117Y-3770504D01*
X6548117Y-4140504D02*
X6678117Y-4270504D01*
X6678117Y-4140504D02*
X6548117Y-4270504D01*
X6613117Y-4270504D02*
X6678117Y-4205504D01*
X6613117Y-4140504D01*
X6548117Y-4205504D01*
X6613117Y-4270504D01*
X7798117Y-3640504D02*
X7928117Y-3770504D01*
X7928117Y-3640504D02*
X7798117Y-3770504D01*
X7863117Y-3770504D02*
X7928117Y-3705504D01*
X7863117Y-3640504D01*
X7798117Y-3705504D01*
X7863117Y-3770504D01*
X7798117Y-4140504D02*
X7928117Y-4270504D01*
X7928117Y-4140504D02*
X7798117Y-4270504D01*
X7863117Y-4270504D02*
X7928117Y-4205504D01*
X7863117Y-4140504D01*
X7798117Y-4205504D01*
X7863117Y-4270504D01*
D11*
X800000Y-5900000D02*
X800000Y-6100000D01*
X700000Y-6000000D02*
X900000Y-6000000D01*
X900000Y-6000000D02*
G75*
G03*
X900000Y-6000000I-100000J0D01*
G01*
X8000000Y-5900000D02*
X8000000Y-6100000D01*
X7900000Y-6000000D02*
X8100000Y-6000000D01*
X8100000Y-6000000D02*
G75*
G03*
X8100000Y-6000000I-100000J0D01*
G01*
D19*
X613138Y-618642D02*
X613138Y-392365D01*
X386862Y-392365D01*
X386862Y-618642D01*
X613138Y-618642D01*
X660000Y-505504D02*
G75*
G03*
X660000Y-505504I-160000J0D01*
G01*
X613138Y-7518642D02*
X613138Y-7292365D01*
X386862Y-7292365D01*
X386862Y-7518642D01*
X613138Y-7518642D01*
X660000Y-7405504D02*
G75*
G03*
X660000Y-7405504I-160000J0D01*
G01*
X8413138Y-618642D02*
X8413138Y-392365D01*
X8186862Y-392365D01*
X8186862Y-618642D01*
X8413138Y-618642D01*
X8460000Y-505504D02*
G75*
G03*
X8460000Y-505504I-160000J0D01*
G01*
X8413138Y-7518642D02*
X8413138Y-7292365D01*
X8186862Y-7292365D01*
X8186862Y-7518642D01*
X8413138Y-7518642D01*
X8460000Y-7405504D02*
G75*
G03*
X8460000Y-7405504I-160000J0D01*
G01*
D11*
X255777Y-8216484D02*
X255777Y-8016484D01*
X255777Y-8016484D02*
X303396Y-8016484D01*
X303396Y-8016484D02*
X331967Y-8026008D01*
X331967Y-8026008D02*
X351015Y-8045055D01*
X351015Y-8045055D02*
X360539Y-8064103D01*
X360539Y-8064103D02*
X370062Y-8102198D01*
X370062Y-8102198D02*
X370062Y-8130769D01*
X370062Y-8130769D02*
X360539Y-8168865D01*
X360539Y-8168865D02*
X351015Y-8187912D01*
X351015Y-8187912D02*
X331967Y-8206960D01*
X331967Y-8206960D02*
X303396Y-8216484D01*
X303396Y-8216484D02*
X255777Y-8216484D01*
X455777Y-8216484D02*
X455777Y-8083150D01*
X455777Y-8121246D02*
X465301Y-8102198D01*
X465301Y-8102198D02*
X474824Y-8092674D01*
X474824Y-8092674D02*
X493872Y-8083150D01*
X493872Y-8083150D02*
X512920Y-8083150D01*
X579586Y-8216484D02*
X579586Y-8083150D01*
X579586Y-8016484D02*
X570063Y-8026008D01*
X570063Y-8026008D02*
X579586Y-8035531D01*
X579586Y-8035531D02*
X589110Y-8026008D01*
X589110Y-8026008D02*
X579586Y-8016484D01*
X579586Y-8016484D02*
X579586Y-8035531D01*
X703396Y-8216484D02*
X684348Y-8206960D01*
X684348Y-8206960D02*
X674824Y-8187912D01*
X674824Y-8187912D02*
X674824Y-8016484D01*
X808158Y-8216484D02*
X789110Y-8206960D01*
X789110Y-8206960D02*
X779586Y-8187912D01*
X779586Y-8187912D02*
X779586Y-8016484D01*
X1036729Y-8216484D02*
X1036729Y-8016484D01*
X1036729Y-8016484D02*
X1103396Y-8159341D01*
X1103396Y-8159341D02*
X1170063Y-8016484D01*
X1170063Y-8016484D02*
X1170063Y-8216484D01*
X1351015Y-8216484D02*
X1351015Y-8111722D01*
X1351015Y-8111722D02*
X1341491Y-8092674D01*
X1341491Y-8092674D02*
X1322444Y-8083150D01*
X1322444Y-8083150D02*
X1284348Y-8083150D01*
X1284348Y-8083150D02*
X1265301Y-8092674D01*
X1351015Y-8206960D02*
X1331967Y-8216484D01*
X1331967Y-8216484D02*
X1284348Y-8216484D01*
X1284348Y-8216484D02*
X1265301Y-8206960D01*
X1265301Y-8206960D02*
X1255777Y-8187912D01*
X1255777Y-8187912D02*
X1255777Y-8168865D01*
X1255777Y-8168865D02*
X1265301Y-8149817D01*
X1265301Y-8149817D02*
X1284348Y-8140293D01*
X1284348Y-8140293D02*
X1331967Y-8140293D01*
X1331967Y-8140293D02*
X1351015Y-8130769D01*
X1446253Y-8083150D02*
X1446253Y-8283150D01*
X1446253Y-8092674D02*
X1465301Y-8083150D01*
X1465301Y-8083150D02*
X1503396Y-8083150D01*
X1503396Y-8083150D02*
X1522443Y-8092674D01*
X1522443Y-8092674D02*
X1531967Y-8102198D01*
X1531967Y-8102198D02*
X1541491Y-8121246D01*
X1541491Y-8121246D02*
X1541491Y-8178388D01*
X1541491Y-8178388D02*
X1531967Y-8197436D01*
X1531967Y-8197436D02*
X1522443Y-8206960D01*
X1522443Y-8206960D02*
X1503396Y-8216484D01*
X1503396Y-8216484D02*
X1465301Y-8216484D01*
X1465301Y-8216484D02*
X1446253Y-8206960D01*
X1627205Y-8197436D02*
X1636729Y-8206960D01*
X1636729Y-8206960D02*
X1627205Y-8216484D01*
X1627205Y-8216484D02*
X1617682Y-8206960D01*
X1617682Y-8206960D02*
X1627205Y-8197436D01*
X1627205Y-8197436D02*
X1627205Y-8216484D01*
X1627205Y-8092674D02*
X1636729Y-8102198D01*
X1636729Y-8102198D02*
X1627205Y-8111722D01*
X1627205Y-8111722D02*
X1617682Y-8102198D01*
X1617682Y-8102198D02*
X1627205Y-8092674D01*
X1627205Y-8092674D02*
X1627205Y-8111722D01*
D12*
X-35000Y-8530000D02*
X-5000Y-8560000D01*
X-5000Y-8530000D02*
X-35000Y-8560000D01*
D11*
X293872Y-8436484D02*
X312920Y-8436484D01*
X312920Y-8436484D02*
X331967Y-8446008D01*
X331967Y-8446008D02*
X341491Y-8455531D01*
X341491Y-8455531D02*
X351015Y-8474579D01*
X351015Y-8474579D02*
X360539Y-8512674D01*
X360539Y-8512674D02*
X360539Y-8560293D01*
X360539Y-8560293D02*
X351015Y-8598389D01*
X351015Y-8598389D02*
X341491Y-8617436D01*
X341491Y-8617436D02*
X331967Y-8626960D01*
X331967Y-8626960D02*
X312920Y-8636484D01*
X312920Y-8636484D02*
X293872Y-8636484D01*
X293872Y-8636484D02*
X274824Y-8626960D01*
X274824Y-8626960D02*
X265301Y-8617436D01*
X265301Y-8617436D02*
X255777Y-8598389D01*
X255777Y-8598389D02*
X246253Y-8560293D01*
X246253Y-8560293D02*
X246253Y-8512674D01*
X246253Y-8512674D02*
X255777Y-8474579D01*
X255777Y-8474579D02*
X265301Y-8455531D01*
X265301Y-8455531D02*
X274824Y-8446008D01*
X274824Y-8446008D02*
X293872Y-8436484D01*
X446253Y-8617436D02*
X455777Y-8626960D01*
X455777Y-8626960D02*
X446253Y-8636484D01*
X446253Y-8636484D02*
X436729Y-8626960D01*
X436729Y-8626960D02*
X446253Y-8617436D01*
X446253Y-8617436D02*
X446253Y-8636484D01*
X522443Y-8436484D02*
X646253Y-8436484D01*
X646253Y-8436484D02*
X579586Y-8512674D01*
X579586Y-8512674D02*
X608158Y-8512674D01*
X608158Y-8512674D02*
X627205Y-8522198D01*
X627205Y-8522198D02*
X636729Y-8531722D01*
X636729Y-8531722D02*
X646253Y-8550770D01*
X646253Y-8550770D02*
X646253Y-8598389D01*
X646253Y-8598389D02*
X636729Y-8617436D01*
X636729Y-8617436D02*
X627205Y-8626960D01*
X627205Y-8626960D02*
X608158Y-8636484D01*
X608158Y-8636484D02*
X551015Y-8636484D01*
X551015Y-8636484D02*
X531967Y-8626960D01*
X531967Y-8626960D02*
X522443Y-8617436D01*
X770062Y-8436484D02*
X789110Y-8436484D01*
X789110Y-8436484D02*
X808158Y-8446008D01*
X808158Y-8446008D02*
X817682Y-8455531D01*
X817682Y-8455531D02*
X827205Y-8474579D01*
X827205Y-8474579D02*
X836729Y-8512674D01*
X836729Y-8512674D02*
X836729Y-8560293D01*
X836729Y-8560293D02*
X827205Y-8598389D01*
X827205Y-8598389D02*
X817682Y-8617436D01*
X817682Y-8617436D02*
X808158Y-8626960D01*
X808158Y-8626960D02*
X789110Y-8636484D01*
X789110Y-8636484D02*
X770062Y-8636484D01*
X770062Y-8636484D02*
X751015Y-8626960D01*
X751015Y-8626960D02*
X741491Y-8617436D01*
X741491Y-8617436D02*
X731967Y-8598389D01*
X731967Y-8598389D02*
X722443Y-8560293D01*
X722443Y-8560293D02*
X722443Y-8512674D01*
X722443Y-8512674D02*
X731967Y-8474579D01*
X731967Y-8474579D02*
X741491Y-8455531D01*
X741491Y-8455531D02*
X751015Y-8446008D01*
X751015Y-8446008D02*
X770062Y-8436484D01*
X960539Y-8436484D02*
X979586Y-8436484D01*
X979586Y-8436484D02*
X998634Y-8446008D01*
X998634Y-8446008D02*
X1008158Y-8455531D01*
X1008158Y-8455531D02*
X1017682Y-8474579D01*
X1017682Y-8474579D02*
X1027205Y-8512674D01*
X1027205Y-8512674D02*
X1027205Y-8560293D01*
X1027205Y-8560293D02*
X1017682Y-8598389D01*
X1017682Y-8598389D02*
X1008158Y-8617436D01*
X1008158Y-8617436D02*
X998634Y-8626960D01*
X998634Y-8626960D02*
X979586Y-8636484D01*
X979586Y-8636484D02*
X960539Y-8636484D01*
X960539Y-8636484D02*
X941491Y-8626960D01*
X941491Y-8626960D02*
X931967Y-8617436D01*
X931967Y-8617436D02*
X922443Y-8598389D01*
X922443Y-8598389D02*
X912920Y-8560293D01*
X912920Y-8560293D02*
X912920Y-8512674D01*
X912920Y-8512674D02*
X922443Y-8474579D01*
X922443Y-8474579D02*
X931967Y-8455531D01*
X931967Y-8455531D02*
X941491Y-8446008D01*
X941491Y-8446008D02*
X960539Y-8436484D01*
X1112920Y-8636484D02*
X1112920Y-8503150D01*
X1112920Y-8522198D02*
X1122444Y-8512674D01*
X1122444Y-8512674D02*
X1141491Y-8503150D01*
X1141491Y-8503150D02*
X1170063Y-8503150D01*
X1170063Y-8503150D02*
X1189110Y-8512674D01*
X1189110Y-8512674D02*
X1198634Y-8531722D01*
X1198634Y-8531722D02*
X1198634Y-8636484D01*
X1198634Y-8531722D02*
X1208158Y-8512674D01*
X1208158Y-8512674D02*
X1227205Y-8503150D01*
X1227205Y-8503150D02*
X1255777Y-8503150D01*
X1255777Y-8503150D02*
X1274825Y-8512674D01*
X1274825Y-8512674D02*
X1284348Y-8531722D01*
X1284348Y-8531722D02*
X1284348Y-8636484D01*
X1379586Y-8636484D02*
X1379586Y-8503150D01*
X1379586Y-8522198D02*
X1389110Y-8512674D01*
X1389110Y-8512674D02*
X1408158Y-8503150D01*
X1408158Y-8503150D02*
X1436729Y-8503150D01*
X1436729Y-8503150D02*
X1455777Y-8512674D01*
X1455777Y-8512674D02*
X1465301Y-8531722D01*
X1465301Y-8531722D02*
X1465301Y-8636484D01*
X1465301Y-8531722D02*
X1474824Y-8512674D01*
X1474824Y-8512674D02*
X1493872Y-8503150D01*
X1493872Y-8503150D02*
X1522443Y-8503150D01*
X1522443Y-8503150D02*
X1541491Y-8512674D01*
X1541491Y-8512674D02*
X1551015Y-8531722D01*
X1551015Y-8531722D02*
X1551015Y-8636484D01*
X1941491Y-8426960D02*
X1770063Y-8684103D01*
X2198634Y-8436484D02*
X2217682Y-8436484D01*
X2217682Y-8436484D02*
X2236729Y-8446008D01*
X2236729Y-8446008D02*
X2246253Y-8455531D01*
X2246253Y-8455531D02*
X2255777Y-8474579D01*
X2255777Y-8474579D02*
X2265301Y-8512674D01*
X2265301Y-8512674D02*
X2265301Y-8560293D01*
X2265301Y-8560293D02*
X2255777Y-8598389D01*
X2255777Y-8598389D02*
X2246253Y-8617436D01*
X2246253Y-8617436D02*
X2236729Y-8626960D01*
X2236729Y-8626960D02*
X2217682Y-8636484D01*
X2217682Y-8636484D02*
X2198634Y-8636484D01*
X2198634Y-8636484D02*
X2179587Y-8626960D01*
X2179587Y-8626960D02*
X2170063Y-8617436D01*
X2170063Y-8617436D02*
X2160539Y-8598389D01*
X2160539Y-8598389D02*
X2151015Y-8560293D01*
X2151015Y-8560293D02*
X2151015Y-8512674D01*
X2151015Y-8512674D02*
X2160539Y-8474579D01*
X2160539Y-8474579D02*
X2170063Y-8455531D01*
X2170063Y-8455531D02*
X2179587Y-8446008D01*
X2179587Y-8446008D02*
X2198634Y-8436484D01*
X2351015Y-8617436D02*
X2360539Y-8626960D01*
X2360539Y-8626960D02*
X2351015Y-8636484D01*
X2351015Y-8636484D02*
X2341491Y-8626960D01*
X2341491Y-8626960D02*
X2351015Y-8617436D01*
X2351015Y-8617436D02*
X2351015Y-8636484D01*
X2484348Y-8436484D02*
X2503396Y-8436484D01*
X2503396Y-8436484D02*
X2522444Y-8446008D01*
X2522444Y-8446008D02*
X2531968Y-8455531D01*
X2531968Y-8455531D02*
X2541491Y-8474579D01*
X2541491Y-8474579D02*
X2551015Y-8512674D01*
X2551015Y-8512674D02*
X2551015Y-8560293D01*
X2551015Y-8560293D02*
X2541491Y-8598389D01*
X2541491Y-8598389D02*
X2531968Y-8617436D01*
X2531968Y-8617436D02*
X2522444Y-8626960D01*
X2522444Y-8626960D02*
X2503396Y-8636484D01*
X2503396Y-8636484D02*
X2484348Y-8636484D01*
X2484348Y-8636484D02*
X2465301Y-8626960D01*
X2465301Y-8626960D02*
X2455777Y-8617436D01*
X2455777Y-8617436D02*
X2446253Y-8598389D01*
X2446253Y-8598389D02*
X2436729Y-8560293D01*
X2436729Y-8560293D02*
X2436729Y-8512674D01*
X2436729Y-8512674D02*
X2446253Y-8474579D01*
X2446253Y-8474579D02*
X2455777Y-8455531D01*
X2455777Y-8455531D02*
X2465301Y-8446008D01*
X2465301Y-8446008D02*
X2484348Y-8436484D01*
X2741491Y-8636484D02*
X2627206Y-8636484D01*
X2684348Y-8636484D02*
X2684348Y-8436484D01*
X2684348Y-8436484D02*
X2665301Y-8465055D01*
X2665301Y-8465055D02*
X2646253Y-8484103D01*
X2646253Y-8484103D02*
X2627206Y-8493627D01*
X2931967Y-8636484D02*
X2817682Y-8636484D01*
X2874825Y-8636484D02*
X2874825Y-8436484D01*
X2874825Y-8436484D02*
X2855777Y-8465055D01*
X2855777Y-8465055D02*
X2836729Y-8484103D01*
X2836729Y-8484103D02*
X2817682Y-8493627D01*
X3046253Y-8522198D02*
X3027206Y-8512674D01*
X3027206Y-8512674D02*
X3017682Y-8503150D01*
X3017682Y-8503150D02*
X3008158Y-8484103D01*
X3008158Y-8484103D02*
X3008158Y-8474579D01*
X3008158Y-8474579D02*
X3017682Y-8455531D01*
X3017682Y-8455531D02*
X3027206Y-8446008D01*
X3027206Y-8446008D02*
X3046253Y-8436484D01*
X3046253Y-8436484D02*
X3084348Y-8436484D01*
X3084348Y-8436484D02*
X3103396Y-8446008D01*
X3103396Y-8446008D02*
X3112920Y-8455531D01*
X3112920Y-8455531D02*
X3122444Y-8474579D01*
X3122444Y-8474579D02*
X3122444Y-8484103D01*
X3122444Y-8484103D02*
X3112920Y-8503150D01*
X3112920Y-8503150D02*
X3103396Y-8512674D01*
X3103396Y-8512674D02*
X3084348Y-8522198D01*
X3084348Y-8522198D02*
X3046253Y-8522198D01*
X3046253Y-8522198D02*
X3027206Y-8531722D01*
X3027206Y-8531722D02*
X3017682Y-8541246D01*
X3017682Y-8541246D02*
X3008158Y-8560293D01*
X3008158Y-8560293D02*
X3008158Y-8598389D01*
X3008158Y-8598389D02*
X3017682Y-8617436D01*
X3017682Y-8617436D02*
X3027206Y-8626960D01*
X3027206Y-8626960D02*
X3046253Y-8636484D01*
X3046253Y-8636484D02*
X3084348Y-8636484D01*
X3084348Y-8636484D02*
X3103396Y-8626960D01*
X3103396Y-8626960D02*
X3112920Y-8617436D01*
X3112920Y-8617436D02*
X3122444Y-8598389D01*
X3122444Y-8598389D02*
X3122444Y-8560293D01*
X3122444Y-8560293D02*
X3112920Y-8541246D01*
X3112920Y-8541246D02*
X3103396Y-8531722D01*
X3103396Y-8531722D02*
X3084348Y-8522198D01*
X3198634Y-8436484D02*
X3198634Y-8474579D01*
X3274825Y-8436484D02*
X3274825Y-8474579D01*
X3570063Y-8712674D02*
X3560539Y-8703150D01*
X3560539Y-8703150D02*
X3541491Y-8674579D01*
X3541491Y-8674579D02*
X3531968Y-8655531D01*
X3531968Y-8655531D02*
X3522444Y-8626960D01*
X3522444Y-8626960D02*
X3512920Y-8579341D01*
X3512920Y-8579341D02*
X3512920Y-8541246D01*
X3512920Y-8541246D02*
X3522444Y-8493627D01*
X3522444Y-8493627D02*
X3531968Y-8465055D01*
X3531968Y-8465055D02*
X3541491Y-8446008D01*
X3541491Y-8446008D02*
X3560539Y-8417436D01*
X3560539Y-8417436D02*
X3570063Y-8407912D01*
X3731968Y-8436484D02*
X3693872Y-8436484D01*
X3693872Y-8436484D02*
X3674825Y-8446008D01*
X3674825Y-8446008D02*
X3665301Y-8455531D01*
X3665301Y-8455531D02*
X3646253Y-8484103D01*
X3646253Y-8484103D02*
X3636729Y-8522198D01*
X3636729Y-8522198D02*
X3636729Y-8598389D01*
X3636729Y-8598389D02*
X3646253Y-8617436D01*
X3646253Y-8617436D02*
X3655777Y-8626960D01*
X3655777Y-8626960D02*
X3674825Y-8636484D01*
X3674825Y-8636484D02*
X3712920Y-8636484D01*
X3712920Y-8636484D02*
X3731968Y-8626960D01*
X3731968Y-8626960D02*
X3741491Y-8617436D01*
X3741491Y-8617436D02*
X3751015Y-8598389D01*
X3751015Y-8598389D02*
X3751015Y-8550770D01*
X3751015Y-8550770D02*
X3741491Y-8531722D01*
X3741491Y-8531722D02*
X3731968Y-8522198D01*
X3731968Y-8522198D02*
X3712920Y-8512674D01*
X3712920Y-8512674D02*
X3674825Y-8512674D01*
X3674825Y-8512674D02*
X3655777Y-8522198D01*
X3655777Y-8522198D02*
X3646253Y-8531722D01*
X3646253Y-8531722D02*
X3636729Y-8550770D01*
X3874825Y-8436484D02*
X3893872Y-8436484D01*
X3893872Y-8436484D02*
X3912920Y-8446008D01*
X3912920Y-8446008D02*
X3922444Y-8455531D01*
X3922444Y-8455531D02*
X3931968Y-8474579D01*
X3931968Y-8474579D02*
X3941491Y-8512674D01*
X3941491Y-8512674D02*
X3941491Y-8560293D01*
X3941491Y-8560293D02*
X3931968Y-8598389D01*
X3931968Y-8598389D02*
X3922444Y-8617436D01*
X3922444Y-8617436D02*
X3912920Y-8626960D01*
X3912920Y-8626960D02*
X3893872Y-8636484D01*
X3893872Y-8636484D02*
X3874825Y-8636484D01*
X3874825Y-8636484D02*
X3855777Y-8626960D01*
X3855777Y-8626960D02*
X3846253Y-8617436D01*
X3846253Y-8617436D02*
X3836729Y-8598389D01*
X3836729Y-8598389D02*
X3827206Y-8560293D01*
X3827206Y-8560293D02*
X3827206Y-8512674D01*
X3827206Y-8512674D02*
X3836729Y-8474579D01*
X3836729Y-8474579D02*
X3846253Y-8455531D01*
X3846253Y-8455531D02*
X3855777Y-8446008D01*
X3855777Y-8446008D02*
X3874825Y-8436484D01*
X4179587Y-8636484D02*
X4179587Y-8436484D01*
X4265301Y-8636484D02*
X4265301Y-8531722D01*
X4265301Y-8531722D02*
X4255777Y-8512674D01*
X4255777Y-8512674D02*
X4236730Y-8503150D01*
X4236730Y-8503150D02*
X4208158Y-8503150D01*
X4208158Y-8503150D02*
X4189110Y-8512674D01*
X4189110Y-8512674D02*
X4179587Y-8522198D01*
X4389111Y-8636484D02*
X4370063Y-8626960D01*
X4370063Y-8626960D02*
X4360539Y-8617436D01*
X4360539Y-8617436D02*
X4351015Y-8598389D01*
X4351015Y-8598389D02*
X4351015Y-8541246D01*
X4351015Y-8541246D02*
X4360539Y-8522198D01*
X4360539Y-8522198D02*
X4370063Y-8512674D01*
X4370063Y-8512674D02*
X4389111Y-8503150D01*
X4389111Y-8503150D02*
X4417682Y-8503150D01*
X4417682Y-8503150D02*
X4436730Y-8512674D01*
X4436730Y-8512674D02*
X4446253Y-8522198D01*
X4446253Y-8522198D02*
X4455777Y-8541246D01*
X4455777Y-8541246D02*
X4455777Y-8598389D01*
X4455777Y-8598389D02*
X4446253Y-8617436D01*
X4446253Y-8617436D02*
X4436730Y-8626960D01*
X4436730Y-8626960D02*
X4417682Y-8636484D01*
X4417682Y-8636484D02*
X4389111Y-8636484D01*
X4570063Y-8636484D02*
X4551015Y-8626960D01*
X4551015Y-8626960D02*
X4541492Y-8607912D01*
X4541492Y-8607912D02*
X4541492Y-8436484D01*
X4722444Y-8626960D02*
X4703396Y-8636484D01*
X4703396Y-8636484D02*
X4665301Y-8636484D01*
X4665301Y-8636484D02*
X4646253Y-8626960D01*
X4646253Y-8626960D02*
X4636730Y-8607912D01*
X4636730Y-8607912D02*
X4636730Y-8531722D01*
X4636730Y-8531722D02*
X4646253Y-8512674D01*
X4646253Y-8512674D02*
X4665301Y-8503150D01*
X4665301Y-8503150D02*
X4703396Y-8503150D01*
X4703396Y-8503150D02*
X4722444Y-8512674D01*
X4722444Y-8512674D02*
X4731968Y-8531722D01*
X4731968Y-8531722D02*
X4731968Y-8550770D01*
X4731968Y-8550770D02*
X4636730Y-8569817D01*
X4808158Y-8626960D02*
X4827206Y-8636484D01*
X4827206Y-8636484D02*
X4865301Y-8636484D01*
X4865301Y-8636484D02*
X4884349Y-8626960D01*
X4884349Y-8626960D02*
X4893873Y-8607912D01*
X4893873Y-8607912D02*
X4893873Y-8598389D01*
X4893873Y-8598389D02*
X4884349Y-8579341D01*
X4884349Y-8579341D02*
X4865301Y-8569817D01*
X4865301Y-8569817D02*
X4836730Y-8569817D01*
X4836730Y-8569817D02*
X4817682Y-8560293D01*
X4817682Y-8560293D02*
X4808158Y-8541246D01*
X4808158Y-8541246D02*
X4808158Y-8531722D01*
X4808158Y-8531722D02*
X4817682Y-8512674D01*
X4817682Y-8512674D02*
X4836730Y-8503150D01*
X4836730Y-8503150D02*
X4865301Y-8503150D01*
X4865301Y-8503150D02*
X4884349Y-8512674D01*
X4960539Y-8712674D02*
X4970063Y-8703150D01*
X4970063Y-8703150D02*
X4989111Y-8674579D01*
X4989111Y-8674579D02*
X4998634Y-8655531D01*
X4998634Y-8655531D02*
X5008158Y-8626960D01*
X5008158Y-8626960D02*
X5017682Y-8579341D01*
X5017682Y-8579341D02*
X5017682Y-8541246D01*
X5017682Y-8541246D02*
X5008158Y-8493627D01*
X5008158Y-8493627D02*
X4998634Y-8465055D01*
X4998634Y-8465055D02*
X4989111Y-8446008D01*
X4989111Y-8446008D02*
X4970063Y-8417436D01*
X4970063Y-8417436D02*
X4960539Y-8407912D01*
D13*
X-5000Y-8809000D02*
G75*
G03*
X-5000Y-8809000I-20000J0D01*
G01*
D11*
X293872Y-8700484D02*
X312920Y-8700484D01*
X312920Y-8700484D02*
X331967Y-8710008D01*
X331967Y-8710008D02*
X341491Y-8719531D01*
X341491Y-8719531D02*
X351015Y-8738579D01*
X351015Y-8738579D02*
X360539Y-8776674D01*
X360539Y-8776674D02*
X360539Y-8824293D01*
X360539Y-8824293D02*
X351015Y-8862389D01*
X351015Y-8862389D02*
X341491Y-8881436D01*
X341491Y-8881436D02*
X331967Y-8890960D01*
X331967Y-8890960D02*
X312920Y-8900484D01*
X312920Y-8900484D02*
X293872Y-8900484D01*
X293872Y-8900484D02*
X274824Y-8890960D01*
X274824Y-8890960D02*
X265301Y-8881436D01*
X265301Y-8881436D02*
X255777Y-8862389D01*
X255777Y-8862389D02*
X246253Y-8824293D01*
X246253Y-8824293D02*
X246253Y-8776674D01*
X246253Y-8776674D02*
X255777Y-8738579D01*
X255777Y-8738579D02*
X265301Y-8719531D01*
X265301Y-8719531D02*
X274824Y-8710008D01*
X274824Y-8710008D02*
X293872Y-8700484D01*
X446253Y-8881436D02*
X455777Y-8890960D01*
X455777Y-8890960D02*
X446253Y-8900484D01*
X446253Y-8900484D02*
X436729Y-8890960D01*
X436729Y-8890960D02*
X446253Y-8881436D01*
X446253Y-8881436D02*
X446253Y-8900484D01*
X627205Y-8767150D02*
X627205Y-8900484D01*
X579586Y-8690960D02*
X531967Y-8833817D01*
X531967Y-8833817D02*
X655777Y-8833817D01*
X770062Y-8700484D02*
X789110Y-8700484D01*
X789110Y-8700484D02*
X808158Y-8710008D01*
X808158Y-8710008D02*
X817682Y-8719531D01*
X817682Y-8719531D02*
X827205Y-8738579D01*
X827205Y-8738579D02*
X836729Y-8776674D01*
X836729Y-8776674D02*
X836729Y-8824293D01*
X836729Y-8824293D02*
X827205Y-8862389D01*
X827205Y-8862389D02*
X817682Y-8881436D01*
X817682Y-8881436D02*
X808158Y-8890960D01*
X808158Y-8890960D02*
X789110Y-8900484D01*
X789110Y-8900484D02*
X770062Y-8900484D01*
X770062Y-8900484D02*
X751015Y-8890960D01*
X751015Y-8890960D02*
X741491Y-8881436D01*
X741491Y-8881436D02*
X731967Y-8862389D01*
X731967Y-8862389D02*
X722443Y-8824293D01*
X722443Y-8824293D02*
X722443Y-8776674D01*
X722443Y-8776674D02*
X731967Y-8738579D01*
X731967Y-8738579D02*
X741491Y-8719531D01*
X741491Y-8719531D02*
X751015Y-8710008D01*
X751015Y-8710008D02*
X770062Y-8700484D01*
X960539Y-8700484D02*
X979586Y-8700484D01*
X979586Y-8700484D02*
X998634Y-8710008D01*
X998634Y-8710008D02*
X1008158Y-8719531D01*
X1008158Y-8719531D02*
X1017682Y-8738579D01*
X1017682Y-8738579D02*
X1027205Y-8776674D01*
X1027205Y-8776674D02*
X1027205Y-8824293D01*
X1027205Y-8824293D02*
X1017682Y-8862389D01*
X1017682Y-8862389D02*
X1008158Y-8881436D01*
X1008158Y-8881436D02*
X998634Y-8890960D01*
X998634Y-8890960D02*
X979586Y-8900484D01*
X979586Y-8900484D02*
X960539Y-8900484D01*
X960539Y-8900484D02*
X941491Y-8890960D01*
X941491Y-8890960D02*
X931967Y-8881436D01*
X931967Y-8881436D02*
X922443Y-8862389D01*
X922443Y-8862389D02*
X912920Y-8824293D01*
X912920Y-8824293D02*
X912920Y-8776674D01*
X912920Y-8776674D02*
X922443Y-8738579D01*
X922443Y-8738579D02*
X931967Y-8719531D01*
X931967Y-8719531D02*
X941491Y-8710008D01*
X941491Y-8710008D02*
X960539Y-8700484D01*
X1112920Y-8900484D02*
X1112920Y-8767150D01*
X1112920Y-8786198D02*
X1122444Y-8776674D01*
X1122444Y-8776674D02*
X1141491Y-8767150D01*
X1141491Y-8767150D02*
X1170063Y-8767150D01*
X1170063Y-8767150D02*
X1189110Y-8776674D01*
X1189110Y-8776674D02*
X1198634Y-8795722D01*
X1198634Y-8795722D02*
X1198634Y-8900484D01*
X1198634Y-8795722D02*
X1208158Y-8776674D01*
X1208158Y-8776674D02*
X1227205Y-8767150D01*
X1227205Y-8767150D02*
X1255777Y-8767150D01*
X1255777Y-8767150D02*
X1274825Y-8776674D01*
X1274825Y-8776674D02*
X1284348Y-8795722D01*
X1284348Y-8795722D02*
X1284348Y-8900484D01*
X1379586Y-8900484D02*
X1379586Y-8767150D01*
X1379586Y-8786198D02*
X1389110Y-8776674D01*
X1389110Y-8776674D02*
X1408158Y-8767150D01*
X1408158Y-8767150D02*
X1436729Y-8767150D01*
X1436729Y-8767150D02*
X1455777Y-8776674D01*
X1455777Y-8776674D02*
X1465301Y-8795722D01*
X1465301Y-8795722D02*
X1465301Y-8900484D01*
X1465301Y-8795722D02*
X1474824Y-8776674D01*
X1474824Y-8776674D02*
X1493872Y-8767150D01*
X1493872Y-8767150D02*
X1522443Y-8767150D01*
X1522443Y-8767150D02*
X1541491Y-8776674D01*
X1541491Y-8776674D02*
X1551015Y-8795722D01*
X1551015Y-8795722D02*
X1551015Y-8900484D01*
X1941491Y-8690960D02*
X1770063Y-8948103D01*
X2198634Y-8700484D02*
X2217682Y-8700484D01*
X2217682Y-8700484D02*
X2236729Y-8710008D01*
X2236729Y-8710008D02*
X2246253Y-8719531D01*
X2246253Y-8719531D02*
X2255777Y-8738579D01*
X2255777Y-8738579D02*
X2265301Y-8776674D01*
X2265301Y-8776674D02*
X2265301Y-8824293D01*
X2265301Y-8824293D02*
X2255777Y-8862389D01*
X2255777Y-8862389D02*
X2246253Y-8881436D01*
X2246253Y-8881436D02*
X2236729Y-8890960D01*
X2236729Y-8890960D02*
X2217682Y-8900484D01*
X2217682Y-8900484D02*
X2198634Y-8900484D01*
X2198634Y-8900484D02*
X2179587Y-8890960D01*
X2179587Y-8890960D02*
X2170063Y-8881436D01*
X2170063Y-8881436D02*
X2160539Y-8862389D01*
X2160539Y-8862389D02*
X2151015Y-8824293D01*
X2151015Y-8824293D02*
X2151015Y-8776674D01*
X2151015Y-8776674D02*
X2160539Y-8738579D01*
X2160539Y-8738579D02*
X2170063Y-8719531D01*
X2170063Y-8719531D02*
X2179587Y-8710008D01*
X2179587Y-8710008D02*
X2198634Y-8700484D01*
X2351015Y-8881436D02*
X2360539Y-8890960D01*
X2360539Y-8890960D02*
X2351015Y-8900484D01*
X2351015Y-8900484D02*
X2341491Y-8890960D01*
X2341491Y-8890960D02*
X2351015Y-8881436D01*
X2351015Y-8881436D02*
X2351015Y-8900484D01*
X2484348Y-8700484D02*
X2503396Y-8700484D01*
X2503396Y-8700484D02*
X2522444Y-8710008D01*
X2522444Y-8710008D02*
X2531968Y-8719531D01*
X2531968Y-8719531D02*
X2541491Y-8738579D01*
X2541491Y-8738579D02*
X2551015Y-8776674D01*
X2551015Y-8776674D02*
X2551015Y-8824293D01*
X2551015Y-8824293D02*
X2541491Y-8862389D01*
X2541491Y-8862389D02*
X2531968Y-8881436D01*
X2531968Y-8881436D02*
X2522444Y-8890960D01*
X2522444Y-8890960D02*
X2503396Y-8900484D01*
X2503396Y-8900484D02*
X2484348Y-8900484D01*
X2484348Y-8900484D02*
X2465301Y-8890960D01*
X2465301Y-8890960D02*
X2455777Y-8881436D01*
X2455777Y-8881436D02*
X2446253Y-8862389D01*
X2446253Y-8862389D02*
X2436729Y-8824293D01*
X2436729Y-8824293D02*
X2436729Y-8776674D01*
X2436729Y-8776674D02*
X2446253Y-8738579D01*
X2446253Y-8738579D02*
X2455777Y-8719531D01*
X2455777Y-8719531D02*
X2465301Y-8710008D01*
X2465301Y-8710008D02*
X2484348Y-8700484D01*
X2741491Y-8900484D02*
X2627206Y-8900484D01*
X2684348Y-8900484D02*
X2684348Y-8700484D01*
X2684348Y-8700484D02*
X2665301Y-8729055D01*
X2665301Y-8729055D02*
X2646253Y-8748103D01*
X2646253Y-8748103D02*
X2627206Y-8757627D01*
X2922444Y-8700484D02*
X2827206Y-8700484D01*
X2827206Y-8700484D02*
X2817682Y-8795722D01*
X2817682Y-8795722D02*
X2827206Y-8786198D01*
X2827206Y-8786198D02*
X2846253Y-8776674D01*
X2846253Y-8776674D02*
X2893872Y-8776674D01*
X2893872Y-8776674D02*
X2912920Y-8786198D01*
X2912920Y-8786198D02*
X2922444Y-8795722D01*
X2922444Y-8795722D02*
X2931967Y-8814770D01*
X2931967Y-8814770D02*
X2931967Y-8862389D01*
X2931967Y-8862389D02*
X2922444Y-8881436D01*
X2922444Y-8881436D02*
X2912920Y-8890960D01*
X2912920Y-8890960D02*
X2893872Y-8900484D01*
X2893872Y-8900484D02*
X2846253Y-8900484D01*
X2846253Y-8900484D02*
X2827206Y-8890960D01*
X2827206Y-8890960D02*
X2817682Y-8881436D01*
X2998634Y-8700484D02*
X3131967Y-8700484D01*
X3131967Y-8700484D02*
X3046253Y-8900484D01*
X3198634Y-8700484D02*
X3198634Y-8738579D01*
X3274825Y-8700484D02*
X3274825Y-8738579D01*
X3570063Y-8976674D02*
X3560539Y-8967150D01*
X3560539Y-8967150D02*
X3541491Y-8938579D01*
X3541491Y-8938579D02*
X3531968Y-8919531D01*
X3531968Y-8919531D02*
X3522444Y-8890960D01*
X3522444Y-8890960D02*
X3512920Y-8843341D01*
X3512920Y-8843341D02*
X3512920Y-8805246D01*
X3512920Y-8805246D02*
X3522444Y-8757627D01*
X3522444Y-8757627D02*
X3531968Y-8729055D01*
X3531968Y-8729055D02*
X3541491Y-8710008D01*
X3541491Y-8710008D02*
X3560539Y-8681436D01*
X3560539Y-8681436D02*
X3570063Y-8671912D01*
X3751015Y-8900484D02*
X3636729Y-8900484D01*
X3693872Y-8900484D02*
X3693872Y-8700484D01*
X3693872Y-8700484D02*
X3674825Y-8729055D01*
X3674825Y-8729055D02*
X3655777Y-8748103D01*
X3655777Y-8748103D02*
X3636729Y-8757627D01*
X3989110Y-8900484D02*
X3989110Y-8700484D01*
X4074825Y-8900484D02*
X4074825Y-8795722D01*
X4074825Y-8795722D02*
X4065301Y-8776674D01*
X4065301Y-8776674D02*
X4046253Y-8767150D01*
X4046253Y-8767150D02*
X4017682Y-8767150D01*
X4017682Y-8767150D02*
X3998634Y-8776674D01*
X3998634Y-8776674D02*
X3989110Y-8786198D01*
X4198634Y-8900484D02*
X4179587Y-8890960D01*
X4179587Y-8890960D02*
X4170063Y-8881436D01*
X4170063Y-8881436D02*
X4160539Y-8862389D01*
X4160539Y-8862389D02*
X4160539Y-8805246D01*
X4160539Y-8805246D02*
X4170063Y-8786198D01*
X4170063Y-8786198D02*
X4179587Y-8776674D01*
X4179587Y-8776674D02*
X4198634Y-8767150D01*
X4198634Y-8767150D02*
X4227206Y-8767150D01*
X4227206Y-8767150D02*
X4246253Y-8776674D01*
X4246253Y-8776674D02*
X4255777Y-8786198D01*
X4255777Y-8786198D02*
X4265301Y-8805246D01*
X4265301Y-8805246D02*
X4265301Y-8862389D01*
X4265301Y-8862389D02*
X4255777Y-8881436D01*
X4255777Y-8881436D02*
X4246253Y-8890960D01*
X4246253Y-8890960D02*
X4227206Y-8900484D01*
X4227206Y-8900484D02*
X4198634Y-8900484D01*
X4379587Y-8900484D02*
X4360539Y-8890960D01*
X4360539Y-8890960D02*
X4351015Y-8871912D01*
X4351015Y-8871912D02*
X4351015Y-8700484D01*
X4531968Y-8890960D02*
X4512920Y-8900484D01*
X4512920Y-8900484D02*
X4474825Y-8900484D01*
X4474825Y-8900484D02*
X4455777Y-8890960D01*
X4455777Y-8890960D02*
X4446253Y-8871912D01*
X4446253Y-8871912D02*
X4446253Y-8795722D01*
X4446253Y-8795722D02*
X4455777Y-8776674D01*
X4455777Y-8776674D02*
X4474825Y-8767150D01*
X4474825Y-8767150D02*
X4512920Y-8767150D01*
X4512920Y-8767150D02*
X4531968Y-8776674D01*
X4531968Y-8776674D02*
X4541492Y-8795722D01*
X4541492Y-8795722D02*
X4541492Y-8814770D01*
X4541492Y-8814770D02*
X4446253Y-8833817D01*
X4608158Y-8976674D02*
X4617682Y-8967150D01*
X4617682Y-8967150D02*
X4636730Y-8938579D01*
X4636730Y-8938579D02*
X4646253Y-8919531D01*
X4646253Y-8919531D02*
X4655777Y-8890960D01*
X4655777Y-8890960D02*
X4665301Y-8843341D01*
X4665301Y-8843341D02*
X4665301Y-8805246D01*
X4665301Y-8805246D02*
X4655777Y-8757627D01*
X4655777Y-8757627D02*
X4646253Y-8729055D01*
X4646253Y-8729055D02*
X4636730Y-8710008D01*
X4636730Y-8710008D02*
X4617682Y-8681436D01*
X4617682Y-8681436D02*
X4608158Y-8671912D01*
D14*
X-30000Y-9048000D02*
X-30000Y-9098000D01*
X-55000Y-9073000D02*
X-5000Y-9073000D01*
D11*
X293872Y-8964484D02*
X312920Y-8964484D01*
X312920Y-8964484D02*
X331967Y-8974008D01*
X331967Y-8974008D02*
X341491Y-8983531D01*
X341491Y-8983531D02*
X351015Y-9002579D01*
X351015Y-9002579D02*
X360539Y-9040674D01*
X360539Y-9040674D02*
X360539Y-9088293D01*
X360539Y-9088293D02*
X351015Y-9126389D01*
X351015Y-9126389D02*
X341491Y-9145436D01*
X341491Y-9145436D02*
X331967Y-9154960D01*
X331967Y-9154960D02*
X312920Y-9164484D01*
X312920Y-9164484D02*
X293872Y-9164484D01*
X293872Y-9164484D02*
X274824Y-9154960D01*
X274824Y-9154960D02*
X265301Y-9145436D01*
X265301Y-9145436D02*
X255777Y-9126389D01*
X255777Y-9126389D02*
X246253Y-9088293D01*
X246253Y-9088293D02*
X246253Y-9040674D01*
X246253Y-9040674D02*
X255777Y-9002579D01*
X255777Y-9002579D02*
X265301Y-8983531D01*
X265301Y-8983531D02*
X274824Y-8974008D01*
X274824Y-8974008D02*
X293872Y-8964484D01*
X446253Y-9145436D02*
X455777Y-9154960D01*
X455777Y-9154960D02*
X446253Y-9164484D01*
X446253Y-9164484D02*
X436729Y-9154960D01*
X436729Y-9154960D02*
X446253Y-9145436D01*
X446253Y-9145436D02*
X446253Y-9164484D01*
X636729Y-8964484D02*
X541491Y-8964484D01*
X541491Y-8964484D02*
X531967Y-9059722D01*
X531967Y-9059722D02*
X541491Y-9050198D01*
X541491Y-9050198D02*
X560539Y-9040674D01*
X560539Y-9040674D02*
X608158Y-9040674D01*
X608158Y-9040674D02*
X627205Y-9050198D01*
X627205Y-9050198D02*
X636729Y-9059722D01*
X636729Y-9059722D02*
X646253Y-9078770D01*
X646253Y-9078770D02*
X646253Y-9126389D01*
X646253Y-9126389D02*
X636729Y-9145436D01*
X636729Y-9145436D02*
X627205Y-9154960D01*
X627205Y-9154960D02*
X608158Y-9164484D01*
X608158Y-9164484D02*
X560539Y-9164484D01*
X560539Y-9164484D02*
X541491Y-9154960D01*
X541491Y-9154960D02*
X531967Y-9145436D01*
X770062Y-8964484D02*
X789110Y-8964484D01*
X789110Y-8964484D02*
X808158Y-8974008D01*
X808158Y-8974008D02*
X817682Y-8983531D01*
X817682Y-8983531D02*
X827205Y-9002579D01*
X827205Y-9002579D02*
X836729Y-9040674D01*
X836729Y-9040674D02*
X836729Y-9088293D01*
X836729Y-9088293D02*
X827205Y-9126389D01*
X827205Y-9126389D02*
X817682Y-9145436D01*
X817682Y-9145436D02*
X808158Y-9154960D01*
X808158Y-9154960D02*
X789110Y-9164484D01*
X789110Y-9164484D02*
X770062Y-9164484D01*
X770062Y-9164484D02*
X751015Y-9154960D01*
X751015Y-9154960D02*
X741491Y-9145436D01*
X741491Y-9145436D02*
X731967Y-9126389D01*
X731967Y-9126389D02*
X722443Y-9088293D01*
X722443Y-9088293D02*
X722443Y-9040674D01*
X722443Y-9040674D02*
X731967Y-9002579D01*
X731967Y-9002579D02*
X741491Y-8983531D01*
X741491Y-8983531D02*
X751015Y-8974008D01*
X751015Y-8974008D02*
X770062Y-8964484D01*
X960539Y-8964484D02*
X979586Y-8964484D01*
X979586Y-8964484D02*
X998634Y-8974008D01*
X998634Y-8974008D02*
X1008158Y-8983531D01*
X1008158Y-8983531D02*
X1017682Y-9002579D01*
X1017682Y-9002579D02*
X1027205Y-9040674D01*
X1027205Y-9040674D02*
X1027205Y-9088293D01*
X1027205Y-9088293D02*
X1017682Y-9126389D01*
X1017682Y-9126389D02*
X1008158Y-9145436D01*
X1008158Y-9145436D02*
X998634Y-9154960D01*
X998634Y-9154960D02*
X979586Y-9164484D01*
X979586Y-9164484D02*
X960539Y-9164484D01*
X960539Y-9164484D02*
X941491Y-9154960D01*
X941491Y-9154960D02*
X931967Y-9145436D01*
X931967Y-9145436D02*
X922443Y-9126389D01*
X922443Y-9126389D02*
X912920Y-9088293D01*
X912920Y-9088293D02*
X912920Y-9040674D01*
X912920Y-9040674D02*
X922443Y-9002579D01*
X922443Y-9002579D02*
X931967Y-8983531D01*
X931967Y-8983531D02*
X941491Y-8974008D01*
X941491Y-8974008D02*
X960539Y-8964484D01*
X1112920Y-9164484D02*
X1112920Y-9031150D01*
X1112920Y-9050198D02*
X1122444Y-9040674D01*
X1122444Y-9040674D02*
X1141491Y-9031150D01*
X1141491Y-9031150D02*
X1170063Y-9031150D01*
X1170063Y-9031150D02*
X1189110Y-9040674D01*
X1189110Y-9040674D02*
X1198634Y-9059722D01*
X1198634Y-9059722D02*
X1198634Y-9164484D01*
X1198634Y-9059722D02*
X1208158Y-9040674D01*
X1208158Y-9040674D02*
X1227205Y-9031150D01*
X1227205Y-9031150D02*
X1255777Y-9031150D01*
X1255777Y-9031150D02*
X1274825Y-9040674D01*
X1274825Y-9040674D02*
X1284348Y-9059722D01*
X1284348Y-9059722D02*
X1284348Y-9164484D01*
X1379586Y-9164484D02*
X1379586Y-9031150D01*
X1379586Y-9050198D02*
X1389110Y-9040674D01*
X1389110Y-9040674D02*
X1408158Y-9031150D01*
X1408158Y-9031150D02*
X1436729Y-9031150D01*
X1436729Y-9031150D02*
X1455777Y-9040674D01*
X1455777Y-9040674D02*
X1465301Y-9059722D01*
X1465301Y-9059722D02*
X1465301Y-9164484D01*
X1465301Y-9059722D02*
X1474824Y-9040674D01*
X1474824Y-9040674D02*
X1493872Y-9031150D01*
X1493872Y-9031150D02*
X1522443Y-9031150D01*
X1522443Y-9031150D02*
X1541491Y-9040674D01*
X1541491Y-9040674D02*
X1551015Y-9059722D01*
X1551015Y-9059722D02*
X1551015Y-9164484D01*
X1941491Y-8954960D02*
X1770063Y-9212103D01*
X2198634Y-8964484D02*
X2217682Y-8964484D01*
X2217682Y-8964484D02*
X2236729Y-8974008D01*
X2236729Y-8974008D02*
X2246253Y-8983531D01*
X2246253Y-8983531D02*
X2255777Y-9002579D01*
X2255777Y-9002579D02*
X2265301Y-9040674D01*
X2265301Y-9040674D02*
X2265301Y-9088293D01*
X2265301Y-9088293D02*
X2255777Y-9126389D01*
X2255777Y-9126389D02*
X2246253Y-9145436D01*
X2246253Y-9145436D02*
X2236729Y-9154960D01*
X2236729Y-9154960D02*
X2217682Y-9164484D01*
X2217682Y-9164484D02*
X2198634Y-9164484D01*
X2198634Y-9164484D02*
X2179587Y-9154960D01*
X2179587Y-9154960D02*
X2170063Y-9145436D01*
X2170063Y-9145436D02*
X2160539Y-9126389D01*
X2160539Y-9126389D02*
X2151015Y-9088293D01*
X2151015Y-9088293D02*
X2151015Y-9040674D01*
X2151015Y-9040674D02*
X2160539Y-9002579D01*
X2160539Y-9002579D02*
X2170063Y-8983531D01*
X2170063Y-8983531D02*
X2179587Y-8974008D01*
X2179587Y-8974008D02*
X2198634Y-8964484D01*
X2351015Y-9145436D02*
X2360539Y-9154960D01*
X2360539Y-9154960D02*
X2351015Y-9164484D01*
X2351015Y-9164484D02*
X2341491Y-9154960D01*
X2341491Y-9154960D02*
X2351015Y-9145436D01*
X2351015Y-9145436D02*
X2351015Y-9164484D01*
X2484348Y-8964484D02*
X2503396Y-8964484D01*
X2503396Y-8964484D02*
X2522444Y-8974008D01*
X2522444Y-8974008D02*
X2531968Y-8983531D01*
X2531968Y-8983531D02*
X2541491Y-9002579D01*
X2541491Y-9002579D02*
X2551015Y-9040674D01*
X2551015Y-9040674D02*
X2551015Y-9088293D01*
X2551015Y-9088293D02*
X2541491Y-9126389D01*
X2541491Y-9126389D02*
X2531968Y-9145436D01*
X2531968Y-9145436D02*
X2522444Y-9154960D01*
X2522444Y-9154960D02*
X2503396Y-9164484D01*
X2503396Y-9164484D02*
X2484348Y-9164484D01*
X2484348Y-9164484D02*
X2465301Y-9154960D01*
X2465301Y-9154960D02*
X2455777Y-9145436D01*
X2455777Y-9145436D02*
X2446253Y-9126389D01*
X2446253Y-9126389D02*
X2436729Y-9088293D01*
X2436729Y-9088293D02*
X2436729Y-9040674D01*
X2436729Y-9040674D02*
X2446253Y-9002579D01*
X2446253Y-9002579D02*
X2455777Y-8983531D01*
X2455777Y-8983531D02*
X2465301Y-8974008D01*
X2465301Y-8974008D02*
X2484348Y-8964484D01*
X2741491Y-9164484D02*
X2627206Y-9164484D01*
X2684348Y-9164484D02*
X2684348Y-8964484D01*
X2684348Y-8964484D02*
X2665301Y-8993055D01*
X2665301Y-8993055D02*
X2646253Y-9012103D01*
X2646253Y-9012103D02*
X2627206Y-9021627D01*
X2836729Y-9164484D02*
X2874825Y-9164484D01*
X2874825Y-9164484D02*
X2893872Y-9154960D01*
X2893872Y-9154960D02*
X2903396Y-9145436D01*
X2903396Y-9145436D02*
X2922444Y-9116865D01*
X2922444Y-9116865D02*
X2931967Y-9078770D01*
X2931967Y-9078770D02*
X2931967Y-9002579D01*
X2931967Y-9002579D02*
X2922444Y-8983531D01*
X2922444Y-8983531D02*
X2912920Y-8974008D01*
X2912920Y-8974008D02*
X2893872Y-8964484D01*
X2893872Y-8964484D02*
X2855777Y-8964484D01*
X2855777Y-8964484D02*
X2836729Y-8974008D01*
X2836729Y-8974008D02*
X2827206Y-8983531D01*
X2827206Y-8983531D02*
X2817682Y-9002579D01*
X2817682Y-9002579D02*
X2817682Y-9050198D01*
X2817682Y-9050198D02*
X2827206Y-9069246D01*
X2827206Y-9069246D02*
X2836729Y-9078770D01*
X2836729Y-9078770D02*
X2855777Y-9088293D01*
X2855777Y-9088293D02*
X2893872Y-9088293D01*
X2893872Y-9088293D02*
X2912920Y-9078770D01*
X2912920Y-9078770D02*
X2922444Y-9069246D01*
X2922444Y-9069246D02*
X2931967Y-9050198D01*
X2998634Y-8964484D02*
X3131967Y-8964484D01*
X3131967Y-8964484D02*
X3046253Y-9164484D01*
X3198634Y-8964484D02*
X3198634Y-9002579D01*
X3274825Y-8964484D02*
X3274825Y-9002579D01*
X3570063Y-9240674D02*
X3560539Y-9231150D01*
X3560539Y-9231150D02*
X3541491Y-9202579D01*
X3541491Y-9202579D02*
X3531968Y-9183531D01*
X3531968Y-9183531D02*
X3522444Y-9154960D01*
X3522444Y-9154960D02*
X3512920Y-9107341D01*
X3512920Y-9107341D02*
X3512920Y-9069246D01*
X3512920Y-9069246D02*
X3522444Y-9021627D01*
X3522444Y-9021627D02*
X3531968Y-8993055D01*
X3531968Y-8993055D02*
X3541491Y-8974008D01*
X3541491Y-8974008D02*
X3560539Y-8945436D01*
X3560539Y-8945436D02*
X3570063Y-8935912D01*
X3636729Y-8983531D02*
X3646253Y-8974008D01*
X3646253Y-8974008D02*
X3665301Y-8964484D01*
X3665301Y-8964484D02*
X3712920Y-8964484D01*
X3712920Y-8964484D02*
X3731968Y-8974008D01*
X3731968Y-8974008D02*
X3741491Y-8983531D01*
X3741491Y-8983531D02*
X3751015Y-9002579D01*
X3751015Y-9002579D02*
X3751015Y-9021627D01*
X3751015Y-9021627D02*
X3741491Y-9050198D01*
X3741491Y-9050198D02*
X3627206Y-9164484D01*
X3627206Y-9164484D02*
X3751015Y-9164484D01*
X3989110Y-9164484D02*
X3989110Y-8964484D01*
X4074825Y-9164484D02*
X4074825Y-9059722D01*
X4074825Y-9059722D02*
X4065301Y-9040674D01*
X4065301Y-9040674D02*
X4046253Y-9031150D01*
X4046253Y-9031150D02*
X4017682Y-9031150D01*
X4017682Y-9031150D02*
X3998634Y-9040674D01*
X3998634Y-9040674D02*
X3989110Y-9050198D01*
X4198634Y-9164484D02*
X4179587Y-9154960D01*
X4179587Y-9154960D02*
X4170063Y-9145436D01*
X4170063Y-9145436D02*
X4160539Y-9126389D01*
X4160539Y-9126389D02*
X4160539Y-9069246D01*
X4160539Y-9069246D02*
X4170063Y-9050198D01*
X4170063Y-9050198D02*
X4179587Y-9040674D01*
X4179587Y-9040674D02*
X4198634Y-9031150D01*
X4198634Y-9031150D02*
X4227206Y-9031150D01*
X4227206Y-9031150D02*
X4246253Y-9040674D01*
X4246253Y-9040674D02*
X4255777Y-9050198D01*
X4255777Y-9050198D02*
X4265301Y-9069246D01*
X4265301Y-9069246D02*
X4265301Y-9126389D01*
X4265301Y-9126389D02*
X4255777Y-9145436D01*
X4255777Y-9145436D02*
X4246253Y-9154960D01*
X4246253Y-9154960D02*
X4227206Y-9164484D01*
X4227206Y-9164484D02*
X4198634Y-9164484D01*
X4379587Y-9164484D02*
X4360539Y-9154960D01*
X4360539Y-9154960D02*
X4351015Y-9135912D01*
X4351015Y-9135912D02*
X4351015Y-8964484D01*
X4531968Y-9154960D02*
X4512920Y-9164484D01*
X4512920Y-9164484D02*
X4474825Y-9164484D01*
X4474825Y-9164484D02*
X4455777Y-9154960D01*
X4455777Y-9154960D02*
X4446253Y-9135912D01*
X4446253Y-9135912D02*
X4446253Y-9059722D01*
X4446253Y-9059722D02*
X4455777Y-9040674D01*
X4455777Y-9040674D02*
X4474825Y-9031150D01*
X4474825Y-9031150D02*
X4512920Y-9031150D01*
X4512920Y-9031150D02*
X4531968Y-9040674D01*
X4531968Y-9040674D02*
X4541492Y-9059722D01*
X4541492Y-9059722D02*
X4541492Y-9078770D01*
X4541492Y-9078770D02*
X4446253Y-9097817D01*
X4617682Y-9154960D02*
X4636730Y-9164484D01*
X4636730Y-9164484D02*
X4674825Y-9164484D01*
X4674825Y-9164484D02*
X4693873Y-9154960D01*
X4693873Y-9154960D02*
X4703396Y-9135912D01*
X4703396Y-9135912D02*
X4703396Y-9126389D01*
X4703396Y-9126389D02*
X4693873Y-9107341D01*
X4693873Y-9107341D02*
X4674825Y-9097817D01*
X4674825Y-9097817D02*
X4646253Y-9097817D01*
X4646253Y-9097817D02*
X4627206Y-9088293D01*
X4627206Y-9088293D02*
X4617682Y-9069246D01*
X4617682Y-9069246D02*
X4617682Y-9059722D01*
X4617682Y-9059722D02*
X4627206Y-9040674D01*
X4627206Y-9040674D02*
X4646253Y-9031150D01*
X4646253Y-9031150D02*
X4674825Y-9031150D01*
X4674825Y-9031150D02*
X4693873Y-9040674D01*
X4770063Y-9240674D02*
X4779587Y-9231150D01*
X4779587Y-9231150D02*
X4798634Y-9202579D01*
X4798634Y-9202579D02*
X4808158Y-9183531D01*
X4808158Y-9183531D02*
X4817682Y-9154960D01*
X4817682Y-9154960D02*
X4827206Y-9107341D01*
X4827206Y-9107341D02*
X4827206Y-9069246D01*
X4827206Y-9069246D02*
X4817682Y-9021627D01*
X4817682Y-9021627D02*
X4808158Y-8993055D01*
X4808158Y-8993055D02*
X4798634Y-8974008D01*
X4798634Y-8974008D02*
X4779587Y-8945436D01*
X4779587Y-8945436D02*
X4770063Y-8935912D01*
D14*
X-12322Y-9354678D02*
X-12322Y-9319322D01*
X-47678Y-9319322D01*
X-47678Y-9354678D01*
X-12322Y-9354678D01*
D11*
X293872Y-9228484D02*
X312920Y-9228484D01*
X312920Y-9228484D02*
X331967Y-9238008D01*
X331967Y-9238008D02*
X341491Y-9247531D01*
X341491Y-9247531D02*
X351015Y-9266579D01*
X351015Y-9266579D02*
X360539Y-9304674D01*
X360539Y-9304674D02*
X360539Y-9352293D01*
X360539Y-9352293D02*
X351015Y-9390389D01*
X351015Y-9390389D02*
X341491Y-9409436D01*
X341491Y-9409436D02*
X331967Y-9418960D01*
X331967Y-9418960D02*
X312920Y-9428484D01*
X312920Y-9428484D02*
X293872Y-9428484D01*
X293872Y-9428484D02*
X274824Y-9418960D01*
X274824Y-9418960D02*
X265301Y-9409436D01*
X265301Y-9409436D02*
X255777Y-9390389D01*
X255777Y-9390389D02*
X246253Y-9352293D01*
X246253Y-9352293D02*
X246253Y-9304674D01*
X246253Y-9304674D02*
X255777Y-9266579D01*
X255777Y-9266579D02*
X265301Y-9247531D01*
X265301Y-9247531D02*
X274824Y-9238008D01*
X274824Y-9238008D02*
X293872Y-9228484D01*
X446253Y-9409436D02*
X455777Y-9418960D01*
X455777Y-9418960D02*
X446253Y-9428484D01*
X446253Y-9428484D02*
X436729Y-9418960D01*
X436729Y-9418960D02*
X446253Y-9409436D01*
X446253Y-9409436D02*
X446253Y-9428484D01*
X636729Y-9228484D02*
X541491Y-9228484D01*
X541491Y-9228484D02*
X531967Y-9323722D01*
X531967Y-9323722D02*
X541491Y-9314198D01*
X541491Y-9314198D02*
X560539Y-9304674D01*
X560539Y-9304674D02*
X608158Y-9304674D01*
X608158Y-9304674D02*
X627205Y-9314198D01*
X627205Y-9314198D02*
X636729Y-9323722D01*
X636729Y-9323722D02*
X646253Y-9342770D01*
X646253Y-9342770D02*
X646253Y-9390389D01*
X646253Y-9390389D02*
X636729Y-9409436D01*
X636729Y-9409436D02*
X627205Y-9418960D01*
X627205Y-9418960D02*
X608158Y-9428484D01*
X608158Y-9428484D02*
X560539Y-9428484D01*
X560539Y-9428484D02*
X541491Y-9418960D01*
X541491Y-9418960D02*
X531967Y-9409436D01*
X770062Y-9228484D02*
X789110Y-9228484D01*
X789110Y-9228484D02*
X808158Y-9238008D01*
X808158Y-9238008D02*
X817682Y-9247531D01*
X817682Y-9247531D02*
X827205Y-9266579D01*
X827205Y-9266579D02*
X836729Y-9304674D01*
X836729Y-9304674D02*
X836729Y-9352293D01*
X836729Y-9352293D02*
X827205Y-9390389D01*
X827205Y-9390389D02*
X817682Y-9409436D01*
X817682Y-9409436D02*
X808158Y-9418960D01*
X808158Y-9418960D02*
X789110Y-9428484D01*
X789110Y-9428484D02*
X770062Y-9428484D01*
X770062Y-9428484D02*
X751015Y-9418960D01*
X751015Y-9418960D02*
X741491Y-9409436D01*
X741491Y-9409436D02*
X731967Y-9390389D01*
X731967Y-9390389D02*
X722443Y-9352293D01*
X722443Y-9352293D02*
X722443Y-9304674D01*
X722443Y-9304674D02*
X731967Y-9266579D01*
X731967Y-9266579D02*
X741491Y-9247531D01*
X741491Y-9247531D02*
X751015Y-9238008D01*
X751015Y-9238008D02*
X770062Y-9228484D01*
X960539Y-9228484D02*
X979586Y-9228484D01*
X979586Y-9228484D02*
X998634Y-9238008D01*
X998634Y-9238008D02*
X1008158Y-9247531D01*
X1008158Y-9247531D02*
X1017682Y-9266579D01*
X1017682Y-9266579D02*
X1027205Y-9304674D01*
X1027205Y-9304674D02*
X1027205Y-9352293D01*
X1027205Y-9352293D02*
X1017682Y-9390389D01*
X1017682Y-9390389D02*
X1008158Y-9409436D01*
X1008158Y-9409436D02*
X998634Y-9418960D01*
X998634Y-9418960D02*
X979586Y-9428484D01*
X979586Y-9428484D02*
X960539Y-9428484D01*
X960539Y-9428484D02*
X941491Y-9418960D01*
X941491Y-9418960D02*
X931967Y-9409436D01*
X931967Y-9409436D02*
X922443Y-9390389D01*
X922443Y-9390389D02*
X912920Y-9352293D01*
X912920Y-9352293D02*
X912920Y-9304674D01*
X912920Y-9304674D02*
X922443Y-9266579D01*
X922443Y-9266579D02*
X931967Y-9247531D01*
X931967Y-9247531D02*
X941491Y-9238008D01*
X941491Y-9238008D02*
X960539Y-9228484D01*
X1112920Y-9428484D02*
X1112920Y-9295150D01*
X1112920Y-9314198D02*
X1122444Y-9304674D01*
X1122444Y-9304674D02*
X1141491Y-9295150D01*
X1141491Y-9295150D02*
X1170063Y-9295150D01*
X1170063Y-9295150D02*
X1189110Y-9304674D01*
X1189110Y-9304674D02*
X1198634Y-9323722D01*
X1198634Y-9323722D02*
X1198634Y-9428484D01*
X1198634Y-9323722D02*
X1208158Y-9304674D01*
X1208158Y-9304674D02*
X1227205Y-9295150D01*
X1227205Y-9295150D02*
X1255777Y-9295150D01*
X1255777Y-9295150D02*
X1274825Y-9304674D01*
X1274825Y-9304674D02*
X1284348Y-9323722D01*
X1284348Y-9323722D02*
X1284348Y-9428484D01*
X1379586Y-9428484D02*
X1379586Y-9295150D01*
X1379586Y-9314198D02*
X1389110Y-9304674D01*
X1389110Y-9304674D02*
X1408158Y-9295150D01*
X1408158Y-9295150D02*
X1436729Y-9295150D01*
X1436729Y-9295150D02*
X1455777Y-9304674D01*
X1455777Y-9304674D02*
X1465301Y-9323722D01*
X1465301Y-9323722D02*
X1465301Y-9428484D01*
X1465301Y-9323722D02*
X1474824Y-9304674D01*
X1474824Y-9304674D02*
X1493872Y-9295150D01*
X1493872Y-9295150D02*
X1522443Y-9295150D01*
X1522443Y-9295150D02*
X1541491Y-9304674D01*
X1541491Y-9304674D02*
X1551015Y-9323722D01*
X1551015Y-9323722D02*
X1551015Y-9428484D01*
X1941491Y-9218960D02*
X1770063Y-9476103D01*
X2198634Y-9228484D02*
X2217682Y-9228484D01*
X2217682Y-9228484D02*
X2236729Y-9238008D01*
X2236729Y-9238008D02*
X2246253Y-9247531D01*
X2246253Y-9247531D02*
X2255777Y-9266579D01*
X2255777Y-9266579D02*
X2265301Y-9304674D01*
X2265301Y-9304674D02*
X2265301Y-9352293D01*
X2265301Y-9352293D02*
X2255777Y-9390389D01*
X2255777Y-9390389D02*
X2246253Y-9409436D01*
X2246253Y-9409436D02*
X2236729Y-9418960D01*
X2236729Y-9418960D02*
X2217682Y-9428484D01*
X2217682Y-9428484D02*
X2198634Y-9428484D01*
X2198634Y-9428484D02*
X2179587Y-9418960D01*
X2179587Y-9418960D02*
X2170063Y-9409436D01*
X2170063Y-9409436D02*
X2160539Y-9390389D01*
X2160539Y-9390389D02*
X2151015Y-9352293D01*
X2151015Y-9352293D02*
X2151015Y-9304674D01*
X2151015Y-9304674D02*
X2160539Y-9266579D01*
X2160539Y-9266579D02*
X2170063Y-9247531D01*
X2170063Y-9247531D02*
X2179587Y-9238008D01*
X2179587Y-9238008D02*
X2198634Y-9228484D01*
X2351015Y-9409436D02*
X2360539Y-9418960D01*
X2360539Y-9418960D02*
X2351015Y-9428484D01*
X2351015Y-9428484D02*
X2341491Y-9418960D01*
X2341491Y-9418960D02*
X2351015Y-9409436D01*
X2351015Y-9409436D02*
X2351015Y-9428484D01*
X2484348Y-9228484D02*
X2503396Y-9228484D01*
X2503396Y-9228484D02*
X2522444Y-9238008D01*
X2522444Y-9238008D02*
X2531968Y-9247531D01*
X2531968Y-9247531D02*
X2541491Y-9266579D01*
X2541491Y-9266579D02*
X2551015Y-9304674D01*
X2551015Y-9304674D02*
X2551015Y-9352293D01*
X2551015Y-9352293D02*
X2541491Y-9390389D01*
X2541491Y-9390389D02*
X2531968Y-9409436D01*
X2531968Y-9409436D02*
X2522444Y-9418960D01*
X2522444Y-9418960D02*
X2503396Y-9428484D01*
X2503396Y-9428484D02*
X2484348Y-9428484D01*
X2484348Y-9428484D02*
X2465301Y-9418960D01*
X2465301Y-9418960D02*
X2455777Y-9409436D01*
X2455777Y-9409436D02*
X2446253Y-9390389D01*
X2446253Y-9390389D02*
X2436729Y-9352293D01*
X2436729Y-9352293D02*
X2436729Y-9304674D01*
X2436729Y-9304674D02*
X2446253Y-9266579D01*
X2446253Y-9266579D02*
X2455777Y-9247531D01*
X2455777Y-9247531D02*
X2465301Y-9238008D01*
X2465301Y-9238008D02*
X2484348Y-9228484D01*
X2741491Y-9428484D02*
X2627206Y-9428484D01*
X2684348Y-9428484D02*
X2684348Y-9228484D01*
X2684348Y-9228484D02*
X2665301Y-9257055D01*
X2665301Y-9257055D02*
X2646253Y-9276103D01*
X2646253Y-9276103D02*
X2627206Y-9285627D01*
X2836729Y-9428484D02*
X2874825Y-9428484D01*
X2874825Y-9428484D02*
X2893872Y-9418960D01*
X2893872Y-9418960D02*
X2903396Y-9409436D01*
X2903396Y-9409436D02*
X2922444Y-9380865D01*
X2922444Y-9380865D02*
X2931967Y-9342770D01*
X2931967Y-9342770D02*
X2931967Y-9266579D01*
X2931967Y-9266579D02*
X2922444Y-9247531D01*
X2922444Y-9247531D02*
X2912920Y-9238008D01*
X2912920Y-9238008D02*
X2893872Y-9228484D01*
X2893872Y-9228484D02*
X2855777Y-9228484D01*
X2855777Y-9228484D02*
X2836729Y-9238008D01*
X2836729Y-9238008D02*
X2827206Y-9247531D01*
X2827206Y-9247531D02*
X2817682Y-9266579D01*
X2817682Y-9266579D02*
X2817682Y-9314198D01*
X2817682Y-9314198D02*
X2827206Y-9333246D01*
X2827206Y-9333246D02*
X2836729Y-9342770D01*
X2836729Y-9342770D02*
X2855777Y-9352293D01*
X2855777Y-9352293D02*
X2893872Y-9352293D01*
X2893872Y-9352293D02*
X2912920Y-9342770D01*
X2912920Y-9342770D02*
X2922444Y-9333246D01*
X2922444Y-9333246D02*
X2931967Y-9314198D01*
X2998634Y-9228484D02*
X3131967Y-9228484D01*
X3131967Y-9228484D02*
X3046253Y-9428484D01*
X3198634Y-9228484D02*
X3198634Y-9266579D01*
X3274825Y-9228484D02*
X3274825Y-9266579D01*
X3570063Y-9504674D02*
X3560539Y-9495150D01*
X3560539Y-9495150D02*
X3541491Y-9466579D01*
X3541491Y-9466579D02*
X3531968Y-9447531D01*
X3531968Y-9447531D02*
X3522444Y-9418960D01*
X3522444Y-9418960D02*
X3512920Y-9371341D01*
X3512920Y-9371341D02*
X3512920Y-9333246D01*
X3512920Y-9333246D02*
X3522444Y-9285627D01*
X3522444Y-9285627D02*
X3531968Y-9257055D01*
X3531968Y-9257055D02*
X3541491Y-9238008D01*
X3541491Y-9238008D02*
X3560539Y-9209436D01*
X3560539Y-9209436D02*
X3570063Y-9199912D01*
X3627206Y-9228484D02*
X3751015Y-9228484D01*
X3751015Y-9228484D02*
X3684348Y-9304674D01*
X3684348Y-9304674D02*
X3712920Y-9304674D01*
X3712920Y-9304674D02*
X3731968Y-9314198D01*
X3731968Y-9314198D02*
X3741491Y-9323722D01*
X3741491Y-9323722D02*
X3751015Y-9342770D01*
X3751015Y-9342770D02*
X3751015Y-9390389D01*
X3751015Y-9390389D02*
X3741491Y-9409436D01*
X3741491Y-9409436D02*
X3731968Y-9418960D01*
X3731968Y-9418960D02*
X3712920Y-9428484D01*
X3712920Y-9428484D02*
X3655777Y-9428484D01*
X3655777Y-9428484D02*
X3636729Y-9418960D01*
X3636729Y-9418960D02*
X3627206Y-9409436D01*
X3827206Y-9247531D02*
X3836729Y-9238008D01*
X3836729Y-9238008D02*
X3855777Y-9228484D01*
X3855777Y-9228484D02*
X3903396Y-9228484D01*
X3903396Y-9228484D02*
X3922444Y-9238008D01*
X3922444Y-9238008D02*
X3931968Y-9247531D01*
X3931968Y-9247531D02*
X3941491Y-9266579D01*
X3941491Y-9266579D02*
X3941491Y-9285627D01*
X3941491Y-9285627D02*
X3931968Y-9314198D01*
X3931968Y-9314198D02*
X3817682Y-9428484D01*
X3817682Y-9428484D02*
X3941491Y-9428484D01*
X4179587Y-9428484D02*
X4179587Y-9228484D01*
X4265301Y-9428484D02*
X4265301Y-9323722D01*
X4265301Y-9323722D02*
X4255777Y-9304674D01*
X4255777Y-9304674D02*
X4236730Y-9295150D01*
X4236730Y-9295150D02*
X4208158Y-9295150D01*
X4208158Y-9295150D02*
X4189110Y-9304674D01*
X4189110Y-9304674D02*
X4179587Y-9314198D01*
X4389111Y-9428484D02*
X4370063Y-9418960D01*
X4370063Y-9418960D02*
X4360539Y-9409436D01*
X4360539Y-9409436D02*
X4351015Y-9390389D01*
X4351015Y-9390389D02*
X4351015Y-9333246D01*
X4351015Y-9333246D02*
X4360539Y-9314198D01*
X4360539Y-9314198D02*
X4370063Y-9304674D01*
X4370063Y-9304674D02*
X4389111Y-9295150D01*
X4389111Y-9295150D02*
X4417682Y-9295150D01*
X4417682Y-9295150D02*
X4436730Y-9304674D01*
X4436730Y-9304674D02*
X4446253Y-9314198D01*
X4446253Y-9314198D02*
X4455777Y-9333246D01*
X4455777Y-9333246D02*
X4455777Y-9390389D01*
X4455777Y-9390389D02*
X4446253Y-9409436D01*
X4446253Y-9409436D02*
X4436730Y-9418960D01*
X4436730Y-9418960D02*
X4417682Y-9428484D01*
X4417682Y-9428484D02*
X4389111Y-9428484D01*
X4570063Y-9428484D02*
X4551015Y-9418960D01*
X4551015Y-9418960D02*
X4541492Y-9399912D01*
X4541492Y-9399912D02*
X4541492Y-9228484D01*
X4722444Y-9418960D02*
X4703396Y-9428484D01*
X4703396Y-9428484D02*
X4665301Y-9428484D01*
X4665301Y-9428484D02*
X4646253Y-9418960D01*
X4646253Y-9418960D02*
X4636730Y-9399912D01*
X4636730Y-9399912D02*
X4636730Y-9323722D01*
X4636730Y-9323722D02*
X4646253Y-9304674D01*
X4646253Y-9304674D02*
X4665301Y-9295150D01*
X4665301Y-9295150D02*
X4703396Y-9295150D01*
X4703396Y-9295150D02*
X4722444Y-9304674D01*
X4722444Y-9304674D02*
X4731968Y-9323722D01*
X4731968Y-9323722D02*
X4731968Y-9342770D01*
X4731968Y-9342770D02*
X4636730Y-9361817D01*
X4808158Y-9418960D02*
X4827206Y-9428484D01*
X4827206Y-9428484D02*
X4865301Y-9428484D01*
X4865301Y-9428484D02*
X4884349Y-9418960D01*
X4884349Y-9418960D02*
X4893873Y-9399912D01*
X4893873Y-9399912D02*
X4893873Y-9390389D01*
X4893873Y-9390389D02*
X4884349Y-9371341D01*
X4884349Y-9371341D02*
X4865301Y-9361817D01*
X4865301Y-9361817D02*
X4836730Y-9361817D01*
X4836730Y-9361817D02*
X4817682Y-9352293D01*
X4817682Y-9352293D02*
X4808158Y-9333246D01*
X4808158Y-9333246D02*
X4808158Y-9323722D01*
X4808158Y-9323722D02*
X4817682Y-9304674D01*
X4817682Y-9304674D02*
X4836730Y-9295150D01*
X4836730Y-9295150D02*
X4865301Y-9295150D01*
X4865301Y-9295150D02*
X4884349Y-9304674D01*
X5131968Y-9352293D02*
X5284349Y-9352293D01*
X5208158Y-9428484D02*
X5208158Y-9276103D01*
X5522444Y-9247531D02*
X5531968Y-9238008D01*
X5531968Y-9238008D02*
X5551015Y-9228484D01*
X5551015Y-9228484D02*
X5598634Y-9228484D01*
X5598634Y-9228484D02*
X5617682Y-9238008D01*
X5617682Y-9238008D02*
X5627206Y-9247531D01*
X5627206Y-9247531D02*
X5636730Y-9266579D01*
X5636730Y-9266579D02*
X5636730Y-9285627D01*
X5636730Y-9285627D02*
X5627206Y-9314198D01*
X5627206Y-9314198D02*
X5512920Y-9428484D01*
X5512920Y-9428484D02*
X5636730Y-9428484D01*
X5865301Y-9418960D02*
X5884349Y-9428484D01*
X5884349Y-9428484D02*
X5922444Y-9428484D01*
X5922444Y-9428484D02*
X5941492Y-9418960D01*
X5941492Y-9418960D02*
X5951015Y-9399912D01*
X5951015Y-9399912D02*
X5951015Y-9390389D01*
X5951015Y-9390389D02*
X5941492Y-9371341D01*
X5941492Y-9371341D02*
X5922444Y-9361817D01*
X5922444Y-9361817D02*
X5893873Y-9361817D01*
X5893873Y-9361817D02*
X5874825Y-9352293D01*
X5874825Y-9352293D02*
X5865301Y-9333246D01*
X5865301Y-9333246D02*
X5865301Y-9323722D01*
X5865301Y-9323722D02*
X5874825Y-9304674D01*
X5874825Y-9304674D02*
X5893873Y-9295150D01*
X5893873Y-9295150D02*
X5922444Y-9295150D01*
X5922444Y-9295150D02*
X5941492Y-9304674D01*
X6065301Y-9428484D02*
X6046254Y-9418960D01*
X6046254Y-9418960D02*
X6036730Y-9399912D01*
X6036730Y-9399912D02*
X6036730Y-9228484D01*
X6170063Y-9428484D02*
X6151015Y-9418960D01*
X6151015Y-9418960D02*
X6141492Y-9409436D01*
X6141492Y-9409436D02*
X6131968Y-9390389D01*
X6131968Y-9390389D02*
X6131968Y-9333246D01*
X6131968Y-9333246D02*
X6141492Y-9314198D01*
X6141492Y-9314198D02*
X6151015Y-9304674D01*
X6151015Y-9304674D02*
X6170063Y-9295150D01*
X6170063Y-9295150D02*
X6198635Y-9295150D01*
X6198635Y-9295150D02*
X6217682Y-9304674D01*
X6217682Y-9304674D02*
X6227206Y-9314198D01*
X6227206Y-9314198D02*
X6236730Y-9333246D01*
X6236730Y-9333246D02*
X6236730Y-9390389D01*
X6236730Y-9390389D02*
X6227206Y-9409436D01*
X6227206Y-9409436D02*
X6217682Y-9418960D01*
X6217682Y-9418960D02*
X6198635Y-9428484D01*
X6198635Y-9428484D02*
X6170063Y-9428484D01*
X6293873Y-9295150D02*
X6370063Y-9295150D01*
X6322444Y-9228484D02*
X6322444Y-9399912D01*
X6322444Y-9399912D02*
X6331968Y-9418960D01*
X6331968Y-9418960D02*
X6351015Y-9428484D01*
X6351015Y-9428484D02*
X6370063Y-9428484D01*
X6427206Y-9418960D02*
X6446254Y-9428484D01*
X6446254Y-9428484D02*
X6484349Y-9428484D01*
X6484349Y-9428484D02*
X6503396Y-9418960D01*
X6503396Y-9418960D02*
X6512920Y-9399912D01*
X6512920Y-9399912D02*
X6512920Y-9390389D01*
X6512920Y-9390389D02*
X6503396Y-9371341D01*
X6503396Y-9371341D02*
X6484349Y-9361817D01*
X6484349Y-9361817D02*
X6455777Y-9361817D01*
X6455777Y-9361817D02*
X6436730Y-9352293D01*
X6436730Y-9352293D02*
X6427206Y-9333246D01*
X6427206Y-9333246D02*
X6427206Y-9323722D01*
X6427206Y-9323722D02*
X6436730Y-9304674D01*
X6436730Y-9304674D02*
X6455777Y-9295150D01*
X6455777Y-9295150D02*
X6484349Y-9295150D01*
X6484349Y-9295150D02*
X6503396Y-9304674D01*
X6579587Y-9504674D02*
X6589111Y-9495150D01*
X6589111Y-9495150D02*
X6608158Y-9466579D01*
X6608158Y-9466579D02*
X6617682Y-9447531D01*
X6617682Y-9447531D02*
X6627206Y-9418960D01*
X6627206Y-9418960D02*
X6636730Y-9371341D01*
X6636730Y-9371341D02*
X6636730Y-9333246D01*
X6636730Y-9333246D02*
X6627206Y-9285627D01*
X6627206Y-9285627D02*
X6617682Y-9257055D01*
X6617682Y-9257055D02*
X6608158Y-9238008D01*
X6608158Y-9238008D02*
X6589111Y-9209436D01*
X6589111Y-9209436D02*
X6579587Y-9199912D01*
D15*
X-32500Y-9628500D02*
X-5000Y-9601000D01*
X-32500Y-9573500D01*
X-60000Y-9601000D01*
X-32500Y-9628500D01*
D11*
X293872Y-9492484D02*
X312920Y-9492484D01*
X312920Y-9492484D02*
X331967Y-9502008D01*
X331967Y-9502008D02*
X341491Y-9511531D01*
X341491Y-9511531D02*
X351015Y-9530579D01*
X351015Y-9530579D02*
X360539Y-9568674D01*
X360539Y-9568674D02*
X360539Y-9616293D01*
X360539Y-9616293D02*
X351015Y-9654389D01*
X351015Y-9654389D02*
X341491Y-9673436D01*
X341491Y-9673436D02*
X331967Y-9682960D01*
X331967Y-9682960D02*
X312920Y-9692484D01*
X312920Y-9692484D02*
X293872Y-9692484D01*
X293872Y-9692484D02*
X274824Y-9682960D01*
X274824Y-9682960D02*
X265301Y-9673436D01*
X265301Y-9673436D02*
X255777Y-9654389D01*
X255777Y-9654389D02*
X246253Y-9616293D01*
X246253Y-9616293D02*
X246253Y-9568674D01*
X246253Y-9568674D02*
X255777Y-9530579D01*
X255777Y-9530579D02*
X265301Y-9511531D01*
X265301Y-9511531D02*
X274824Y-9502008D01*
X274824Y-9502008D02*
X293872Y-9492484D01*
X446253Y-9673436D02*
X455777Y-9682960D01*
X455777Y-9682960D02*
X446253Y-9692484D01*
X446253Y-9692484D02*
X436729Y-9682960D01*
X436729Y-9682960D02*
X446253Y-9673436D01*
X446253Y-9673436D02*
X446253Y-9692484D01*
X636729Y-9492484D02*
X541491Y-9492484D01*
X541491Y-9492484D02*
X531967Y-9587722D01*
X531967Y-9587722D02*
X541491Y-9578198D01*
X541491Y-9578198D02*
X560539Y-9568674D01*
X560539Y-9568674D02*
X608158Y-9568674D01*
X608158Y-9568674D02*
X627205Y-9578198D01*
X627205Y-9578198D02*
X636729Y-9587722D01*
X636729Y-9587722D02*
X646253Y-9606770D01*
X646253Y-9606770D02*
X646253Y-9654389D01*
X646253Y-9654389D02*
X636729Y-9673436D01*
X636729Y-9673436D02*
X627205Y-9682960D01*
X627205Y-9682960D02*
X608158Y-9692484D01*
X608158Y-9692484D02*
X560539Y-9692484D01*
X560539Y-9692484D02*
X541491Y-9682960D01*
X541491Y-9682960D02*
X531967Y-9673436D01*
X827205Y-9492484D02*
X731967Y-9492484D01*
X731967Y-9492484D02*
X722443Y-9587722D01*
X722443Y-9587722D02*
X731967Y-9578198D01*
X731967Y-9578198D02*
X751015Y-9568674D01*
X751015Y-9568674D02*
X798634Y-9568674D01*
X798634Y-9568674D02*
X817682Y-9578198D01*
X817682Y-9578198D02*
X827205Y-9587722D01*
X827205Y-9587722D02*
X836729Y-9606770D01*
X836729Y-9606770D02*
X836729Y-9654389D01*
X836729Y-9654389D02*
X827205Y-9673436D01*
X827205Y-9673436D02*
X817682Y-9682960D01*
X817682Y-9682960D02*
X798634Y-9692484D01*
X798634Y-9692484D02*
X751015Y-9692484D01*
X751015Y-9692484D02*
X731967Y-9682960D01*
X731967Y-9682960D02*
X722443Y-9673436D01*
X960539Y-9492484D02*
X979586Y-9492484D01*
X979586Y-9492484D02*
X998634Y-9502008D01*
X998634Y-9502008D02*
X1008158Y-9511531D01*
X1008158Y-9511531D02*
X1017682Y-9530579D01*
X1017682Y-9530579D02*
X1027205Y-9568674D01*
X1027205Y-9568674D02*
X1027205Y-9616293D01*
X1027205Y-9616293D02*
X1017682Y-9654389D01*
X1017682Y-9654389D02*
X1008158Y-9673436D01*
X1008158Y-9673436D02*
X998634Y-9682960D01*
X998634Y-9682960D02*
X979586Y-9692484D01*
X979586Y-9692484D02*
X960539Y-9692484D01*
X960539Y-9692484D02*
X941491Y-9682960D01*
X941491Y-9682960D02*
X931967Y-9673436D01*
X931967Y-9673436D02*
X922443Y-9654389D01*
X922443Y-9654389D02*
X912920Y-9616293D01*
X912920Y-9616293D02*
X912920Y-9568674D01*
X912920Y-9568674D02*
X922443Y-9530579D01*
X922443Y-9530579D02*
X931967Y-9511531D01*
X931967Y-9511531D02*
X941491Y-9502008D01*
X941491Y-9502008D02*
X960539Y-9492484D01*
X1112920Y-9692484D02*
X1112920Y-9559150D01*
X1112920Y-9578198D02*
X1122444Y-9568674D01*
X1122444Y-9568674D02*
X1141491Y-9559150D01*
X1141491Y-9559150D02*
X1170063Y-9559150D01*
X1170063Y-9559150D02*
X1189110Y-9568674D01*
X1189110Y-9568674D02*
X1198634Y-9587722D01*
X1198634Y-9587722D02*
X1198634Y-9692484D01*
X1198634Y-9587722D02*
X1208158Y-9568674D01*
X1208158Y-9568674D02*
X1227205Y-9559150D01*
X1227205Y-9559150D02*
X1255777Y-9559150D01*
X1255777Y-9559150D02*
X1274825Y-9568674D01*
X1274825Y-9568674D02*
X1284348Y-9587722D01*
X1284348Y-9587722D02*
X1284348Y-9692484D01*
X1379586Y-9692484D02*
X1379586Y-9559150D01*
X1379586Y-9578198D02*
X1389110Y-9568674D01*
X1389110Y-9568674D02*
X1408158Y-9559150D01*
X1408158Y-9559150D02*
X1436729Y-9559150D01*
X1436729Y-9559150D02*
X1455777Y-9568674D01*
X1455777Y-9568674D02*
X1465301Y-9587722D01*
X1465301Y-9587722D02*
X1465301Y-9692484D01*
X1465301Y-9587722D02*
X1474824Y-9568674D01*
X1474824Y-9568674D02*
X1493872Y-9559150D01*
X1493872Y-9559150D02*
X1522443Y-9559150D01*
X1522443Y-9559150D02*
X1541491Y-9568674D01*
X1541491Y-9568674D02*
X1551015Y-9587722D01*
X1551015Y-9587722D02*
X1551015Y-9692484D01*
X1941491Y-9482960D02*
X1770063Y-9740103D01*
X2198634Y-9492484D02*
X2217682Y-9492484D01*
X2217682Y-9492484D02*
X2236729Y-9502008D01*
X2236729Y-9502008D02*
X2246253Y-9511531D01*
X2246253Y-9511531D02*
X2255777Y-9530579D01*
X2255777Y-9530579D02*
X2265301Y-9568674D01*
X2265301Y-9568674D02*
X2265301Y-9616293D01*
X2265301Y-9616293D02*
X2255777Y-9654389D01*
X2255777Y-9654389D02*
X2246253Y-9673436D01*
X2246253Y-9673436D02*
X2236729Y-9682960D01*
X2236729Y-9682960D02*
X2217682Y-9692484D01*
X2217682Y-9692484D02*
X2198634Y-9692484D01*
X2198634Y-9692484D02*
X2179587Y-9682960D01*
X2179587Y-9682960D02*
X2170063Y-9673436D01*
X2170063Y-9673436D02*
X2160539Y-9654389D01*
X2160539Y-9654389D02*
X2151015Y-9616293D01*
X2151015Y-9616293D02*
X2151015Y-9568674D01*
X2151015Y-9568674D02*
X2160539Y-9530579D01*
X2160539Y-9530579D02*
X2170063Y-9511531D01*
X2170063Y-9511531D02*
X2179587Y-9502008D01*
X2179587Y-9502008D02*
X2198634Y-9492484D01*
X2351015Y-9673436D02*
X2360539Y-9682960D01*
X2360539Y-9682960D02*
X2351015Y-9692484D01*
X2351015Y-9692484D02*
X2341491Y-9682960D01*
X2341491Y-9682960D02*
X2351015Y-9673436D01*
X2351015Y-9673436D02*
X2351015Y-9692484D01*
X2484348Y-9492484D02*
X2503396Y-9492484D01*
X2503396Y-9492484D02*
X2522444Y-9502008D01*
X2522444Y-9502008D02*
X2531968Y-9511531D01*
X2531968Y-9511531D02*
X2541491Y-9530579D01*
X2541491Y-9530579D02*
X2551015Y-9568674D01*
X2551015Y-9568674D02*
X2551015Y-9616293D01*
X2551015Y-9616293D02*
X2541491Y-9654389D01*
X2541491Y-9654389D02*
X2531968Y-9673436D01*
X2531968Y-9673436D02*
X2522444Y-9682960D01*
X2522444Y-9682960D02*
X2503396Y-9692484D01*
X2503396Y-9692484D02*
X2484348Y-9692484D01*
X2484348Y-9692484D02*
X2465301Y-9682960D01*
X2465301Y-9682960D02*
X2455777Y-9673436D01*
X2455777Y-9673436D02*
X2446253Y-9654389D01*
X2446253Y-9654389D02*
X2436729Y-9616293D01*
X2436729Y-9616293D02*
X2436729Y-9568674D01*
X2436729Y-9568674D02*
X2446253Y-9530579D01*
X2446253Y-9530579D02*
X2455777Y-9511531D01*
X2455777Y-9511531D02*
X2465301Y-9502008D01*
X2465301Y-9502008D02*
X2484348Y-9492484D01*
X2627206Y-9511531D02*
X2636729Y-9502008D01*
X2636729Y-9502008D02*
X2655777Y-9492484D01*
X2655777Y-9492484D02*
X2703396Y-9492484D01*
X2703396Y-9492484D02*
X2722444Y-9502008D01*
X2722444Y-9502008D02*
X2731968Y-9511531D01*
X2731968Y-9511531D02*
X2741491Y-9530579D01*
X2741491Y-9530579D02*
X2741491Y-9549627D01*
X2741491Y-9549627D02*
X2731968Y-9578198D01*
X2731968Y-9578198D02*
X2617682Y-9692484D01*
X2617682Y-9692484D02*
X2741491Y-9692484D01*
X2931967Y-9692484D02*
X2817682Y-9692484D01*
X2874825Y-9692484D02*
X2874825Y-9492484D01*
X2874825Y-9492484D02*
X2855777Y-9521055D01*
X2855777Y-9521055D02*
X2836729Y-9540103D01*
X2836729Y-9540103D02*
X2817682Y-9549627D01*
X2998634Y-9492484D02*
X3131967Y-9492484D01*
X3131967Y-9492484D02*
X3046253Y-9692484D01*
X3198634Y-9492484D02*
X3198634Y-9530579D01*
X3274825Y-9492484D02*
X3274825Y-9530579D01*
X3570063Y-9768674D02*
X3560539Y-9759150D01*
X3560539Y-9759150D02*
X3541491Y-9730579D01*
X3541491Y-9730579D02*
X3531968Y-9711531D01*
X3531968Y-9711531D02*
X3522444Y-9682960D01*
X3522444Y-9682960D02*
X3512920Y-9635341D01*
X3512920Y-9635341D02*
X3512920Y-9597246D01*
X3512920Y-9597246D02*
X3522444Y-9549627D01*
X3522444Y-9549627D02*
X3531968Y-9521055D01*
X3531968Y-9521055D02*
X3541491Y-9502008D01*
X3541491Y-9502008D02*
X3560539Y-9473436D01*
X3560539Y-9473436D02*
X3570063Y-9463912D01*
X3684348Y-9492484D02*
X3703396Y-9492484D01*
X3703396Y-9492484D02*
X3722444Y-9502008D01*
X3722444Y-9502008D02*
X3731968Y-9511531D01*
X3731968Y-9511531D02*
X3741491Y-9530579D01*
X3741491Y-9530579D02*
X3751015Y-9568674D01*
X3751015Y-9568674D02*
X3751015Y-9616293D01*
X3751015Y-9616293D02*
X3741491Y-9654389D01*
X3741491Y-9654389D02*
X3731968Y-9673436D01*
X3731968Y-9673436D02*
X3722444Y-9682960D01*
X3722444Y-9682960D02*
X3703396Y-9692484D01*
X3703396Y-9692484D02*
X3684348Y-9692484D01*
X3684348Y-9692484D02*
X3665301Y-9682960D01*
X3665301Y-9682960D02*
X3655777Y-9673436D01*
X3655777Y-9673436D02*
X3646253Y-9654389D01*
X3646253Y-9654389D02*
X3636729Y-9616293D01*
X3636729Y-9616293D02*
X3636729Y-9568674D01*
X3636729Y-9568674D02*
X3646253Y-9530579D01*
X3646253Y-9530579D02*
X3655777Y-9511531D01*
X3655777Y-9511531D02*
X3665301Y-9502008D01*
X3665301Y-9502008D02*
X3684348Y-9492484D01*
X3989110Y-9692484D02*
X3989110Y-9492484D01*
X4074825Y-9692484D02*
X4074825Y-9587722D01*
X4074825Y-9587722D02*
X4065301Y-9568674D01*
X4065301Y-9568674D02*
X4046253Y-9559150D01*
X4046253Y-9559150D02*
X4017682Y-9559150D01*
X4017682Y-9559150D02*
X3998634Y-9568674D01*
X3998634Y-9568674D02*
X3989110Y-9578198D01*
X4198634Y-9692484D02*
X4179587Y-9682960D01*
X4179587Y-9682960D02*
X4170063Y-9673436D01*
X4170063Y-9673436D02*
X4160539Y-9654389D01*
X4160539Y-9654389D02*
X4160539Y-9597246D01*
X4160539Y-9597246D02*
X4170063Y-9578198D01*
X4170063Y-9578198D02*
X4179587Y-9568674D01*
X4179587Y-9568674D02*
X4198634Y-9559150D01*
X4198634Y-9559150D02*
X4227206Y-9559150D01*
X4227206Y-9559150D02*
X4246253Y-9568674D01*
X4246253Y-9568674D02*
X4255777Y-9578198D01*
X4255777Y-9578198D02*
X4265301Y-9597246D01*
X4265301Y-9597246D02*
X4265301Y-9654389D01*
X4265301Y-9654389D02*
X4255777Y-9673436D01*
X4255777Y-9673436D02*
X4246253Y-9682960D01*
X4246253Y-9682960D02*
X4227206Y-9692484D01*
X4227206Y-9692484D02*
X4198634Y-9692484D01*
X4379587Y-9692484D02*
X4360539Y-9682960D01*
X4360539Y-9682960D02*
X4351015Y-9663912D01*
X4351015Y-9663912D02*
X4351015Y-9492484D01*
X4531968Y-9682960D02*
X4512920Y-9692484D01*
X4512920Y-9692484D02*
X4474825Y-9692484D01*
X4474825Y-9692484D02*
X4455777Y-9682960D01*
X4455777Y-9682960D02*
X4446253Y-9663912D01*
X4446253Y-9663912D02*
X4446253Y-9587722D01*
X4446253Y-9587722D02*
X4455777Y-9568674D01*
X4455777Y-9568674D02*
X4474825Y-9559150D01*
X4474825Y-9559150D02*
X4512920Y-9559150D01*
X4512920Y-9559150D02*
X4531968Y-9568674D01*
X4531968Y-9568674D02*
X4541492Y-9587722D01*
X4541492Y-9587722D02*
X4541492Y-9606770D01*
X4541492Y-9606770D02*
X4446253Y-9625817D01*
X4617682Y-9682960D02*
X4636730Y-9692484D01*
X4636730Y-9692484D02*
X4674825Y-9692484D01*
X4674825Y-9692484D02*
X4693873Y-9682960D01*
X4693873Y-9682960D02*
X4703396Y-9663912D01*
X4703396Y-9663912D02*
X4703396Y-9654389D01*
X4703396Y-9654389D02*
X4693873Y-9635341D01*
X4693873Y-9635341D02*
X4674825Y-9625817D01*
X4674825Y-9625817D02*
X4646253Y-9625817D01*
X4646253Y-9625817D02*
X4627206Y-9616293D01*
X4627206Y-9616293D02*
X4617682Y-9597246D01*
X4617682Y-9597246D02*
X4617682Y-9587722D01*
X4617682Y-9587722D02*
X4627206Y-9568674D01*
X4627206Y-9568674D02*
X4646253Y-9559150D01*
X4646253Y-9559150D02*
X4674825Y-9559150D01*
X4674825Y-9559150D02*
X4693873Y-9568674D01*
X4941492Y-9616293D02*
X5093873Y-9616293D01*
X5017682Y-9692484D02*
X5017682Y-9540103D01*
X5331968Y-9511531D02*
X5341492Y-9502008D01*
X5341492Y-9502008D02*
X5360539Y-9492484D01*
X5360539Y-9492484D02*
X5408158Y-9492484D01*
X5408158Y-9492484D02*
X5427206Y-9502008D01*
X5427206Y-9502008D02*
X5436730Y-9511531D01*
X5436730Y-9511531D02*
X5446254Y-9530579D01*
X5446254Y-9530579D02*
X5446254Y-9549627D01*
X5446254Y-9549627D02*
X5436730Y-9578198D01*
X5436730Y-9578198D02*
X5322444Y-9692484D01*
X5322444Y-9692484D02*
X5446254Y-9692484D01*
X5674825Y-9682960D02*
X5693873Y-9692484D01*
X5693873Y-9692484D02*
X5731968Y-9692484D01*
X5731968Y-9692484D02*
X5751015Y-9682960D01*
X5751015Y-9682960D02*
X5760539Y-9663912D01*
X5760539Y-9663912D02*
X5760539Y-9654389D01*
X5760539Y-9654389D02*
X5751015Y-9635341D01*
X5751015Y-9635341D02*
X5731968Y-9625817D01*
X5731968Y-9625817D02*
X5703396Y-9625817D01*
X5703396Y-9625817D02*
X5684349Y-9616293D01*
X5684349Y-9616293D02*
X5674825Y-9597246D01*
X5674825Y-9597246D02*
X5674825Y-9587722D01*
X5674825Y-9587722D02*
X5684349Y-9568674D01*
X5684349Y-9568674D02*
X5703396Y-9559150D01*
X5703396Y-9559150D02*
X5731968Y-9559150D01*
X5731968Y-9559150D02*
X5751015Y-9568674D01*
X5874825Y-9692484D02*
X5855777Y-9682960D01*
X5855777Y-9682960D02*
X5846254Y-9663912D01*
X5846254Y-9663912D02*
X5846254Y-9492484D01*
X5979587Y-9692484D02*
X5960539Y-9682960D01*
X5960539Y-9682960D02*
X5951015Y-9673436D01*
X5951015Y-9673436D02*
X5941492Y-9654389D01*
X5941492Y-9654389D02*
X5941492Y-9597246D01*
X5941492Y-9597246D02*
X5951015Y-9578198D01*
X5951015Y-9578198D02*
X5960539Y-9568674D01*
X5960539Y-9568674D02*
X5979587Y-9559150D01*
X5979587Y-9559150D02*
X6008158Y-9559150D01*
X6008158Y-9559150D02*
X6027206Y-9568674D01*
X6027206Y-9568674D02*
X6036730Y-9578198D01*
X6036730Y-9578198D02*
X6046254Y-9597246D01*
X6046254Y-9597246D02*
X6046254Y-9654389D01*
X6046254Y-9654389D02*
X6036730Y-9673436D01*
X6036730Y-9673436D02*
X6027206Y-9682960D01*
X6027206Y-9682960D02*
X6008158Y-9692484D01*
X6008158Y-9692484D02*
X5979587Y-9692484D01*
X6103396Y-9559150D02*
X6179587Y-9559150D01*
X6131968Y-9492484D02*
X6131968Y-9663912D01*
X6131968Y-9663912D02*
X6141492Y-9682960D01*
X6141492Y-9682960D02*
X6160539Y-9692484D01*
X6160539Y-9692484D02*
X6179587Y-9692484D01*
X6236730Y-9682960D02*
X6255777Y-9692484D01*
X6255777Y-9692484D02*
X6293873Y-9692484D01*
X6293873Y-9692484D02*
X6312920Y-9682960D01*
X6312920Y-9682960D02*
X6322444Y-9663912D01*
X6322444Y-9663912D02*
X6322444Y-9654389D01*
X6322444Y-9654389D02*
X6312920Y-9635341D01*
X6312920Y-9635341D02*
X6293873Y-9625817D01*
X6293873Y-9625817D02*
X6265301Y-9625817D01*
X6265301Y-9625817D02*
X6246254Y-9616293D01*
X6246254Y-9616293D02*
X6236730Y-9597246D01*
X6236730Y-9597246D02*
X6236730Y-9587722D01*
X6236730Y-9587722D02*
X6246254Y-9568674D01*
X6246254Y-9568674D02*
X6265301Y-9559150D01*
X6265301Y-9559150D02*
X6293873Y-9559150D01*
X6293873Y-9559150D02*
X6312920Y-9568674D01*
X6389111Y-9768674D02*
X6398635Y-9759150D01*
X6398635Y-9759150D02*
X6417682Y-9730579D01*
X6417682Y-9730579D02*
X6427206Y-9711531D01*
X6427206Y-9711531D02*
X6436730Y-9682960D01*
X6436730Y-9682960D02*
X6446254Y-9635341D01*
X6446254Y-9635341D02*
X6446254Y-9597246D01*
X6446254Y-9597246D02*
X6436730Y-9549627D01*
X6436730Y-9549627D02*
X6427206Y-9521055D01*
X6427206Y-9521055D02*
X6417682Y-9502008D01*
X6417682Y-9502008D02*
X6398635Y-9473436D01*
X6398635Y-9473436D02*
X6389111Y-9463912D01*
D16*
X-95000Y-9820000D02*
X-5000Y-9910000D01*
X-5000Y-9820000D02*
X-95000Y-9910000D01*
X-5000Y-9865000D02*
G75*
G03*
X-5000Y-9865000I-45000J0D01*
G01*
D11*
X293872Y-9756484D02*
X312920Y-9756484D01*
X312920Y-9756484D02*
X331967Y-9766008D01*
X331967Y-9766008D02*
X341491Y-9775531D01*
X341491Y-9775531D02*
X351015Y-9794579D01*
X351015Y-9794579D02*
X360539Y-9832674D01*
X360539Y-9832674D02*
X360539Y-9880293D01*
X360539Y-9880293D02*
X351015Y-9918389D01*
X351015Y-9918389D02*
X341491Y-9937436D01*
X341491Y-9937436D02*
X331967Y-9946960D01*
X331967Y-9946960D02*
X312920Y-9956484D01*
X312920Y-9956484D02*
X293872Y-9956484D01*
X293872Y-9956484D02*
X274824Y-9946960D01*
X274824Y-9946960D02*
X265301Y-9937436D01*
X265301Y-9937436D02*
X255777Y-9918389D01*
X255777Y-9918389D02*
X246253Y-9880293D01*
X246253Y-9880293D02*
X246253Y-9832674D01*
X246253Y-9832674D02*
X255777Y-9794579D01*
X255777Y-9794579D02*
X265301Y-9775531D01*
X265301Y-9775531D02*
X274824Y-9766008D01*
X274824Y-9766008D02*
X293872Y-9756484D01*
X446253Y-9937436D02*
X455777Y-9946960D01*
X455777Y-9946960D02*
X446253Y-9956484D01*
X446253Y-9956484D02*
X436729Y-9946960D01*
X436729Y-9946960D02*
X446253Y-9937436D01*
X446253Y-9937436D02*
X446253Y-9956484D01*
X551015Y-9956484D02*
X589110Y-9956484D01*
X589110Y-9956484D02*
X608158Y-9946960D01*
X608158Y-9946960D02*
X617682Y-9937436D01*
X617682Y-9937436D02*
X636729Y-9908865D01*
X636729Y-9908865D02*
X646253Y-9870770D01*
X646253Y-9870770D02*
X646253Y-9794579D01*
X646253Y-9794579D02*
X636729Y-9775531D01*
X636729Y-9775531D02*
X627205Y-9766008D01*
X627205Y-9766008D02*
X608158Y-9756484D01*
X608158Y-9756484D02*
X570063Y-9756484D01*
X570063Y-9756484D02*
X551015Y-9766008D01*
X551015Y-9766008D02*
X541491Y-9775531D01*
X541491Y-9775531D02*
X531967Y-9794579D01*
X531967Y-9794579D02*
X531967Y-9842198D01*
X531967Y-9842198D02*
X541491Y-9861246D01*
X541491Y-9861246D02*
X551015Y-9870770D01*
X551015Y-9870770D02*
X570063Y-9880293D01*
X570063Y-9880293D02*
X608158Y-9880293D01*
X608158Y-9880293D02*
X627205Y-9870770D01*
X627205Y-9870770D02*
X636729Y-9861246D01*
X636729Y-9861246D02*
X646253Y-9842198D01*
X770062Y-9756484D02*
X789110Y-9756484D01*
X789110Y-9756484D02*
X808158Y-9766008D01*
X808158Y-9766008D02*
X817682Y-9775531D01*
X817682Y-9775531D02*
X827205Y-9794579D01*
X827205Y-9794579D02*
X836729Y-9832674D01*
X836729Y-9832674D02*
X836729Y-9880293D01*
X836729Y-9880293D02*
X827205Y-9918389D01*
X827205Y-9918389D02*
X817682Y-9937436D01*
X817682Y-9937436D02*
X808158Y-9946960D01*
X808158Y-9946960D02*
X789110Y-9956484D01*
X789110Y-9956484D02*
X770062Y-9956484D01*
X770062Y-9956484D02*
X751015Y-9946960D01*
X751015Y-9946960D02*
X741491Y-9937436D01*
X741491Y-9937436D02*
X731967Y-9918389D01*
X731967Y-9918389D02*
X722443Y-9880293D01*
X722443Y-9880293D02*
X722443Y-9832674D01*
X722443Y-9832674D02*
X731967Y-9794579D01*
X731967Y-9794579D02*
X741491Y-9775531D01*
X741491Y-9775531D02*
X751015Y-9766008D01*
X751015Y-9766008D02*
X770062Y-9756484D01*
X960539Y-9756484D02*
X979586Y-9756484D01*
X979586Y-9756484D02*
X998634Y-9766008D01*
X998634Y-9766008D02*
X1008158Y-9775531D01*
X1008158Y-9775531D02*
X1017682Y-9794579D01*
X1017682Y-9794579D02*
X1027205Y-9832674D01*
X1027205Y-9832674D02*
X1027205Y-9880293D01*
X1027205Y-9880293D02*
X1017682Y-9918389D01*
X1017682Y-9918389D02*
X1008158Y-9937436D01*
X1008158Y-9937436D02*
X998634Y-9946960D01*
X998634Y-9946960D02*
X979586Y-9956484D01*
X979586Y-9956484D02*
X960539Y-9956484D01*
X960539Y-9956484D02*
X941491Y-9946960D01*
X941491Y-9946960D02*
X931967Y-9937436D01*
X931967Y-9937436D02*
X922443Y-9918389D01*
X922443Y-9918389D02*
X912920Y-9880293D01*
X912920Y-9880293D02*
X912920Y-9832674D01*
X912920Y-9832674D02*
X922443Y-9794579D01*
X922443Y-9794579D02*
X931967Y-9775531D01*
X931967Y-9775531D02*
X941491Y-9766008D01*
X941491Y-9766008D02*
X960539Y-9756484D01*
X1112920Y-9956484D02*
X1112920Y-9823150D01*
X1112920Y-9842198D02*
X1122444Y-9832674D01*
X1122444Y-9832674D02*
X1141491Y-9823150D01*
X1141491Y-9823150D02*
X1170063Y-9823150D01*
X1170063Y-9823150D02*
X1189110Y-9832674D01*
X1189110Y-9832674D02*
X1198634Y-9851722D01*
X1198634Y-9851722D02*
X1198634Y-9956484D01*
X1198634Y-9851722D02*
X1208158Y-9832674D01*
X1208158Y-9832674D02*
X1227205Y-9823150D01*
X1227205Y-9823150D02*
X1255777Y-9823150D01*
X1255777Y-9823150D02*
X1274825Y-9832674D01*
X1274825Y-9832674D02*
X1284348Y-9851722D01*
X1284348Y-9851722D02*
X1284348Y-9956484D01*
X1379586Y-9956484D02*
X1379586Y-9823150D01*
X1379586Y-9842198D02*
X1389110Y-9832674D01*
X1389110Y-9832674D02*
X1408158Y-9823150D01*
X1408158Y-9823150D02*
X1436729Y-9823150D01*
X1436729Y-9823150D02*
X1455777Y-9832674D01*
X1455777Y-9832674D02*
X1465301Y-9851722D01*
X1465301Y-9851722D02*
X1465301Y-9956484D01*
X1465301Y-9851722D02*
X1474824Y-9832674D01*
X1474824Y-9832674D02*
X1493872Y-9823150D01*
X1493872Y-9823150D02*
X1522443Y-9823150D01*
X1522443Y-9823150D02*
X1541491Y-9832674D01*
X1541491Y-9832674D02*
X1551015Y-9851722D01*
X1551015Y-9851722D02*
X1551015Y-9956484D01*
X1941491Y-9746960D02*
X1770063Y-10004103D01*
X2198634Y-9756484D02*
X2217682Y-9756484D01*
X2217682Y-9756484D02*
X2236729Y-9766008D01*
X2236729Y-9766008D02*
X2246253Y-9775531D01*
X2246253Y-9775531D02*
X2255777Y-9794579D01*
X2255777Y-9794579D02*
X2265301Y-9832674D01*
X2265301Y-9832674D02*
X2265301Y-9880293D01*
X2265301Y-9880293D02*
X2255777Y-9918389D01*
X2255777Y-9918389D02*
X2246253Y-9937436D01*
X2246253Y-9937436D02*
X2236729Y-9946960D01*
X2236729Y-9946960D02*
X2217682Y-9956484D01*
X2217682Y-9956484D02*
X2198634Y-9956484D01*
X2198634Y-9956484D02*
X2179587Y-9946960D01*
X2179587Y-9946960D02*
X2170063Y-9937436D01*
X2170063Y-9937436D02*
X2160539Y-9918389D01*
X2160539Y-9918389D02*
X2151015Y-9880293D01*
X2151015Y-9880293D02*
X2151015Y-9832674D01*
X2151015Y-9832674D02*
X2160539Y-9794579D01*
X2160539Y-9794579D02*
X2170063Y-9775531D01*
X2170063Y-9775531D02*
X2179587Y-9766008D01*
X2179587Y-9766008D02*
X2198634Y-9756484D01*
X2351015Y-9937436D02*
X2360539Y-9946960D01*
X2360539Y-9946960D02*
X2351015Y-9956484D01*
X2351015Y-9956484D02*
X2341491Y-9946960D01*
X2341491Y-9946960D02*
X2351015Y-9937436D01*
X2351015Y-9937436D02*
X2351015Y-9956484D01*
X2484348Y-9756484D02*
X2503396Y-9756484D01*
X2503396Y-9756484D02*
X2522444Y-9766008D01*
X2522444Y-9766008D02*
X2531968Y-9775531D01*
X2531968Y-9775531D02*
X2541491Y-9794579D01*
X2541491Y-9794579D02*
X2551015Y-9832674D01*
X2551015Y-9832674D02*
X2551015Y-9880293D01*
X2551015Y-9880293D02*
X2541491Y-9918389D01*
X2541491Y-9918389D02*
X2531968Y-9937436D01*
X2531968Y-9937436D02*
X2522444Y-9946960D01*
X2522444Y-9946960D02*
X2503396Y-9956484D01*
X2503396Y-9956484D02*
X2484348Y-9956484D01*
X2484348Y-9956484D02*
X2465301Y-9946960D01*
X2465301Y-9946960D02*
X2455777Y-9937436D01*
X2455777Y-9937436D02*
X2446253Y-9918389D01*
X2446253Y-9918389D02*
X2436729Y-9880293D01*
X2436729Y-9880293D02*
X2436729Y-9832674D01*
X2436729Y-9832674D02*
X2446253Y-9794579D01*
X2446253Y-9794579D02*
X2455777Y-9775531D01*
X2455777Y-9775531D02*
X2465301Y-9766008D01*
X2465301Y-9766008D02*
X2484348Y-9756484D01*
X2617682Y-9756484D02*
X2741491Y-9756484D01*
X2741491Y-9756484D02*
X2674825Y-9832674D01*
X2674825Y-9832674D02*
X2703396Y-9832674D01*
X2703396Y-9832674D02*
X2722444Y-9842198D01*
X2722444Y-9842198D02*
X2731968Y-9851722D01*
X2731968Y-9851722D02*
X2741491Y-9870770D01*
X2741491Y-9870770D02*
X2741491Y-9918389D01*
X2741491Y-9918389D02*
X2731968Y-9937436D01*
X2731968Y-9937436D02*
X2722444Y-9946960D01*
X2722444Y-9946960D02*
X2703396Y-9956484D01*
X2703396Y-9956484D02*
X2646253Y-9956484D01*
X2646253Y-9956484D02*
X2627206Y-9946960D01*
X2627206Y-9946960D02*
X2617682Y-9937436D01*
X2922444Y-9756484D02*
X2827206Y-9756484D01*
X2827206Y-9756484D02*
X2817682Y-9851722D01*
X2817682Y-9851722D02*
X2827206Y-9842198D01*
X2827206Y-9842198D02*
X2846253Y-9832674D01*
X2846253Y-9832674D02*
X2893872Y-9832674D01*
X2893872Y-9832674D02*
X2912920Y-9842198D01*
X2912920Y-9842198D02*
X2922444Y-9851722D01*
X2922444Y-9851722D02*
X2931967Y-9870770D01*
X2931967Y-9870770D02*
X2931967Y-9918389D01*
X2931967Y-9918389D02*
X2922444Y-9937436D01*
X2922444Y-9937436D02*
X2912920Y-9946960D01*
X2912920Y-9946960D02*
X2893872Y-9956484D01*
X2893872Y-9956484D02*
X2846253Y-9956484D01*
X2846253Y-9956484D02*
X2827206Y-9946960D01*
X2827206Y-9946960D02*
X2817682Y-9937436D01*
X3103396Y-9823150D02*
X3103396Y-9956484D01*
X3055777Y-9746960D02*
X3008158Y-9889817D01*
X3008158Y-9889817D02*
X3131967Y-9889817D01*
X3198634Y-9756484D02*
X3198634Y-9794579D01*
X3274825Y-9756484D02*
X3274825Y-9794579D01*
X3570063Y-10032674D02*
X3560539Y-10023150D01*
X3560539Y-10023150D02*
X3541491Y-9994579D01*
X3541491Y-9994579D02*
X3531968Y-9975531D01*
X3531968Y-9975531D02*
X3522444Y-9946960D01*
X3522444Y-9946960D02*
X3512920Y-9899341D01*
X3512920Y-9899341D02*
X3512920Y-9861246D01*
X3512920Y-9861246D02*
X3522444Y-9813627D01*
X3522444Y-9813627D02*
X3531968Y-9785055D01*
X3531968Y-9785055D02*
X3541491Y-9766008D01*
X3541491Y-9766008D02*
X3560539Y-9737436D01*
X3560539Y-9737436D02*
X3570063Y-9727912D01*
X3751015Y-9956484D02*
X3636729Y-9956484D01*
X3693872Y-9956484D02*
X3693872Y-9756484D01*
X3693872Y-9756484D02*
X3674825Y-9785055D01*
X3674825Y-9785055D02*
X3655777Y-9804103D01*
X3655777Y-9804103D02*
X3636729Y-9813627D01*
X3922444Y-9756484D02*
X3884348Y-9756484D01*
X3884348Y-9756484D02*
X3865301Y-9766008D01*
X3865301Y-9766008D02*
X3855777Y-9775531D01*
X3855777Y-9775531D02*
X3836729Y-9804103D01*
X3836729Y-9804103D02*
X3827206Y-9842198D01*
X3827206Y-9842198D02*
X3827206Y-9918389D01*
X3827206Y-9918389D02*
X3836729Y-9937436D01*
X3836729Y-9937436D02*
X3846253Y-9946960D01*
X3846253Y-9946960D02*
X3865301Y-9956484D01*
X3865301Y-9956484D02*
X3903396Y-9956484D01*
X3903396Y-9956484D02*
X3922444Y-9946960D01*
X3922444Y-9946960D02*
X3931968Y-9937436D01*
X3931968Y-9937436D02*
X3941491Y-9918389D01*
X3941491Y-9918389D02*
X3941491Y-9870770D01*
X3941491Y-9870770D02*
X3931968Y-9851722D01*
X3931968Y-9851722D02*
X3922444Y-9842198D01*
X3922444Y-9842198D02*
X3903396Y-9832674D01*
X3903396Y-9832674D02*
X3865301Y-9832674D01*
X3865301Y-9832674D02*
X3846253Y-9842198D01*
X3846253Y-9842198D02*
X3836729Y-9851722D01*
X3836729Y-9851722D02*
X3827206Y-9870770D01*
X4179587Y-9956484D02*
X4179587Y-9756484D01*
X4265301Y-9956484D02*
X4265301Y-9851722D01*
X4265301Y-9851722D02*
X4255777Y-9832674D01*
X4255777Y-9832674D02*
X4236730Y-9823150D01*
X4236730Y-9823150D02*
X4208158Y-9823150D01*
X4208158Y-9823150D02*
X4189110Y-9832674D01*
X4189110Y-9832674D02*
X4179587Y-9842198D01*
X4389111Y-9956484D02*
X4370063Y-9946960D01*
X4370063Y-9946960D02*
X4360539Y-9937436D01*
X4360539Y-9937436D02*
X4351015Y-9918389D01*
X4351015Y-9918389D02*
X4351015Y-9861246D01*
X4351015Y-9861246D02*
X4360539Y-9842198D01*
X4360539Y-9842198D02*
X4370063Y-9832674D01*
X4370063Y-9832674D02*
X4389111Y-9823150D01*
X4389111Y-9823150D02*
X4417682Y-9823150D01*
X4417682Y-9823150D02*
X4436730Y-9832674D01*
X4436730Y-9832674D02*
X4446253Y-9842198D01*
X4446253Y-9842198D02*
X4455777Y-9861246D01*
X4455777Y-9861246D02*
X4455777Y-9918389D01*
X4455777Y-9918389D02*
X4446253Y-9937436D01*
X4446253Y-9937436D02*
X4436730Y-9946960D01*
X4436730Y-9946960D02*
X4417682Y-9956484D01*
X4417682Y-9956484D02*
X4389111Y-9956484D01*
X4570063Y-9956484D02*
X4551015Y-9946960D01*
X4551015Y-9946960D02*
X4541492Y-9927912D01*
X4541492Y-9927912D02*
X4541492Y-9756484D01*
X4722444Y-9946960D02*
X4703396Y-9956484D01*
X4703396Y-9956484D02*
X4665301Y-9956484D01*
X4665301Y-9956484D02*
X4646253Y-9946960D01*
X4646253Y-9946960D02*
X4636730Y-9927912D01*
X4636730Y-9927912D02*
X4636730Y-9851722D01*
X4636730Y-9851722D02*
X4646253Y-9832674D01*
X4646253Y-9832674D02*
X4665301Y-9823150D01*
X4665301Y-9823150D02*
X4703396Y-9823150D01*
X4703396Y-9823150D02*
X4722444Y-9832674D01*
X4722444Y-9832674D02*
X4731968Y-9851722D01*
X4731968Y-9851722D02*
X4731968Y-9870770D01*
X4731968Y-9870770D02*
X4636730Y-9889817D01*
X4808158Y-9946960D02*
X4827206Y-9956484D01*
X4827206Y-9956484D02*
X4865301Y-9956484D01*
X4865301Y-9956484D02*
X4884349Y-9946960D01*
X4884349Y-9946960D02*
X4893873Y-9927912D01*
X4893873Y-9927912D02*
X4893873Y-9918389D01*
X4893873Y-9918389D02*
X4884349Y-9899341D01*
X4884349Y-9899341D02*
X4865301Y-9889817D01*
X4865301Y-9889817D02*
X4836730Y-9889817D01*
X4836730Y-9889817D02*
X4817682Y-9880293D01*
X4817682Y-9880293D02*
X4808158Y-9861246D01*
X4808158Y-9861246D02*
X4808158Y-9851722D01*
X4808158Y-9851722D02*
X4817682Y-9832674D01*
X4817682Y-9832674D02*
X4836730Y-9823150D01*
X4836730Y-9823150D02*
X4865301Y-9823150D01*
X4865301Y-9823150D02*
X4884349Y-9832674D01*
X4960539Y-10032674D02*
X4970063Y-10023150D01*
X4970063Y-10023150D02*
X4989111Y-9994579D01*
X4989111Y-9994579D02*
X4998634Y-9975531D01*
X4998634Y-9975531D02*
X5008158Y-9946960D01*
X5008158Y-9946960D02*
X5017682Y-9899341D01*
X5017682Y-9899341D02*
X5017682Y-9861246D01*
X5017682Y-9861246D02*
X5008158Y-9813627D01*
X5008158Y-9813627D02*
X4998634Y-9785055D01*
X4998634Y-9785055D02*
X4989111Y-9766008D01*
X4989111Y-9766008D02*
X4970063Y-9737436D01*
X4970063Y-9737436D02*
X4960539Y-9727912D01*
D10*
X-105000Y-10079000D02*
X-5000Y-10179000D01*
X-5000Y-10079000D02*
X-105000Y-10179000D01*
X-55000Y-10079000D02*
X-55000Y-10179000D01*
X-105000Y-10129000D02*
X-5000Y-10129000D01*
D11*
X360539Y-10220484D02*
X246253Y-10220484D01*
X303396Y-10220484D02*
X303396Y-10020484D01*
X303396Y-10020484D02*
X284348Y-10049055D01*
X284348Y-10049055D02*
X265301Y-10068103D01*
X265301Y-10068103D02*
X246253Y-10077627D01*
X446253Y-10201436D02*
X455777Y-10210960D01*
X455777Y-10210960D02*
X446253Y-10220484D01*
X446253Y-10220484D02*
X436729Y-10210960D01*
X436729Y-10210960D02*
X446253Y-10201436D01*
X446253Y-10201436D02*
X446253Y-10220484D01*
X579586Y-10020484D02*
X598634Y-10020484D01*
X598634Y-10020484D02*
X617682Y-10030008D01*
X617682Y-10030008D02*
X627205Y-10039531D01*
X627205Y-10039531D02*
X636729Y-10058579D01*
X636729Y-10058579D02*
X646253Y-10096674D01*
X646253Y-10096674D02*
X646253Y-10144293D01*
X646253Y-10144293D02*
X636729Y-10182389D01*
X636729Y-10182389D02*
X627205Y-10201436D01*
X627205Y-10201436D02*
X617682Y-10210960D01*
X617682Y-10210960D02*
X598634Y-10220484D01*
X598634Y-10220484D02*
X579586Y-10220484D01*
X579586Y-10220484D02*
X560539Y-10210960D01*
X560539Y-10210960D02*
X551015Y-10201436D01*
X551015Y-10201436D02*
X541491Y-10182389D01*
X541491Y-10182389D02*
X531967Y-10144293D01*
X531967Y-10144293D02*
X531967Y-10096674D01*
X531967Y-10096674D02*
X541491Y-10058579D01*
X541491Y-10058579D02*
X551015Y-10039531D01*
X551015Y-10039531D02*
X560539Y-10030008D01*
X560539Y-10030008D02*
X579586Y-10020484D01*
X770062Y-10020484D02*
X789110Y-10020484D01*
X789110Y-10020484D02*
X808158Y-10030008D01*
X808158Y-10030008D02*
X817682Y-10039531D01*
X817682Y-10039531D02*
X827205Y-10058579D01*
X827205Y-10058579D02*
X836729Y-10096674D01*
X836729Y-10096674D02*
X836729Y-10144293D01*
X836729Y-10144293D02*
X827205Y-10182389D01*
X827205Y-10182389D02*
X817682Y-10201436D01*
X817682Y-10201436D02*
X808158Y-10210960D01*
X808158Y-10210960D02*
X789110Y-10220484D01*
X789110Y-10220484D02*
X770062Y-10220484D01*
X770062Y-10220484D02*
X751015Y-10210960D01*
X751015Y-10210960D02*
X741491Y-10201436D01*
X741491Y-10201436D02*
X731967Y-10182389D01*
X731967Y-10182389D02*
X722443Y-10144293D01*
X722443Y-10144293D02*
X722443Y-10096674D01*
X722443Y-10096674D02*
X731967Y-10058579D01*
X731967Y-10058579D02*
X741491Y-10039531D01*
X741491Y-10039531D02*
X751015Y-10030008D01*
X751015Y-10030008D02*
X770062Y-10020484D01*
X960539Y-10020484D02*
X979586Y-10020484D01*
X979586Y-10020484D02*
X998634Y-10030008D01*
X998634Y-10030008D02*
X1008158Y-10039531D01*
X1008158Y-10039531D02*
X1017682Y-10058579D01*
X1017682Y-10058579D02*
X1027205Y-10096674D01*
X1027205Y-10096674D02*
X1027205Y-10144293D01*
X1027205Y-10144293D02*
X1017682Y-10182389D01*
X1017682Y-10182389D02*
X1008158Y-10201436D01*
X1008158Y-10201436D02*
X998634Y-10210960D01*
X998634Y-10210960D02*
X979586Y-10220484D01*
X979586Y-10220484D02*
X960539Y-10220484D01*
X960539Y-10220484D02*
X941491Y-10210960D01*
X941491Y-10210960D02*
X931967Y-10201436D01*
X931967Y-10201436D02*
X922443Y-10182389D01*
X922443Y-10182389D02*
X912920Y-10144293D01*
X912920Y-10144293D02*
X912920Y-10096674D01*
X912920Y-10096674D02*
X922443Y-10058579D01*
X922443Y-10058579D02*
X931967Y-10039531D01*
X931967Y-10039531D02*
X941491Y-10030008D01*
X941491Y-10030008D02*
X960539Y-10020484D01*
X1112920Y-10220484D02*
X1112920Y-10087150D01*
X1112920Y-10106198D02*
X1122444Y-10096674D01*
X1122444Y-10096674D02*
X1141491Y-10087150D01*
X1141491Y-10087150D02*
X1170063Y-10087150D01*
X1170063Y-10087150D02*
X1189110Y-10096674D01*
X1189110Y-10096674D02*
X1198634Y-10115722D01*
X1198634Y-10115722D02*
X1198634Y-10220484D01*
X1198634Y-10115722D02*
X1208158Y-10096674D01*
X1208158Y-10096674D02*
X1227205Y-10087150D01*
X1227205Y-10087150D02*
X1255777Y-10087150D01*
X1255777Y-10087150D02*
X1274825Y-10096674D01*
X1274825Y-10096674D02*
X1284348Y-10115722D01*
X1284348Y-10115722D02*
X1284348Y-10220484D01*
X1379586Y-10220484D02*
X1379586Y-10087150D01*
X1379586Y-10106198D02*
X1389110Y-10096674D01*
X1389110Y-10096674D02*
X1408158Y-10087150D01*
X1408158Y-10087150D02*
X1436729Y-10087150D01*
X1436729Y-10087150D02*
X1455777Y-10096674D01*
X1455777Y-10096674D02*
X1465301Y-10115722D01*
X1465301Y-10115722D02*
X1465301Y-10220484D01*
X1465301Y-10115722D02*
X1474824Y-10096674D01*
X1474824Y-10096674D02*
X1493872Y-10087150D01*
X1493872Y-10087150D02*
X1522443Y-10087150D01*
X1522443Y-10087150D02*
X1541491Y-10096674D01*
X1541491Y-10096674D02*
X1551015Y-10115722D01*
X1551015Y-10115722D02*
X1551015Y-10220484D01*
X1941491Y-10010960D02*
X1770063Y-10268103D01*
X2198634Y-10020484D02*
X2217682Y-10020484D01*
X2217682Y-10020484D02*
X2236729Y-10030008D01*
X2236729Y-10030008D02*
X2246253Y-10039531D01*
X2246253Y-10039531D02*
X2255777Y-10058579D01*
X2255777Y-10058579D02*
X2265301Y-10096674D01*
X2265301Y-10096674D02*
X2265301Y-10144293D01*
X2265301Y-10144293D02*
X2255777Y-10182389D01*
X2255777Y-10182389D02*
X2246253Y-10201436D01*
X2246253Y-10201436D02*
X2236729Y-10210960D01*
X2236729Y-10210960D02*
X2217682Y-10220484D01*
X2217682Y-10220484D02*
X2198634Y-10220484D01*
X2198634Y-10220484D02*
X2179587Y-10210960D01*
X2179587Y-10210960D02*
X2170063Y-10201436D01*
X2170063Y-10201436D02*
X2160539Y-10182389D01*
X2160539Y-10182389D02*
X2151015Y-10144293D01*
X2151015Y-10144293D02*
X2151015Y-10096674D01*
X2151015Y-10096674D02*
X2160539Y-10058579D01*
X2160539Y-10058579D02*
X2170063Y-10039531D01*
X2170063Y-10039531D02*
X2179587Y-10030008D01*
X2179587Y-10030008D02*
X2198634Y-10020484D01*
X2351015Y-10201436D02*
X2360539Y-10210960D01*
X2360539Y-10210960D02*
X2351015Y-10220484D01*
X2351015Y-10220484D02*
X2341491Y-10210960D01*
X2341491Y-10210960D02*
X2351015Y-10201436D01*
X2351015Y-10201436D02*
X2351015Y-10220484D01*
X2484348Y-10020484D02*
X2503396Y-10020484D01*
X2503396Y-10020484D02*
X2522444Y-10030008D01*
X2522444Y-10030008D02*
X2531968Y-10039531D01*
X2531968Y-10039531D02*
X2541491Y-10058579D01*
X2541491Y-10058579D02*
X2551015Y-10096674D01*
X2551015Y-10096674D02*
X2551015Y-10144293D01*
X2551015Y-10144293D02*
X2541491Y-10182389D01*
X2541491Y-10182389D02*
X2531968Y-10201436D01*
X2531968Y-10201436D02*
X2522444Y-10210960D01*
X2522444Y-10210960D02*
X2503396Y-10220484D01*
X2503396Y-10220484D02*
X2484348Y-10220484D01*
X2484348Y-10220484D02*
X2465301Y-10210960D01*
X2465301Y-10210960D02*
X2455777Y-10201436D01*
X2455777Y-10201436D02*
X2446253Y-10182389D01*
X2446253Y-10182389D02*
X2436729Y-10144293D01*
X2436729Y-10144293D02*
X2436729Y-10096674D01*
X2436729Y-10096674D02*
X2446253Y-10058579D01*
X2446253Y-10058579D02*
X2455777Y-10039531D01*
X2455777Y-10039531D02*
X2465301Y-10030008D01*
X2465301Y-10030008D02*
X2484348Y-10020484D01*
X2617682Y-10020484D02*
X2741491Y-10020484D01*
X2741491Y-10020484D02*
X2674825Y-10096674D01*
X2674825Y-10096674D02*
X2703396Y-10096674D01*
X2703396Y-10096674D02*
X2722444Y-10106198D01*
X2722444Y-10106198D02*
X2731968Y-10115722D01*
X2731968Y-10115722D02*
X2741491Y-10134770D01*
X2741491Y-10134770D02*
X2741491Y-10182389D01*
X2741491Y-10182389D02*
X2731968Y-10201436D01*
X2731968Y-10201436D02*
X2722444Y-10210960D01*
X2722444Y-10210960D02*
X2703396Y-10220484D01*
X2703396Y-10220484D02*
X2646253Y-10220484D01*
X2646253Y-10220484D02*
X2627206Y-10210960D01*
X2627206Y-10210960D02*
X2617682Y-10201436D01*
X2836729Y-10220484D02*
X2874825Y-10220484D01*
X2874825Y-10220484D02*
X2893872Y-10210960D01*
X2893872Y-10210960D02*
X2903396Y-10201436D01*
X2903396Y-10201436D02*
X2922444Y-10172865D01*
X2922444Y-10172865D02*
X2931967Y-10134770D01*
X2931967Y-10134770D02*
X2931967Y-10058579D01*
X2931967Y-10058579D02*
X2922444Y-10039531D01*
X2922444Y-10039531D02*
X2912920Y-10030008D01*
X2912920Y-10030008D02*
X2893872Y-10020484D01*
X2893872Y-10020484D02*
X2855777Y-10020484D01*
X2855777Y-10020484D02*
X2836729Y-10030008D01*
X2836729Y-10030008D02*
X2827206Y-10039531D01*
X2827206Y-10039531D02*
X2817682Y-10058579D01*
X2817682Y-10058579D02*
X2817682Y-10106198D01*
X2817682Y-10106198D02*
X2827206Y-10125246D01*
X2827206Y-10125246D02*
X2836729Y-10134770D01*
X2836729Y-10134770D02*
X2855777Y-10144293D01*
X2855777Y-10144293D02*
X2893872Y-10144293D01*
X2893872Y-10144293D02*
X2912920Y-10134770D01*
X2912920Y-10134770D02*
X2922444Y-10125246D01*
X2922444Y-10125246D02*
X2931967Y-10106198D01*
X3103396Y-10087150D02*
X3103396Y-10220484D01*
X3055777Y-10010960D02*
X3008158Y-10153817D01*
X3008158Y-10153817D02*
X3131967Y-10153817D01*
X3198634Y-10020484D02*
X3198634Y-10058579D01*
X3274825Y-10020484D02*
X3274825Y-10058579D01*
X3570063Y-10296674D02*
X3560539Y-10287150D01*
X3560539Y-10287150D02*
X3541491Y-10258579D01*
X3541491Y-10258579D02*
X3531968Y-10239531D01*
X3531968Y-10239531D02*
X3522444Y-10210960D01*
X3522444Y-10210960D02*
X3512920Y-10163341D01*
X3512920Y-10163341D02*
X3512920Y-10125246D01*
X3512920Y-10125246D02*
X3522444Y-10077627D01*
X3522444Y-10077627D02*
X3531968Y-10049055D01*
X3531968Y-10049055D02*
X3541491Y-10030008D01*
X3541491Y-10030008D02*
X3560539Y-10001436D01*
X3560539Y-10001436D02*
X3570063Y-9991912D01*
X3674825Y-10106198D02*
X3655777Y-10096674D01*
X3655777Y-10096674D02*
X3646253Y-10087150D01*
X3646253Y-10087150D02*
X3636729Y-10068103D01*
X3636729Y-10068103D02*
X3636729Y-10058579D01*
X3636729Y-10058579D02*
X3646253Y-10039531D01*
X3646253Y-10039531D02*
X3655777Y-10030008D01*
X3655777Y-10030008D02*
X3674825Y-10020484D01*
X3674825Y-10020484D02*
X3712920Y-10020484D01*
X3712920Y-10020484D02*
X3731968Y-10030008D01*
X3731968Y-10030008D02*
X3741491Y-10039531D01*
X3741491Y-10039531D02*
X3751015Y-10058579D01*
X3751015Y-10058579D02*
X3751015Y-10068103D01*
X3751015Y-10068103D02*
X3741491Y-10087150D01*
X3741491Y-10087150D02*
X3731968Y-10096674D01*
X3731968Y-10096674D02*
X3712920Y-10106198D01*
X3712920Y-10106198D02*
X3674825Y-10106198D01*
X3674825Y-10106198D02*
X3655777Y-10115722D01*
X3655777Y-10115722D02*
X3646253Y-10125246D01*
X3646253Y-10125246D02*
X3636729Y-10144293D01*
X3636729Y-10144293D02*
X3636729Y-10182389D01*
X3636729Y-10182389D02*
X3646253Y-10201436D01*
X3646253Y-10201436D02*
X3655777Y-10210960D01*
X3655777Y-10210960D02*
X3674825Y-10220484D01*
X3674825Y-10220484D02*
X3712920Y-10220484D01*
X3712920Y-10220484D02*
X3731968Y-10210960D01*
X3731968Y-10210960D02*
X3741491Y-10201436D01*
X3741491Y-10201436D02*
X3751015Y-10182389D01*
X3751015Y-10182389D02*
X3751015Y-10144293D01*
X3751015Y-10144293D02*
X3741491Y-10125246D01*
X3741491Y-10125246D02*
X3731968Y-10115722D01*
X3731968Y-10115722D02*
X3712920Y-10106198D01*
X3989110Y-10220484D02*
X3989110Y-10020484D01*
X4074825Y-10220484D02*
X4074825Y-10115722D01*
X4074825Y-10115722D02*
X4065301Y-10096674D01*
X4065301Y-10096674D02*
X4046253Y-10087150D01*
X4046253Y-10087150D02*
X4017682Y-10087150D01*
X4017682Y-10087150D02*
X3998634Y-10096674D01*
X3998634Y-10096674D02*
X3989110Y-10106198D01*
X4198634Y-10220484D02*
X4179587Y-10210960D01*
X4179587Y-10210960D02*
X4170063Y-10201436D01*
X4170063Y-10201436D02*
X4160539Y-10182389D01*
X4160539Y-10182389D02*
X4160539Y-10125246D01*
X4160539Y-10125246D02*
X4170063Y-10106198D01*
X4170063Y-10106198D02*
X4179587Y-10096674D01*
X4179587Y-10096674D02*
X4198634Y-10087150D01*
X4198634Y-10087150D02*
X4227206Y-10087150D01*
X4227206Y-10087150D02*
X4246253Y-10096674D01*
X4246253Y-10096674D02*
X4255777Y-10106198D01*
X4255777Y-10106198D02*
X4265301Y-10125246D01*
X4265301Y-10125246D02*
X4265301Y-10182389D01*
X4265301Y-10182389D02*
X4255777Y-10201436D01*
X4255777Y-10201436D02*
X4246253Y-10210960D01*
X4246253Y-10210960D02*
X4227206Y-10220484D01*
X4227206Y-10220484D02*
X4198634Y-10220484D01*
X4379587Y-10220484D02*
X4360539Y-10210960D01*
X4360539Y-10210960D02*
X4351015Y-10191912D01*
X4351015Y-10191912D02*
X4351015Y-10020484D01*
X4531968Y-10210960D02*
X4512920Y-10220484D01*
X4512920Y-10220484D02*
X4474825Y-10220484D01*
X4474825Y-10220484D02*
X4455777Y-10210960D01*
X4455777Y-10210960D02*
X4446253Y-10191912D01*
X4446253Y-10191912D02*
X4446253Y-10115722D01*
X4446253Y-10115722D02*
X4455777Y-10096674D01*
X4455777Y-10096674D02*
X4474825Y-10087150D01*
X4474825Y-10087150D02*
X4512920Y-10087150D01*
X4512920Y-10087150D02*
X4531968Y-10096674D01*
X4531968Y-10096674D02*
X4541492Y-10115722D01*
X4541492Y-10115722D02*
X4541492Y-10134770D01*
X4541492Y-10134770D02*
X4446253Y-10153817D01*
X4617682Y-10210960D02*
X4636730Y-10220484D01*
X4636730Y-10220484D02*
X4674825Y-10220484D01*
X4674825Y-10220484D02*
X4693873Y-10210960D01*
X4693873Y-10210960D02*
X4703396Y-10191912D01*
X4703396Y-10191912D02*
X4703396Y-10182389D01*
X4703396Y-10182389D02*
X4693873Y-10163341D01*
X4693873Y-10163341D02*
X4674825Y-10153817D01*
X4674825Y-10153817D02*
X4646253Y-10153817D01*
X4646253Y-10153817D02*
X4627206Y-10144293D01*
X4627206Y-10144293D02*
X4617682Y-10125246D01*
X4617682Y-10125246D02*
X4617682Y-10115722D01*
X4617682Y-10115722D02*
X4627206Y-10096674D01*
X4627206Y-10096674D02*
X4646253Y-10087150D01*
X4646253Y-10087150D02*
X4674825Y-10087150D01*
X4674825Y-10087150D02*
X4693873Y-10096674D01*
X4770063Y-10296674D02*
X4779587Y-10287150D01*
X4779587Y-10287150D02*
X4798634Y-10258579D01*
X4798634Y-10258579D02*
X4808158Y-10239531D01*
X4808158Y-10239531D02*
X4817682Y-10210960D01*
X4817682Y-10210960D02*
X4827206Y-10163341D01*
X4827206Y-10163341D02*
X4827206Y-10125246D01*
X4827206Y-10125246D02*
X4817682Y-10077627D01*
X4817682Y-10077627D02*
X4808158Y-10049055D01*
X4808158Y-10049055D02*
X4798634Y-10030008D01*
X4798634Y-10030008D02*
X4779587Y-10001436D01*
X4779587Y-10001436D02*
X4770063Y-9991912D01*
D17*
X-115000Y-10338000D02*
X-5000Y-10448000D01*
X-5000Y-10338000D02*
X-115000Y-10448000D01*
X-21109Y-10431891D02*
X-21109Y-10354109D01*
X-98891Y-10354109D01*
X-98891Y-10431891D01*
X-21109Y-10431891D01*
D11*
X360539Y-10484484D02*
X246253Y-10484484D01*
X303396Y-10484484D02*
X303396Y-10284484D01*
X303396Y-10284484D02*
X284348Y-10313055D01*
X284348Y-10313055D02*
X265301Y-10332103D01*
X265301Y-10332103D02*
X246253Y-10341627D01*
X446253Y-10465436D02*
X455777Y-10474960D01*
X455777Y-10474960D02*
X446253Y-10484484D01*
X446253Y-10484484D02*
X436729Y-10474960D01*
X436729Y-10474960D02*
X446253Y-10465436D01*
X446253Y-10465436D02*
X446253Y-10484484D01*
X646253Y-10484484D02*
X531967Y-10484484D01*
X589110Y-10484484D02*
X589110Y-10284484D01*
X589110Y-10284484D02*
X570063Y-10313055D01*
X570063Y-10313055D02*
X551015Y-10332103D01*
X551015Y-10332103D02*
X531967Y-10341627D01*
X770062Y-10284484D02*
X789110Y-10284484D01*
X789110Y-10284484D02*
X808158Y-10294008D01*
X808158Y-10294008D02*
X817682Y-10303531D01*
X817682Y-10303531D02*
X827205Y-10322579D01*
X827205Y-10322579D02*
X836729Y-10360674D01*
X836729Y-10360674D02*
X836729Y-10408293D01*
X836729Y-10408293D02*
X827205Y-10446389D01*
X827205Y-10446389D02*
X817682Y-10465436D01*
X817682Y-10465436D02*
X808158Y-10474960D01*
X808158Y-10474960D02*
X789110Y-10484484D01*
X789110Y-10484484D02*
X770062Y-10484484D01*
X770062Y-10484484D02*
X751015Y-10474960D01*
X751015Y-10474960D02*
X741491Y-10465436D01*
X741491Y-10465436D02*
X731967Y-10446389D01*
X731967Y-10446389D02*
X722443Y-10408293D01*
X722443Y-10408293D02*
X722443Y-10360674D01*
X722443Y-10360674D02*
X731967Y-10322579D01*
X731967Y-10322579D02*
X741491Y-10303531D01*
X741491Y-10303531D02*
X751015Y-10294008D01*
X751015Y-10294008D02*
X770062Y-10284484D01*
X960539Y-10284484D02*
X979586Y-10284484D01*
X979586Y-10284484D02*
X998634Y-10294008D01*
X998634Y-10294008D02*
X1008158Y-10303531D01*
X1008158Y-10303531D02*
X1017682Y-10322579D01*
X1017682Y-10322579D02*
X1027205Y-10360674D01*
X1027205Y-10360674D02*
X1027205Y-10408293D01*
X1027205Y-10408293D02*
X1017682Y-10446389D01*
X1017682Y-10446389D02*
X1008158Y-10465436D01*
X1008158Y-10465436D02*
X998634Y-10474960D01*
X998634Y-10474960D02*
X979586Y-10484484D01*
X979586Y-10484484D02*
X960539Y-10484484D01*
X960539Y-10484484D02*
X941491Y-10474960D01*
X941491Y-10474960D02*
X931967Y-10465436D01*
X931967Y-10465436D02*
X922443Y-10446389D01*
X922443Y-10446389D02*
X912920Y-10408293D01*
X912920Y-10408293D02*
X912920Y-10360674D01*
X912920Y-10360674D02*
X922443Y-10322579D01*
X922443Y-10322579D02*
X931967Y-10303531D01*
X931967Y-10303531D02*
X941491Y-10294008D01*
X941491Y-10294008D02*
X960539Y-10284484D01*
X1112920Y-10484484D02*
X1112920Y-10351150D01*
X1112920Y-10370198D02*
X1122444Y-10360674D01*
X1122444Y-10360674D02*
X1141491Y-10351150D01*
X1141491Y-10351150D02*
X1170063Y-10351150D01*
X1170063Y-10351150D02*
X1189110Y-10360674D01*
X1189110Y-10360674D02*
X1198634Y-10379722D01*
X1198634Y-10379722D02*
X1198634Y-10484484D01*
X1198634Y-10379722D02*
X1208158Y-10360674D01*
X1208158Y-10360674D02*
X1227205Y-10351150D01*
X1227205Y-10351150D02*
X1255777Y-10351150D01*
X1255777Y-10351150D02*
X1274825Y-10360674D01*
X1274825Y-10360674D02*
X1284348Y-10379722D01*
X1284348Y-10379722D02*
X1284348Y-10484484D01*
X1379586Y-10484484D02*
X1379586Y-10351150D01*
X1379586Y-10370198D02*
X1389110Y-10360674D01*
X1389110Y-10360674D02*
X1408158Y-10351150D01*
X1408158Y-10351150D02*
X1436729Y-10351150D01*
X1436729Y-10351150D02*
X1455777Y-10360674D01*
X1455777Y-10360674D02*
X1465301Y-10379722D01*
X1465301Y-10379722D02*
X1465301Y-10484484D01*
X1465301Y-10379722D02*
X1474824Y-10360674D01*
X1474824Y-10360674D02*
X1493872Y-10351150D01*
X1493872Y-10351150D02*
X1522443Y-10351150D01*
X1522443Y-10351150D02*
X1541491Y-10360674D01*
X1541491Y-10360674D02*
X1551015Y-10379722D01*
X1551015Y-10379722D02*
X1551015Y-10484484D01*
X1941491Y-10274960D02*
X1770063Y-10532103D01*
X2198634Y-10284484D02*
X2217682Y-10284484D01*
X2217682Y-10284484D02*
X2236729Y-10294008D01*
X2236729Y-10294008D02*
X2246253Y-10303531D01*
X2246253Y-10303531D02*
X2255777Y-10322579D01*
X2255777Y-10322579D02*
X2265301Y-10360674D01*
X2265301Y-10360674D02*
X2265301Y-10408293D01*
X2265301Y-10408293D02*
X2255777Y-10446389D01*
X2255777Y-10446389D02*
X2246253Y-10465436D01*
X2246253Y-10465436D02*
X2236729Y-10474960D01*
X2236729Y-10474960D02*
X2217682Y-10484484D01*
X2217682Y-10484484D02*
X2198634Y-10484484D01*
X2198634Y-10484484D02*
X2179587Y-10474960D01*
X2179587Y-10474960D02*
X2170063Y-10465436D01*
X2170063Y-10465436D02*
X2160539Y-10446389D01*
X2160539Y-10446389D02*
X2151015Y-10408293D01*
X2151015Y-10408293D02*
X2151015Y-10360674D01*
X2151015Y-10360674D02*
X2160539Y-10322579D01*
X2160539Y-10322579D02*
X2170063Y-10303531D01*
X2170063Y-10303531D02*
X2179587Y-10294008D01*
X2179587Y-10294008D02*
X2198634Y-10284484D01*
X2351015Y-10465436D02*
X2360539Y-10474960D01*
X2360539Y-10474960D02*
X2351015Y-10484484D01*
X2351015Y-10484484D02*
X2341491Y-10474960D01*
X2341491Y-10474960D02*
X2351015Y-10465436D01*
X2351015Y-10465436D02*
X2351015Y-10484484D01*
X2484348Y-10284484D02*
X2503396Y-10284484D01*
X2503396Y-10284484D02*
X2522444Y-10294008D01*
X2522444Y-10294008D02*
X2531968Y-10303531D01*
X2531968Y-10303531D02*
X2541491Y-10322579D01*
X2541491Y-10322579D02*
X2551015Y-10360674D01*
X2551015Y-10360674D02*
X2551015Y-10408293D01*
X2551015Y-10408293D02*
X2541491Y-10446389D01*
X2541491Y-10446389D02*
X2531968Y-10465436D01*
X2531968Y-10465436D02*
X2522444Y-10474960D01*
X2522444Y-10474960D02*
X2503396Y-10484484D01*
X2503396Y-10484484D02*
X2484348Y-10484484D01*
X2484348Y-10484484D02*
X2465301Y-10474960D01*
X2465301Y-10474960D02*
X2455777Y-10465436D01*
X2455777Y-10465436D02*
X2446253Y-10446389D01*
X2446253Y-10446389D02*
X2436729Y-10408293D01*
X2436729Y-10408293D02*
X2436729Y-10360674D01*
X2436729Y-10360674D02*
X2446253Y-10322579D01*
X2446253Y-10322579D02*
X2455777Y-10303531D01*
X2455777Y-10303531D02*
X2465301Y-10294008D01*
X2465301Y-10294008D02*
X2484348Y-10284484D01*
X2722444Y-10351150D02*
X2722444Y-10484484D01*
X2674825Y-10274960D02*
X2627206Y-10417817D01*
X2627206Y-10417817D02*
X2751015Y-10417817D01*
X2808158Y-10284484D02*
X2931967Y-10284484D01*
X2931967Y-10284484D02*
X2865301Y-10360674D01*
X2865301Y-10360674D02*
X2893872Y-10360674D01*
X2893872Y-10360674D02*
X2912920Y-10370198D01*
X2912920Y-10370198D02*
X2922444Y-10379722D01*
X2922444Y-10379722D02*
X2931967Y-10398770D01*
X2931967Y-10398770D02*
X2931967Y-10446389D01*
X2931967Y-10446389D02*
X2922444Y-10465436D01*
X2922444Y-10465436D02*
X2912920Y-10474960D01*
X2912920Y-10474960D02*
X2893872Y-10484484D01*
X2893872Y-10484484D02*
X2836729Y-10484484D01*
X2836729Y-10484484D02*
X2817682Y-10474960D01*
X2817682Y-10474960D02*
X2808158Y-10465436D01*
X2998634Y-10284484D02*
X3122444Y-10284484D01*
X3122444Y-10284484D02*
X3055777Y-10360674D01*
X3055777Y-10360674D02*
X3084348Y-10360674D01*
X3084348Y-10360674D02*
X3103396Y-10370198D01*
X3103396Y-10370198D02*
X3112920Y-10379722D01*
X3112920Y-10379722D02*
X3122444Y-10398770D01*
X3122444Y-10398770D02*
X3122444Y-10446389D01*
X3122444Y-10446389D02*
X3112920Y-10465436D01*
X3112920Y-10465436D02*
X3103396Y-10474960D01*
X3103396Y-10474960D02*
X3084348Y-10484484D01*
X3084348Y-10484484D02*
X3027206Y-10484484D01*
X3027206Y-10484484D02*
X3008158Y-10474960D01*
X3008158Y-10474960D02*
X2998634Y-10465436D01*
X3198634Y-10284484D02*
X3198634Y-10322579D01*
X3274825Y-10284484D02*
X3274825Y-10322579D01*
X3570063Y-10560674D02*
X3560539Y-10551150D01*
X3560539Y-10551150D02*
X3541491Y-10522579D01*
X3541491Y-10522579D02*
X3531968Y-10503531D01*
X3531968Y-10503531D02*
X3522444Y-10474960D01*
X3522444Y-10474960D02*
X3512920Y-10427341D01*
X3512920Y-10427341D02*
X3512920Y-10389246D01*
X3512920Y-10389246D02*
X3522444Y-10341627D01*
X3522444Y-10341627D02*
X3531968Y-10313055D01*
X3531968Y-10313055D02*
X3541491Y-10294008D01*
X3541491Y-10294008D02*
X3560539Y-10265436D01*
X3560539Y-10265436D02*
X3570063Y-10255912D01*
X3684348Y-10284484D02*
X3703396Y-10284484D01*
X3703396Y-10284484D02*
X3722444Y-10294008D01*
X3722444Y-10294008D02*
X3731968Y-10303531D01*
X3731968Y-10303531D02*
X3741491Y-10322579D01*
X3741491Y-10322579D02*
X3751015Y-10360674D01*
X3751015Y-10360674D02*
X3751015Y-10408293D01*
X3751015Y-10408293D02*
X3741491Y-10446389D01*
X3741491Y-10446389D02*
X3731968Y-10465436D01*
X3731968Y-10465436D02*
X3722444Y-10474960D01*
X3722444Y-10474960D02*
X3703396Y-10484484D01*
X3703396Y-10484484D02*
X3684348Y-10484484D01*
X3684348Y-10484484D02*
X3665301Y-10474960D01*
X3665301Y-10474960D02*
X3655777Y-10465436D01*
X3655777Y-10465436D02*
X3646253Y-10446389D01*
X3646253Y-10446389D02*
X3636729Y-10408293D01*
X3636729Y-10408293D02*
X3636729Y-10360674D01*
X3636729Y-10360674D02*
X3646253Y-10322579D01*
X3646253Y-10322579D02*
X3655777Y-10303531D01*
X3655777Y-10303531D02*
X3665301Y-10294008D01*
X3665301Y-10294008D02*
X3684348Y-10284484D01*
X3989110Y-10484484D02*
X3989110Y-10284484D01*
X4074825Y-10484484D02*
X4074825Y-10379722D01*
X4074825Y-10379722D02*
X4065301Y-10360674D01*
X4065301Y-10360674D02*
X4046253Y-10351150D01*
X4046253Y-10351150D02*
X4017682Y-10351150D01*
X4017682Y-10351150D02*
X3998634Y-10360674D01*
X3998634Y-10360674D02*
X3989110Y-10370198D01*
X4198634Y-10484484D02*
X4179587Y-10474960D01*
X4179587Y-10474960D02*
X4170063Y-10465436D01*
X4170063Y-10465436D02*
X4160539Y-10446389D01*
X4160539Y-10446389D02*
X4160539Y-10389246D01*
X4160539Y-10389246D02*
X4170063Y-10370198D01*
X4170063Y-10370198D02*
X4179587Y-10360674D01*
X4179587Y-10360674D02*
X4198634Y-10351150D01*
X4198634Y-10351150D02*
X4227206Y-10351150D01*
X4227206Y-10351150D02*
X4246253Y-10360674D01*
X4246253Y-10360674D02*
X4255777Y-10370198D01*
X4255777Y-10370198D02*
X4265301Y-10389246D01*
X4265301Y-10389246D02*
X4265301Y-10446389D01*
X4265301Y-10446389D02*
X4255777Y-10465436D01*
X4255777Y-10465436D02*
X4246253Y-10474960D01*
X4246253Y-10474960D02*
X4227206Y-10484484D01*
X4227206Y-10484484D02*
X4198634Y-10484484D01*
X4379587Y-10484484D02*
X4360539Y-10474960D01*
X4360539Y-10474960D02*
X4351015Y-10455912D01*
X4351015Y-10455912D02*
X4351015Y-10284484D01*
X4531968Y-10474960D02*
X4512920Y-10484484D01*
X4512920Y-10484484D02*
X4474825Y-10484484D01*
X4474825Y-10484484D02*
X4455777Y-10474960D01*
X4455777Y-10474960D02*
X4446253Y-10455912D01*
X4446253Y-10455912D02*
X4446253Y-10379722D01*
X4446253Y-10379722D02*
X4455777Y-10360674D01*
X4455777Y-10360674D02*
X4474825Y-10351150D01*
X4474825Y-10351150D02*
X4512920Y-10351150D01*
X4512920Y-10351150D02*
X4531968Y-10360674D01*
X4531968Y-10360674D02*
X4541492Y-10379722D01*
X4541492Y-10379722D02*
X4541492Y-10398770D01*
X4541492Y-10398770D02*
X4446253Y-10417817D01*
X4617682Y-10474960D02*
X4636730Y-10484484D01*
X4636730Y-10484484D02*
X4674825Y-10484484D01*
X4674825Y-10484484D02*
X4693873Y-10474960D01*
X4693873Y-10474960D02*
X4703396Y-10455912D01*
X4703396Y-10455912D02*
X4703396Y-10446389D01*
X4703396Y-10446389D02*
X4693873Y-10427341D01*
X4693873Y-10427341D02*
X4674825Y-10417817D01*
X4674825Y-10417817D02*
X4646253Y-10417817D01*
X4646253Y-10417817D02*
X4627206Y-10408293D01*
X4627206Y-10408293D02*
X4617682Y-10389246D01*
X4617682Y-10389246D02*
X4617682Y-10379722D01*
X4617682Y-10379722D02*
X4627206Y-10360674D01*
X4627206Y-10360674D02*
X4646253Y-10351150D01*
X4646253Y-10351150D02*
X4674825Y-10351150D01*
X4674825Y-10351150D02*
X4693873Y-10360674D01*
X4941492Y-10408293D02*
X5093873Y-10408293D01*
X5017682Y-10484484D02*
X5017682Y-10332103D01*
X5331968Y-10303531D02*
X5341492Y-10294008D01*
X5341492Y-10294008D02*
X5360539Y-10284484D01*
X5360539Y-10284484D02*
X5408158Y-10284484D01*
X5408158Y-10284484D02*
X5427206Y-10294008D01*
X5427206Y-10294008D02*
X5436730Y-10303531D01*
X5436730Y-10303531D02*
X5446254Y-10322579D01*
X5446254Y-10322579D02*
X5446254Y-10341627D01*
X5446254Y-10341627D02*
X5436730Y-10370198D01*
X5436730Y-10370198D02*
X5322444Y-10484484D01*
X5322444Y-10484484D02*
X5446254Y-10484484D01*
X5674825Y-10474960D02*
X5693873Y-10484484D01*
X5693873Y-10484484D02*
X5731968Y-10484484D01*
X5731968Y-10484484D02*
X5751015Y-10474960D01*
X5751015Y-10474960D02*
X5760539Y-10455912D01*
X5760539Y-10455912D02*
X5760539Y-10446389D01*
X5760539Y-10446389D02*
X5751015Y-10427341D01*
X5751015Y-10427341D02*
X5731968Y-10417817D01*
X5731968Y-10417817D02*
X5703396Y-10417817D01*
X5703396Y-10417817D02*
X5684349Y-10408293D01*
X5684349Y-10408293D02*
X5674825Y-10389246D01*
X5674825Y-10389246D02*
X5674825Y-10379722D01*
X5674825Y-10379722D02*
X5684349Y-10360674D01*
X5684349Y-10360674D02*
X5703396Y-10351150D01*
X5703396Y-10351150D02*
X5731968Y-10351150D01*
X5731968Y-10351150D02*
X5751015Y-10360674D01*
X5874825Y-10484484D02*
X5855777Y-10474960D01*
X5855777Y-10474960D02*
X5846254Y-10455912D01*
X5846254Y-10455912D02*
X5846254Y-10284484D01*
X5979587Y-10484484D02*
X5960539Y-10474960D01*
X5960539Y-10474960D02*
X5951015Y-10465436D01*
X5951015Y-10465436D02*
X5941492Y-10446389D01*
X5941492Y-10446389D02*
X5941492Y-10389246D01*
X5941492Y-10389246D02*
X5951015Y-10370198D01*
X5951015Y-10370198D02*
X5960539Y-10360674D01*
X5960539Y-10360674D02*
X5979587Y-10351150D01*
X5979587Y-10351150D02*
X6008158Y-10351150D01*
X6008158Y-10351150D02*
X6027206Y-10360674D01*
X6027206Y-10360674D02*
X6036730Y-10370198D01*
X6036730Y-10370198D02*
X6046254Y-10389246D01*
X6046254Y-10389246D02*
X6046254Y-10446389D01*
X6046254Y-10446389D02*
X6036730Y-10465436D01*
X6036730Y-10465436D02*
X6027206Y-10474960D01*
X6027206Y-10474960D02*
X6008158Y-10484484D01*
X6008158Y-10484484D02*
X5979587Y-10484484D01*
X6103396Y-10351150D02*
X6179587Y-10351150D01*
X6131968Y-10284484D02*
X6131968Y-10455912D01*
X6131968Y-10455912D02*
X6141492Y-10474960D01*
X6141492Y-10474960D02*
X6160539Y-10484484D01*
X6160539Y-10484484D02*
X6179587Y-10484484D01*
X6236730Y-10474960D02*
X6255777Y-10484484D01*
X6255777Y-10484484D02*
X6293873Y-10484484D01*
X6293873Y-10484484D02*
X6312920Y-10474960D01*
X6312920Y-10474960D02*
X6322444Y-10455912D01*
X6322444Y-10455912D02*
X6322444Y-10446389D01*
X6322444Y-10446389D02*
X6312920Y-10427341D01*
X6312920Y-10427341D02*
X6293873Y-10417817D01*
X6293873Y-10417817D02*
X6265301Y-10417817D01*
X6265301Y-10417817D02*
X6246254Y-10408293D01*
X6246254Y-10408293D02*
X6236730Y-10389246D01*
X6236730Y-10389246D02*
X6236730Y-10379722D01*
X6236730Y-10379722D02*
X6246254Y-10360674D01*
X6246254Y-10360674D02*
X6265301Y-10351150D01*
X6265301Y-10351150D02*
X6293873Y-10351150D01*
X6293873Y-10351150D02*
X6312920Y-10360674D01*
X6389111Y-10560674D02*
X6398635Y-10551150D01*
X6398635Y-10551150D02*
X6417682Y-10522579D01*
X6417682Y-10522579D02*
X6427206Y-10503531D01*
X6427206Y-10503531D02*
X6436730Y-10474960D01*
X6436730Y-10474960D02*
X6446254Y-10427341D01*
X6446254Y-10427341D02*
X6446254Y-10389246D01*
X6446254Y-10389246D02*
X6436730Y-10341627D01*
X6436730Y-10341627D02*
X6427206Y-10313055D01*
X6427206Y-10313055D02*
X6417682Y-10294008D01*
X6417682Y-10294008D02*
X6398635Y-10265436D01*
X6398635Y-10265436D02*
X6389111Y-10255912D01*
D18*
X-135000Y-10592000D02*
X-5000Y-10722000D01*
X-5000Y-10592000D02*
X-135000Y-10722000D01*
X-70000Y-10722000D02*
X-5000Y-10657000D01*
X-70000Y-10592000D01*
X-135000Y-10657000D01*
X-70000Y-10722000D01*
D11*
X360539Y-10748484D02*
X246253Y-10748484D01*
X303396Y-10748484D02*
X303396Y-10548484D01*
X303396Y-10548484D02*
X284348Y-10577055D01*
X284348Y-10577055D02*
X265301Y-10596103D01*
X265301Y-10596103D02*
X246253Y-10605627D01*
X446253Y-10729436D02*
X455777Y-10738960D01*
X455777Y-10738960D02*
X446253Y-10748484D01*
X446253Y-10748484D02*
X436729Y-10738960D01*
X436729Y-10738960D02*
X446253Y-10729436D01*
X446253Y-10729436D02*
X446253Y-10748484D01*
X522443Y-10548484D02*
X646253Y-10548484D01*
X646253Y-10548484D02*
X579586Y-10624674D01*
X579586Y-10624674D02*
X608158Y-10624674D01*
X608158Y-10624674D02*
X627205Y-10634198D01*
X627205Y-10634198D02*
X636729Y-10643722D01*
X636729Y-10643722D02*
X646253Y-10662770D01*
X646253Y-10662770D02*
X646253Y-10710389D01*
X646253Y-10710389D02*
X636729Y-10729436D01*
X636729Y-10729436D02*
X627205Y-10738960D01*
X627205Y-10738960D02*
X608158Y-10748484D01*
X608158Y-10748484D02*
X551015Y-10748484D01*
X551015Y-10748484D02*
X531967Y-10738960D01*
X531967Y-10738960D02*
X522443Y-10729436D01*
X770062Y-10548484D02*
X789110Y-10548484D01*
X789110Y-10548484D02*
X808158Y-10558008D01*
X808158Y-10558008D02*
X817682Y-10567531D01*
X817682Y-10567531D02*
X827205Y-10586579D01*
X827205Y-10586579D02*
X836729Y-10624674D01*
X836729Y-10624674D02*
X836729Y-10672293D01*
X836729Y-10672293D02*
X827205Y-10710389D01*
X827205Y-10710389D02*
X817682Y-10729436D01*
X817682Y-10729436D02*
X808158Y-10738960D01*
X808158Y-10738960D02*
X789110Y-10748484D01*
X789110Y-10748484D02*
X770062Y-10748484D01*
X770062Y-10748484D02*
X751015Y-10738960D01*
X751015Y-10738960D02*
X741491Y-10729436D01*
X741491Y-10729436D02*
X731967Y-10710389D01*
X731967Y-10710389D02*
X722443Y-10672293D01*
X722443Y-10672293D02*
X722443Y-10624674D01*
X722443Y-10624674D02*
X731967Y-10586579D01*
X731967Y-10586579D02*
X741491Y-10567531D01*
X741491Y-10567531D02*
X751015Y-10558008D01*
X751015Y-10558008D02*
X770062Y-10548484D01*
X960539Y-10548484D02*
X979586Y-10548484D01*
X979586Y-10548484D02*
X998634Y-10558008D01*
X998634Y-10558008D02*
X1008158Y-10567531D01*
X1008158Y-10567531D02*
X1017682Y-10586579D01*
X1017682Y-10586579D02*
X1027205Y-10624674D01*
X1027205Y-10624674D02*
X1027205Y-10672293D01*
X1027205Y-10672293D02*
X1017682Y-10710389D01*
X1017682Y-10710389D02*
X1008158Y-10729436D01*
X1008158Y-10729436D02*
X998634Y-10738960D01*
X998634Y-10738960D02*
X979586Y-10748484D01*
X979586Y-10748484D02*
X960539Y-10748484D01*
X960539Y-10748484D02*
X941491Y-10738960D01*
X941491Y-10738960D02*
X931967Y-10729436D01*
X931967Y-10729436D02*
X922443Y-10710389D01*
X922443Y-10710389D02*
X912920Y-10672293D01*
X912920Y-10672293D02*
X912920Y-10624674D01*
X912920Y-10624674D02*
X922443Y-10586579D01*
X922443Y-10586579D02*
X931967Y-10567531D01*
X931967Y-10567531D02*
X941491Y-10558008D01*
X941491Y-10558008D02*
X960539Y-10548484D01*
X1112920Y-10748484D02*
X1112920Y-10615150D01*
X1112920Y-10634198D02*
X1122444Y-10624674D01*
X1122444Y-10624674D02*
X1141491Y-10615150D01*
X1141491Y-10615150D02*
X1170063Y-10615150D01*
X1170063Y-10615150D02*
X1189110Y-10624674D01*
X1189110Y-10624674D02*
X1198634Y-10643722D01*
X1198634Y-10643722D02*
X1198634Y-10748484D01*
X1198634Y-10643722D02*
X1208158Y-10624674D01*
X1208158Y-10624674D02*
X1227205Y-10615150D01*
X1227205Y-10615150D02*
X1255777Y-10615150D01*
X1255777Y-10615150D02*
X1274825Y-10624674D01*
X1274825Y-10624674D02*
X1284348Y-10643722D01*
X1284348Y-10643722D02*
X1284348Y-10748484D01*
X1379586Y-10748484D02*
X1379586Y-10615150D01*
X1379586Y-10634198D02*
X1389110Y-10624674D01*
X1389110Y-10624674D02*
X1408158Y-10615150D01*
X1408158Y-10615150D02*
X1436729Y-10615150D01*
X1436729Y-10615150D02*
X1455777Y-10624674D01*
X1455777Y-10624674D02*
X1465301Y-10643722D01*
X1465301Y-10643722D02*
X1465301Y-10748484D01*
X1465301Y-10643722D02*
X1474824Y-10624674D01*
X1474824Y-10624674D02*
X1493872Y-10615150D01*
X1493872Y-10615150D02*
X1522443Y-10615150D01*
X1522443Y-10615150D02*
X1541491Y-10624674D01*
X1541491Y-10624674D02*
X1551015Y-10643722D01*
X1551015Y-10643722D02*
X1551015Y-10748484D01*
X1941491Y-10538960D02*
X1770063Y-10796103D01*
X2198634Y-10548484D02*
X2217682Y-10548484D01*
X2217682Y-10548484D02*
X2236729Y-10558008D01*
X2236729Y-10558008D02*
X2246253Y-10567531D01*
X2246253Y-10567531D02*
X2255777Y-10586579D01*
X2255777Y-10586579D02*
X2265301Y-10624674D01*
X2265301Y-10624674D02*
X2265301Y-10672293D01*
X2265301Y-10672293D02*
X2255777Y-10710389D01*
X2255777Y-10710389D02*
X2246253Y-10729436D01*
X2246253Y-10729436D02*
X2236729Y-10738960D01*
X2236729Y-10738960D02*
X2217682Y-10748484D01*
X2217682Y-10748484D02*
X2198634Y-10748484D01*
X2198634Y-10748484D02*
X2179587Y-10738960D01*
X2179587Y-10738960D02*
X2170063Y-10729436D01*
X2170063Y-10729436D02*
X2160539Y-10710389D01*
X2160539Y-10710389D02*
X2151015Y-10672293D01*
X2151015Y-10672293D02*
X2151015Y-10624674D01*
X2151015Y-10624674D02*
X2160539Y-10586579D01*
X2160539Y-10586579D02*
X2170063Y-10567531D01*
X2170063Y-10567531D02*
X2179587Y-10558008D01*
X2179587Y-10558008D02*
X2198634Y-10548484D01*
X2351015Y-10729436D02*
X2360539Y-10738960D01*
X2360539Y-10738960D02*
X2351015Y-10748484D01*
X2351015Y-10748484D02*
X2341491Y-10738960D01*
X2341491Y-10738960D02*
X2351015Y-10729436D01*
X2351015Y-10729436D02*
X2351015Y-10748484D01*
X2484348Y-10548484D02*
X2503396Y-10548484D01*
X2503396Y-10548484D02*
X2522444Y-10558008D01*
X2522444Y-10558008D02*
X2531968Y-10567531D01*
X2531968Y-10567531D02*
X2541491Y-10586579D01*
X2541491Y-10586579D02*
X2551015Y-10624674D01*
X2551015Y-10624674D02*
X2551015Y-10672293D01*
X2551015Y-10672293D02*
X2541491Y-10710389D01*
X2541491Y-10710389D02*
X2531968Y-10729436D01*
X2531968Y-10729436D02*
X2522444Y-10738960D01*
X2522444Y-10738960D02*
X2503396Y-10748484D01*
X2503396Y-10748484D02*
X2484348Y-10748484D01*
X2484348Y-10748484D02*
X2465301Y-10738960D01*
X2465301Y-10738960D02*
X2455777Y-10729436D01*
X2455777Y-10729436D02*
X2446253Y-10710389D01*
X2446253Y-10710389D02*
X2436729Y-10672293D01*
X2436729Y-10672293D02*
X2436729Y-10624674D01*
X2436729Y-10624674D02*
X2446253Y-10586579D01*
X2446253Y-10586579D02*
X2455777Y-10567531D01*
X2455777Y-10567531D02*
X2465301Y-10558008D01*
X2465301Y-10558008D02*
X2484348Y-10548484D01*
X2731968Y-10548484D02*
X2636729Y-10548484D01*
X2636729Y-10548484D02*
X2627206Y-10643722D01*
X2627206Y-10643722D02*
X2636729Y-10634198D01*
X2636729Y-10634198D02*
X2655777Y-10624674D01*
X2655777Y-10624674D02*
X2703396Y-10624674D01*
X2703396Y-10624674D02*
X2722444Y-10634198D01*
X2722444Y-10634198D02*
X2731968Y-10643722D01*
X2731968Y-10643722D02*
X2741491Y-10662770D01*
X2741491Y-10662770D02*
X2741491Y-10710389D01*
X2741491Y-10710389D02*
X2731968Y-10729436D01*
X2731968Y-10729436D02*
X2722444Y-10738960D01*
X2722444Y-10738960D02*
X2703396Y-10748484D01*
X2703396Y-10748484D02*
X2655777Y-10748484D01*
X2655777Y-10748484D02*
X2636729Y-10738960D01*
X2636729Y-10738960D02*
X2627206Y-10729436D01*
X2931967Y-10748484D02*
X2817682Y-10748484D01*
X2874825Y-10748484D02*
X2874825Y-10548484D01*
X2874825Y-10548484D02*
X2855777Y-10577055D01*
X2855777Y-10577055D02*
X2836729Y-10596103D01*
X2836729Y-10596103D02*
X2817682Y-10605627D01*
X3008158Y-10567531D02*
X3017682Y-10558008D01*
X3017682Y-10558008D02*
X3036729Y-10548484D01*
X3036729Y-10548484D02*
X3084348Y-10548484D01*
X3084348Y-10548484D02*
X3103396Y-10558008D01*
X3103396Y-10558008D02*
X3112920Y-10567531D01*
X3112920Y-10567531D02*
X3122444Y-10586579D01*
X3122444Y-10586579D02*
X3122444Y-10605627D01*
X3122444Y-10605627D02*
X3112920Y-10634198D01*
X3112920Y-10634198D02*
X2998634Y-10748484D01*
X2998634Y-10748484D02*
X3122444Y-10748484D01*
X3198634Y-10548484D02*
X3198634Y-10586579D01*
X3274825Y-10548484D02*
X3274825Y-10586579D01*
X3570063Y-10824674D02*
X3560539Y-10815150D01*
X3560539Y-10815150D02*
X3541491Y-10786579D01*
X3541491Y-10786579D02*
X3531968Y-10767531D01*
X3531968Y-10767531D02*
X3522444Y-10738960D01*
X3522444Y-10738960D02*
X3512920Y-10691341D01*
X3512920Y-10691341D02*
X3512920Y-10653246D01*
X3512920Y-10653246D02*
X3522444Y-10605627D01*
X3522444Y-10605627D02*
X3531968Y-10577055D01*
X3531968Y-10577055D02*
X3541491Y-10558008D01*
X3541491Y-10558008D02*
X3560539Y-10529436D01*
X3560539Y-10529436D02*
X3570063Y-10519912D01*
X3751015Y-10748484D02*
X3636729Y-10748484D01*
X3693872Y-10748484D02*
X3693872Y-10548484D01*
X3693872Y-10548484D02*
X3674825Y-10577055D01*
X3674825Y-10577055D02*
X3655777Y-10596103D01*
X3655777Y-10596103D02*
X3636729Y-10605627D01*
X3846253Y-10748484D02*
X3884348Y-10748484D01*
X3884348Y-10748484D02*
X3903396Y-10738960D01*
X3903396Y-10738960D02*
X3912920Y-10729436D01*
X3912920Y-10729436D02*
X3931968Y-10700865D01*
X3931968Y-10700865D02*
X3941491Y-10662770D01*
X3941491Y-10662770D02*
X3941491Y-10586579D01*
X3941491Y-10586579D02*
X3931968Y-10567531D01*
X3931968Y-10567531D02*
X3922444Y-10558008D01*
X3922444Y-10558008D02*
X3903396Y-10548484D01*
X3903396Y-10548484D02*
X3865301Y-10548484D01*
X3865301Y-10548484D02*
X3846253Y-10558008D01*
X3846253Y-10558008D02*
X3836729Y-10567531D01*
X3836729Y-10567531D02*
X3827206Y-10586579D01*
X3827206Y-10586579D02*
X3827206Y-10634198D01*
X3827206Y-10634198D02*
X3836729Y-10653246D01*
X3836729Y-10653246D02*
X3846253Y-10662770D01*
X3846253Y-10662770D02*
X3865301Y-10672293D01*
X3865301Y-10672293D02*
X3903396Y-10672293D01*
X3903396Y-10672293D02*
X3922444Y-10662770D01*
X3922444Y-10662770D02*
X3931968Y-10653246D01*
X3931968Y-10653246D02*
X3941491Y-10634198D01*
X4179587Y-10748484D02*
X4179587Y-10548484D01*
X4265301Y-10748484D02*
X4265301Y-10643722D01*
X4265301Y-10643722D02*
X4255777Y-10624674D01*
X4255777Y-10624674D02*
X4236730Y-10615150D01*
X4236730Y-10615150D02*
X4208158Y-10615150D01*
X4208158Y-10615150D02*
X4189110Y-10624674D01*
X4189110Y-10624674D02*
X4179587Y-10634198D01*
X4389111Y-10748484D02*
X4370063Y-10738960D01*
X4370063Y-10738960D02*
X4360539Y-10729436D01*
X4360539Y-10729436D02*
X4351015Y-10710389D01*
X4351015Y-10710389D02*
X4351015Y-10653246D01*
X4351015Y-10653246D02*
X4360539Y-10634198D01*
X4360539Y-10634198D02*
X4370063Y-10624674D01*
X4370063Y-10624674D02*
X4389111Y-10615150D01*
X4389111Y-10615150D02*
X4417682Y-10615150D01*
X4417682Y-10615150D02*
X4436730Y-10624674D01*
X4436730Y-10624674D02*
X4446253Y-10634198D01*
X4446253Y-10634198D02*
X4455777Y-10653246D01*
X4455777Y-10653246D02*
X4455777Y-10710389D01*
X4455777Y-10710389D02*
X4446253Y-10729436D01*
X4446253Y-10729436D02*
X4436730Y-10738960D01*
X4436730Y-10738960D02*
X4417682Y-10748484D01*
X4417682Y-10748484D02*
X4389111Y-10748484D01*
X4570063Y-10748484D02*
X4551015Y-10738960D01*
X4551015Y-10738960D02*
X4541492Y-10719912D01*
X4541492Y-10719912D02*
X4541492Y-10548484D01*
X4722444Y-10738960D02*
X4703396Y-10748484D01*
X4703396Y-10748484D02*
X4665301Y-10748484D01*
X4665301Y-10748484D02*
X4646253Y-10738960D01*
X4646253Y-10738960D02*
X4636730Y-10719912D01*
X4636730Y-10719912D02*
X4636730Y-10643722D01*
X4636730Y-10643722D02*
X4646253Y-10624674D01*
X4646253Y-10624674D02*
X4665301Y-10615150D01*
X4665301Y-10615150D02*
X4703396Y-10615150D01*
X4703396Y-10615150D02*
X4722444Y-10624674D01*
X4722444Y-10624674D02*
X4731968Y-10643722D01*
X4731968Y-10643722D02*
X4731968Y-10662770D01*
X4731968Y-10662770D02*
X4636730Y-10681817D01*
X4808158Y-10738960D02*
X4827206Y-10748484D01*
X4827206Y-10748484D02*
X4865301Y-10748484D01*
X4865301Y-10748484D02*
X4884349Y-10738960D01*
X4884349Y-10738960D02*
X4893873Y-10719912D01*
X4893873Y-10719912D02*
X4893873Y-10710389D01*
X4893873Y-10710389D02*
X4884349Y-10691341D01*
X4884349Y-10691341D02*
X4865301Y-10681817D01*
X4865301Y-10681817D02*
X4836730Y-10681817D01*
X4836730Y-10681817D02*
X4817682Y-10672293D01*
X4817682Y-10672293D02*
X4808158Y-10653246D01*
X4808158Y-10653246D02*
X4808158Y-10643722D01*
X4808158Y-10643722D02*
X4817682Y-10624674D01*
X4817682Y-10624674D02*
X4836730Y-10615150D01*
X4836730Y-10615150D02*
X4865301Y-10615150D01*
X4865301Y-10615150D02*
X4884349Y-10624674D01*
X4960539Y-10824674D02*
X4970063Y-10815150D01*
X4970063Y-10815150D02*
X4989111Y-10786579D01*
X4989111Y-10786579D02*
X4998634Y-10767531D01*
X4998634Y-10767531D02*
X5008158Y-10738960D01*
X5008158Y-10738960D02*
X5017682Y-10691341D01*
X5017682Y-10691341D02*
X5017682Y-10653246D01*
X5017682Y-10653246D02*
X5008158Y-10605627D01*
X5008158Y-10605627D02*
X4998634Y-10577055D01*
X4998634Y-10577055D02*
X4989111Y-10558008D01*
X4989111Y-10558008D02*
X4970063Y-10529436D01*
X4970063Y-10529436D02*
X4960539Y-10519912D01*
X-105000Y-10821000D02*
X-105000Y-11021000D01*
X-205000Y-10921000D02*
X-5000Y-10921000D01*
X-5000Y-10921000D02*
G75*
G03*
X-5000Y-10921000I-100000J0D01*
G01*
X246253Y-10831531D02*
X255777Y-10822008D01*
X255777Y-10822008D02*
X274824Y-10812484D01*
X274824Y-10812484D02*
X322444Y-10812484D01*
X322444Y-10812484D02*
X341491Y-10822008D01*
X341491Y-10822008D02*
X351015Y-10831531D01*
X351015Y-10831531D02*
X360539Y-10850579D01*
X360539Y-10850579D02*
X360539Y-10869627D01*
X360539Y-10869627D02*
X351015Y-10898198D01*
X351015Y-10898198D02*
X236729Y-11012484D01*
X236729Y-11012484D02*
X360539Y-11012484D01*
X446253Y-10993436D02*
X455777Y-11002960D01*
X455777Y-11002960D02*
X446253Y-11012484D01*
X446253Y-11012484D02*
X436729Y-11002960D01*
X436729Y-11002960D02*
X446253Y-10993436D01*
X446253Y-10993436D02*
X446253Y-11012484D01*
X579586Y-10812484D02*
X598634Y-10812484D01*
X598634Y-10812484D02*
X617682Y-10822008D01*
X617682Y-10822008D02*
X627205Y-10831531D01*
X627205Y-10831531D02*
X636729Y-10850579D01*
X636729Y-10850579D02*
X646253Y-10888674D01*
X646253Y-10888674D02*
X646253Y-10936293D01*
X646253Y-10936293D02*
X636729Y-10974389D01*
X636729Y-10974389D02*
X627205Y-10993436D01*
X627205Y-10993436D02*
X617682Y-11002960D01*
X617682Y-11002960D02*
X598634Y-11012484D01*
X598634Y-11012484D02*
X579586Y-11012484D01*
X579586Y-11012484D02*
X560539Y-11002960D01*
X560539Y-11002960D02*
X551015Y-10993436D01*
X551015Y-10993436D02*
X541491Y-10974389D01*
X541491Y-10974389D02*
X531967Y-10936293D01*
X531967Y-10936293D02*
X531967Y-10888674D01*
X531967Y-10888674D02*
X541491Y-10850579D01*
X541491Y-10850579D02*
X551015Y-10831531D01*
X551015Y-10831531D02*
X560539Y-10822008D01*
X560539Y-10822008D02*
X579586Y-10812484D01*
X770062Y-10812484D02*
X789110Y-10812484D01*
X789110Y-10812484D02*
X808158Y-10822008D01*
X808158Y-10822008D02*
X817682Y-10831531D01*
X817682Y-10831531D02*
X827205Y-10850579D01*
X827205Y-10850579D02*
X836729Y-10888674D01*
X836729Y-10888674D02*
X836729Y-10936293D01*
X836729Y-10936293D02*
X827205Y-10974389D01*
X827205Y-10974389D02*
X817682Y-10993436D01*
X817682Y-10993436D02*
X808158Y-11002960D01*
X808158Y-11002960D02*
X789110Y-11012484D01*
X789110Y-11012484D02*
X770062Y-11012484D01*
X770062Y-11012484D02*
X751015Y-11002960D01*
X751015Y-11002960D02*
X741491Y-10993436D01*
X741491Y-10993436D02*
X731967Y-10974389D01*
X731967Y-10974389D02*
X722443Y-10936293D01*
X722443Y-10936293D02*
X722443Y-10888674D01*
X722443Y-10888674D02*
X731967Y-10850579D01*
X731967Y-10850579D02*
X741491Y-10831531D01*
X741491Y-10831531D02*
X751015Y-10822008D01*
X751015Y-10822008D02*
X770062Y-10812484D01*
X960539Y-10812484D02*
X979586Y-10812484D01*
X979586Y-10812484D02*
X998634Y-10822008D01*
X998634Y-10822008D02*
X1008158Y-10831531D01*
X1008158Y-10831531D02*
X1017682Y-10850579D01*
X1017682Y-10850579D02*
X1027205Y-10888674D01*
X1027205Y-10888674D02*
X1027205Y-10936293D01*
X1027205Y-10936293D02*
X1017682Y-10974389D01*
X1017682Y-10974389D02*
X1008158Y-10993436D01*
X1008158Y-10993436D02*
X998634Y-11002960D01*
X998634Y-11002960D02*
X979586Y-11012484D01*
X979586Y-11012484D02*
X960539Y-11012484D01*
X960539Y-11012484D02*
X941491Y-11002960D01*
X941491Y-11002960D02*
X931967Y-10993436D01*
X931967Y-10993436D02*
X922443Y-10974389D01*
X922443Y-10974389D02*
X912920Y-10936293D01*
X912920Y-10936293D02*
X912920Y-10888674D01*
X912920Y-10888674D02*
X922443Y-10850579D01*
X922443Y-10850579D02*
X931967Y-10831531D01*
X931967Y-10831531D02*
X941491Y-10822008D01*
X941491Y-10822008D02*
X960539Y-10812484D01*
X1112920Y-11012484D02*
X1112920Y-10879150D01*
X1112920Y-10898198D02*
X1122444Y-10888674D01*
X1122444Y-10888674D02*
X1141491Y-10879150D01*
X1141491Y-10879150D02*
X1170063Y-10879150D01*
X1170063Y-10879150D02*
X1189110Y-10888674D01*
X1189110Y-10888674D02*
X1198634Y-10907722D01*
X1198634Y-10907722D02*
X1198634Y-11012484D01*
X1198634Y-10907722D02*
X1208158Y-10888674D01*
X1208158Y-10888674D02*
X1227205Y-10879150D01*
X1227205Y-10879150D02*
X1255777Y-10879150D01*
X1255777Y-10879150D02*
X1274825Y-10888674D01*
X1274825Y-10888674D02*
X1284348Y-10907722D01*
X1284348Y-10907722D02*
X1284348Y-11012484D01*
X1379586Y-11012484D02*
X1379586Y-10879150D01*
X1379586Y-10898198D02*
X1389110Y-10888674D01*
X1389110Y-10888674D02*
X1408158Y-10879150D01*
X1408158Y-10879150D02*
X1436729Y-10879150D01*
X1436729Y-10879150D02*
X1455777Y-10888674D01*
X1455777Y-10888674D02*
X1465301Y-10907722D01*
X1465301Y-10907722D02*
X1465301Y-11012484D01*
X1465301Y-10907722D02*
X1474824Y-10888674D01*
X1474824Y-10888674D02*
X1493872Y-10879150D01*
X1493872Y-10879150D02*
X1522443Y-10879150D01*
X1522443Y-10879150D02*
X1541491Y-10888674D01*
X1541491Y-10888674D02*
X1551015Y-10907722D01*
X1551015Y-10907722D02*
X1551015Y-11012484D01*
X1941491Y-10802960D02*
X1770063Y-11060103D01*
X2198634Y-10812484D02*
X2217682Y-10812484D01*
X2217682Y-10812484D02*
X2236729Y-10822008D01*
X2236729Y-10822008D02*
X2246253Y-10831531D01*
X2246253Y-10831531D02*
X2255777Y-10850579D01*
X2255777Y-10850579D02*
X2265301Y-10888674D01*
X2265301Y-10888674D02*
X2265301Y-10936293D01*
X2265301Y-10936293D02*
X2255777Y-10974389D01*
X2255777Y-10974389D02*
X2246253Y-10993436D01*
X2246253Y-10993436D02*
X2236729Y-11002960D01*
X2236729Y-11002960D02*
X2217682Y-11012484D01*
X2217682Y-11012484D02*
X2198634Y-11012484D01*
X2198634Y-11012484D02*
X2179587Y-11002960D01*
X2179587Y-11002960D02*
X2170063Y-10993436D01*
X2170063Y-10993436D02*
X2160539Y-10974389D01*
X2160539Y-10974389D02*
X2151015Y-10936293D01*
X2151015Y-10936293D02*
X2151015Y-10888674D01*
X2151015Y-10888674D02*
X2160539Y-10850579D01*
X2160539Y-10850579D02*
X2170063Y-10831531D01*
X2170063Y-10831531D02*
X2179587Y-10822008D01*
X2179587Y-10822008D02*
X2198634Y-10812484D01*
X2351015Y-10993436D02*
X2360539Y-11002960D01*
X2360539Y-11002960D02*
X2351015Y-11012484D01*
X2351015Y-11012484D02*
X2341491Y-11002960D01*
X2341491Y-11002960D02*
X2351015Y-10993436D01*
X2351015Y-10993436D02*
X2351015Y-11012484D01*
X2484348Y-10812484D02*
X2503396Y-10812484D01*
X2503396Y-10812484D02*
X2522444Y-10822008D01*
X2522444Y-10822008D02*
X2531968Y-10831531D01*
X2531968Y-10831531D02*
X2541491Y-10850579D01*
X2541491Y-10850579D02*
X2551015Y-10888674D01*
X2551015Y-10888674D02*
X2551015Y-10936293D01*
X2551015Y-10936293D02*
X2541491Y-10974389D01*
X2541491Y-10974389D02*
X2531968Y-10993436D01*
X2531968Y-10993436D02*
X2522444Y-11002960D01*
X2522444Y-11002960D02*
X2503396Y-11012484D01*
X2503396Y-11012484D02*
X2484348Y-11012484D01*
X2484348Y-11012484D02*
X2465301Y-11002960D01*
X2465301Y-11002960D02*
X2455777Y-10993436D01*
X2455777Y-10993436D02*
X2446253Y-10974389D01*
X2446253Y-10974389D02*
X2436729Y-10936293D01*
X2436729Y-10936293D02*
X2436729Y-10888674D01*
X2436729Y-10888674D02*
X2446253Y-10850579D01*
X2446253Y-10850579D02*
X2455777Y-10831531D01*
X2455777Y-10831531D02*
X2465301Y-10822008D01*
X2465301Y-10822008D02*
X2484348Y-10812484D01*
X2617682Y-10812484D02*
X2751015Y-10812484D01*
X2751015Y-10812484D02*
X2665301Y-11012484D01*
X2855777Y-10898198D02*
X2836729Y-10888674D01*
X2836729Y-10888674D02*
X2827206Y-10879150D01*
X2827206Y-10879150D02*
X2817682Y-10860103D01*
X2817682Y-10860103D02*
X2817682Y-10850579D01*
X2817682Y-10850579D02*
X2827206Y-10831531D01*
X2827206Y-10831531D02*
X2836729Y-10822008D01*
X2836729Y-10822008D02*
X2855777Y-10812484D01*
X2855777Y-10812484D02*
X2893872Y-10812484D01*
X2893872Y-10812484D02*
X2912920Y-10822008D01*
X2912920Y-10822008D02*
X2922444Y-10831531D01*
X2922444Y-10831531D02*
X2931967Y-10850579D01*
X2931967Y-10850579D02*
X2931967Y-10860103D01*
X2931967Y-10860103D02*
X2922444Y-10879150D01*
X2922444Y-10879150D02*
X2912920Y-10888674D01*
X2912920Y-10888674D02*
X2893872Y-10898198D01*
X2893872Y-10898198D02*
X2855777Y-10898198D01*
X2855777Y-10898198D02*
X2836729Y-10907722D01*
X2836729Y-10907722D02*
X2827206Y-10917246D01*
X2827206Y-10917246D02*
X2817682Y-10936293D01*
X2817682Y-10936293D02*
X2817682Y-10974389D01*
X2817682Y-10974389D02*
X2827206Y-10993436D01*
X2827206Y-10993436D02*
X2836729Y-11002960D01*
X2836729Y-11002960D02*
X2855777Y-11012484D01*
X2855777Y-11012484D02*
X2893872Y-11012484D01*
X2893872Y-11012484D02*
X2912920Y-11002960D01*
X2912920Y-11002960D02*
X2922444Y-10993436D01*
X2922444Y-10993436D02*
X2931967Y-10974389D01*
X2931967Y-10974389D02*
X2931967Y-10936293D01*
X2931967Y-10936293D02*
X2922444Y-10917246D01*
X2922444Y-10917246D02*
X2912920Y-10907722D01*
X2912920Y-10907722D02*
X2893872Y-10898198D01*
X2998634Y-10812484D02*
X3131967Y-10812484D01*
X3131967Y-10812484D02*
X3046253Y-11012484D01*
X3198634Y-10812484D02*
X3198634Y-10850579D01*
X3274825Y-10812484D02*
X3274825Y-10850579D01*
X3570063Y-11088674D02*
X3560539Y-11079150D01*
X3560539Y-11079150D02*
X3541491Y-11050579D01*
X3541491Y-11050579D02*
X3531968Y-11031531D01*
X3531968Y-11031531D02*
X3522444Y-11002960D01*
X3522444Y-11002960D02*
X3512920Y-10955341D01*
X3512920Y-10955341D02*
X3512920Y-10917246D01*
X3512920Y-10917246D02*
X3522444Y-10869627D01*
X3522444Y-10869627D02*
X3531968Y-10841055D01*
X3531968Y-10841055D02*
X3541491Y-10822008D01*
X3541491Y-10822008D02*
X3560539Y-10793436D01*
X3560539Y-10793436D02*
X3570063Y-10783912D01*
X3636729Y-10831531D02*
X3646253Y-10822008D01*
X3646253Y-10822008D02*
X3665301Y-10812484D01*
X3665301Y-10812484D02*
X3712920Y-10812484D01*
X3712920Y-10812484D02*
X3731968Y-10822008D01*
X3731968Y-10822008D02*
X3741491Y-10831531D01*
X3741491Y-10831531D02*
X3751015Y-10850579D01*
X3751015Y-10850579D02*
X3751015Y-10869627D01*
X3751015Y-10869627D02*
X3741491Y-10898198D01*
X3741491Y-10898198D02*
X3627206Y-11012484D01*
X3627206Y-11012484D02*
X3751015Y-11012484D01*
X3989110Y-11012484D02*
X3989110Y-10812484D01*
X4074825Y-11012484D02*
X4074825Y-10907722D01*
X4074825Y-10907722D02*
X4065301Y-10888674D01*
X4065301Y-10888674D02*
X4046253Y-10879150D01*
X4046253Y-10879150D02*
X4017682Y-10879150D01*
X4017682Y-10879150D02*
X3998634Y-10888674D01*
X3998634Y-10888674D02*
X3989110Y-10898198D01*
X4198634Y-11012484D02*
X4179587Y-11002960D01*
X4179587Y-11002960D02*
X4170063Y-10993436D01*
X4170063Y-10993436D02*
X4160539Y-10974389D01*
X4160539Y-10974389D02*
X4160539Y-10917246D01*
X4160539Y-10917246D02*
X4170063Y-10898198D01*
X4170063Y-10898198D02*
X4179587Y-10888674D01*
X4179587Y-10888674D02*
X4198634Y-10879150D01*
X4198634Y-10879150D02*
X4227206Y-10879150D01*
X4227206Y-10879150D02*
X4246253Y-10888674D01*
X4246253Y-10888674D02*
X4255777Y-10898198D01*
X4255777Y-10898198D02*
X4265301Y-10917246D01*
X4265301Y-10917246D02*
X4265301Y-10974389D01*
X4265301Y-10974389D02*
X4255777Y-10993436D01*
X4255777Y-10993436D02*
X4246253Y-11002960D01*
X4246253Y-11002960D02*
X4227206Y-11012484D01*
X4227206Y-11012484D02*
X4198634Y-11012484D01*
X4379587Y-11012484D02*
X4360539Y-11002960D01*
X4360539Y-11002960D02*
X4351015Y-10983912D01*
X4351015Y-10983912D02*
X4351015Y-10812484D01*
X4531968Y-11002960D02*
X4512920Y-11012484D01*
X4512920Y-11012484D02*
X4474825Y-11012484D01*
X4474825Y-11012484D02*
X4455777Y-11002960D01*
X4455777Y-11002960D02*
X4446253Y-10983912D01*
X4446253Y-10983912D02*
X4446253Y-10907722D01*
X4446253Y-10907722D02*
X4455777Y-10888674D01*
X4455777Y-10888674D02*
X4474825Y-10879150D01*
X4474825Y-10879150D02*
X4512920Y-10879150D01*
X4512920Y-10879150D02*
X4531968Y-10888674D01*
X4531968Y-10888674D02*
X4541492Y-10907722D01*
X4541492Y-10907722D02*
X4541492Y-10926770D01*
X4541492Y-10926770D02*
X4446253Y-10945817D01*
X4617682Y-11002960D02*
X4636730Y-11012484D01*
X4636730Y-11012484D02*
X4674825Y-11012484D01*
X4674825Y-11012484D02*
X4693873Y-11002960D01*
X4693873Y-11002960D02*
X4703396Y-10983912D01*
X4703396Y-10983912D02*
X4703396Y-10974389D01*
X4703396Y-10974389D02*
X4693873Y-10955341D01*
X4693873Y-10955341D02*
X4674825Y-10945817D01*
X4674825Y-10945817D02*
X4646253Y-10945817D01*
X4646253Y-10945817D02*
X4627206Y-10936293D01*
X4627206Y-10936293D02*
X4617682Y-10917246D01*
X4617682Y-10917246D02*
X4617682Y-10907722D01*
X4617682Y-10907722D02*
X4627206Y-10888674D01*
X4627206Y-10888674D02*
X4646253Y-10879150D01*
X4646253Y-10879150D02*
X4674825Y-10879150D01*
X4674825Y-10879150D02*
X4693873Y-10888674D01*
X4770063Y-11088674D02*
X4779587Y-11079150D01*
X4779587Y-11079150D02*
X4798634Y-11050579D01*
X4798634Y-11050579D02*
X4808158Y-11031531D01*
X4808158Y-11031531D02*
X4817682Y-11002960D01*
X4817682Y-11002960D02*
X4827206Y-10955341D01*
X4827206Y-10955341D02*
X4827206Y-10917246D01*
X4827206Y-10917246D02*
X4817682Y-10869627D01*
X4817682Y-10869627D02*
X4808158Y-10841055D01*
X4808158Y-10841055D02*
X4798634Y-10822008D01*
X4798634Y-10822008D02*
X4779587Y-10793436D01*
X4779587Y-10793436D02*
X4770063Y-10783912D01*
X-34289Y-11311711D02*
X-34289Y-11170289D01*
X-175711Y-11170289D01*
X-175711Y-11311711D01*
X-34289Y-11311711D01*
X-5000Y-11241000D02*
G75*
G03*
X-5000Y-11241000I-100000J0D01*
G01*
X236729Y-11132484D02*
X360539Y-11132484D01*
X360539Y-11132484D02*
X293872Y-11208674D01*
X293872Y-11208674D02*
X322444Y-11208674D01*
X322444Y-11208674D02*
X341491Y-11218198D01*
X341491Y-11218198D02*
X351015Y-11227722D01*
X351015Y-11227722D02*
X360539Y-11246769D01*
X360539Y-11246769D02*
X360539Y-11294388D01*
X360539Y-11294388D02*
X351015Y-11313436D01*
X351015Y-11313436D02*
X341491Y-11322960D01*
X341491Y-11322960D02*
X322444Y-11332484D01*
X322444Y-11332484D02*
X265301Y-11332484D01*
X265301Y-11332484D02*
X246253Y-11322960D01*
X246253Y-11322960D02*
X236729Y-11313436D01*
X446253Y-11313436D02*
X455777Y-11322960D01*
X455777Y-11322960D02*
X446253Y-11332484D01*
X446253Y-11332484D02*
X436729Y-11322960D01*
X436729Y-11322960D02*
X446253Y-11313436D01*
X446253Y-11313436D02*
X446253Y-11332484D01*
X531967Y-11151531D02*
X541491Y-11142008D01*
X541491Y-11142008D02*
X560539Y-11132484D01*
X560539Y-11132484D02*
X608158Y-11132484D01*
X608158Y-11132484D02*
X627205Y-11142008D01*
X627205Y-11142008D02*
X636729Y-11151531D01*
X636729Y-11151531D02*
X646253Y-11170579D01*
X646253Y-11170579D02*
X646253Y-11189627D01*
X646253Y-11189627D02*
X636729Y-11218198D01*
X636729Y-11218198D02*
X522443Y-11332484D01*
X522443Y-11332484D02*
X646253Y-11332484D01*
X770062Y-11132484D02*
X789110Y-11132484D01*
X789110Y-11132484D02*
X808158Y-11142008D01*
X808158Y-11142008D02*
X817682Y-11151531D01*
X817682Y-11151531D02*
X827205Y-11170579D01*
X827205Y-11170579D02*
X836729Y-11208674D01*
X836729Y-11208674D02*
X836729Y-11256293D01*
X836729Y-11256293D02*
X827205Y-11294388D01*
X827205Y-11294388D02*
X817682Y-11313436D01*
X817682Y-11313436D02*
X808158Y-11322960D01*
X808158Y-11322960D02*
X789110Y-11332484D01*
X789110Y-11332484D02*
X770062Y-11332484D01*
X770062Y-11332484D02*
X751015Y-11322960D01*
X751015Y-11322960D02*
X741491Y-11313436D01*
X741491Y-11313436D02*
X731967Y-11294388D01*
X731967Y-11294388D02*
X722443Y-11256293D01*
X722443Y-11256293D02*
X722443Y-11208674D01*
X722443Y-11208674D02*
X731967Y-11170579D01*
X731967Y-11170579D02*
X741491Y-11151531D01*
X741491Y-11151531D02*
X751015Y-11142008D01*
X751015Y-11142008D02*
X770062Y-11132484D01*
X960539Y-11132484D02*
X979586Y-11132484D01*
X979586Y-11132484D02*
X998634Y-11142008D01*
X998634Y-11142008D02*
X1008158Y-11151531D01*
X1008158Y-11151531D02*
X1017682Y-11170579D01*
X1017682Y-11170579D02*
X1027205Y-11208674D01*
X1027205Y-11208674D02*
X1027205Y-11256293D01*
X1027205Y-11256293D02*
X1017682Y-11294388D01*
X1017682Y-11294388D02*
X1008158Y-11313436D01*
X1008158Y-11313436D02*
X998634Y-11322960D01*
X998634Y-11322960D02*
X979586Y-11332484D01*
X979586Y-11332484D02*
X960539Y-11332484D01*
X960539Y-11332484D02*
X941491Y-11322960D01*
X941491Y-11322960D02*
X931967Y-11313436D01*
X931967Y-11313436D02*
X922443Y-11294388D01*
X922443Y-11294388D02*
X912920Y-11256293D01*
X912920Y-11256293D02*
X912920Y-11208674D01*
X912920Y-11208674D02*
X922443Y-11170579D01*
X922443Y-11170579D02*
X931967Y-11151531D01*
X931967Y-11151531D02*
X941491Y-11142008D01*
X941491Y-11142008D02*
X960539Y-11132484D01*
X1112920Y-11332484D02*
X1112920Y-11199150D01*
X1112920Y-11218198D02*
X1122444Y-11208674D01*
X1122444Y-11208674D02*
X1141491Y-11199150D01*
X1141491Y-11199150D02*
X1170063Y-11199150D01*
X1170063Y-11199150D02*
X1189110Y-11208674D01*
X1189110Y-11208674D02*
X1198634Y-11227722D01*
X1198634Y-11227722D02*
X1198634Y-11332484D01*
X1198634Y-11227722D02*
X1208158Y-11208674D01*
X1208158Y-11208674D02*
X1227205Y-11199150D01*
X1227205Y-11199150D02*
X1255777Y-11199150D01*
X1255777Y-11199150D02*
X1274825Y-11208674D01*
X1274825Y-11208674D02*
X1284348Y-11227722D01*
X1284348Y-11227722D02*
X1284348Y-11332484D01*
X1379586Y-11332484D02*
X1379586Y-11199150D01*
X1379586Y-11218198D02*
X1389110Y-11208674D01*
X1389110Y-11208674D02*
X1408158Y-11199150D01*
X1408158Y-11199150D02*
X1436729Y-11199150D01*
X1436729Y-11199150D02*
X1455777Y-11208674D01*
X1455777Y-11208674D02*
X1465301Y-11227722D01*
X1465301Y-11227722D02*
X1465301Y-11332484D01*
X1465301Y-11227722D02*
X1474824Y-11208674D01*
X1474824Y-11208674D02*
X1493872Y-11199150D01*
X1493872Y-11199150D02*
X1522443Y-11199150D01*
X1522443Y-11199150D02*
X1541491Y-11208674D01*
X1541491Y-11208674D02*
X1551015Y-11227722D01*
X1551015Y-11227722D02*
X1551015Y-11332484D01*
X1941491Y-11122960D02*
X1770063Y-11380103D01*
X2198634Y-11132484D02*
X2217682Y-11132484D01*
X2217682Y-11132484D02*
X2236729Y-11142008D01*
X2236729Y-11142008D02*
X2246253Y-11151531D01*
X2246253Y-11151531D02*
X2255777Y-11170579D01*
X2255777Y-11170579D02*
X2265301Y-11208674D01*
X2265301Y-11208674D02*
X2265301Y-11256293D01*
X2265301Y-11256293D02*
X2255777Y-11294388D01*
X2255777Y-11294388D02*
X2246253Y-11313436D01*
X2246253Y-11313436D02*
X2236729Y-11322960D01*
X2236729Y-11322960D02*
X2217682Y-11332484D01*
X2217682Y-11332484D02*
X2198634Y-11332484D01*
X2198634Y-11332484D02*
X2179587Y-11322960D01*
X2179587Y-11322960D02*
X2170063Y-11313436D01*
X2170063Y-11313436D02*
X2160539Y-11294388D01*
X2160539Y-11294388D02*
X2151015Y-11256293D01*
X2151015Y-11256293D02*
X2151015Y-11208674D01*
X2151015Y-11208674D02*
X2160539Y-11170579D01*
X2160539Y-11170579D02*
X2170063Y-11151531D01*
X2170063Y-11151531D02*
X2179587Y-11142008D01*
X2179587Y-11142008D02*
X2198634Y-11132484D01*
X2351015Y-11313436D02*
X2360539Y-11322960D01*
X2360539Y-11322960D02*
X2351015Y-11332484D01*
X2351015Y-11332484D02*
X2341491Y-11322960D01*
X2341491Y-11322960D02*
X2351015Y-11313436D01*
X2351015Y-11313436D02*
X2351015Y-11332484D01*
X2551015Y-11332484D02*
X2436729Y-11332484D01*
X2493872Y-11332484D02*
X2493872Y-11132484D01*
X2493872Y-11132484D02*
X2474825Y-11161055D01*
X2474825Y-11161055D02*
X2455777Y-11180103D01*
X2455777Y-11180103D02*
X2436729Y-11189627D01*
X2627206Y-11151531D02*
X2636729Y-11142008D01*
X2636729Y-11142008D02*
X2655777Y-11132484D01*
X2655777Y-11132484D02*
X2703396Y-11132484D01*
X2703396Y-11132484D02*
X2722444Y-11142008D01*
X2722444Y-11142008D02*
X2731968Y-11151531D01*
X2731968Y-11151531D02*
X2741491Y-11170579D01*
X2741491Y-11170579D02*
X2741491Y-11189627D01*
X2741491Y-11189627D02*
X2731968Y-11218198D01*
X2731968Y-11218198D02*
X2617682Y-11332484D01*
X2617682Y-11332484D02*
X2741491Y-11332484D01*
X2912920Y-11132484D02*
X2874825Y-11132484D01*
X2874825Y-11132484D02*
X2855777Y-11142008D01*
X2855777Y-11142008D02*
X2846253Y-11151531D01*
X2846253Y-11151531D02*
X2827206Y-11180103D01*
X2827206Y-11180103D02*
X2817682Y-11218198D01*
X2817682Y-11218198D02*
X2817682Y-11294388D01*
X2817682Y-11294388D02*
X2827206Y-11313436D01*
X2827206Y-11313436D02*
X2836729Y-11322960D01*
X2836729Y-11322960D02*
X2855777Y-11332484D01*
X2855777Y-11332484D02*
X2893872Y-11332484D01*
X2893872Y-11332484D02*
X2912920Y-11322960D01*
X2912920Y-11322960D02*
X2922444Y-11313436D01*
X2922444Y-11313436D02*
X2931967Y-11294388D01*
X2931967Y-11294388D02*
X2931967Y-11246769D01*
X2931967Y-11246769D02*
X2922444Y-11227722D01*
X2922444Y-11227722D02*
X2912920Y-11218198D01*
X2912920Y-11218198D02*
X2893872Y-11208674D01*
X2893872Y-11208674D02*
X2855777Y-11208674D01*
X2855777Y-11208674D02*
X2836729Y-11218198D01*
X2836729Y-11218198D02*
X2827206Y-11227722D01*
X2827206Y-11227722D02*
X2817682Y-11246769D01*
X3055777Y-11132484D02*
X3074825Y-11132484D01*
X3074825Y-11132484D02*
X3093872Y-11142008D01*
X3093872Y-11142008D02*
X3103396Y-11151531D01*
X3103396Y-11151531D02*
X3112920Y-11170579D01*
X3112920Y-11170579D02*
X3122444Y-11208674D01*
X3122444Y-11208674D02*
X3122444Y-11256293D01*
X3122444Y-11256293D02*
X3112920Y-11294388D01*
X3112920Y-11294388D02*
X3103396Y-11313436D01*
X3103396Y-11313436D02*
X3093872Y-11322960D01*
X3093872Y-11322960D02*
X3074825Y-11332484D01*
X3074825Y-11332484D02*
X3055777Y-11332484D01*
X3055777Y-11332484D02*
X3036729Y-11322960D01*
X3036729Y-11322960D02*
X3027206Y-11313436D01*
X3027206Y-11313436D02*
X3017682Y-11294388D01*
X3017682Y-11294388D02*
X3008158Y-11256293D01*
X3008158Y-11256293D02*
X3008158Y-11208674D01*
X3008158Y-11208674D02*
X3017682Y-11170579D01*
X3017682Y-11170579D02*
X3027206Y-11151531D01*
X3027206Y-11151531D02*
X3036729Y-11142008D01*
X3036729Y-11142008D02*
X3055777Y-11132484D01*
X3198634Y-11132484D02*
X3198634Y-11170579D01*
X3274825Y-11132484D02*
X3274825Y-11170579D01*
X3570063Y-11408674D02*
X3560539Y-11399150D01*
X3560539Y-11399150D02*
X3541491Y-11370579D01*
X3541491Y-11370579D02*
X3531968Y-11351531D01*
X3531968Y-11351531D02*
X3522444Y-11322960D01*
X3522444Y-11322960D02*
X3512920Y-11275341D01*
X3512920Y-11275341D02*
X3512920Y-11237246D01*
X3512920Y-11237246D02*
X3522444Y-11189627D01*
X3522444Y-11189627D02*
X3531968Y-11161055D01*
X3531968Y-11161055D02*
X3541491Y-11142008D01*
X3541491Y-11142008D02*
X3560539Y-11113436D01*
X3560539Y-11113436D02*
X3570063Y-11103912D01*
X3731968Y-11199150D02*
X3731968Y-11332484D01*
X3684348Y-11122960D02*
X3636729Y-11265817D01*
X3636729Y-11265817D02*
X3760539Y-11265817D01*
X3989110Y-11332484D02*
X3989110Y-11132484D01*
X4074825Y-11332484D02*
X4074825Y-11227722D01*
X4074825Y-11227722D02*
X4065301Y-11208674D01*
X4065301Y-11208674D02*
X4046253Y-11199150D01*
X4046253Y-11199150D02*
X4017682Y-11199150D01*
X4017682Y-11199150D02*
X3998634Y-11208674D01*
X3998634Y-11208674D02*
X3989110Y-11218198D01*
X4198634Y-11332484D02*
X4179587Y-11322960D01*
X4179587Y-11322960D02*
X4170063Y-11313436D01*
X4170063Y-11313436D02*
X4160539Y-11294388D01*
X4160539Y-11294388D02*
X4160539Y-11237246D01*
X4160539Y-11237246D02*
X4170063Y-11218198D01*
X4170063Y-11218198D02*
X4179587Y-11208674D01*
X4179587Y-11208674D02*
X4198634Y-11199150D01*
X4198634Y-11199150D02*
X4227206Y-11199150D01*
X4227206Y-11199150D02*
X4246253Y-11208674D01*
X4246253Y-11208674D02*
X4255777Y-11218198D01*
X4255777Y-11218198D02*
X4265301Y-11237246D01*
X4265301Y-11237246D02*
X4265301Y-11294388D01*
X4265301Y-11294388D02*
X4255777Y-11313436D01*
X4255777Y-11313436D02*
X4246253Y-11322960D01*
X4246253Y-11322960D02*
X4227206Y-11332484D01*
X4227206Y-11332484D02*
X4198634Y-11332484D01*
X4379587Y-11332484D02*
X4360539Y-11322960D01*
X4360539Y-11322960D02*
X4351015Y-11303912D01*
X4351015Y-11303912D02*
X4351015Y-11132484D01*
X4531968Y-11322960D02*
X4512920Y-11332484D01*
X4512920Y-11332484D02*
X4474825Y-11332484D01*
X4474825Y-11332484D02*
X4455777Y-11322960D01*
X4455777Y-11322960D02*
X4446253Y-11303912D01*
X4446253Y-11303912D02*
X4446253Y-11227722D01*
X4446253Y-11227722D02*
X4455777Y-11208674D01*
X4455777Y-11208674D02*
X4474825Y-11199150D01*
X4474825Y-11199150D02*
X4512920Y-11199150D01*
X4512920Y-11199150D02*
X4531968Y-11208674D01*
X4531968Y-11208674D02*
X4541492Y-11227722D01*
X4541492Y-11227722D02*
X4541492Y-11246769D01*
X4541492Y-11246769D02*
X4446253Y-11265817D01*
X4617682Y-11322960D02*
X4636730Y-11332484D01*
X4636730Y-11332484D02*
X4674825Y-11332484D01*
X4674825Y-11332484D02*
X4693873Y-11322960D01*
X4693873Y-11322960D02*
X4703396Y-11303912D01*
X4703396Y-11303912D02*
X4703396Y-11294388D01*
X4703396Y-11294388D02*
X4693873Y-11275341D01*
X4693873Y-11275341D02*
X4674825Y-11265817D01*
X4674825Y-11265817D02*
X4646253Y-11265817D01*
X4646253Y-11265817D02*
X4627206Y-11256293D01*
X4627206Y-11256293D02*
X4617682Y-11237246D01*
X4617682Y-11237246D02*
X4617682Y-11227722D01*
X4617682Y-11227722D02*
X4627206Y-11208674D01*
X4627206Y-11208674D02*
X4646253Y-11199150D01*
X4646253Y-11199150D02*
X4674825Y-11199150D01*
X4674825Y-11199150D02*
X4693873Y-11208674D01*
X4770063Y-11408674D02*
X4779587Y-11399150D01*
X4779587Y-11399150D02*
X4798634Y-11370579D01*
X4798634Y-11370579D02*
X4808158Y-11351531D01*
X4808158Y-11351531D02*
X4817682Y-11322960D01*
X4817682Y-11322960D02*
X4827206Y-11275341D01*
X4827206Y-11275341D02*
X4827206Y-11237246D01*
X4827206Y-11237246D02*
X4817682Y-11189627D01*
X4817682Y-11189627D02*
X4808158Y-11161055D01*
X4808158Y-11161055D02*
X4798634Y-11142008D01*
X4798634Y-11142008D02*
X4779587Y-11113436D01*
X4779587Y-11113436D02*
X4770063Y-11103912D01*
M02*
