M48
; DRILL file {KiCad 7.0.5} date Fri Sep  8 12:24:22 2023
; FORMAT={-:-/ absolute / metric / decimal}
; #@! TF.CreationDate,2023-09-08T12:24:22+07:00
; #@! TF.GenerationSoftware,Kicad,Pcbnew,7.0.5
; #@! TF.FileFunction,Plated,1,2,PTH
FMAT,2
METRIC
; #@! TA.AperFunction,Plated,PTH,ViaDrill
T1C0.300
; #@! TA.AperFunction,Plated,PTH,ViaDrill
T2C0.400
; #@! TA.AperFunction,Plated,PTH,ViaDrill
T3C0.500
; #@! TA.AperFunction,Plated,PTH,ComponentDrill
T4C0.500
; #@! TA.AperFunction,Plated,PTH,ComponentDrill
T5C0.550
; #@! TA.AperFunction,Plated,PTH,ComponentDrill
T6C0.900
; #@! TA.AperFunction,Plated,PTH,ComponentDrill
T7C1.000
; #@! TA.AperFunction,Plated,PTH,ComponentDrill
T8C1.100
; #@! TA.AperFunction,Plated,PTH,ComponentDrill
T9C1.300
; #@! TA.AperFunction,Plated,PTH,ComponentDrill
T10C2.000
; #@! TA.AperFunction,Plated,PTH,ComponentDrill
T11C3.200
%
G90
G05
T1
X10.869Y-32.7
X10.869Y-33.425
X10.869Y-34.15
X12.079Y-6.657
X12.819Y-15.225
X14.719Y-10.85
X16.419Y-9.05
X17.369Y-21.6
X17.669Y-9.05
X18.023Y-13.05
X18.319Y-19.9
X21.069Y-18.55
X23.583Y-10.397
X27.019Y-24.0
X27.019Y-24.725
X27.019Y-25.45
X28.069Y-25.45
X29.119Y-17.102
X29.119Y-25.45
X29.719Y-32.7
X29.719Y-33.425
X29.719Y-34.15
X30.169Y-25.45
X31.219Y-24.0
X31.219Y-24.725
X31.219Y-25.45
X31.619Y-11.55
X40.844Y-9.75
X43.419Y-11.75
X43.419Y-24.107
X43.419Y-24.88
X43.419Y-25.65
X44.849Y-14.768
X44.969Y-25.65
X45.169Y-11.75
X45.786Y-25.65
X46.069Y-3.1
X46.602Y-25.65
X47.244Y-9.75
X47.244Y-16.768
X47.244Y-18.76
X47.244Y-20.76
X47.419Y-25.65
X48.444Y-34.6
X48.919Y-24.107
X48.919Y-24.88
X48.919Y-25.65
X49.169Y-34.6
X49.894Y-34.6
X67.569Y-32.7
X67.569Y-33.425
X67.569Y-34.15
X68.208Y-24.055
X68.695Y-14.774
X68.708Y-8.768
X68.708Y-10.755
X70.519Y-3.1
X74.608Y-28.295
X76.669Y-8.05
X77.217Y-16.755
T2
X48.208Y-8.768
T3
X12.219Y-22.95
X13.364Y-22.95
T4
X2.6Y-5.055
X2.6Y-74.055
X3.303Y-3.358
X3.303Y-6.752
X3.303Y-72.358
X3.303Y-75.752
X5.0Y-2.655
X5.0Y-7.455
X5.0Y-71.655
X5.0Y-76.455
X6.697Y-3.358
X6.697Y-6.752
X6.697Y-72.358
X6.697Y-75.752
X7.4Y-5.055
X7.4Y-74.055
X80.6Y-5.055
X80.6Y-74.055
X81.303Y-3.358
X81.303Y-6.752
X81.303Y-72.358
X81.303Y-75.752
X83.0Y-2.655
X83.0Y-7.455
X83.0Y-71.655
X83.0Y-76.455
X84.697Y-3.358
X84.697Y-6.752
X84.697Y-72.358
X84.697Y-75.752
X85.4Y-5.055
X85.4Y-74.055
T6
X5.969Y-11.985
X5.969Y-14.525
X5.969Y-18.325
X5.969Y-20.865
X14.364Y-31.0
X16.904Y-31.0
X33.278Y-31.0
X35.769Y-11.985
X35.769Y-14.525
X35.769Y-18.325
X35.769Y-20.865
X35.818Y-31.0
X52.192Y-31.0
X54.732Y-31.0
X71.106Y-31.0
X73.646Y-31.0
T7
X81.5Y-11.6
X81.5Y-19.2
X84.5Y-25.755
X84.5Y-28.295
X84.5Y-30.835
X84.5Y-33.375
X84.5Y-35.915
X84.5Y-38.455
T9
X9.389Y-37.055
X9.389Y-42.055
X21.889Y-37.055
X21.889Y-42.055
X28.303Y-37.055
X28.303Y-42.055
X30.069Y-5.2
X33.069Y-5.2
X36.069Y-5.2
X40.803Y-37.055
X40.803Y-42.055
X47.217Y-37.055
X47.217Y-42.055
X59.717Y-37.055
X59.717Y-42.055
X66.131Y-37.055
X66.131Y-42.055
X78.631Y-37.055
X78.631Y-42.055
T10
X8.0Y-60.0
X80.0Y-60.0
T11
X5.0Y-5.055
X5.0Y-74.055
X83.0Y-5.055
X83.0Y-74.055
T4
X10.219Y-1.775G85X10.219Y-1.125
G05
X17.219Y-1.775G85X17.219Y-1.125
G05
T5
X11.369Y-4.15G85X11.069Y-4.15
G05
X16.369Y-4.15G85X16.069Y-4.15
G05
T8
X26.769Y-4.9G85X26.769Y-5.5
G05
X39.369Y-4.9G85X39.369Y-5.5
G05
T0
M30
