G04 #@! TF.GenerationSoftware,KiCad,Pcbnew,7.0.5*
G04 #@! TF.CreationDate,2023-09-08T12:24:19+07:00*
G04 #@! TF.ProjectId,Node_Vote,4e6f6465-5f56-46f7-9465-2e6b69636164,rev?*
G04 #@! TF.SameCoordinates,Original*
G04 #@! TF.FileFunction,Copper,L2,Bot*
G04 #@! TF.FilePolarity,Positive*
%FSLAX46Y46*%
G04 Gerber Fmt 4.6, Leading zero omitted, Abs format (unit mm)*
G04 Created by KiCad (PCBNEW 7.0.5) date 2023-09-08 12:24:19*
%MOMM*%
%LPD*%
G01*
G04 APERTURE LIST*
G04 Aperture macros list*
%AMRoundRect*
0 Rectangle with rounded corners*
0 $1 Rounding radius*
0 $2 $3 $4 $5 $6 $7 $8 $9 X,Y pos of 4 corners*
0 Add a 4 corners polygon primitive as box body*
4,1,4,$2,$3,$4,$5,$6,$7,$8,$9,$2,$3,0*
0 Add four circle primitives for the rounded corners*
1,1,$1+$1,$2,$3*
1,1,$1+$1,$4,$5*
1,1,$1+$1,$6,$7*
1,1,$1+$1,$8,$9*
0 Add four rect primitives between the rounded corners*
20,1,$1+$1,$2,$3,$4,$5,0*
20,1,$1+$1,$4,$5,$6,$7,0*
20,1,$1+$1,$6,$7,$8,$9,0*
20,1,$1+$1,$8,$9,$2,$3,0*%
G04 Aperture macros list end*
G04 #@! TA.AperFunction,ComponentPad*
%ADD10RoundRect,0.425000X0.550000X0.425000X-0.550000X0.425000X-0.550000X-0.425000X0.550000X-0.425000X0*%
G04 #@! TD*
G04 #@! TA.AperFunction,ComponentPad*
%ADD11O,1.950000X1.700000*%
G04 #@! TD*
G04 #@! TA.AperFunction,ComponentPad*
%ADD12O,0.890000X1.550000*%
G04 #@! TD*
G04 #@! TA.AperFunction,ComponentPad*
%ADD13O,1.250000X0.950000*%
G04 #@! TD*
G04 #@! TA.AperFunction,ComponentPad*
%ADD14C,0.800000*%
G04 #@! TD*
G04 #@! TA.AperFunction,ComponentPad*
%ADD15C,6.400000*%
G04 #@! TD*
G04 #@! TA.AperFunction,ComponentPad*
%ADD16R,3.500000X3.500000*%
G04 #@! TD*
G04 #@! TA.AperFunction,ComponentPad*
%ADD17C,3.500000*%
G04 #@! TD*
G04 #@! TA.AperFunction,ComponentPad*
%ADD18C,2.300000*%
G04 #@! TD*
G04 #@! TA.AperFunction,ComponentPad*
%ADD19O,2.100000X2.700000*%
G04 #@! TD*
G04 #@! TA.AperFunction,ComponentPad*
%ADD20R,1.600000X1.600000*%
G04 #@! TD*
G04 #@! TA.AperFunction,ComponentPad*
%ADD21C,1.600000*%
G04 #@! TD*
G04 #@! TA.AperFunction,ComponentPad*
%ADD22R,1.800000X1.800000*%
G04 #@! TD*
G04 #@! TA.AperFunction,ComponentPad*
%ADD23C,1.800000*%
G04 #@! TD*
G04 #@! TA.AperFunction,ComponentPad*
%ADD24O,3.048000X1.850000*%
G04 #@! TD*
G04 #@! TA.AperFunction,ViaPad*
%ADD25C,0.600000*%
G04 #@! TD*
G04 #@! TA.AperFunction,ViaPad*
%ADD26C,0.800000*%
G04 #@! TD*
G04 #@! TA.AperFunction,ViaPad*
%ADD27C,1.000000*%
G04 #@! TD*
G04 #@! TA.AperFunction,Conductor*
%ADD28C,0.250000*%
G04 #@! TD*
G04 #@! TA.AperFunction,Conductor*
%ADD29C,1.000000*%
G04 #@! TD*
G04 #@! TA.AperFunction,Conductor*
%ADD30C,0.500000*%
G04 #@! TD*
G04 APERTURE END LIST*
D10*
X84500000Y-38455037D03*
D11*
X84500000Y-35915037D03*
X84500000Y-33375037D03*
X84500000Y-30835037D03*
X84500000Y-28295037D03*
X84500000Y-25755037D03*
D12*
X17219000Y-1450000D03*
D13*
X16219000Y-4150000D03*
X11219000Y-4150000D03*
D12*
X10219000Y-1450000D03*
D14*
X2600000Y-74055037D03*
X3302944Y-72357981D03*
X3302944Y-75752093D03*
X5000000Y-71655037D03*
D15*
X5000000Y-74055037D03*
D14*
X5000000Y-76455037D03*
X6697056Y-72357981D03*
X6697056Y-75752093D03*
X7400000Y-74055037D03*
X80600000Y-5055037D03*
X81302944Y-3357981D03*
X81302944Y-6752093D03*
X83000000Y-2655037D03*
D15*
X83000000Y-5055037D03*
D14*
X83000000Y-7455037D03*
X84697056Y-3357981D03*
X84697056Y-6752093D03*
X85400000Y-5055037D03*
X2600000Y-5055037D03*
X3302944Y-3357981D03*
X3302944Y-6752093D03*
X5000000Y-2655037D03*
D15*
X5000000Y-5055037D03*
D14*
X5000000Y-7455037D03*
X6697056Y-3357981D03*
X6697056Y-6752093D03*
X7400000Y-5055037D03*
D16*
X80000000Y-60000000D03*
D17*
X8000000Y-60000000D03*
D18*
X30069000Y-5200000D03*
X33069000Y-5200000D03*
X36069000Y-5200000D03*
D19*
X26769000Y-5200000D03*
X39369000Y-5200000D03*
D14*
X80600000Y-74055037D03*
X81302944Y-72357981D03*
X81302944Y-75752093D03*
X83000000Y-71655037D03*
D15*
X83000000Y-74055037D03*
D14*
X83000000Y-76455037D03*
X84697056Y-72357981D03*
X84697056Y-75752093D03*
X85400000Y-74055037D03*
D20*
X81500000Y-19200000D03*
D21*
X81500000Y-11600000D03*
D22*
X5969000Y-14525000D03*
D23*
X5969000Y-11985000D03*
D22*
X73646167Y-31000000D03*
D23*
X71106167Y-31000000D03*
D24*
X47217055Y-42055037D03*
X59717055Y-42055037D03*
X47217055Y-37055037D03*
X59717055Y-37055037D03*
D22*
X5969000Y-18325000D03*
D23*
X5969000Y-20865000D03*
D22*
X54732055Y-31000000D03*
D23*
X52192055Y-31000000D03*
D24*
X9388833Y-42055037D03*
X21888833Y-42055037D03*
X9388833Y-37055037D03*
X21888833Y-37055037D03*
D22*
X35817944Y-31000000D03*
D23*
X33277944Y-31000000D03*
D22*
X35769000Y-14525000D03*
D23*
X35769000Y-11985000D03*
D24*
X28302944Y-42055037D03*
X40802944Y-42055037D03*
X28302944Y-37055037D03*
X40802944Y-37055037D03*
D22*
X35769000Y-18325000D03*
D23*
X35769000Y-20865000D03*
D24*
X66131167Y-42055037D03*
X78631167Y-42055037D03*
X66131167Y-37055037D03*
X78631167Y-37055037D03*
D22*
X16903833Y-31000000D03*
D23*
X14363833Y-31000000D03*
D25*
X48919000Y-24880037D03*
X43419000Y-24106716D03*
X68208000Y-24055037D03*
X67569000Y-33425000D03*
X48444000Y-34600000D03*
X49894000Y-34600000D03*
X43419000Y-25650000D03*
X30169000Y-25450000D03*
X70519000Y-3100000D03*
X31619000Y-11550000D03*
X29719000Y-33425000D03*
X18023500Y-13050000D03*
X48919000Y-24106716D03*
X27019000Y-25450000D03*
X29719000Y-34150000D03*
X46069000Y-3100000D03*
X27019000Y-24000000D03*
X45785666Y-25650000D03*
X12819000Y-15225000D03*
X29719000Y-32700000D03*
X10869000Y-34150000D03*
X28069000Y-25450000D03*
X10869000Y-33425000D03*
X17669000Y-9050000D03*
X29119000Y-25450000D03*
X31219000Y-24725000D03*
X29119000Y-17102500D03*
X43419000Y-11750000D03*
X27019000Y-24725000D03*
X47419000Y-25650000D03*
X67569000Y-32700000D03*
X49169000Y-34600000D03*
X14719000Y-10850000D03*
X12079037Y-6657000D03*
X21069000Y-18550000D03*
X23583000Y-10397500D03*
X16419000Y-9050000D03*
X31219000Y-24000000D03*
X46602332Y-25650000D03*
X48919000Y-25650000D03*
X10869000Y-32700000D03*
X67569000Y-34150000D03*
X43419000Y-24880037D03*
X45169000Y-11750000D03*
X44969000Y-25650000D03*
X31219000Y-25450000D03*
X76669000Y-8050000D03*
X47244000Y-16767537D03*
X68694974Y-14774026D03*
X47244000Y-18760037D03*
X47244000Y-20760037D03*
D26*
X48208000Y-8767537D03*
D25*
X74608000Y-28295037D03*
X77216574Y-16755037D03*
X47244000Y-9750000D03*
X40844000Y-9750000D03*
X68708000Y-10755037D03*
X68708000Y-8767537D03*
D27*
X12219000Y-22950000D03*
X13364000Y-22950000D03*
D25*
X17369000Y-21600000D03*
X18319000Y-19900000D03*
X44848732Y-14767537D03*
D28*
X28302944Y-37055037D02*
X28302944Y-29766056D01*
X29619000Y-28450000D02*
X40240667Y-28450000D01*
X42091820Y-16767537D02*
X47244000Y-16767537D01*
X41340667Y-27350000D02*
X41340667Y-17518690D01*
X40240667Y-28449967D02*
G75*
G03*
X41340667Y-27350000I33J1099967D01*
G01*
X29619000Y-28450004D02*
G75*
G03*
X28302944Y-29766056I0J-1316056D01*
G01*
X42091820Y-16767467D02*
G75*
G03*
X41340667Y-17518690I-20J-751133D01*
G01*
X75119000Y-14750000D02*
X68719000Y-14750000D01*
X24533796Y-39700000D02*
X74119000Y-39700000D01*
X75769000Y-38050000D02*
X75769000Y-15400000D01*
X74119000Y-39700000D02*
G75*
G03*
X75769000Y-38050000I0J1650000D01*
G01*
X68719000Y-14749974D02*
G75*
G03*
X68694974Y-14774026I0J-24026D01*
G01*
X21888840Y-37055037D02*
G75*
G03*
X24533796Y-39700000I2644960J-3D01*
G01*
X75769000Y-15400000D02*
G75*
G03*
X75119000Y-14750000I-650000J0D01*
G01*
X47244000Y-18760037D02*
X43684178Y-18760037D01*
X42708000Y-19736215D02*
X42708000Y-34900000D01*
X47217055Y-37055037D02*
X44863037Y-37055037D01*
X43684178Y-18760000D02*
G75*
G03*
X42708000Y-19736215I22J-976200D01*
G01*
X42707963Y-34900000D02*
G75*
G03*
X44863037Y-37055037I2155037J0D01*
G01*
X47244000Y-20760037D02*
X44933234Y-20760037D01*
X44108000Y-21585271D02*
X44108000Y-31800000D01*
X64319000Y-33550000D02*
X45858000Y-33550000D01*
X66131167Y-37055037D02*
X66131167Y-35362167D01*
X44933234Y-20760100D02*
G75*
G03*
X44108000Y-21585271I-34J-825200D01*
G01*
X44108000Y-31800000D02*
G75*
G03*
X45858000Y-33550000I1750000J0D01*
G01*
X66131200Y-35362167D02*
G75*
G03*
X64319000Y-33550000I-1812200J-33D01*
G01*
X48208000Y-26455037D02*
X48208000Y-8767537D01*
X50048000Y-28295037D02*
X74608000Y-28295037D01*
X48207963Y-26455037D02*
G75*
G03*
X50048000Y-28295037I1840037J37D01*
G01*
X77208000Y-16763611D02*
X77208000Y-32259846D01*
X80863191Y-35915037D02*
X84500000Y-35915037D01*
X77216574Y-16755037D02*
X77208000Y-16763611D01*
X77207993Y-32259846D02*
G75*
G03*
X80863191Y-35915037I3655197J6D01*
G01*
X77216574Y-16755000D02*
G75*
G03*
X77208000Y-16763611I26J-8600D01*
G01*
X40844000Y-9750000D02*
X47244000Y-9750000D01*
X77533850Y-10755037D02*
X68708000Y-10755037D01*
X80583037Y-33375037D02*
X84500000Y-33375037D01*
X78508000Y-31300000D02*
X78508000Y-11729187D01*
X78507963Y-31300000D02*
G75*
G03*
X80583037Y-33375037I2075037J0D01*
G01*
X78507963Y-11729187D02*
G75*
G03*
X77533850Y-10755037I-974163J-13D01*
G01*
X79808000Y-29400000D02*
X79808000Y-9850696D01*
X78724841Y-8767537D02*
X68708000Y-8767537D01*
X81243037Y-30835037D02*
X84500000Y-30835037D01*
X79807963Y-29400000D02*
G75*
G03*
X81243037Y-30835037I1435037J0D01*
G01*
X79807963Y-9850696D02*
G75*
G03*
X78724841Y-8767537I-1083163J-4D01*
G01*
D29*
X2719000Y-27782187D02*
X2719000Y-59564046D01*
X30324016Y-22950000D02*
X7551187Y-22950000D01*
X80000000Y-60000000D02*
X80000000Y-61742840D01*
X7154954Y-64000000D02*
X77742840Y-64000000D01*
X33069000Y-5200000D02*
X33069000Y-20205016D01*
X77742840Y-64000000D02*
G75*
G03*
X80000000Y-61742840I-40J2257200D01*
G01*
X2719000Y-59564046D02*
G75*
G03*
X7154954Y-64000000I4435955J1D01*
G01*
X7551187Y-22950000D02*
G75*
G03*
X2719000Y-27782187I3J-4832190D01*
G01*
X30324016Y-22950000D02*
G75*
G03*
X33069000Y-20205016I4J2744980D01*
G01*
D30*
X19669000Y-20750000D02*
X19669000Y-13100000D01*
X17369000Y-21600000D02*
X18819000Y-21600000D01*
X5969000Y-11985000D02*
X18554000Y-11985000D01*
X19669000Y-13100000D02*
G75*
G03*
X18554000Y-11985000I-1115000J0D01*
G01*
X18819000Y-21600000D02*
G75*
G03*
X19669000Y-20750000I0J850000D01*
G01*
X18319000Y-19900000D02*
X6934000Y-19900000D01*
X6934000Y-19900000D02*
G75*
G03*
X5969000Y-20865000I0J-965000D01*
G01*
X39369000Y-15588722D02*
X39369000Y-17710434D01*
X44848732Y-14767537D02*
X40190185Y-14767537D01*
X38454434Y-18625000D02*
X35769000Y-18625000D01*
X40190185Y-14767500D02*
G75*
G03*
X39369000Y-15588722I15J-821200D01*
G01*
X38454434Y-18625000D02*
G75*
G03*
X39369000Y-17710434I-34J914600D01*
G01*
G04 #@! TA.AperFunction,Conductor*
G36*
X9793564Y-91356D02*
G01*
X9829883Y-179037D01*
X9793564Y-266718D01*
X9772922Y-283352D01*
X9593797Y-398468D01*
X9593795Y-398470D01*
X9415840Y-603840D01*
X9415837Y-603843D01*
X9302956Y-851018D01*
X9302954Y-851025D01*
X9274000Y-1052410D01*
X9274000Y-1200000D01*
X9969000Y-1200000D01*
X9969000Y-1700000D01*
X9274000Y-1700000D01*
X9274000Y-1847589D01*
X9302954Y-2048974D01*
X9302956Y-2048981D01*
X9415837Y-2296156D01*
X9415840Y-2296159D01*
X9593794Y-2501528D01*
X9822400Y-2648444D01*
X9968999Y-2691488D01*
X9969000Y-2691488D01*
X9969000Y-1810944D01*
X9999808Y-1915866D01*
X10110762Y-2012008D01*
X10256081Y-2032902D01*
X10389627Y-1971914D01*
X10469000Y-1848407D01*
X10469000Y-2691488D01*
X10615599Y-2648444D01*
X10844205Y-2501528D01*
X11022159Y-2296159D01*
X11022162Y-2296156D01*
X11135043Y-2048981D01*
X11135045Y-2048974D01*
X11163999Y-1847589D01*
X11164000Y-1847588D01*
X11164000Y-1700000D01*
X10469000Y-1700000D01*
X10469000Y-1200000D01*
X11164000Y-1200000D01*
X11164000Y-1052411D01*
X11163999Y-1052410D01*
X11135045Y-851025D01*
X11135043Y-851018D01*
X11022162Y-603843D01*
X11022159Y-603840D01*
X10844204Y-398470D01*
X10844202Y-398468D01*
X10665078Y-283352D01*
X10610951Y-205395D01*
X10627802Y-111998D01*
X10705759Y-57871D01*
X10732117Y-55037D01*
X16705883Y-55037D01*
X16793564Y-91356D01*
X16829883Y-179037D01*
X16793564Y-266718D01*
X16772922Y-283352D01*
X16593797Y-398468D01*
X16593795Y-398470D01*
X16415840Y-603840D01*
X16415837Y-603843D01*
X16302956Y-851018D01*
X16302954Y-851025D01*
X16274000Y-1052410D01*
X16274000Y-1200000D01*
X16969000Y-1200000D01*
X16969000Y-1700000D01*
X16274000Y-1700000D01*
X16274000Y-1847589D01*
X16302954Y-2048974D01*
X16302956Y-2048981D01*
X16415837Y-2296156D01*
X16415840Y-2296159D01*
X16593794Y-2501528D01*
X16822400Y-2648444D01*
X16968999Y-2691488D01*
X16969000Y-2691488D01*
X16969000Y-1810944D01*
X16999808Y-1915866D01*
X17110762Y-2012008D01*
X17256081Y-2032902D01*
X17389627Y-1971914D01*
X17469000Y-1848407D01*
X17469000Y-2691488D01*
X17615599Y-2648444D01*
X17844205Y-2501528D01*
X18022159Y-2296159D01*
X18022162Y-2296156D01*
X18135043Y-2048981D01*
X18135045Y-2048974D01*
X18163999Y-1847589D01*
X18164000Y-1847588D01*
X18164000Y-1700000D01*
X17469000Y-1700000D01*
X17469000Y-1200000D01*
X18164000Y-1200000D01*
X18164000Y-1052411D01*
X18163999Y-1052410D01*
X18135045Y-851025D01*
X18135043Y-851018D01*
X18022162Y-603843D01*
X18022159Y-603840D01*
X17844204Y-398470D01*
X17844202Y-398468D01*
X17665078Y-283352D01*
X17610951Y-205395D01*
X17627802Y-111998D01*
X17705759Y-57871D01*
X17732117Y-55037D01*
X46409000Y-55037D01*
X46496681Y-91356D01*
X46533000Y-179037D01*
X46533000Y-7887537D01*
X48020607Y-7887537D01*
X48108288Y-7923856D01*
X48144607Y-8011537D01*
X48108288Y-8099218D01*
X48063020Y-8128057D01*
X47877733Y-8195497D01*
X47702004Y-8342951D01*
X47702000Y-8342954D01*
X47701998Y-8342956D01*
X47587301Y-8541618D01*
X47587299Y-8541623D01*
X47547465Y-8767536D01*
X47547465Y-8767537D01*
X47587299Y-8993450D01*
X47587301Y-8993455D01*
X47625805Y-9060146D01*
X47638193Y-9154240D01*
X47580418Y-9229533D01*
X47486324Y-9241921D01*
X47470616Y-9234806D01*
X47470075Y-9236113D01*
X47458791Y-9231438D01*
X47244002Y-9188715D01*
X47243998Y-9188715D01*
X47029208Y-9231438D01*
X47029207Y-9231439D01*
X46846378Y-9353602D01*
X46777487Y-9374500D01*
X41310513Y-9374500D01*
X41241622Y-9353602D01*
X41119141Y-9271763D01*
X41058794Y-9231440D01*
X41058793Y-9231439D01*
X41058792Y-9231439D01*
X41058791Y-9231438D01*
X40844002Y-9188715D01*
X40843998Y-9188715D01*
X40629208Y-9231438D01*
X40629207Y-9231439D01*
X40447111Y-9353111D01*
X40325439Y-9535207D01*
X40325438Y-9535208D01*
X40282715Y-9749997D01*
X40282715Y-9750002D01*
X40325438Y-9964791D01*
X40325439Y-9964792D01*
X40447111Y-10146888D01*
X40538159Y-10207724D01*
X40629206Y-10268560D01*
X40629207Y-10268560D01*
X40629208Y-10268561D01*
X40843998Y-10311285D01*
X40844000Y-10311285D01*
X40844002Y-10311285D01*
X41058791Y-10268561D01*
X41058791Y-10268560D01*
X41058794Y-10268560D01*
X41195883Y-10176959D01*
X41241622Y-10146398D01*
X41310513Y-10125500D01*
X46777487Y-10125500D01*
X46846378Y-10146398D01*
X46899590Y-10181953D01*
X47029206Y-10268560D01*
X47029207Y-10268560D01*
X47029208Y-10268561D01*
X47243998Y-10311285D01*
X47244000Y-10311285D01*
X47244002Y-10311285D01*
X47458791Y-10268561D01*
X47458791Y-10268560D01*
X47458794Y-10268560D01*
X47639610Y-10147741D01*
X47732689Y-10129226D01*
X47811601Y-10181953D01*
X47832499Y-10250844D01*
X47832499Y-16266692D01*
X47796180Y-16354373D01*
X47708499Y-16390692D01*
X47639608Y-16369794D01*
X47458794Y-16248977D01*
X47458793Y-16248976D01*
X47458792Y-16248976D01*
X47458791Y-16248975D01*
X47244002Y-16206252D01*
X47243998Y-16206252D01*
X47029208Y-16248975D01*
X47029207Y-16248976D01*
X46846378Y-16371139D01*
X46777487Y-16392037D01*
X42143263Y-16392037D01*
X42143096Y-16391967D01*
X41964879Y-16391965D01*
X41964877Y-16391965D01*
X41964876Y-16391965D01*
X41964871Y-16391965D01*
X41717343Y-16448460D01*
X41717336Y-16448463D01*
X41488577Y-16558632D01*
X41488572Y-16558635D01*
X41290077Y-16716942D01*
X41290071Y-16716948D01*
X41131774Y-16915470D01*
X41021628Y-17144234D01*
X40965152Y-17391783D01*
X40965167Y-17518652D01*
X40965167Y-27345932D01*
X40964636Y-27354034D01*
X40942610Y-27521324D01*
X40934232Y-27552590D01*
X40874351Y-27697156D01*
X40858165Y-27725191D01*
X40762905Y-27849332D01*
X40740015Y-27872221D01*
X40615872Y-27967476D01*
X40587837Y-27983661D01*
X40443272Y-28043538D01*
X40412004Y-28051916D01*
X40244460Y-28073968D01*
X40236359Y-28074499D01*
X40175829Y-28074498D01*
X40165987Y-28074498D01*
X40165986Y-28074498D01*
X40154168Y-28074498D01*
X40154148Y-28074500D01*
X29573373Y-28074500D01*
X29573301Y-28074504D01*
X29452392Y-28074504D01*
X29125599Y-28139507D01*
X29125591Y-28139509D01*
X28817747Y-28267022D01*
X28817746Y-28267022D01*
X28540701Y-28452137D01*
X28540693Y-28452143D01*
X28305086Y-28687749D01*
X28305083Y-28687753D01*
X28119967Y-28964798D01*
X28119962Y-28964808D01*
X27992450Y-29272646D01*
X27992448Y-29272654D01*
X27927444Y-29599446D01*
X27927443Y-29599448D01*
X27927444Y-35755537D01*
X27891125Y-35843218D01*
X27803444Y-35879537D01*
X27626901Y-35879537D01*
X27626895Y-35879537D01*
X27626891Y-35879538D01*
X27397078Y-35909793D01*
X27397076Y-35909794D01*
X27111122Y-36028240D01*
X26865569Y-36216659D01*
X26677146Y-36462216D01*
X26558701Y-36748169D01*
X26558700Y-36748171D01*
X26518301Y-37055035D01*
X26518301Y-37055038D01*
X26558700Y-37361902D01*
X26558701Y-37361904D01*
X26677147Y-37647858D01*
X26865568Y-37893413D01*
X27111123Y-38081834D01*
X27397077Y-38200280D01*
X27626901Y-38230537D01*
X27626908Y-38230537D01*
X28978980Y-38230537D01*
X28978987Y-38230537D01*
X29208811Y-38200280D01*
X29494765Y-38081834D01*
X29740320Y-37893413D01*
X29928741Y-37647859D01*
X30047187Y-37361904D01*
X30086364Y-37064324D01*
X30087587Y-37055038D01*
X39018301Y-37055038D01*
X39058700Y-37361902D01*
X39058701Y-37361904D01*
X39177147Y-37647858D01*
X39365568Y-37893413D01*
X39611123Y-38081834D01*
X39897077Y-38200280D01*
X40126901Y-38230537D01*
X40126908Y-38230537D01*
X41478980Y-38230537D01*
X41478987Y-38230537D01*
X41708811Y-38200280D01*
X41994765Y-38081834D01*
X42240320Y-37893413D01*
X42428741Y-37647859D01*
X42547187Y-37361904D01*
X42586364Y-37064324D01*
X42587587Y-37055038D01*
X42587587Y-37055035D01*
X42547187Y-36748171D01*
X42547187Y-36748170D01*
X42428741Y-36462216D01*
X42240320Y-36216661D01*
X41994765Y-36028240D01*
X41708811Y-35909794D01*
X41708809Y-35909793D01*
X41478996Y-35879538D01*
X41478993Y-35879537D01*
X41478987Y-35879537D01*
X40126901Y-35879537D01*
X40126895Y-35879537D01*
X40126891Y-35879538D01*
X39897078Y-35909793D01*
X39897076Y-35909794D01*
X39611122Y-36028240D01*
X39365569Y-36216659D01*
X39177146Y-36462216D01*
X39058701Y-36748169D01*
X39058700Y-36748171D01*
X39018301Y-37055035D01*
X39018301Y-37055038D01*
X30087587Y-37055038D01*
X30087587Y-37055035D01*
X30047187Y-36748171D01*
X30047187Y-36748170D01*
X29928741Y-36462216D01*
X29740320Y-36216661D01*
X29494765Y-36028240D01*
X29208811Y-35909794D01*
X29208809Y-35909793D01*
X28978996Y-35879538D01*
X28978993Y-35879537D01*
X28978987Y-35879537D01*
X28978980Y-35879537D01*
X28802444Y-35879537D01*
X28714763Y-35843218D01*
X28678444Y-35755537D01*
X28678444Y-35015037D01*
X33743184Y-35015037D01*
X33780035Y-35271345D01*
X33841973Y-35406971D01*
X33844824Y-35414458D01*
X33851912Y-35437437D01*
X33859186Y-35444662D01*
X33887602Y-35506886D01*
X33887605Y-35506890D01*
X33961156Y-35591773D01*
X33995828Y-35631786D01*
X34000202Y-35637466D01*
X34010776Y-35652975D01*
X34017159Y-35656404D01*
X34057178Y-35702588D01*
X34057179Y-35702588D01*
X34057179Y-35702589D01*
X34211944Y-35802050D01*
X34217083Y-35805736D01*
X34225842Y-35812721D01*
X34229832Y-35813546D01*
X34275017Y-35842585D01*
X34371317Y-35870860D01*
X34473092Y-35900744D01*
X34478266Y-35902516D01*
X34478452Y-35902589D01*
X34479167Y-35902528D01*
X34523472Y-35915537D01*
X34523473Y-35915537D01*
X34782416Y-35915537D01*
X35030872Y-35842584D01*
X35045395Y-35833251D01*
X35248705Y-35702591D01*
X35248704Y-35702591D01*
X35248710Y-35702588D01*
X35418283Y-35506890D01*
X35418331Y-35506786D01*
X35525851Y-35271348D01*
X35525852Y-35271346D01*
X35562704Y-35015037D01*
X35525852Y-34758728D01*
X35513733Y-34732190D01*
X35418285Y-34523187D01*
X35418283Y-34523185D01*
X35418283Y-34523184D01*
X35248710Y-34327486D01*
X35248707Y-34327484D01*
X35248705Y-34327482D01*
X35030874Y-34187490D01*
X35030871Y-34187489D01*
X34782417Y-34114537D01*
X34782416Y-34114537D01*
X34523472Y-34114537D01*
X34523468Y-34114537D01*
X34479167Y-34127545D01*
X34478481Y-34127471D01*
X34478243Y-34127565D01*
X34473060Y-34129338D01*
X34275016Y-34187489D01*
X34275015Y-34187490D01*
X34229830Y-34216528D01*
X34226008Y-34217217D01*
X34217070Y-34224345D01*
X34211932Y-34228030D01*
X34057180Y-34327484D01*
X34057175Y-34327488D01*
X34017160Y-34373668D01*
X34011018Y-34376742D01*
X34000199Y-34392611D01*
X33995825Y-34398291D01*
X33887605Y-34523183D01*
X33859186Y-34585412D01*
X33852107Y-34592001D01*
X33844823Y-34615618D01*
X33841972Y-34623105D01*
X33780035Y-34758728D01*
X33743184Y-35015037D01*
X28678444Y-35015037D01*
X28678444Y-31000000D01*
X32117516Y-31000000D01*
X32157056Y-31300339D01*
X32157057Y-31300341D01*
X32272984Y-31580215D01*
X32312388Y-31631567D01*
X32457397Y-31820547D01*
X32526853Y-31873842D01*
X32697728Y-32004959D01*
X32697729Y-32004959D01*
X32697730Y-32004960D01*
X32977603Y-32120887D01*
X33092146Y-32135967D01*
X33277943Y-32160428D01*
X33277944Y-32160428D01*
X33277945Y-32160428D01*
X33378057Y-32147247D01*
X33578285Y-32120887D01*
X33858158Y-32004960D01*
X34098491Y-31820547D01*
X34282904Y-31580214D01*
X34398831Y-31300341D01*
X34420505Y-31135711D01*
X34467958Y-31053521D01*
X34559629Y-31028958D01*
X34641820Y-31076411D01*
X34667444Y-31151897D01*
X34667444Y-31924678D01*
X34681976Y-31997735D01*
X34681977Y-31997739D01*
X34681978Y-31997740D01*
X34737343Y-32080601D01*
X34820203Y-32135966D01*
X34820204Y-32135966D01*
X34820208Y-32135967D01*
X34893265Y-32150499D01*
X34893268Y-32150500D01*
X34893270Y-32150500D01*
X36742620Y-32150500D01*
X36742621Y-32150499D01*
X36815684Y-32135966D01*
X36898545Y-32080601D01*
X36953910Y-31997740D01*
X36968444Y-31924674D01*
X36968444Y-30075326D01*
X36968444Y-30075325D01*
X36968444Y-30075323D01*
X36968443Y-30075321D01*
X36953911Y-30002264D01*
X36953910Y-30002260D01*
X36904369Y-29928116D01*
X36898545Y-29919399D01*
X36815684Y-29864034D01*
X36815683Y-29864033D01*
X36815679Y-29864032D01*
X36742621Y-29849500D01*
X36742618Y-29849500D01*
X34893270Y-29849500D01*
X34893267Y-29849500D01*
X34820208Y-29864032D01*
X34820204Y-29864033D01*
X34737343Y-29919399D01*
X34681977Y-30002260D01*
X34681976Y-30002264D01*
X34667444Y-30075321D01*
X34667444Y-30848102D01*
X34631125Y-30935783D01*
X34543444Y-30972102D01*
X34455763Y-30935783D01*
X34420505Y-30864288D01*
X34418374Y-30848102D01*
X34398831Y-30699659D01*
X34282904Y-30419786D01*
X34282903Y-30419785D01*
X34282903Y-30419784D01*
X34158473Y-30257624D01*
X34098491Y-30179453D01*
X33962789Y-30075326D01*
X33858159Y-29995040D01*
X33578285Y-29879113D01*
X33578283Y-29879112D01*
X33277945Y-29839572D01*
X33277943Y-29839572D01*
X32977604Y-29879112D01*
X32977602Y-29879113D01*
X32697728Y-29995040D01*
X32457397Y-30179453D01*
X32272984Y-30419784D01*
X32157057Y-30699658D01*
X32157056Y-30699660D01*
X32117516Y-30999999D01*
X32117516Y-31000000D01*
X28678444Y-31000000D01*
X28678444Y-29770123D01*
X28678975Y-29762021D01*
X28708362Y-29538807D01*
X28716740Y-29507542D01*
X28761150Y-29400328D01*
X28798212Y-29310853D01*
X28814388Y-29282835D01*
X28943993Y-29113930D01*
X28966871Y-29091052D01*
X29135775Y-28961449D01*
X29163803Y-28945267D01*
X29360487Y-28863799D01*
X29391748Y-28855422D01*
X29615000Y-28826030D01*
X29623096Y-28825500D01*
X40286179Y-28825500D01*
X40286737Y-28825468D01*
X40385979Y-28825471D01*
X40671043Y-28768776D01*
X40939569Y-28657556D01*
X41181236Y-28496086D01*
X41386758Y-28290570D01*
X41548235Y-28048908D01*
X41659463Y-27780386D01*
X41670442Y-27725191D01*
X41716167Y-27495326D01*
X41716167Y-17605766D01*
X41716175Y-17605677D01*
X41716173Y-17593339D01*
X41716175Y-17593337D01*
X41716168Y-17530854D01*
X41718548Y-17506667D01*
X41739939Y-17399068D01*
X41758448Y-17354373D01*
X41812473Y-17273508D01*
X41846679Y-17239298D01*
X41927543Y-17185263D01*
X41972236Y-17166750D01*
X42079482Y-17145418D01*
X42103670Y-17143037D01*
X42166502Y-17143039D01*
X42166504Y-17143037D01*
X42178320Y-17143038D01*
X42178341Y-17143037D01*
X46777487Y-17143037D01*
X46846378Y-17163935D01*
X46899590Y-17199490D01*
X47029206Y-17286097D01*
X47029207Y-17286097D01*
X47029208Y-17286098D01*
X47243998Y-17328822D01*
X47244000Y-17328822D01*
X47244002Y-17328822D01*
X47458791Y-17286098D01*
X47458791Y-17286097D01*
X47458794Y-17286097D01*
X47639610Y-17165278D01*
X47732689Y-17146763D01*
X47811601Y-17199490D01*
X47832499Y-17268381D01*
X47832499Y-18259192D01*
X47796180Y-18346873D01*
X47708499Y-18383192D01*
X47639608Y-18362294D01*
X47616529Y-18346873D01*
X47458794Y-18241477D01*
X47458793Y-18241476D01*
X47458792Y-18241476D01*
X47458791Y-18241475D01*
X47244002Y-18198752D01*
X47243998Y-18198752D01*
X47029208Y-18241475D01*
X47029207Y-18241476D01*
X46846378Y-18363639D01*
X46777487Y-18384537D01*
X43773302Y-18384537D01*
X43773294Y-18384536D01*
X43735568Y-18384536D01*
X43735478Y-18384499D01*
X43531874Y-18384502D01*
X43531864Y-18384503D01*
X43234911Y-18452288D01*
X42960479Y-18584455D01*
X42722338Y-18774373D01*
X42532426Y-19012524D01*
X42532425Y-19012526D01*
X42400274Y-19286953D01*
X42400271Y-19286963D01*
X42335680Y-19569980D01*
X42332498Y-19583921D01*
X42332500Y-19704572D01*
X42332500Y-27276157D01*
X42332499Y-34848601D01*
X42332463Y-34848689D01*
X42332463Y-35099159D01*
X42382259Y-35413557D01*
X42394775Y-35492575D01*
X42517863Y-35871399D01*
X42597779Y-36028240D01*
X42698698Y-36226303D01*
X42932828Y-36548551D01*
X42932829Y-36548552D01*
X43161015Y-36776733D01*
X43214484Y-36830201D01*
X43303908Y-36895170D01*
X43536731Y-37064323D01*
X43720810Y-37158113D01*
X43891641Y-37245153D01*
X44270467Y-37368236D01*
X44663884Y-37430540D01*
X44863041Y-37430537D01*
X44863044Y-37430537D01*
X45418387Y-37430537D01*
X45506068Y-37466856D01*
X45532948Y-37507085D01*
X45591256Y-37647856D01*
X45591258Y-37647858D01*
X45779679Y-37893413D01*
X46025234Y-38081834D01*
X46311188Y-38200280D01*
X46541012Y-38230537D01*
X46541019Y-38230537D01*
X47893091Y-38230537D01*
X47893098Y-38230537D01*
X48122922Y-38200280D01*
X48408876Y-38081834D01*
X48654431Y-37893413D01*
X48842852Y-37647859D01*
X48961298Y-37361904D01*
X49000475Y-37064324D01*
X49001698Y-37055038D01*
X57932412Y-37055038D01*
X57972811Y-37361902D01*
X57972812Y-37361904D01*
X58091258Y-37647858D01*
X58279679Y-37893413D01*
X58525234Y-38081834D01*
X58811188Y-38200280D01*
X59041012Y-38230537D01*
X59041019Y-38230537D01*
X60393091Y-38230537D01*
X60393098Y-38230537D01*
X60622922Y-38200280D01*
X60908876Y-38081834D01*
X61154431Y-37893413D01*
X61342852Y-37647859D01*
X61461298Y-37361904D01*
X61500475Y-37064324D01*
X61501698Y-37055038D01*
X61501698Y-37055035D01*
X61461298Y-36748171D01*
X61461298Y-36748170D01*
X61342852Y-36462216D01*
X61154431Y-36216661D01*
X60908876Y-36028240D01*
X60622922Y-35909794D01*
X60622920Y-35909793D01*
X60393107Y-35879538D01*
X60393104Y-35879537D01*
X60393098Y-35879537D01*
X59041012Y-35879537D01*
X59041006Y-35879537D01*
X59041002Y-35879538D01*
X58811189Y-35909793D01*
X58811187Y-35909794D01*
X58525233Y-36028240D01*
X58279680Y-36216659D01*
X58091257Y-36462216D01*
X57972812Y-36748169D01*
X57972811Y-36748171D01*
X57932412Y-37055035D01*
X57932412Y-37055038D01*
X49001698Y-37055038D01*
X49001698Y-37055035D01*
X48961298Y-36748171D01*
X48961298Y-36748170D01*
X48842852Y-36462216D01*
X48654431Y-36216661D01*
X48408876Y-36028240D01*
X48122922Y-35909794D01*
X48122920Y-35909793D01*
X47893107Y-35879538D01*
X47893104Y-35879537D01*
X47893098Y-35879537D01*
X46541012Y-35879537D01*
X46541006Y-35879537D01*
X46541002Y-35879538D01*
X46311189Y-35909793D01*
X46311187Y-35909794D01*
X46025233Y-36028240D01*
X45779680Y-36216659D01*
X45591256Y-36462217D01*
X45532948Y-36602989D01*
X45465840Y-36670098D01*
X45418387Y-36679537D01*
X44952163Y-36679537D01*
X44952155Y-36679536D01*
X44866075Y-36679536D01*
X44859996Y-36679237D01*
X44528010Y-36646545D01*
X44504169Y-36641803D01*
X44193710Y-36547632D01*
X44171251Y-36538330D01*
X43885128Y-36385398D01*
X43864916Y-36371893D01*
X43675762Y-36216661D01*
X43614128Y-36166080D01*
X43596941Y-36148894D01*
X43590503Y-36141049D01*
X43391118Y-35898102D01*
X43377616Y-35877893D01*
X43376236Y-35875312D01*
X43295060Y-35723443D01*
X43224681Y-35591773D01*
X43215379Y-35569316D01*
X43121203Y-35258863D01*
X43116460Y-35235021D01*
X43083799Y-34903407D01*
X43083500Y-34897326D01*
X43083500Y-19810903D01*
X43083501Y-19810901D01*
X43083500Y-19745968D01*
X43085026Y-19726572D01*
X43088989Y-19701551D01*
X43109825Y-19569979D01*
X43121813Y-19533084D01*
X43151152Y-19475500D01*
X43189302Y-19400622D01*
X43212104Y-19369238D01*
X43317222Y-19264117D01*
X43348605Y-19241314D01*
X43481063Y-19173819D01*
X43517959Y-19161831D01*
X43674312Y-19137063D01*
X43693712Y-19135537D01*
X46777487Y-19135537D01*
X46846378Y-19156435D01*
X46854436Y-19161819D01*
X47029206Y-19278597D01*
X47029207Y-19278597D01*
X47029208Y-19278598D01*
X47243998Y-19321322D01*
X47244000Y-19321322D01*
X47244002Y-19321322D01*
X47458791Y-19278598D01*
X47458791Y-19278597D01*
X47458794Y-19278597D01*
X47639610Y-19157778D01*
X47732689Y-19139263D01*
X47811601Y-19191990D01*
X47832499Y-19260881D01*
X47832499Y-20259192D01*
X47796180Y-20346873D01*
X47708499Y-20383192D01*
X47639608Y-20362294D01*
X47616529Y-20346873D01*
X47458794Y-20241477D01*
X47458793Y-20241476D01*
X47458792Y-20241476D01*
X47458791Y-20241475D01*
X47244002Y-20198752D01*
X47243998Y-20198752D01*
X47029208Y-20241475D01*
X47029207Y-20241476D01*
X46846378Y-20363639D01*
X46777487Y-20384537D01*
X44887947Y-20384537D01*
X44886861Y-20384597D01*
X44797965Y-20384594D01*
X44797959Y-20384594D01*
X44534171Y-20444791D01*
X44290387Y-20562179D01*
X44290386Y-20562180D01*
X44078837Y-20730870D01*
X43910130Y-20942407D01*
X43792722Y-21186181D01*
X43732504Y-21449968D01*
X43732503Y-21449973D01*
X43732501Y-21540039D01*
X43732500Y-21540066D01*
X43732500Y-21585259D01*
X43732498Y-21674375D01*
X43732500Y-21674392D01*
X43732500Y-31985959D01*
X43797081Y-32352220D01*
X43924283Y-32701703D01*
X43924286Y-32701710D01*
X43943180Y-32734435D01*
X44110242Y-33023794D01*
X44349304Y-33308696D01*
X44634206Y-33547758D01*
X44956294Y-33733716D01*
X45305779Y-33860918D01*
X45672043Y-33925500D01*
X45815691Y-33925500D01*
X53218943Y-33925500D01*
X53306624Y-33961819D01*
X53342943Y-34049500D01*
X53306624Y-34137181D01*
X53253878Y-34168477D01*
X53189127Y-34187489D01*
X53189126Y-34187490D01*
X53143941Y-34216528D01*
X53140119Y-34217217D01*
X53131181Y-34224345D01*
X53126043Y-34228030D01*
X52971291Y-34327484D01*
X52971286Y-34327488D01*
X52931271Y-34373668D01*
X52925129Y-34376742D01*
X52914310Y-34392611D01*
X52909936Y-34398291D01*
X52801716Y-34523183D01*
X52773297Y-34585412D01*
X52766218Y-34592001D01*
X52758934Y-34615618D01*
X52756083Y-34623105D01*
X52694146Y-34758728D01*
X52657295Y-35015036D01*
X52694146Y-35271345D01*
X52756084Y-35406971D01*
X52758935Y-35414458D01*
X52766023Y-35437437D01*
X52773297Y-35444662D01*
X52801713Y-35506886D01*
X52801716Y-35506890D01*
X52875267Y-35591773D01*
X52909939Y-35631786D01*
X52914313Y-35637466D01*
X52924887Y-35652975D01*
X52931270Y-35656404D01*
X52971289Y-35702588D01*
X52971290Y-35702588D01*
X52971290Y-35702589D01*
X53126055Y-35802050D01*
X53131194Y-35805736D01*
X53139953Y-35812721D01*
X53143943Y-35813546D01*
X53189128Y-35842585D01*
X53285428Y-35870860D01*
X53387203Y-35900744D01*
X53392377Y-35902516D01*
X53392563Y-35902589D01*
X53393278Y-35902528D01*
X53437583Y-35915537D01*
X53437584Y-35915537D01*
X53696527Y-35915537D01*
X53944983Y-35842584D01*
X53959506Y-35833251D01*
X54162816Y-35702591D01*
X54162815Y-35702591D01*
X54162821Y-35702588D01*
X54332394Y-35506890D01*
X54332442Y-35506786D01*
X54439962Y-35271348D01*
X54439963Y-35271346D01*
X54476815Y-35015037D01*
X54439963Y-34758728D01*
X54427844Y-34732190D01*
X54332396Y-34523187D01*
X54332394Y-34523185D01*
X54332394Y-34523184D01*
X54162821Y-34327486D01*
X54162818Y-34327484D01*
X54162816Y-34327482D01*
X53944985Y-34187490D01*
X53944982Y-34187489D01*
X53880232Y-34168477D01*
X53806335Y-34108927D01*
X53796190Y-34014565D01*
X53855740Y-33940668D01*
X53915167Y-33925500D01*
X64244308Y-33925500D01*
X64315952Y-33925500D01*
X64322032Y-33925799D01*
X64410358Y-33934497D01*
X64587134Y-33951908D01*
X64610962Y-33956647D01*
X64857109Y-34031315D01*
X64879565Y-34040616D01*
X65106410Y-34161865D01*
X65126619Y-34175368D01*
X65325450Y-34338542D01*
X65342637Y-34355729D01*
X65505817Y-34554562D01*
X65519321Y-34574772D01*
X65640572Y-34801609D01*
X65649875Y-34824067D01*
X65724544Y-35070202D01*
X65729287Y-35094043D01*
X65755368Y-35358808D01*
X65755667Y-35364889D01*
X65755667Y-35755537D01*
X65719348Y-35843218D01*
X65631667Y-35879537D01*
X65455124Y-35879537D01*
X65455118Y-35879537D01*
X65455114Y-35879538D01*
X65225301Y-35909793D01*
X65225299Y-35909794D01*
X64939345Y-36028240D01*
X64693792Y-36216659D01*
X64505369Y-36462216D01*
X64386924Y-36748169D01*
X64386923Y-36748171D01*
X64346524Y-37055035D01*
X64346524Y-37055038D01*
X64386923Y-37361902D01*
X64386924Y-37361904D01*
X64505370Y-37647858D01*
X64693791Y-37893413D01*
X64939346Y-38081834D01*
X65225300Y-38200280D01*
X65455124Y-38230537D01*
X65455131Y-38230537D01*
X66807203Y-38230537D01*
X66807210Y-38230537D01*
X67037034Y-38200280D01*
X67322988Y-38081834D01*
X67568543Y-37893413D01*
X67756964Y-37647859D01*
X67875410Y-37361904D01*
X67914587Y-37064324D01*
X67915810Y-37055038D01*
X67915810Y-37055035D01*
X67875410Y-36748171D01*
X67875410Y-36748170D01*
X67756964Y-36462216D01*
X67568543Y-36216661D01*
X67322988Y-36028240D01*
X67037034Y-35909794D01*
X67037032Y-35909793D01*
X66807219Y-35879538D01*
X66807216Y-35879537D01*
X66807210Y-35879537D01*
X66807203Y-35879537D01*
X66630667Y-35879537D01*
X66542986Y-35843218D01*
X66506667Y-35755537D01*
X66506667Y-35436854D01*
X66506668Y-35436852D01*
X66506667Y-35413555D01*
X66506700Y-35413474D01*
X66506699Y-35362160D01*
X66506700Y-35362160D01*
X66506697Y-35170763D01*
X66479236Y-35015036D01*
X71571407Y-35015036D01*
X71608258Y-35271345D01*
X71670196Y-35406971D01*
X71673047Y-35414458D01*
X71680135Y-35437437D01*
X71687409Y-35444662D01*
X71715825Y-35506886D01*
X71715828Y-35506890D01*
X71789379Y-35591773D01*
X71824051Y-35631786D01*
X71828425Y-35637466D01*
X71838999Y-35652975D01*
X71845382Y-35656404D01*
X71885401Y-35702588D01*
X71885402Y-35702588D01*
X71885402Y-35702589D01*
X72040167Y-35802050D01*
X72045306Y-35805736D01*
X72054065Y-35812721D01*
X72058055Y-35813546D01*
X72103240Y-35842585D01*
X72199540Y-35870860D01*
X72301315Y-35900744D01*
X72306489Y-35902516D01*
X72306675Y-35902589D01*
X72307390Y-35902528D01*
X72351695Y-35915537D01*
X72351696Y-35915537D01*
X72610639Y-35915537D01*
X72859095Y-35842584D01*
X72873618Y-35833251D01*
X73076928Y-35702591D01*
X73076927Y-35702591D01*
X73076933Y-35702588D01*
X73246506Y-35506890D01*
X73246554Y-35506786D01*
X73354074Y-35271348D01*
X73354075Y-35271346D01*
X73390927Y-35015037D01*
X73354075Y-34758728D01*
X73341956Y-34732190D01*
X73246508Y-34523187D01*
X73246506Y-34523185D01*
X73246506Y-34523184D01*
X73076933Y-34327486D01*
X73076930Y-34327484D01*
X73076928Y-34327482D01*
X72859097Y-34187490D01*
X72859094Y-34187489D01*
X72610640Y-34114537D01*
X72610639Y-34114537D01*
X72351695Y-34114537D01*
X72351691Y-34114537D01*
X72307390Y-34127545D01*
X72306704Y-34127471D01*
X72306466Y-34127565D01*
X72301283Y-34129338D01*
X72103239Y-34187489D01*
X72103238Y-34187490D01*
X72058053Y-34216528D01*
X72054231Y-34217217D01*
X72045293Y-34224345D01*
X72040155Y-34228030D01*
X71885403Y-34327484D01*
X71885398Y-34327488D01*
X71845383Y-34373668D01*
X71839241Y-34376742D01*
X71828422Y-34392611D01*
X71824048Y-34398291D01*
X71715828Y-34523183D01*
X71687409Y-34585412D01*
X71680330Y-34592001D01*
X71673046Y-34615618D01*
X71670195Y-34623105D01*
X71608258Y-34758728D01*
X71571407Y-35015036D01*
X66479236Y-35015036D01*
X66440220Y-34793786D01*
X66309291Y-34434080D01*
X66117891Y-34102573D01*
X65871833Y-33809339D01*
X65638973Y-33613949D01*
X65578595Y-33563286D01*
X65578593Y-33563285D01*
X65247088Y-33371894D01*
X65247086Y-33371893D01*
X65247084Y-33371892D01*
X65031548Y-33293444D01*
X64887376Y-33240970D01*
X64698886Y-33207734D01*
X64510397Y-33174499D01*
X64510396Y-33174499D01*
X64318999Y-33174500D01*
X45861049Y-33174500D01*
X45854968Y-33174201D01*
X45602003Y-33149286D01*
X45578163Y-33144544D01*
X45343685Y-33073416D01*
X45321228Y-33064113D01*
X45105140Y-32948612D01*
X45084928Y-32935107D01*
X44895522Y-32779665D01*
X44878334Y-32762477D01*
X44828458Y-32701703D01*
X44722891Y-32573069D01*
X44709387Y-32552859D01*
X44688264Y-32513341D01*
X44593885Y-32336768D01*
X44584585Y-32314320D01*
X44513453Y-32079829D01*
X44508714Y-32056003D01*
X44483799Y-31803032D01*
X44483500Y-31796951D01*
X44483500Y-31000000D01*
X51031627Y-31000000D01*
X51071167Y-31300339D01*
X51071168Y-31300341D01*
X51187095Y-31580215D01*
X51226499Y-31631567D01*
X51371508Y-31820547D01*
X51440964Y-31873842D01*
X51611839Y-32004959D01*
X51611840Y-32004959D01*
X51611841Y-32004960D01*
X51891714Y-32120887D01*
X52006257Y-32135967D01*
X52192054Y-32160428D01*
X52192055Y-32160428D01*
X52192056Y-32160428D01*
X52292168Y-32147247D01*
X52492396Y-32120887D01*
X52772269Y-32004960D01*
X53012602Y-31820547D01*
X53197015Y-31580214D01*
X53312942Y-31300341D01*
X53334616Y-31135711D01*
X53382069Y-31053521D01*
X53473740Y-31028958D01*
X53555931Y-31076411D01*
X53581555Y-31151897D01*
X53581555Y-31924678D01*
X53596087Y-31997735D01*
X53596088Y-31997739D01*
X53596089Y-31997740D01*
X53651454Y-32080601D01*
X53734315Y-32135966D01*
X53734319Y-32135967D01*
X53807376Y-32150499D01*
X53807379Y-32150500D01*
X53807381Y-32150500D01*
X55656731Y-32150500D01*
X55656732Y-32150499D01*
X55729795Y-32135966D01*
X55812656Y-32080601D01*
X55868021Y-31997740D01*
X55882555Y-31924674D01*
X55882555Y-31000000D01*
X69945739Y-31000000D01*
X69985279Y-31300339D01*
X69985280Y-31300341D01*
X70101207Y-31580215D01*
X70140611Y-31631567D01*
X70285620Y-31820547D01*
X70355076Y-31873842D01*
X70525951Y-32004959D01*
X70525952Y-32004959D01*
X70525953Y-32004960D01*
X70805826Y-32120887D01*
X70920369Y-32135967D01*
X71106166Y-32160428D01*
X71106167Y-32160428D01*
X71106168Y-32160428D01*
X71206280Y-32147247D01*
X71406508Y-32120887D01*
X71686381Y-32004960D01*
X71926714Y-31820547D01*
X72111127Y-31580214D01*
X72227054Y-31300341D01*
X72248728Y-31135711D01*
X72296181Y-31053521D01*
X72387852Y-31028958D01*
X72470043Y-31076411D01*
X72495667Y-31151897D01*
X72495667Y-31924678D01*
X72510199Y-31997735D01*
X72510200Y-31997739D01*
X72510201Y-31997740D01*
X72565566Y-32080601D01*
X72648427Y-32135966D01*
X72648431Y-32135967D01*
X72721488Y-32150499D01*
X72721491Y-32150500D01*
X72721493Y-32150500D01*
X74570843Y-32150500D01*
X74570844Y-32150499D01*
X74643907Y-32135966D01*
X74726768Y-32080601D01*
X74782133Y-31997740D01*
X74796667Y-31924674D01*
X74796667Y-30075326D01*
X74796667Y-30075325D01*
X74796667Y-30075323D01*
X74796666Y-30075321D01*
X74782134Y-30002264D01*
X74782133Y-30002260D01*
X74732592Y-29928116D01*
X74726768Y-29919399D01*
X74643907Y-29864034D01*
X74643906Y-29864033D01*
X74643902Y-29864032D01*
X74570844Y-29849500D01*
X74570841Y-29849500D01*
X72721493Y-29849500D01*
X72721490Y-29849500D01*
X72648431Y-29864032D01*
X72648427Y-29864033D01*
X72565566Y-29919399D01*
X72510200Y-30002260D01*
X72510199Y-30002264D01*
X72495667Y-30075321D01*
X72495667Y-30848102D01*
X72459348Y-30935783D01*
X72371667Y-30972102D01*
X72283986Y-30935783D01*
X72248728Y-30864288D01*
X72246597Y-30848102D01*
X72227054Y-30699659D01*
X72111127Y-30419786D01*
X72111126Y-30419785D01*
X72111126Y-30419784D01*
X71986696Y-30257624D01*
X71926714Y-30179453D01*
X71791012Y-30075326D01*
X71686382Y-29995040D01*
X71406508Y-29879113D01*
X71406506Y-29879112D01*
X71106168Y-29839572D01*
X71106166Y-29839572D01*
X70805827Y-29879112D01*
X70805825Y-29879113D01*
X70525951Y-29995040D01*
X70285620Y-30179453D01*
X70101207Y-30419784D01*
X69985280Y-30699658D01*
X69985279Y-30699660D01*
X69945739Y-30999999D01*
X69945739Y-31000000D01*
X55882555Y-31000000D01*
X55882555Y-30075326D01*
X55882555Y-30075325D01*
X55882555Y-30075323D01*
X55882554Y-30075321D01*
X55868022Y-30002264D01*
X55868021Y-30002260D01*
X55818480Y-29928116D01*
X55812656Y-29919399D01*
X55729795Y-29864034D01*
X55729794Y-29864033D01*
X55729790Y-29864032D01*
X55656732Y-29849500D01*
X55656729Y-29849500D01*
X53807381Y-29849500D01*
X53807378Y-29849500D01*
X53734319Y-29864032D01*
X53734315Y-29864033D01*
X53651454Y-29919399D01*
X53596088Y-30002260D01*
X53596087Y-30002264D01*
X53581555Y-30075321D01*
X53581555Y-30848102D01*
X53545236Y-30935783D01*
X53457555Y-30972102D01*
X53369874Y-30935783D01*
X53334616Y-30864288D01*
X53332485Y-30848102D01*
X53312942Y-30699659D01*
X53197015Y-30419786D01*
X53197014Y-30419785D01*
X53197014Y-30419784D01*
X53072584Y-30257624D01*
X53012602Y-30179453D01*
X52876900Y-30075326D01*
X52772270Y-29995040D01*
X52492396Y-29879113D01*
X52492394Y-29879112D01*
X52192056Y-29839572D01*
X52192054Y-29839572D01*
X51891715Y-29879112D01*
X51891713Y-29879113D01*
X51611839Y-29995040D01*
X51371508Y-30179453D01*
X51187095Y-30419784D01*
X51071168Y-30699658D01*
X51071167Y-30699660D01*
X51031627Y-30999999D01*
X51031627Y-31000000D01*
X44483500Y-31000000D01*
X44483500Y-21595047D01*
X44485027Y-21575646D01*
X44490206Y-21542956D01*
X44502442Y-21465714D01*
X44514432Y-21428821D01*
X44560479Y-21338458D01*
X44583283Y-21307073D01*
X44654999Y-21235362D01*
X44686383Y-21212561D01*
X44776756Y-21166517D01*
X44813648Y-21154532D01*
X44923979Y-21137062D01*
X44943371Y-21135537D01*
X45007910Y-21135540D01*
X45007911Y-21135539D01*
X45020481Y-21135540D01*
X45020520Y-21135537D01*
X46777487Y-21135537D01*
X46846378Y-21156435D01*
X46859704Y-21165339D01*
X47029206Y-21278597D01*
X47029207Y-21278597D01*
X47029208Y-21278598D01*
X47243998Y-21321322D01*
X47244000Y-21321322D01*
X47244002Y-21321322D01*
X47458791Y-21278598D01*
X47458791Y-21278597D01*
X47458794Y-21278597D01*
X47639610Y-21157778D01*
X47732689Y-21139263D01*
X47811601Y-21191990D01*
X47832499Y-21260881D01*
X47832500Y-26370351D01*
X47832499Y-26370365D01*
X47832499Y-26403646D01*
X47832462Y-26403737D01*
X47832466Y-26648874D01*
X47832466Y-26648875D01*
X47899790Y-27030650D01*
X48032382Y-27394924D01*
X48032387Y-27394936D01*
X48226222Y-27730656D01*
X48226224Y-27730659D01*
X48438522Y-27983661D01*
X48475410Y-28027621D01*
X48608753Y-28139507D01*
X48772378Y-28276803D01*
X48772380Y-28276804D01*
X49108108Y-28470634D01*
X49472394Y-28603221D01*
X49854168Y-28670537D01*
X50005691Y-28670537D01*
X74141487Y-28670537D01*
X74210378Y-28691435D01*
X74283549Y-28740326D01*
X74393206Y-28813597D01*
X74393207Y-28813597D01*
X74393208Y-28813598D01*
X74607998Y-28856322D01*
X74608000Y-28856322D01*
X74608002Y-28856322D01*
X74822791Y-28813598D01*
X74822791Y-28813597D01*
X74822794Y-28813597D01*
X75004888Y-28691925D01*
X75126560Y-28509831D01*
X75129294Y-28496086D01*
X75147883Y-28402635D01*
X75200609Y-28323724D01*
X75293691Y-28305209D01*
X75372602Y-28357935D01*
X75393500Y-28426826D01*
X75393500Y-38046518D01*
X75393110Y-38053456D01*
X75381141Y-38159686D01*
X75363110Y-38319715D01*
X75356932Y-38346786D01*
X75271898Y-38589799D01*
X75259850Y-38614816D01*
X75122876Y-38832809D01*
X75105563Y-38854518D01*
X74923518Y-39036563D01*
X74901809Y-39053876D01*
X74683816Y-39190850D01*
X74658799Y-39202898D01*
X74415786Y-39287932D01*
X74388715Y-39294110D01*
X74241425Y-39310706D01*
X74122455Y-39324110D01*
X74115519Y-39324500D01*
X24536503Y-39324500D01*
X24531102Y-39324264D01*
X24436790Y-39316013D01*
X24150511Y-39290966D01*
X24129225Y-39287213D01*
X23768059Y-39190438D01*
X23747748Y-39183045D01*
X23408881Y-39025028D01*
X23390162Y-39014221D01*
X23083873Y-38799755D01*
X23067316Y-38785861D01*
X22802934Y-38521478D01*
X22789040Y-38504920D01*
X22711418Y-38394064D01*
X22690877Y-38301408D01*
X22741870Y-38221366D01*
X22787212Y-38203734D01*
X22786850Y-38202383D01*
X22794692Y-38200280D01*
X22794700Y-38200280D01*
X23080654Y-38081834D01*
X23326209Y-37893413D01*
X23514630Y-37647859D01*
X23633076Y-37361904D01*
X23672253Y-37064324D01*
X23673476Y-37055038D01*
X23673476Y-37055035D01*
X23633076Y-36748171D01*
X23633076Y-36748170D01*
X23514630Y-36462216D01*
X23326209Y-36216661D01*
X23080654Y-36028240D01*
X22794700Y-35909794D01*
X22794698Y-35909793D01*
X22564885Y-35879538D01*
X22564882Y-35879537D01*
X22564876Y-35879537D01*
X21212790Y-35879537D01*
X21212784Y-35879537D01*
X21212780Y-35879538D01*
X20982967Y-35909793D01*
X20982965Y-35909794D01*
X20697011Y-36028240D01*
X20451458Y-36216659D01*
X20263035Y-36462216D01*
X20144590Y-36748169D01*
X20144589Y-36748171D01*
X20104190Y-37055035D01*
X20104190Y-37055038D01*
X20144589Y-37361902D01*
X20144590Y-37361904D01*
X20263036Y-37647858D01*
X20451457Y-37893413D01*
X20697012Y-38081834D01*
X20982966Y-38200280D01*
X21212790Y-38230537D01*
X21670386Y-38230537D01*
X21758067Y-38266856D01*
X21783180Y-38303026D01*
X21875990Y-38506254D01*
X21876003Y-38506277D01*
X22109581Y-38869732D01*
X22109585Y-38869738D01*
X22392524Y-39196269D01*
X22719054Y-39479209D01*
X23082522Y-39712797D01*
X23082538Y-39712806D01*
X23475537Y-39892283D01*
X23475541Y-39892284D01*
X23475543Y-39892285D01*
X23890102Y-40014011D01*
X23890103Y-40014011D01*
X23890106Y-40014012D01*
X24017628Y-40032346D01*
X24317765Y-40075500D01*
X24317766Y-40075500D01*
X74296206Y-40075500D01*
X74296208Y-40075500D01*
X74645240Y-40013956D01*
X74978283Y-39892739D01*
X75285217Y-39715530D01*
X75556716Y-39487716D01*
X75784530Y-39216217D01*
X75932927Y-38959186D01*
X83274500Y-38959186D01*
X83274501Y-38959203D01*
X83287450Y-39057566D01*
X83287451Y-39057567D01*
X83348101Y-39187631D01*
X83388126Y-39273465D01*
X83556572Y-39441911D01*
X83772469Y-39542585D01*
X83772470Y-39542586D01*
X83791416Y-39545080D01*
X83870844Y-39555537D01*
X83870851Y-39555537D01*
X85129149Y-39555537D01*
X85129156Y-39555537D01*
X85227529Y-39542586D01*
X85443428Y-39441911D01*
X85611874Y-39273465D01*
X85712549Y-39057566D01*
X85725500Y-38959193D01*
X85725500Y-37950881D01*
X85712549Y-37852508D01*
X85611874Y-37636609D01*
X85443428Y-37468163D01*
X85362743Y-37430539D01*
X85227530Y-37367488D01*
X85227529Y-37367487D01*
X85129166Y-37354538D01*
X85129161Y-37354537D01*
X85129156Y-37354537D01*
X83870844Y-37354537D01*
X83870838Y-37354537D01*
X83870833Y-37354538D01*
X83772470Y-37367487D01*
X83772469Y-37367488D01*
X83556571Y-37468163D01*
X83388126Y-37636608D01*
X83287451Y-37852506D01*
X83287450Y-37852507D01*
X83274501Y-37950870D01*
X83274500Y-37950887D01*
X83274500Y-38959186D01*
X75932927Y-38959186D01*
X75961739Y-38909283D01*
X76082956Y-38576240D01*
X76144500Y-38227208D01*
X76144500Y-38050000D01*
X76144500Y-37975308D01*
X76144500Y-16755039D01*
X76655289Y-16755039D01*
X76698012Y-16969828D01*
X76698013Y-16969829D01*
X76698013Y-16969830D01*
X76698014Y-16969831D01*
X76706366Y-16982331D01*
X76811602Y-17139826D01*
X76832500Y-17208717D01*
X76832500Y-32175180D01*
X76832463Y-32175269D01*
X76832463Y-32524002D01*
X76901430Y-33047848D01*
X77038185Y-33558223D01*
X77240385Y-34046375D01*
X77240390Y-34046386D01*
X77488162Y-34475537D01*
X77504576Y-34503966D01*
X77808752Y-34900375D01*
X77826236Y-34923160D01*
X78199844Y-35296769D01*
X78199851Y-35296775D01*
X78619042Y-35618430D01*
X78619044Y-35618431D01*
X78670519Y-35648150D01*
X78728295Y-35723443D01*
X78715907Y-35817536D01*
X78640614Y-35875312D01*
X78608520Y-35879537D01*
X77955124Y-35879537D01*
X77955118Y-35879537D01*
X77955114Y-35879538D01*
X77725301Y-35909793D01*
X77725299Y-35909794D01*
X77439345Y-36028240D01*
X77193792Y-36216659D01*
X77005369Y-36462216D01*
X76886924Y-36748169D01*
X76886923Y-36748171D01*
X76846524Y-37055035D01*
X76846524Y-37055038D01*
X76886923Y-37361902D01*
X76886924Y-37361904D01*
X77005370Y-37647858D01*
X77193791Y-37893413D01*
X77439346Y-38081834D01*
X77725300Y-38200280D01*
X77955124Y-38230537D01*
X77955131Y-38230537D01*
X79307203Y-38230537D01*
X79307210Y-38230537D01*
X79537034Y-38200280D01*
X79822988Y-38081834D01*
X80068543Y-37893413D01*
X80256964Y-37647859D01*
X80375410Y-37361904D01*
X80414587Y-37064324D01*
X80415810Y-37055038D01*
X80415810Y-37055035D01*
X80375410Y-36748171D01*
X80375410Y-36748170D01*
X80256964Y-36462216D01*
X80254229Y-36458652D01*
X80253643Y-36456464D01*
X80252900Y-36455177D01*
X80253244Y-36454977D01*
X80229667Y-36366982D01*
X80277119Y-36284791D01*
X80368790Y-36260228D01*
X80476894Y-36274460D01*
X80599012Y-36290537D01*
X80599013Y-36290537D01*
X80820882Y-36290537D01*
X83254701Y-36290537D01*
X83342382Y-36326856D01*
X83364797Y-36357487D01*
X83379260Y-36385398D01*
X83467470Y-36555638D01*
X83467472Y-36555640D01*
X83673958Y-36776733D01*
X83673960Y-36776734D01*
X83673961Y-36776735D01*
X83761882Y-36830201D01*
X83932438Y-36933918D01*
X84223740Y-37015537D01*
X84223742Y-37015537D01*
X84700274Y-37015537D01*
X84724469Y-37012211D01*
X84924703Y-36984690D01*
X85202178Y-36864165D01*
X85436846Y-36673248D01*
X85611304Y-36426098D01*
X85706468Y-36158333D01*
X85712611Y-36141049D01*
X85712611Y-36141047D01*
X85712612Y-36141045D01*
X85733256Y-35839230D01*
X85671707Y-35543037D01*
X85576247Y-35358808D01*
X85532529Y-35274435D01*
X85506210Y-35246254D01*
X85326042Y-35053341D01*
X85326039Y-35053339D01*
X85326038Y-35053338D01*
X85067564Y-34896157D01*
X85067563Y-34896156D01*
X85067562Y-34896156D01*
X84776260Y-34814537D01*
X84299727Y-34814537D01*
X84299726Y-34814537D01*
X84075297Y-34845384D01*
X83797821Y-34965908D01*
X83563154Y-35156825D01*
X83563151Y-35156829D01*
X83388695Y-35403976D01*
X83369829Y-35457062D01*
X83306245Y-35527518D01*
X83252989Y-35539537D01*
X80865415Y-35539537D01*
X80860992Y-35539379D01*
X80813435Y-35535977D01*
X80405290Y-35506786D01*
X80387778Y-35504268D01*
X79947860Y-35408570D01*
X79930885Y-35403586D01*
X79509059Y-35246254D01*
X79492965Y-35238904D01*
X79097824Y-35023141D01*
X79082941Y-35013576D01*
X78722530Y-34743776D01*
X78709159Y-34732190D01*
X78390812Y-34413844D01*
X78379226Y-34400473D01*
X78330393Y-34335240D01*
X78109427Y-34040063D01*
X78099862Y-34025180D01*
X78023917Y-33886098D01*
X77884096Y-33630036D01*
X77876752Y-33613956D01*
X77719411Y-33192110D01*
X77714432Y-33175151D01*
X77618731Y-32735223D01*
X77616214Y-32717714D01*
X77615331Y-32705375D01*
X77583657Y-32262530D01*
X77583500Y-32258108D01*
X77583500Y-17233249D01*
X77611613Y-17165378D01*
X77606677Y-17162080D01*
X77635808Y-17118481D01*
X77735134Y-16969831D01*
X77777859Y-16755037D01*
X77777859Y-16755034D01*
X77735135Y-16540245D01*
X77735134Y-16540244D01*
X77735134Y-16540243D01*
X77673806Y-16448460D01*
X77613462Y-16358148D01*
X77450072Y-16248975D01*
X77431368Y-16236477D01*
X77431367Y-16236476D01*
X77431366Y-16236476D01*
X77431365Y-16236475D01*
X77216576Y-16193752D01*
X77216572Y-16193752D01*
X77001782Y-16236475D01*
X77001781Y-16236476D01*
X76819685Y-16358148D01*
X76698013Y-16540244D01*
X76698012Y-16540245D01*
X76655289Y-16755034D01*
X76655289Y-16755039D01*
X76144500Y-16755039D01*
X76144500Y-15357691D01*
X76144500Y-15284454D01*
X76093077Y-15059156D01*
X76059205Y-14988820D01*
X75992812Y-14850952D01*
X75931467Y-14774028D01*
X75848726Y-14670274D01*
X75668051Y-14526190D01*
X75668050Y-14526189D01*
X75668047Y-14526187D01*
X75459848Y-14425924D01*
X75234550Y-14374500D01*
X75234546Y-14374500D01*
X75161309Y-14374500D01*
X69125529Y-14374500D01*
X69056638Y-14353602D01*
X68927034Y-14267003D01*
X68909768Y-14255466D01*
X68909767Y-14255465D01*
X68909766Y-14255465D01*
X68909765Y-14255464D01*
X68694976Y-14212741D01*
X68694972Y-14212741D01*
X68480182Y-14255464D01*
X68480181Y-14255465D01*
X68298085Y-14377137D01*
X68176413Y-14559233D01*
X68176412Y-14559234D01*
X68133689Y-14774023D01*
X68133689Y-14774028D01*
X68176412Y-14988817D01*
X68176413Y-14988818D01*
X68298085Y-15170914D01*
X68350444Y-15205899D01*
X68480180Y-15292586D01*
X68480181Y-15292586D01*
X68480182Y-15292587D01*
X68694972Y-15335311D01*
X68694974Y-15335311D01*
X68694976Y-15335311D01*
X68909765Y-15292587D01*
X68909765Y-15292586D01*
X68909768Y-15292586D01*
X69091862Y-15170914D01*
X69091864Y-15170910D01*
X69100500Y-15162276D01*
X69105444Y-15167220D01*
X69164229Y-15127896D01*
X69188486Y-15125500D01*
X75044308Y-15125500D01*
X75106789Y-15125500D01*
X75130971Y-15127881D01*
X75199860Y-15141583D01*
X75244550Y-15160094D01*
X75292595Y-15192197D01*
X75326802Y-15226404D01*
X75356213Y-15270420D01*
X75358903Y-15274446D01*
X75377416Y-15319143D01*
X75385084Y-15357691D01*
X75391117Y-15388017D01*
X75393500Y-15412209D01*
X75393500Y-28163247D01*
X75357181Y-28250928D01*
X75269500Y-28287247D01*
X75181819Y-28250928D01*
X75147883Y-28187438D01*
X75126561Y-28080245D01*
X75126560Y-28080244D01*
X75126560Y-28080243D01*
X75062026Y-27983661D01*
X75004888Y-27898148D01*
X74861442Y-27802301D01*
X74822794Y-27776477D01*
X74822793Y-27776476D01*
X74822792Y-27776476D01*
X74822791Y-27776475D01*
X74608002Y-27733752D01*
X74607998Y-27733752D01*
X74393208Y-27776475D01*
X74393207Y-27776476D01*
X74210378Y-27898639D01*
X74141487Y-27919537D01*
X50051048Y-27919537D01*
X50044967Y-27919238D01*
X49774441Y-27892594D01*
X49750600Y-27887852D01*
X49499241Y-27811604D01*
X49476783Y-27802301D01*
X49245124Y-27678478D01*
X49224913Y-27664974D01*
X49021865Y-27498340D01*
X49004677Y-27481152D01*
X48994426Y-27468661D01*
X48838039Y-27278107D01*
X48824536Y-27257900D01*
X48822172Y-27253478D01*
X48744109Y-27107436D01*
X48700708Y-27026240D01*
X48691406Y-27003783D01*
X48615152Y-26752423D01*
X48610412Y-26728596D01*
X48590608Y-26527559D01*
X48583799Y-26458433D01*
X48583500Y-26452352D01*
X48583500Y-10755039D01*
X68146715Y-10755039D01*
X68189438Y-10969828D01*
X68189439Y-10969829D01*
X68189439Y-10969830D01*
X68189440Y-10969831D01*
X68214010Y-11006602D01*
X68311111Y-11151925D01*
X68402159Y-11212761D01*
X68493206Y-11273597D01*
X68493207Y-11273597D01*
X68493208Y-11273598D01*
X68707998Y-11316322D01*
X68708000Y-11316322D01*
X68708002Y-11316322D01*
X68922791Y-11273598D01*
X68922791Y-11273597D01*
X68922794Y-11273597D01*
X69093035Y-11159845D01*
X69105622Y-11151435D01*
X69174513Y-11130537D01*
X77524072Y-11130537D01*
X77543463Y-11132063D01*
X77699431Y-11156773D01*
X77736311Y-11168758D01*
X77868203Y-11235965D01*
X77899582Y-11258765D01*
X78004246Y-11363433D01*
X78027048Y-11394818D01*
X78094246Y-11526704D01*
X78106234Y-11563599D01*
X78130973Y-11719787D01*
X78132500Y-11739186D01*
X78132500Y-31248600D01*
X78132463Y-31248691D01*
X78132463Y-31300000D01*
X78132463Y-31492864D01*
X78192804Y-31873842D01*
X78312002Y-32240690D01*
X78370836Y-32356157D01*
X78487119Y-32584374D01*
X78713848Y-32896435D01*
X78713849Y-32896436D01*
X78986597Y-33169178D01*
X78986601Y-33169182D01*
X79178630Y-33308695D01*
X79298663Y-33395902D01*
X79642350Y-33571015D01*
X80009201Y-33690206D01*
X80390180Y-33750541D01*
X80583037Y-33750537D01*
X80583046Y-33750537D01*
X83254701Y-33750537D01*
X83342382Y-33786856D01*
X83364799Y-33817489D01*
X83467470Y-34015638D01*
X83485422Y-34034860D01*
X83673958Y-34236733D01*
X83932438Y-34393918D01*
X84223740Y-34475537D01*
X84223742Y-34475537D01*
X84700274Y-34475537D01*
X84724469Y-34472211D01*
X84924703Y-34444690D01*
X85202178Y-34324165D01*
X85436846Y-34133248D01*
X85611304Y-33886098D01*
X85680924Y-33690206D01*
X85712611Y-33601049D01*
X85712611Y-33601047D01*
X85712612Y-33601045D01*
X85733256Y-33299230D01*
X85671707Y-33003037D01*
X85547059Y-32762477D01*
X85532529Y-32734435D01*
X85501959Y-32701703D01*
X85326042Y-32513341D01*
X85326039Y-32513339D01*
X85326038Y-32513338D01*
X85067564Y-32356157D01*
X85067563Y-32356156D01*
X85067562Y-32356156D01*
X84776260Y-32274537D01*
X84299727Y-32274537D01*
X84299726Y-32274537D01*
X84075297Y-32305384D01*
X83797821Y-32425908D01*
X83563154Y-32616825D01*
X83563151Y-32616829D01*
X83388695Y-32863976D01*
X83369829Y-32917062D01*
X83306245Y-32987518D01*
X83252989Y-32999537D01*
X80672163Y-32999537D01*
X80672155Y-32999536D01*
X80586074Y-32999536D01*
X80579995Y-32999237D01*
X80263617Y-32968082D01*
X80239776Y-32963340D01*
X79944324Y-32873721D01*
X79921865Y-32864419D01*
X79649574Y-32718880D01*
X79629362Y-32705375D01*
X79456642Y-32563631D01*
X79390697Y-32509512D01*
X79373510Y-32492326D01*
X79319002Y-32425909D01*
X79177636Y-32253657D01*
X79164137Y-32233453D01*
X79018590Y-31961160D01*
X79009291Y-31938711D01*
X78919662Y-31643244D01*
X78914923Y-31619418D01*
X78894340Y-31410441D01*
X78883799Y-31303407D01*
X78883500Y-31297326D01*
X78883500Y-11803875D01*
X78883501Y-11803873D01*
X78883500Y-11729182D01*
X78883500Y-11686878D01*
X78883500Y-11683670D01*
X78883462Y-11683002D01*
X78883462Y-11577118D01*
X78815785Y-11280615D01*
X78812405Y-11273597D01*
X78683829Y-11006602D01*
X78494214Y-10768825D01*
X78476925Y-10755037D01*
X78365734Y-10666360D01*
X78256439Y-10579196D01*
X78256438Y-10579195D01*
X77982439Y-10447234D01*
X77982432Y-10447231D01*
X77685935Y-10379544D01*
X77685930Y-10379543D01*
X77578399Y-10379538D01*
X77578361Y-10379537D01*
X77576159Y-10379537D01*
X77533871Y-10379537D01*
X77446606Y-10379533D01*
X77446568Y-10379537D01*
X69174513Y-10379537D01*
X69105622Y-10358639D01*
X68970809Y-10268560D01*
X68922794Y-10236477D01*
X68922793Y-10236476D01*
X68922792Y-10236476D01*
X68922791Y-10236475D01*
X68708002Y-10193752D01*
X68707998Y-10193752D01*
X68493208Y-10236475D01*
X68493207Y-10236476D01*
X68311111Y-10358148D01*
X68189439Y-10540244D01*
X68189438Y-10540245D01*
X68146715Y-10755034D01*
X68146715Y-10755039D01*
X48583500Y-10755039D01*
X48583500Y-9359444D01*
X48619819Y-9271763D01*
X48627795Y-9264454D01*
X48661571Y-9236113D01*
X48713999Y-9192121D01*
X48828700Y-8993453D01*
X48868535Y-8767539D01*
X68146715Y-8767539D01*
X68189438Y-8982328D01*
X68189439Y-8982329D01*
X68311111Y-9164425D01*
X68352563Y-9192122D01*
X68493206Y-9286097D01*
X68493207Y-9286097D01*
X68493208Y-9286098D01*
X68707998Y-9328822D01*
X68708000Y-9328822D01*
X68708002Y-9328822D01*
X68922791Y-9286098D01*
X68922791Y-9286097D01*
X68922794Y-9286097D01*
X69103992Y-9165024D01*
X69105622Y-9163935D01*
X69174513Y-9143037D01*
X78720754Y-9143037D01*
X78728858Y-9143568D01*
X78762839Y-9148042D01*
X78891797Y-9165025D01*
X78923055Y-9173401D01*
X79063570Y-9231609D01*
X79091595Y-9247791D01*
X79212250Y-9340376D01*
X79235138Y-9363264D01*
X79327721Y-9483925D01*
X79343905Y-9511958D01*
X79402103Y-9652463D01*
X79410481Y-9683730D01*
X79431969Y-9846946D01*
X79432500Y-9855048D01*
X79432500Y-29348600D01*
X79432463Y-29348691D01*
X79432463Y-29578327D01*
X79502042Y-29928116D01*
X79502044Y-29928122D01*
X79638527Y-30257618D01*
X79638528Y-30257620D01*
X79638530Y-30257624D01*
X79836677Y-30554166D01*
X80088871Y-30806352D01*
X80088874Y-30806354D01*
X80385410Y-31004487D01*
X80385412Y-31004488D01*
X80385418Y-31004492D01*
X80714922Y-31140970D01*
X80714924Y-31140970D01*
X80714926Y-31140971D01*
X80769862Y-31151897D01*
X81064721Y-31210541D01*
X81243041Y-31210537D01*
X81243049Y-31210537D01*
X83254701Y-31210537D01*
X83342382Y-31246856D01*
X83364797Y-31277487D01*
X83376463Y-31300000D01*
X83467470Y-31475638D01*
X83467472Y-31475640D01*
X83673958Y-31696733D01*
X83673960Y-31696734D01*
X83673961Y-31696735D01*
X83803197Y-31775325D01*
X83932438Y-31853918D01*
X84223740Y-31935537D01*
X84223742Y-31935537D01*
X84700274Y-31935537D01*
X84724469Y-31932211D01*
X84924703Y-31904690D01*
X85202178Y-31784165D01*
X85436846Y-31593248D01*
X85611304Y-31346098D01*
X85684207Y-31140969D01*
X85712611Y-31061049D01*
X85712611Y-31061047D01*
X85712612Y-31061045D01*
X85733256Y-30759230D01*
X85671707Y-30463037D01*
X85577784Y-30281774D01*
X85532529Y-30194435D01*
X85518537Y-30179453D01*
X85326042Y-29973341D01*
X85326039Y-29973339D01*
X85326038Y-29973338D01*
X85067564Y-29816157D01*
X85067563Y-29816156D01*
X85067562Y-29816156D01*
X84776260Y-29734537D01*
X84299727Y-29734537D01*
X84299726Y-29734537D01*
X84075297Y-29765384D01*
X83797821Y-29885908D01*
X83563154Y-30076825D01*
X83563151Y-30076829D01*
X83388695Y-30323976D01*
X83369829Y-30377062D01*
X83306245Y-30447518D01*
X83252989Y-30459537D01*
X81332160Y-30459537D01*
X81332152Y-30459536D01*
X81246514Y-30459536D01*
X81239568Y-30459146D01*
X81021134Y-30434540D01*
X80994063Y-30428361D01*
X80796491Y-30359232D01*
X80771473Y-30347185D01*
X80628921Y-30257618D01*
X80594230Y-30235821D01*
X80572523Y-30218510D01*
X80424506Y-30070497D01*
X80407193Y-30048788D01*
X80295827Y-29871552D01*
X80283779Y-29846535D01*
X80214641Y-29648954D01*
X80208465Y-29621894D01*
X80183889Y-29403786D01*
X80183500Y-29396845D01*
X80183500Y-25505036D01*
X83046216Y-25505036D01*
X83046217Y-25505037D01*
X84065700Y-25505037D01*
X84029010Y-25559947D01*
X83990204Y-25755037D01*
X84029010Y-25950127D01*
X84065700Y-26005037D01*
X83046217Y-26005037D01*
X83103455Y-26237266D01*
X83255813Y-26527559D01*
X83473205Y-26772943D01*
X83473212Y-26772949D01*
X83743014Y-26959180D01*
X83743015Y-26959181D01*
X83962405Y-27042385D01*
X84031510Y-27107436D01*
X84034376Y-27202298D01*
X83969325Y-27271403D01*
X83967836Y-27272061D01*
X83797821Y-27345908D01*
X83563154Y-27536825D01*
X83563151Y-27536829D01*
X83388695Y-27783976D01*
X83287388Y-28069024D01*
X83287388Y-28069027D01*
X83280944Y-28163247D01*
X83266744Y-28370844D01*
X83328293Y-28667037D01*
X83340935Y-28691435D01*
X83467470Y-28935638D01*
X83467472Y-28935640D01*
X83673958Y-29156733D01*
X83932438Y-29313918D01*
X84223740Y-29395537D01*
X84223742Y-29395537D01*
X84700274Y-29395537D01*
X84724469Y-29392211D01*
X84924703Y-29364690D01*
X85202178Y-29244165D01*
X85436846Y-29053248D01*
X85611304Y-28806098D01*
X85712612Y-28521045D01*
X85733256Y-28219230D01*
X85671707Y-27923037D01*
X85544987Y-27678478D01*
X85532529Y-27654435D01*
X85521738Y-27642881D01*
X85326042Y-27433341D01*
X85326039Y-27433339D01*
X85326038Y-27433338D01*
X85067564Y-27276157D01*
X85067563Y-27276156D01*
X85067562Y-27276156D01*
X85064535Y-27275308D01*
X85058758Y-27273689D01*
X84984127Y-27215060D01*
X84972813Y-27120832D01*
X85031442Y-27046201D01*
X85048243Y-27038346D01*
X85256985Y-26959181D01*
X85256985Y-26959180D01*
X85526787Y-26772949D01*
X85526794Y-26772943D01*
X85744186Y-26527559D01*
X85896544Y-26237266D01*
X85953783Y-26005037D01*
X84934300Y-26005037D01*
X84970990Y-25950127D01*
X85009796Y-25755037D01*
X84970990Y-25559947D01*
X84934300Y-25505037D01*
X85953783Y-25505037D01*
X85953783Y-25505036D01*
X85896544Y-25272807D01*
X85744186Y-24982514D01*
X85526794Y-24737130D01*
X85526787Y-24737124D01*
X85256985Y-24550893D01*
X85256984Y-24550892D01*
X84950452Y-24434639D01*
X84950446Y-24434638D01*
X84750000Y-24410299D01*
X84750000Y-25320736D01*
X84695090Y-25284047D01*
X84549248Y-25255037D01*
X84450752Y-25255037D01*
X84304910Y-25284047D01*
X84250000Y-25320736D01*
X84250000Y-24410299D01*
X84049553Y-24434638D01*
X84049547Y-24434639D01*
X83743015Y-24550892D01*
X83743014Y-24550893D01*
X83473212Y-24737124D01*
X83473205Y-24737130D01*
X83255813Y-24982514D01*
X83103455Y-25272807D01*
X83046216Y-25505036D01*
X80183500Y-25505036D01*
X80183500Y-20024678D01*
X80449500Y-20024678D01*
X80464032Y-20097735D01*
X80464033Y-20097739D01*
X80475429Y-20114794D01*
X80519399Y-20180601D01*
X80602259Y-20235965D01*
X80602260Y-20235966D01*
X80602264Y-20235967D01*
X80675321Y-20250499D01*
X80675324Y-20250500D01*
X80675326Y-20250500D01*
X82324676Y-20250500D01*
X82324677Y-20250499D01*
X82397740Y-20235966D01*
X82480601Y-20180601D01*
X82535966Y-20097740D01*
X82550500Y-20024674D01*
X82550500Y-18375326D01*
X82550500Y-18375323D01*
X82550499Y-18375321D01*
X82535967Y-18302264D01*
X82535966Y-18302260D01*
X82507189Y-18259192D01*
X82480601Y-18219399D01*
X82397740Y-18164034D01*
X82397739Y-18164033D01*
X82397735Y-18164032D01*
X82324677Y-18149500D01*
X82324674Y-18149500D01*
X80675326Y-18149500D01*
X80675323Y-18149500D01*
X80602264Y-18164032D01*
X80602260Y-18164033D01*
X80519399Y-18219399D01*
X80464033Y-18302260D01*
X80464032Y-18302264D01*
X80449500Y-18375321D01*
X80449500Y-20024678D01*
X80183500Y-20024678D01*
X80183500Y-11600001D01*
X80440435Y-11600001D01*
X80476538Y-11874234D01*
X80476539Y-11874236D01*
X80582390Y-12129784D01*
X80647799Y-12215026D01*
X80750774Y-12349226D01*
X80862557Y-12435000D01*
X80970215Y-12517609D01*
X80970216Y-12517609D01*
X80970217Y-12517610D01*
X81225764Y-12623461D01*
X81354360Y-12640391D01*
X81499999Y-12659565D01*
X81500000Y-12659565D01*
X81500001Y-12659565D01*
X81591412Y-12647530D01*
X81774236Y-12623461D01*
X82029783Y-12517610D01*
X82249226Y-12349226D01*
X82417610Y-12129783D01*
X82523461Y-11874236D01*
X82559565Y-11600000D01*
X82554920Y-11564721D01*
X82523461Y-11325765D01*
X82523461Y-11325764D01*
X82417610Y-11070218D01*
X82417609Y-11070217D01*
X82417609Y-11070216D01*
X82358946Y-10993766D01*
X82249226Y-10850774D01*
X82124455Y-10755034D01*
X82029784Y-10682390D01*
X81774236Y-10576539D01*
X81774234Y-10576538D01*
X81500001Y-10540435D01*
X81499999Y-10540435D01*
X81225765Y-10576538D01*
X81225763Y-10576539D01*
X80970216Y-10682390D01*
X80750774Y-10850774D01*
X80582390Y-11070216D01*
X80476539Y-11325763D01*
X80476538Y-11325765D01*
X80440435Y-11599998D01*
X80440435Y-11600001D01*
X80183500Y-11600001D01*
X80183500Y-9805245D01*
X80183463Y-9804581D01*
X80183463Y-9707032D01*
X80183462Y-9707028D01*
X80127411Y-9425236D01*
X80127408Y-9425227D01*
X80017460Y-9159782D01*
X80017458Y-9159779D01*
X80017457Y-9159776D01*
X79906328Y-8993455D01*
X79857835Y-8920878D01*
X79857834Y-8920877D01*
X79857833Y-8920876D01*
X79857831Y-8920873D01*
X79654666Y-8717701D01*
X79415768Y-8558067D01*
X79150319Y-8448105D01*
X78868517Y-8392042D01*
X78868515Y-8392041D01*
X78868516Y-8392041D01*
X78770073Y-8392038D01*
X78770045Y-8392037D01*
X78767150Y-8392037D01*
X78724857Y-8392037D01*
X78724842Y-8392036D01*
X78650164Y-8392035D01*
X78650163Y-8392035D01*
X78638345Y-8392035D01*
X78638325Y-8392037D01*
X69174513Y-8392037D01*
X69105622Y-8371139D01*
X68963269Y-8276022D01*
X68922794Y-8248977D01*
X68922793Y-8248976D01*
X68922792Y-8248976D01*
X68922791Y-8248975D01*
X68708002Y-8206252D01*
X68707998Y-8206252D01*
X68493208Y-8248975D01*
X68493207Y-8248976D01*
X68311111Y-8370648D01*
X68189439Y-8552744D01*
X68189438Y-8552745D01*
X68146715Y-8767534D01*
X68146715Y-8767539D01*
X48868535Y-8767539D01*
X48868535Y-8767537D01*
X48868534Y-8767534D01*
X48828700Y-8541623D01*
X48828700Y-8541621D01*
X48713999Y-8342953D01*
X48538268Y-8195497D01*
X48352980Y-8128057D01*
X48283011Y-8063942D01*
X48278871Y-7969126D01*
X48342988Y-7899155D01*
X48395393Y-7887537D01*
X70073000Y-7887537D01*
X70073000Y-5055041D01*
X79539825Y-5055041D01*
X79578470Y-5570739D01*
X79578471Y-5570744D01*
X79693547Y-6074927D01*
X79693549Y-6074936D01*
X79693551Y-6074941D01*
X79882490Y-6556351D01*
X80141069Y-7004223D01*
X80162933Y-7031639D01*
X80463515Y-7408558D01*
X80686060Y-7615048D01*
X80842616Y-7760311D01*
X81269913Y-8051636D01*
X81735856Y-8276023D01*
X82230039Y-8428458D01*
X82741421Y-8505537D01*
X82741422Y-8505537D01*
X83258578Y-8505537D01*
X83258579Y-8505537D01*
X83769961Y-8428458D01*
X84264144Y-8276023D01*
X84730088Y-8051636D01*
X85157384Y-7760311D01*
X85536488Y-7408554D01*
X85858931Y-7004223D01*
X86117510Y-6556351D01*
X86306449Y-6074941D01*
X86421528Y-5570749D01*
X86421529Y-5570739D01*
X86460175Y-5055041D01*
X86460175Y-5055032D01*
X86421529Y-4539334D01*
X86421528Y-4539329D01*
X86421528Y-4539325D01*
X86306449Y-4035133D01*
X86117510Y-3553723D01*
X85858931Y-3105851D01*
X85536488Y-2701520D01*
X85536487Y-2701519D01*
X85536484Y-2701515D01*
X85157384Y-2349763D01*
X85078757Y-2296156D01*
X84730088Y-2058438D01*
X84730084Y-2058436D01*
X84730083Y-2058435D01*
X84264144Y-1834051D01*
X83769969Y-1681618D01*
X83769965Y-1681617D01*
X83769961Y-1681616D01*
X83523972Y-1644539D01*
X83258584Y-1604537D01*
X83258579Y-1604537D01*
X82741421Y-1604537D01*
X82741415Y-1604537D01*
X82422948Y-1652539D01*
X82230039Y-1681616D01*
X82230035Y-1681617D01*
X82230036Y-1681617D01*
X82230030Y-1681618D01*
X81735855Y-1834051D01*
X81269916Y-2058436D01*
X81269912Y-2058438D01*
X80842618Y-2349761D01*
X80463515Y-2701515D01*
X80141069Y-3105851D01*
X79882490Y-3553722D01*
X79693553Y-4035127D01*
X79693547Y-4035146D01*
X79578471Y-4539329D01*
X79578470Y-4539334D01*
X79539825Y-5055032D01*
X79539825Y-5055041D01*
X70073000Y-5055041D01*
X70073000Y-179037D01*
X70109319Y-91356D01*
X70197000Y-55037D01*
X80880127Y-55037D01*
X80888699Y-55631D01*
X81069635Y-80871D01*
X81508100Y-145912D01*
X81513153Y-146879D01*
X81845264Y-224990D01*
X82248952Y-326110D01*
X82253546Y-327453D01*
X82587333Y-439327D01*
X82588342Y-439676D01*
X82969282Y-575979D01*
X82973420Y-577631D01*
X83300803Y-722185D01*
X83302268Y-722855D01*
X83662594Y-893276D01*
X83666249Y-895155D01*
X83725371Y-928086D01*
X83981944Y-1070997D01*
X83983624Y-1071967D01*
X84322630Y-1275159D01*
X84325761Y-1277168D01*
X84625564Y-1482538D01*
X84627458Y-1483888D01*
X84943405Y-1718210D01*
X84946040Y-1720279D01*
X85226473Y-1953147D01*
X85228469Y-1954880D01*
X85519296Y-2218471D01*
X85521490Y-2220560D01*
X85779438Y-2478508D01*
X85781530Y-2480705D01*
X85933560Y-2648444D01*
X86045111Y-2771521D01*
X86046857Y-2773533D01*
X86279712Y-3053950D01*
X86281798Y-3056606D01*
X86516109Y-3372539D01*
X86517460Y-3374434D01*
X86722830Y-3674237D01*
X86724850Y-3677386D01*
X86762860Y-3740802D01*
X86928016Y-4016349D01*
X86929001Y-4018054D01*
X87104839Y-4333742D01*
X87106722Y-4337404D01*
X87277143Y-4697730D01*
X87277813Y-4699195D01*
X87422367Y-5026578D01*
X87424026Y-5030735D01*
X87560280Y-5411537D01*
X87560690Y-5412721D01*
X87672540Y-5746437D01*
X87673897Y-5751077D01*
X87775026Y-6154811D01*
X87853113Y-6486814D01*
X87854089Y-6491914D01*
X87919133Y-6930402D01*
X87962465Y-7241036D01*
X87962985Y-7246563D01*
X87991521Y-7827434D01*
X87999434Y-7998576D01*
X87999500Y-8001440D01*
X87999500Y-70998559D01*
X87999434Y-71001423D01*
X87991521Y-71172565D01*
X87962985Y-71753435D01*
X87962465Y-71758962D01*
X87919133Y-72069596D01*
X87854089Y-72508084D01*
X87853113Y-72513184D01*
X87775026Y-72845187D01*
X87673897Y-73248921D01*
X87672540Y-73253561D01*
X87560690Y-73587277D01*
X87560280Y-73588461D01*
X87424026Y-73969263D01*
X87422367Y-73973420D01*
X87277813Y-74300803D01*
X87277143Y-74302268D01*
X87106722Y-74662594D01*
X87104839Y-74666256D01*
X86929001Y-74981944D01*
X86928016Y-74983649D01*
X86724860Y-75322596D01*
X86722830Y-75325761D01*
X86517460Y-75625564D01*
X86516109Y-75627459D01*
X86281798Y-75943392D01*
X86279697Y-75946068D01*
X86046871Y-76226449D01*
X86045111Y-76228477D01*
X85781537Y-76519286D01*
X85779438Y-76521490D01*
X85521490Y-76779438D01*
X85519286Y-76781537D01*
X85228477Y-77045111D01*
X85226449Y-77046871D01*
X84946068Y-77279697D01*
X84943392Y-77281798D01*
X84627459Y-77516109D01*
X84625564Y-77517460D01*
X84325761Y-77722830D01*
X84322596Y-77724860D01*
X83983649Y-77928016D01*
X83981944Y-77929001D01*
X83666256Y-78104839D01*
X83662594Y-78106722D01*
X83302268Y-78277143D01*
X83300803Y-78277813D01*
X82973420Y-78422367D01*
X82969263Y-78424026D01*
X82588461Y-78560280D01*
X82587277Y-78560690D01*
X82253561Y-78672540D01*
X82248921Y-78673897D01*
X81845187Y-78775026D01*
X81513184Y-78853113D01*
X81508084Y-78854089D01*
X81069596Y-78919133D01*
X80758962Y-78962465D01*
X80753435Y-78962985D01*
X80172735Y-78991512D01*
X80001425Y-78999434D01*
X79998560Y-78999500D01*
X8001440Y-78999500D01*
X7998575Y-78999434D01*
X7827263Y-78991512D01*
X7246563Y-78962985D01*
X7241036Y-78962465D01*
X6930402Y-78919133D01*
X6491914Y-78854089D01*
X6486814Y-78853113D01*
X6154811Y-78775026D01*
X5751077Y-78673897D01*
X5746437Y-78672540D01*
X5412721Y-78560690D01*
X5411537Y-78560280D01*
X5030735Y-78424026D01*
X5026578Y-78422367D01*
X4699195Y-78277813D01*
X4697730Y-78277143D01*
X4337404Y-78106722D01*
X4333742Y-78104839D01*
X4018054Y-77929001D01*
X4016349Y-77928016D01*
X3917443Y-77868734D01*
X3677386Y-77724850D01*
X3674237Y-77722830D01*
X3374434Y-77517460D01*
X3372539Y-77516109D01*
X3056606Y-77281798D01*
X3053950Y-77279712D01*
X2773533Y-77046857D01*
X2771521Y-77045111D01*
X2480712Y-76781537D01*
X2478508Y-76779438D01*
X2220560Y-76521490D01*
X2218461Y-76519286D01*
X1954887Y-76228477D01*
X1953147Y-76226473D01*
X1720279Y-75946040D01*
X1718210Y-75943405D01*
X1483889Y-75627459D01*
X1482538Y-75625564D01*
X1277168Y-75325761D01*
X1275159Y-75322630D01*
X1071967Y-74983624D01*
X1070997Y-74981944D01*
X895159Y-74666256D01*
X893276Y-74662594D01*
X722855Y-74302268D01*
X722185Y-74300803D01*
X613670Y-74055041D01*
X1539825Y-74055041D01*
X1578470Y-74570739D01*
X1578471Y-74570744D01*
X1693547Y-75074927D01*
X1693549Y-75074936D01*
X1693551Y-75074941D01*
X1882490Y-75556351D01*
X2141069Y-76004223D01*
X2401501Y-76330795D01*
X2463515Y-76408558D01*
X2585228Y-76521490D01*
X2842616Y-76760311D01*
X3269913Y-77051636D01*
X3735856Y-77276023D01*
X4230039Y-77428458D01*
X4741421Y-77505537D01*
X4741422Y-77505537D01*
X5258578Y-77505537D01*
X5258579Y-77505537D01*
X5769961Y-77428458D01*
X6264144Y-77276023D01*
X6730088Y-77051636D01*
X7157384Y-76760311D01*
X7536488Y-76408554D01*
X7858931Y-76004223D01*
X8117510Y-75556351D01*
X8306449Y-75074941D01*
X8421528Y-74570749D01*
X8460175Y-74055041D01*
X79539825Y-74055041D01*
X79578470Y-74570739D01*
X79578471Y-74570744D01*
X79693547Y-75074927D01*
X79693549Y-75074936D01*
X79693551Y-75074941D01*
X79882490Y-75556351D01*
X80141069Y-76004223D01*
X80401501Y-76330795D01*
X80463515Y-76408558D01*
X80585228Y-76521490D01*
X80842616Y-76760311D01*
X81269913Y-77051636D01*
X81735856Y-77276023D01*
X82230039Y-77428458D01*
X82741421Y-77505537D01*
X82741422Y-77505537D01*
X83258578Y-77505537D01*
X83258579Y-77505537D01*
X83769961Y-77428458D01*
X84264144Y-77276023D01*
X84730088Y-77051636D01*
X85157384Y-76760311D01*
X85536488Y-76408554D01*
X85858931Y-76004223D01*
X86117510Y-75556351D01*
X86306449Y-75074941D01*
X86421528Y-74570749D01*
X86460175Y-74055037D01*
X86453747Y-73969263D01*
X86421529Y-73539334D01*
X86421528Y-73539329D01*
X86421528Y-73539325D01*
X86306449Y-73035133D01*
X86117510Y-72553723D01*
X85858931Y-72105851D01*
X85536488Y-71701520D01*
X85536487Y-71701519D01*
X85536484Y-71701515D01*
X85157384Y-71349763D01*
X85157381Y-71349761D01*
X84730088Y-71058438D01*
X84730084Y-71058436D01*
X84730083Y-71058435D01*
X84264144Y-70834051D01*
X83769969Y-70681618D01*
X83769965Y-70681617D01*
X83769961Y-70681616D01*
X83523972Y-70644539D01*
X83258584Y-70604537D01*
X83258579Y-70604537D01*
X82741421Y-70604537D01*
X82741415Y-70604537D01*
X82422948Y-70652539D01*
X82230039Y-70681616D01*
X82230035Y-70681617D01*
X82230036Y-70681617D01*
X82230030Y-70681618D01*
X81735855Y-70834051D01*
X81269916Y-71058436D01*
X81269912Y-71058438D01*
X80842618Y-71349761D01*
X80463515Y-71701515D01*
X80141069Y-72105851D01*
X79882490Y-72553722D01*
X79693553Y-73035127D01*
X79693547Y-73035146D01*
X79578471Y-73539329D01*
X79578470Y-73539334D01*
X79539825Y-74055032D01*
X79539825Y-74055041D01*
X8460175Y-74055041D01*
X8460175Y-74055037D01*
X8453747Y-73969263D01*
X8421529Y-73539334D01*
X8421528Y-73539329D01*
X8421528Y-73539325D01*
X8306449Y-73035133D01*
X8117510Y-72553723D01*
X7858931Y-72105851D01*
X7536488Y-71701520D01*
X7536487Y-71701519D01*
X7536484Y-71701515D01*
X7157384Y-71349763D01*
X7157381Y-71349761D01*
X6730088Y-71058438D01*
X6730084Y-71058436D01*
X6730083Y-71058435D01*
X6264144Y-70834051D01*
X5769969Y-70681618D01*
X5769965Y-70681617D01*
X5769961Y-70681616D01*
X5523972Y-70644539D01*
X5258584Y-70604537D01*
X5258579Y-70604537D01*
X4741421Y-70604537D01*
X4741415Y-70604537D01*
X4422948Y-70652539D01*
X4230039Y-70681616D01*
X4230035Y-70681617D01*
X4230036Y-70681617D01*
X4230030Y-70681618D01*
X3735855Y-70834051D01*
X3269916Y-71058436D01*
X3269912Y-71058438D01*
X2842618Y-71349761D01*
X2463515Y-71701515D01*
X2141069Y-72105851D01*
X1882490Y-72553722D01*
X1693553Y-73035127D01*
X1693547Y-73035146D01*
X1578471Y-73539329D01*
X1578470Y-73539334D01*
X1539825Y-74055032D01*
X1539825Y-74055041D01*
X613670Y-74055041D01*
X577631Y-73973420D01*
X575979Y-73969282D01*
X439676Y-73588342D01*
X439327Y-73587333D01*
X327453Y-73253546D01*
X326110Y-73248952D01*
X224990Y-72845264D01*
X146879Y-72513153D01*
X145912Y-72508100D01*
X80876Y-72069668D01*
X37530Y-71758939D01*
X37014Y-71753450D01*
X8478Y-71172565D01*
X8478Y-71172564D01*
X566Y-71001425D01*
X500Y-70998561D01*
X500Y-27900080D01*
X1968499Y-27900080D01*
X1968500Y-27900093D01*
X1968500Y-59855320D01*
X2033721Y-60434169D01*
X2033722Y-60434178D01*
X2033723Y-60434182D01*
X2053714Y-60521768D01*
X2163348Y-61002110D01*
X2163351Y-61002118D01*
X2355746Y-61551949D01*
X2608493Y-62076784D01*
X2668786Y-62172739D01*
X2918420Y-62570029D01*
X3281621Y-63025469D01*
X3693531Y-63437379D01*
X4148971Y-63800580D01*
X4642213Y-64110505D01*
X5167054Y-64363255D01*
X5580006Y-64507753D01*
X5716881Y-64555648D01*
X5716889Y-64555651D01*
X5716892Y-64555651D01*
X5716893Y-64555652D01*
X6284818Y-64685277D01*
X6863680Y-64750499D01*
X6863681Y-64750500D01*
X6863684Y-64750500D01*
X7029718Y-64750500D01*
X77626294Y-64750500D01*
X77626322Y-64750501D01*
X77634944Y-64750500D01*
X77634948Y-64750502D01*
X77742852Y-64750500D01*
X77742854Y-64750500D01*
X77811139Y-64750500D01*
X77811149Y-64750498D01*
X77957963Y-64750497D01*
X78383804Y-64689264D01*
X78796596Y-64568052D01*
X79187936Y-64389329D01*
X79549859Y-64156733D01*
X79874998Y-63874998D01*
X80156733Y-63549859D01*
X80389329Y-63187936D01*
X80568052Y-62796596D01*
X80689264Y-62383804D01*
X80729087Y-62106849D01*
X80777516Y-62025232D01*
X80851825Y-62000500D01*
X81774676Y-62000500D01*
X81774677Y-62000499D01*
X81847740Y-61985966D01*
X81930601Y-61930601D01*
X81985966Y-61847740D01*
X82000500Y-61774674D01*
X82000500Y-58225326D01*
X82000500Y-58225323D01*
X82000499Y-58225321D01*
X81985967Y-58152264D01*
X81985966Y-58152260D01*
X81979669Y-58142836D01*
X81930601Y-58069399D01*
X81869308Y-58028445D01*
X81847739Y-58014033D01*
X81847735Y-58014032D01*
X81774677Y-57999500D01*
X81774674Y-57999500D01*
X78225326Y-57999500D01*
X78225323Y-57999500D01*
X78152264Y-58014032D01*
X78152260Y-58014033D01*
X78069399Y-58069399D01*
X78014033Y-58152260D01*
X78014032Y-58152264D01*
X77999500Y-58225321D01*
X77999499Y-58225323D01*
X77999499Y-61774676D01*
X77999500Y-61774678D01*
X78014032Y-61847735D01*
X78014033Y-61847739D01*
X78014034Y-61847740D01*
X78069399Y-61930601D01*
X78130692Y-61971555D01*
X78152260Y-61985966D01*
X78152264Y-61985967D01*
X78225321Y-62000499D01*
X78225324Y-62000500D01*
X78225326Y-62000500D01*
X79064349Y-62000500D01*
X79152030Y-62036819D01*
X79188349Y-62124500D01*
X79183009Y-62160497D01*
X79138349Y-62307713D01*
X79129047Y-62330170D01*
X79001328Y-62569113D01*
X78987823Y-62589324D01*
X78815945Y-62798757D01*
X78798757Y-62815945D01*
X78589324Y-62987823D01*
X78569113Y-63001328D01*
X78330170Y-63129047D01*
X78307713Y-63138349D01*
X78048450Y-63216999D01*
X78024609Y-63221742D01*
X77745857Y-63249201D01*
X77739776Y-63249500D01*
X7156972Y-63249500D01*
X7152923Y-63249367D01*
X6731451Y-63221742D01*
X6677961Y-63218236D01*
X6669912Y-63217176D01*
X6205074Y-63124714D01*
X6197234Y-63122613D01*
X5748438Y-62970268D01*
X5740943Y-62967164D01*
X5315873Y-62757542D01*
X5308843Y-62753483D01*
X5063161Y-62589324D01*
X4914769Y-62490172D01*
X4908337Y-62485236D01*
X4551999Y-62172737D01*
X4546260Y-62166998D01*
X4540559Y-62160497D01*
X4233761Y-61810660D01*
X4228829Y-61804232D01*
X3965515Y-61410154D01*
X3961460Y-61403132D01*
X3751832Y-60978049D01*
X3748733Y-60970569D01*
X3596382Y-60521755D01*
X3594285Y-60513925D01*
X3585761Y-60471070D01*
X3501822Y-60049080D01*
X3500764Y-60041051D01*
X3498073Y-60000000D01*
X5989820Y-60000000D01*
X6028444Y-60392165D01*
X6142837Y-60769267D01*
X6328592Y-61116790D01*
X6328596Y-61116797D01*
X6578587Y-61421412D01*
X6883202Y-61671403D01*
X6883209Y-61671407D01*
X7230732Y-61857162D01*
X7230734Y-61857162D01*
X7230737Y-61857164D01*
X7607833Y-61971555D01*
X7607832Y-61971555D01*
X7642993Y-61975018D01*
X8000000Y-62010180D01*
X8392167Y-61971555D01*
X8769263Y-61857164D01*
X8786904Y-61847735D01*
X8923591Y-61774674D01*
X9116796Y-61671404D01*
X9421412Y-61421412D01*
X9671404Y-61116796D01*
X9782860Y-60908276D01*
X9857162Y-60769267D01*
X9857162Y-60769266D01*
X9857164Y-60769263D01*
X9971555Y-60392167D01*
X10010180Y-60000000D01*
X10000791Y-59904670D01*
X13986759Y-59904670D01*
X14007373Y-60284868D01*
X14007374Y-60284873D01*
X14109235Y-60651744D01*
X14109238Y-60651750D01*
X14287585Y-60988149D01*
X14416509Y-61139930D01*
X14534084Y-61278349D01*
X14837201Y-61508773D01*
X14837204Y-61508774D01*
X14837205Y-61508775D01*
X15182762Y-61668647D01*
X15182770Y-61668650D01*
X15295584Y-61693481D01*
X15554622Y-61750500D01*
X15554625Y-61750500D01*
X15839903Y-61750500D01*
X15839909Y-61750500D01*
X16123525Y-61719655D01*
X16484350Y-61598079D01*
X16810604Y-61401778D01*
X17087032Y-61139932D01*
X17300707Y-60824784D01*
X17369652Y-60651747D01*
X17441638Y-60471075D01*
X17441637Y-60471075D01*
X17441640Y-60471070D01*
X17503240Y-60095329D01*
X17492903Y-59904670D01*
X69596759Y-59904670D01*
X69617373Y-60284868D01*
X69617374Y-60284873D01*
X69719235Y-60651744D01*
X69719238Y-60651750D01*
X69897585Y-60988149D01*
X70026509Y-61139930D01*
X70144084Y-61278349D01*
X70447201Y-61508773D01*
X70447204Y-61508774D01*
X70447205Y-61508775D01*
X70792762Y-61668647D01*
X70792770Y-61668650D01*
X70905584Y-61693481D01*
X71164622Y-61750500D01*
X71164625Y-61750500D01*
X71449903Y-61750500D01*
X71449909Y-61750500D01*
X71733525Y-61719655D01*
X72094350Y-61598079D01*
X72420604Y-61401778D01*
X72697032Y-61139932D01*
X72910707Y-60824784D01*
X72979652Y-60651747D01*
X73051638Y-60471075D01*
X73051637Y-60471075D01*
X73051640Y-60471070D01*
X73113240Y-60095329D01*
X73092626Y-59715131D01*
X73092625Y-59715126D01*
X72990764Y-59348255D01*
X72990761Y-59348249D01*
X72812414Y-59011850D01*
X72565918Y-58721653D01*
X72565917Y-58721652D01*
X72565916Y-58721651D01*
X72262799Y-58491227D01*
X72262796Y-58491225D01*
X72262794Y-58491224D01*
X71917237Y-58331352D01*
X71917229Y-58331349D01*
X71545378Y-58249500D01*
X71260091Y-58249500D01*
X71260089Y-58249500D01*
X70976472Y-58280345D01*
X70615651Y-58401920D01*
X70289396Y-58598221D01*
X70012966Y-58860069D01*
X69799289Y-59175222D01*
X69658361Y-59528924D01*
X69658358Y-59528936D01*
X69596760Y-59904667D01*
X69596759Y-59904670D01*
X17492903Y-59904670D01*
X17482626Y-59715131D01*
X17482625Y-59715126D01*
X17380764Y-59348255D01*
X17380761Y-59348249D01*
X17202414Y-59011850D01*
X16955918Y-58721653D01*
X16955917Y-58721652D01*
X16955916Y-58721651D01*
X16652799Y-58491227D01*
X16652796Y-58491225D01*
X16652794Y-58491224D01*
X16307237Y-58331352D01*
X16307229Y-58331349D01*
X15935378Y-58249500D01*
X15650091Y-58249500D01*
X15650089Y-58249500D01*
X15366472Y-58280345D01*
X15005651Y-58401920D01*
X14679396Y-58598221D01*
X14402966Y-58860069D01*
X14189289Y-59175222D01*
X14048361Y-59528924D01*
X14048358Y-59528936D01*
X13986760Y-59904667D01*
X13986759Y-59904670D01*
X10000791Y-59904670D01*
X9971555Y-59607833D01*
X9857164Y-59230737D01*
X9857162Y-59230734D01*
X9857162Y-59230732D01*
X9671407Y-58883209D01*
X9671403Y-58883202D01*
X9421412Y-58578587D01*
X9116797Y-58328596D01*
X9116790Y-58328592D01*
X8769267Y-58142837D01*
X8527174Y-58069399D01*
X8392167Y-58028445D01*
X8392165Y-58028444D01*
X8392167Y-58028444D01*
X8000000Y-57989820D01*
X7607834Y-58028444D01*
X7230732Y-58142837D01*
X6883209Y-58328592D01*
X6883202Y-58328596D01*
X6578587Y-58578587D01*
X6328596Y-58883202D01*
X6328592Y-58883209D01*
X6142837Y-59230732D01*
X6028444Y-59607834D01*
X5989820Y-60000000D01*
X3498073Y-60000000D01*
X3469632Y-59566076D01*
X3469500Y-59562028D01*
X3469500Y-44015037D01*
X14829073Y-44015037D01*
X14865924Y-44271345D01*
X14927862Y-44406971D01*
X14930713Y-44414458D01*
X14937801Y-44437437D01*
X14945075Y-44444662D01*
X14973491Y-44506886D01*
X14973494Y-44506890D01*
X15081717Y-44631786D01*
X15086091Y-44637466D01*
X15096665Y-44652975D01*
X15103048Y-44656404D01*
X15143067Y-44702588D01*
X15143068Y-44702588D01*
X15143068Y-44702589D01*
X15297833Y-44802050D01*
X15302972Y-44805736D01*
X15311731Y-44812721D01*
X15315721Y-44813546D01*
X15360906Y-44842585D01*
X15457206Y-44870860D01*
X15558981Y-44900744D01*
X15564155Y-44902516D01*
X15564341Y-44902589D01*
X15565056Y-44902528D01*
X15609361Y-44915537D01*
X15609362Y-44915537D01*
X15868305Y-44915537D01*
X16116761Y-44842584D01*
X16131284Y-44833251D01*
X16334594Y-44702591D01*
X16334593Y-44702591D01*
X16334599Y-44702588D01*
X16504172Y-44506890D01*
X16532591Y-44444662D01*
X16611740Y-44271348D01*
X16611741Y-44271346D01*
X16648593Y-44015037D01*
X33743184Y-44015037D01*
X33780035Y-44271345D01*
X33841973Y-44406971D01*
X33844824Y-44414458D01*
X33851912Y-44437437D01*
X33859186Y-44444662D01*
X33887602Y-44506886D01*
X33887605Y-44506890D01*
X33995828Y-44631786D01*
X34000202Y-44637466D01*
X34010776Y-44652975D01*
X34017159Y-44656404D01*
X34057178Y-44702588D01*
X34057179Y-44702588D01*
X34057179Y-44702589D01*
X34211944Y-44802050D01*
X34217083Y-44805736D01*
X34225842Y-44812721D01*
X34229832Y-44813546D01*
X34275017Y-44842585D01*
X34371317Y-44870860D01*
X34473092Y-44900744D01*
X34478266Y-44902516D01*
X34478452Y-44902589D01*
X34479167Y-44902528D01*
X34523472Y-44915537D01*
X34523473Y-44915537D01*
X34782416Y-44915537D01*
X35030872Y-44842584D01*
X35045395Y-44833251D01*
X35248705Y-44702591D01*
X35248704Y-44702591D01*
X35248710Y-44702588D01*
X35418283Y-44506890D01*
X35446702Y-44444662D01*
X35525851Y-44271348D01*
X35525852Y-44271346D01*
X35562704Y-44015037D01*
X35562704Y-44015036D01*
X52657295Y-44015036D01*
X52694146Y-44271345D01*
X52756084Y-44406971D01*
X52758935Y-44414458D01*
X52766023Y-44437437D01*
X52773297Y-44444662D01*
X52801713Y-44506886D01*
X52801716Y-44506890D01*
X52909939Y-44631786D01*
X52914313Y-44637466D01*
X52924887Y-44652975D01*
X52931270Y-44656404D01*
X52971289Y-44702588D01*
X52971290Y-44702588D01*
X52971290Y-44702589D01*
X53126055Y-44802050D01*
X53131194Y-44805736D01*
X53139953Y-44812721D01*
X53143943Y-44813546D01*
X53189128Y-44842585D01*
X53285428Y-44870860D01*
X53387203Y-44900744D01*
X53392377Y-44902516D01*
X53392563Y-44902589D01*
X53393278Y-44902528D01*
X53437583Y-44915537D01*
X53437584Y-44915537D01*
X53696527Y-44915537D01*
X53944983Y-44842584D01*
X53959506Y-44833251D01*
X54162816Y-44702591D01*
X54162815Y-44702591D01*
X54162821Y-44702588D01*
X54332394Y-44506890D01*
X54360813Y-44444662D01*
X54439962Y-44271348D01*
X54439963Y-44271346D01*
X54476815Y-44015037D01*
X54476815Y-44015036D01*
X71571407Y-44015036D01*
X71608258Y-44271345D01*
X71670196Y-44406971D01*
X71673047Y-44414458D01*
X71680135Y-44437437D01*
X71687409Y-44444662D01*
X71715825Y-44506886D01*
X71715828Y-44506890D01*
X71824051Y-44631786D01*
X71828425Y-44637466D01*
X71838999Y-44652975D01*
X71845382Y-44656404D01*
X71885401Y-44702588D01*
X71885402Y-44702588D01*
X71885402Y-44702589D01*
X72040167Y-44802050D01*
X72045306Y-44805736D01*
X72054065Y-44812721D01*
X72058055Y-44813546D01*
X72103240Y-44842585D01*
X72199540Y-44870860D01*
X72301315Y-44900744D01*
X72306489Y-44902516D01*
X72306675Y-44902589D01*
X72307390Y-44902528D01*
X72351695Y-44915537D01*
X72351696Y-44915537D01*
X72610639Y-44915537D01*
X72859095Y-44842584D01*
X72873618Y-44833251D01*
X73076928Y-44702591D01*
X73076927Y-44702591D01*
X73076933Y-44702588D01*
X73246506Y-44506890D01*
X73274925Y-44444662D01*
X73354074Y-44271348D01*
X73354075Y-44271346D01*
X73390927Y-44015037D01*
X73354075Y-43758728D01*
X73354074Y-43758725D01*
X73246508Y-43523187D01*
X73246506Y-43523185D01*
X73246506Y-43523184D01*
X73076933Y-43327486D01*
X73076930Y-43327484D01*
X73076928Y-43327482D01*
X72859097Y-43187490D01*
X72859094Y-43187489D01*
X72610640Y-43114537D01*
X72610639Y-43114537D01*
X72351695Y-43114537D01*
X72351691Y-43114537D01*
X72307390Y-43127545D01*
X72306704Y-43127471D01*
X72306466Y-43127565D01*
X72301283Y-43129338D01*
X72103239Y-43187489D01*
X72103238Y-43187490D01*
X72058053Y-43216528D01*
X72054231Y-43217217D01*
X72045293Y-43224345D01*
X72040155Y-43228030D01*
X71885403Y-43327484D01*
X71885398Y-43327488D01*
X71845383Y-43373668D01*
X71839241Y-43376742D01*
X71828422Y-43392611D01*
X71824048Y-43398291D01*
X71715828Y-43523183D01*
X71687409Y-43585412D01*
X71680330Y-43592001D01*
X71673046Y-43615618D01*
X71670195Y-43623105D01*
X71608258Y-43758728D01*
X71571407Y-44015036D01*
X54476815Y-44015036D01*
X54439963Y-43758728D01*
X54439962Y-43758725D01*
X54332396Y-43523187D01*
X54332394Y-43523185D01*
X54332394Y-43523184D01*
X54162821Y-43327486D01*
X54162818Y-43327484D01*
X54162816Y-43327482D01*
X53944985Y-43187490D01*
X53944982Y-43187489D01*
X53696528Y-43114537D01*
X53696527Y-43114537D01*
X53437583Y-43114537D01*
X53437579Y-43114537D01*
X53393278Y-43127545D01*
X53392592Y-43127471D01*
X53392354Y-43127565D01*
X53387171Y-43129338D01*
X53189127Y-43187489D01*
X53189126Y-43187490D01*
X53143941Y-43216528D01*
X53140119Y-43217217D01*
X53131181Y-43224345D01*
X53126043Y-43228030D01*
X52971291Y-43327484D01*
X52971286Y-43327488D01*
X52931271Y-43373668D01*
X52925129Y-43376742D01*
X52914310Y-43392611D01*
X52909936Y-43398291D01*
X52801716Y-43523183D01*
X52773297Y-43585412D01*
X52766218Y-43592001D01*
X52758934Y-43615618D01*
X52756083Y-43623105D01*
X52694146Y-43758728D01*
X52657295Y-44015036D01*
X35562704Y-44015036D01*
X35525852Y-43758728D01*
X35525851Y-43758725D01*
X35418285Y-43523187D01*
X35418283Y-43523185D01*
X35418283Y-43523184D01*
X35248710Y-43327486D01*
X35248707Y-43327484D01*
X35248705Y-43327482D01*
X35030874Y-43187490D01*
X35030871Y-43187489D01*
X34782417Y-43114537D01*
X34782416Y-43114537D01*
X34523472Y-43114537D01*
X34523468Y-43114537D01*
X34479167Y-43127545D01*
X34478481Y-43127471D01*
X34478243Y-43127565D01*
X34473060Y-43129338D01*
X34275016Y-43187489D01*
X34275015Y-43187490D01*
X34229830Y-43216528D01*
X34226008Y-43217217D01*
X34217070Y-43224345D01*
X34211932Y-43228030D01*
X34057180Y-43327484D01*
X34057175Y-43327488D01*
X34017160Y-43373668D01*
X34011018Y-43376742D01*
X34000199Y-43392611D01*
X33995825Y-43398291D01*
X33887605Y-43523183D01*
X33859186Y-43585412D01*
X33852107Y-43592001D01*
X33844823Y-43615618D01*
X33841972Y-43623105D01*
X33780035Y-43758728D01*
X33743184Y-44015037D01*
X16648593Y-44015037D01*
X16611741Y-43758728D01*
X16611740Y-43758725D01*
X16504174Y-43523187D01*
X16504172Y-43523185D01*
X16504172Y-43523184D01*
X16334599Y-43327486D01*
X16334596Y-43327484D01*
X16334594Y-43327482D01*
X16116763Y-43187490D01*
X16116760Y-43187489D01*
X15868306Y-43114537D01*
X15868305Y-43114537D01*
X15609361Y-43114537D01*
X15609357Y-43114537D01*
X15565056Y-43127545D01*
X15564370Y-43127471D01*
X15564132Y-43127565D01*
X15558949Y-43129338D01*
X15360905Y-43187489D01*
X15360904Y-43187490D01*
X15315719Y-43216528D01*
X15311897Y-43217217D01*
X15302959Y-43224345D01*
X15297821Y-43228030D01*
X15143069Y-43327484D01*
X15143064Y-43327488D01*
X15103049Y-43373668D01*
X15096907Y-43376742D01*
X15086088Y-43392611D01*
X15081714Y-43398291D01*
X14973494Y-43523183D01*
X14945075Y-43585412D01*
X14937996Y-43592001D01*
X14930712Y-43615618D01*
X14927861Y-43623105D01*
X14865924Y-43758728D01*
X14829073Y-44015037D01*
X3469500Y-44015037D01*
X3469500Y-41805037D01*
X7377189Y-41805037D01*
X8788110Y-41805037D01*
X8738833Y-41940425D01*
X8738833Y-42169649D01*
X8788110Y-42305037D01*
X7386932Y-42305037D01*
X7386931Y-42305038D01*
X7415403Y-42466509D01*
X7415404Y-42466512D01*
X7547345Y-42772386D01*
X7547351Y-42772397D01*
X7746261Y-43039580D01*
X7746265Y-43039584D01*
X8001455Y-43253713D01*
X8299132Y-43403213D01*
X8623276Y-43480037D01*
X9138833Y-43480037D01*
X9138833Y-42661255D01*
X9163090Y-42675260D01*
X9331966Y-42705037D01*
X9445700Y-42705037D01*
X9614576Y-42675260D01*
X9638833Y-42661255D01*
X9638833Y-43480037D01*
X10070821Y-43480037D01*
X10318699Y-43451064D01*
X10318701Y-43451063D01*
X10631724Y-43337133D01*
X10631728Y-43337131D01*
X10910038Y-43154084D01*
X10910039Y-43154083D01*
X11138638Y-42911782D01*
X11138642Y-42911777D01*
X11305198Y-42623294D01*
X11400477Y-42305037D01*
X9989556Y-42305037D01*
X10038833Y-42169649D01*
X10038833Y-41940425D01*
X9989556Y-41805037D01*
X11390734Y-41805037D01*
X19877189Y-41805037D01*
X21288110Y-41805037D01*
X21238833Y-41940425D01*
X21238833Y-42169649D01*
X21288110Y-42305037D01*
X19886932Y-42305037D01*
X19886931Y-42305038D01*
X19915403Y-42466509D01*
X19915404Y-42466512D01*
X20047345Y-42772386D01*
X20047351Y-42772397D01*
X20246261Y-43039580D01*
X20246265Y-43039584D01*
X20501455Y-43253713D01*
X20799132Y-43403213D01*
X21123276Y-43480037D01*
X21638833Y-43480037D01*
X21638833Y-42661255D01*
X21663090Y-42675260D01*
X21831966Y-42705037D01*
X21945700Y-42705037D01*
X22114576Y-42675260D01*
X22138833Y-42661255D01*
X22138833Y-43480037D01*
X22570821Y-43480037D01*
X22818699Y-43451064D01*
X22818701Y-43451063D01*
X23131724Y-43337133D01*
X23131728Y-43337131D01*
X23410038Y-43154084D01*
X23410039Y-43154083D01*
X23638638Y-42911782D01*
X23638642Y-42911777D01*
X23805198Y-42623294D01*
X23900477Y-42305037D01*
X22489556Y-42305037D01*
X22538833Y-42169649D01*
X22538833Y-41940425D01*
X22489556Y-41805037D01*
X23890734Y-41805037D01*
X26291300Y-41805037D01*
X27702221Y-41805037D01*
X27652944Y-41940425D01*
X27652944Y-42169649D01*
X27702221Y-42305037D01*
X26301043Y-42305037D01*
X26301042Y-42305038D01*
X26329514Y-42466509D01*
X26329515Y-42466512D01*
X26461456Y-42772386D01*
X26461462Y-42772397D01*
X26660372Y-43039580D01*
X26660376Y-43039584D01*
X26915566Y-43253713D01*
X27213243Y-43403213D01*
X27537387Y-43480037D01*
X28052944Y-43480037D01*
X28052944Y-42661255D01*
X28077201Y-42675260D01*
X28246077Y-42705037D01*
X28359811Y-42705037D01*
X28528687Y-42675260D01*
X28552944Y-42661255D01*
X28552944Y-43480037D01*
X28984932Y-43480037D01*
X29232810Y-43451064D01*
X29232812Y-43451063D01*
X29545835Y-43337133D01*
X29545839Y-43337131D01*
X29824149Y-43154084D01*
X29824150Y-43154083D01*
X30052749Y-42911782D01*
X30052753Y-42911777D01*
X30219309Y-42623294D01*
X30314588Y-42305037D01*
X28903667Y-42305037D01*
X28952944Y-42169649D01*
X28952944Y-41940425D01*
X28903667Y-41805037D01*
X30304845Y-41805037D01*
X38791300Y-41805037D01*
X40202221Y-41805037D01*
X40152944Y-41940425D01*
X40152944Y-42169649D01*
X40202221Y-42305037D01*
X38801043Y-42305037D01*
X38801042Y-42305038D01*
X38829514Y-42466509D01*
X38829515Y-42466512D01*
X38961456Y-42772386D01*
X38961462Y-42772397D01*
X39160372Y-43039580D01*
X39160376Y-43039584D01*
X39415566Y-43253713D01*
X39713243Y-43403213D01*
X40037387Y-43480037D01*
X40552944Y-43480037D01*
X40552944Y-42661255D01*
X40577201Y-42675260D01*
X40746077Y-42705037D01*
X40859811Y-42705037D01*
X41028687Y-42675260D01*
X41052944Y-42661255D01*
X41052944Y-43480037D01*
X41484932Y-43480037D01*
X41732810Y-43451064D01*
X41732812Y-43451063D01*
X42045835Y-43337133D01*
X42045839Y-43337131D01*
X42324149Y-43154084D01*
X42324150Y-43154083D01*
X42552749Y-42911782D01*
X42552753Y-42911777D01*
X42719309Y-42623294D01*
X42814588Y-42305037D01*
X41403667Y-42305037D01*
X41452944Y-42169649D01*
X41452944Y-41940425D01*
X41403667Y-41805037D01*
X42804845Y-41805037D01*
X45205411Y-41805037D01*
X46616332Y-41805037D01*
X46567055Y-41940425D01*
X46567055Y-42169649D01*
X46616332Y-42305037D01*
X45215154Y-42305037D01*
X45215153Y-42305038D01*
X45243625Y-42466509D01*
X45243626Y-42466512D01*
X45375567Y-42772386D01*
X45375573Y-42772397D01*
X45574483Y-43039580D01*
X45574487Y-43039584D01*
X45829677Y-43253713D01*
X46127354Y-43403213D01*
X46451498Y-43480037D01*
X46967055Y-43480037D01*
X46967055Y-42661255D01*
X46991312Y-42675260D01*
X47160188Y-42705037D01*
X47273922Y-42705037D01*
X47442798Y-42675260D01*
X47467055Y-42661255D01*
X47467055Y-43480037D01*
X47899043Y-43480037D01*
X48146921Y-43451064D01*
X48146923Y-43451063D01*
X48459946Y-43337133D01*
X48459950Y-43337131D01*
X48738260Y-43154084D01*
X48738261Y-43154083D01*
X48966860Y-42911782D01*
X48966864Y-42911777D01*
X49133420Y-42623294D01*
X49228699Y-42305037D01*
X47817778Y-42305037D01*
X47867055Y-42169649D01*
X47867055Y-41940425D01*
X47817778Y-41805037D01*
X49218956Y-41805037D01*
X57705411Y-41805037D01*
X59116332Y-41805037D01*
X59067055Y-41940425D01*
X59067055Y-42169649D01*
X59116332Y-42305037D01*
X57715154Y-42305037D01*
X57715153Y-42305038D01*
X57743625Y-42466509D01*
X57743626Y-42466512D01*
X57875567Y-42772386D01*
X57875573Y-42772397D01*
X58074483Y-43039580D01*
X58074487Y-43039584D01*
X58329677Y-43253713D01*
X58627354Y-43403213D01*
X58951498Y-43480037D01*
X59467055Y-43480037D01*
X59467055Y-42661255D01*
X59491312Y-42675260D01*
X59660188Y-42705037D01*
X59773922Y-42705037D01*
X59942798Y-42675260D01*
X59967055Y-42661255D01*
X59967055Y-43480037D01*
X60399043Y-43480037D01*
X60646921Y-43451064D01*
X60646923Y-43451063D01*
X60959946Y-43337133D01*
X60959950Y-43337131D01*
X61238260Y-43154084D01*
X61238261Y-43154083D01*
X61466860Y-42911782D01*
X61466864Y-42911777D01*
X61633420Y-42623294D01*
X61728699Y-42305037D01*
X60317778Y-42305037D01*
X60367055Y-42169649D01*
X60367055Y-41940425D01*
X60317778Y-41805037D01*
X61718956Y-41805037D01*
X64119523Y-41805037D01*
X65530444Y-41805037D01*
X65481167Y-41940425D01*
X65481167Y-42169649D01*
X65530444Y-42305037D01*
X64129266Y-42305037D01*
X64129265Y-42305038D01*
X64157737Y-42466509D01*
X64157738Y-42466512D01*
X64289679Y-42772386D01*
X64289685Y-42772397D01*
X64488595Y-43039580D01*
X64488599Y-43039584D01*
X64743789Y-43253713D01*
X65041466Y-43403213D01*
X65365610Y-43480037D01*
X65881167Y-43480037D01*
X65881167Y-42661255D01*
X65905424Y-42675260D01*
X66074300Y-42705037D01*
X66188034Y-42705037D01*
X66356910Y-42675260D01*
X66381167Y-42661255D01*
X66381167Y-43480037D01*
X66813155Y-43480037D01*
X67061033Y-43451064D01*
X67061035Y-43451063D01*
X67374058Y-43337133D01*
X67374062Y-43337131D01*
X67652372Y-43154084D01*
X67652373Y-43154083D01*
X67880972Y-42911782D01*
X67880976Y-42911777D01*
X68047532Y-42623294D01*
X68142811Y-42305037D01*
X66731890Y-42305037D01*
X66781167Y-42169649D01*
X66781167Y-41940425D01*
X66731890Y-41805037D01*
X68133068Y-41805037D01*
X76619523Y-41805037D01*
X78030444Y-41805037D01*
X77981167Y-41940425D01*
X77981167Y-42169649D01*
X78030444Y-42305037D01*
X76629266Y-42305037D01*
X76629265Y-42305038D01*
X76657737Y-42466509D01*
X76657738Y-42466512D01*
X76789679Y-42772386D01*
X76789685Y-42772397D01*
X76988595Y-43039580D01*
X76988599Y-43039584D01*
X77243789Y-43253713D01*
X77541466Y-43403213D01*
X77865610Y-43480037D01*
X78381167Y-43480037D01*
X78381167Y-42661255D01*
X78405424Y-42675260D01*
X78574300Y-42705037D01*
X78688034Y-42705037D01*
X78856910Y-42675260D01*
X78881167Y-42661255D01*
X78881167Y-43480037D01*
X79313155Y-43480037D01*
X79561033Y-43451064D01*
X79561035Y-43451063D01*
X79874058Y-43337133D01*
X79874062Y-43337131D01*
X80152372Y-43154084D01*
X80152373Y-43154083D01*
X80380972Y-42911782D01*
X80380976Y-42911777D01*
X80547532Y-42623294D01*
X80642811Y-42305037D01*
X79231890Y-42305037D01*
X79281167Y-42169649D01*
X79281167Y-41940425D01*
X79231890Y-41805037D01*
X80633068Y-41805037D01*
X80633068Y-41805035D01*
X80604596Y-41643564D01*
X80604595Y-41643561D01*
X80472654Y-41337687D01*
X80472648Y-41337676D01*
X80273738Y-41070493D01*
X80273734Y-41070489D01*
X80018544Y-40856360D01*
X79720867Y-40706860D01*
X79396724Y-40630037D01*
X78881167Y-40630037D01*
X78881167Y-41448818D01*
X78856910Y-41434814D01*
X78688034Y-41405037D01*
X78574300Y-41405037D01*
X78405424Y-41434814D01*
X78381167Y-41448818D01*
X78381167Y-40630037D01*
X77949179Y-40630037D01*
X77701300Y-40659009D01*
X77701298Y-40659010D01*
X77388275Y-40772940D01*
X77388271Y-40772942D01*
X77109961Y-40955989D01*
X77109960Y-40955990D01*
X76881361Y-41198291D01*
X76881357Y-41198296D01*
X76714801Y-41486779D01*
X76619523Y-41805037D01*
X68133068Y-41805037D01*
X68133068Y-41805035D01*
X68104596Y-41643564D01*
X68104595Y-41643561D01*
X67972654Y-41337687D01*
X67972648Y-41337676D01*
X67773738Y-41070493D01*
X67773734Y-41070489D01*
X67518544Y-40856360D01*
X67220867Y-40706860D01*
X66896724Y-40630037D01*
X66381167Y-40630037D01*
X66381167Y-41448818D01*
X66356910Y-41434814D01*
X66188034Y-41405037D01*
X66074300Y-41405037D01*
X65905424Y-41434814D01*
X65881167Y-41448818D01*
X65881167Y-40630037D01*
X65449179Y-40630037D01*
X65201300Y-40659009D01*
X65201298Y-40659010D01*
X64888275Y-40772940D01*
X64888271Y-40772942D01*
X64609961Y-40955989D01*
X64609960Y-40955990D01*
X64381361Y-41198291D01*
X64381357Y-41198296D01*
X64214801Y-41486779D01*
X64119523Y-41805037D01*
X61718956Y-41805037D01*
X61718956Y-41805035D01*
X61690484Y-41643564D01*
X61690483Y-41643561D01*
X61558542Y-41337687D01*
X61558536Y-41337676D01*
X61359626Y-41070493D01*
X61359622Y-41070489D01*
X61104432Y-40856360D01*
X60806755Y-40706860D01*
X60482612Y-40630037D01*
X59967055Y-40630037D01*
X59967055Y-41448818D01*
X59942798Y-41434814D01*
X59773922Y-41405037D01*
X59660188Y-41405037D01*
X59491312Y-41434814D01*
X59467055Y-41448818D01*
X59467055Y-40630037D01*
X59035067Y-40630037D01*
X58787188Y-40659009D01*
X58787186Y-40659010D01*
X58474163Y-40772940D01*
X58474159Y-40772942D01*
X58195849Y-40955989D01*
X58195848Y-40955990D01*
X57967249Y-41198291D01*
X57967245Y-41198296D01*
X57800689Y-41486779D01*
X57705411Y-41805037D01*
X49218956Y-41805037D01*
X49218956Y-41805035D01*
X49190484Y-41643564D01*
X49190483Y-41643561D01*
X49058542Y-41337687D01*
X49058536Y-41337676D01*
X48859626Y-41070493D01*
X48859622Y-41070489D01*
X48604432Y-40856360D01*
X48306755Y-40706860D01*
X47982612Y-40630037D01*
X47467055Y-40630037D01*
X47467055Y-41448818D01*
X47442798Y-41434814D01*
X47273922Y-41405037D01*
X47160188Y-41405037D01*
X46991312Y-41434814D01*
X46967055Y-41448818D01*
X46967055Y-40630037D01*
X46535067Y-40630037D01*
X46287188Y-40659009D01*
X46287186Y-40659010D01*
X45974163Y-40772940D01*
X45974159Y-40772942D01*
X45695849Y-40955989D01*
X45695848Y-40955990D01*
X45467249Y-41198291D01*
X45467245Y-41198296D01*
X45300689Y-41486779D01*
X45205411Y-41805037D01*
X42804845Y-41805037D01*
X42804845Y-41805035D01*
X42776373Y-41643564D01*
X42776372Y-41643561D01*
X42644431Y-41337687D01*
X42644425Y-41337676D01*
X42445515Y-41070493D01*
X42445511Y-41070489D01*
X42190321Y-40856360D01*
X41892644Y-40706860D01*
X41568501Y-40630037D01*
X41052944Y-40630037D01*
X41052944Y-41448818D01*
X41028687Y-41434814D01*
X40859811Y-41405037D01*
X40746077Y-41405037D01*
X40577201Y-41434814D01*
X40552944Y-41448818D01*
X40552944Y-40630037D01*
X40120956Y-40630037D01*
X39873077Y-40659009D01*
X39873075Y-40659010D01*
X39560052Y-40772940D01*
X39560048Y-40772942D01*
X39281738Y-40955989D01*
X39281737Y-40955990D01*
X39053138Y-41198291D01*
X39053134Y-41198296D01*
X38886578Y-41486779D01*
X38791300Y-41805037D01*
X30304845Y-41805037D01*
X30304845Y-41805035D01*
X30276373Y-41643564D01*
X30276372Y-41643561D01*
X30144431Y-41337687D01*
X30144425Y-41337676D01*
X29945515Y-41070493D01*
X29945511Y-41070489D01*
X29690321Y-40856360D01*
X29392644Y-40706860D01*
X29068501Y-40630037D01*
X28552944Y-40630037D01*
X28552944Y-41448818D01*
X28528687Y-41434814D01*
X28359811Y-41405037D01*
X28246077Y-41405037D01*
X28077201Y-41434814D01*
X28052944Y-41448818D01*
X28052944Y-40630037D01*
X27620956Y-40630037D01*
X27373077Y-40659009D01*
X27373075Y-40659010D01*
X27060052Y-40772940D01*
X27060048Y-40772942D01*
X26781738Y-40955989D01*
X26781737Y-40955990D01*
X26553138Y-41198291D01*
X26553134Y-41198296D01*
X26386578Y-41486779D01*
X26291300Y-41805037D01*
X23890734Y-41805037D01*
X23890734Y-41805035D01*
X23862262Y-41643564D01*
X23862261Y-41643561D01*
X23730320Y-41337687D01*
X23730314Y-41337676D01*
X23531404Y-41070493D01*
X23531400Y-41070489D01*
X23276210Y-40856360D01*
X22978533Y-40706860D01*
X22654390Y-40630037D01*
X22138833Y-40630037D01*
X22138833Y-41448818D01*
X22114576Y-41434814D01*
X21945700Y-41405037D01*
X21831966Y-41405037D01*
X21663090Y-41434814D01*
X21638833Y-41448818D01*
X21638833Y-40630037D01*
X21206845Y-40630037D01*
X20958966Y-40659009D01*
X20958964Y-40659010D01*
X20645941Y-40772940D01*
X20645937Y-40772942D01*
X20367627Y-40955989D01*
X20367626Y-40955990D01*
X20139027Y-41198291D01*
X20139023Y-41198296D01*
X19972467Y-41486779D01*
X19877189Y-41805037D01*
X11390734Y-41805037D01*
X11390734Y-41805035D01*
X11362262Y-41643564D01*
X11362261Y-41643561D01*
X11230320Y-41337687D01*
X11230314Y-41337676D01*
X11031404Y-41070493D01*
X11031400Y-41070489D01*
X10776210Y-40856360D01*
X10478533Y-40706860D01*
X10154390Y-40630037D01*
X9638833Y-40630037D01*
X9638833Y-41448818D01*
X9614576Y-41434814D01*
X9445700Y-41405037D01*
X9331966Y-41405037D01*
X9163090Y-41434814D01*
X9138833Y-41448818D01*
X9138833Y-40630037D01*
X8706845Y-40630037D01*
X8458966Y-40659009D01*
X8458964Y-40659010D01*
X8145941Y-40772940D01*
X8145937Y-40772942D01*
X7867627Y-40955989D01*
X7867626Y-40955990D01*
X7639027Y-41198291D01*
X7639023Y-41198296D01*
X7472467Y-41486779D01*
X7377189Y-41805037D01*
X3469500Y-41805037D01*
X3469500Y-37055038D01*
X7604190Y-37055038D01*
X7644589Y-37361902D01*
X7644590Y-37361904D01*
X7763036Y-37647858D01*
X7951457Y-37893413D01*
X8197012Y-38081834D01*
X8482966Y-38200280D01*
X8712790Y-38230537D01*
X8712797Y-38230537D01*
X10064869Y-38230537D01*
X10064876Y-38230537D01*
X10294700Y-38200280D01*
X10580654Y-38081834D01*
X10826209Y-37893413D01*
X11014630Y-37647859D01*
X11133076Y-37361904D01*
X11172253Y-37064324D01*
X11173476Y-37055038D01*
X11173476Y-37055035D01*
X11133076Y-36748171D01*
X11133076Y-36748170D01*
X11014630Y-36462216D01*
X10826209Y-36216661D01*
X10580654Y-36028240D01*
X10294700Y-35909794D01*
X10294698Y-35909793D01*
X10064885Y-35879538D01*
X10064882Y-35879537D01*
X10064876Y-35879537D01*
X8712790Y-35879537D01*
X8712784Y-35879537D01*
X8712780Y-35879538D01*
X8482967Y-35909793D01*
X8482965Y-35909794D01*
X8197011Y-36028240D01*
X7951458Y-36216659D01*
X7763035Y-36462216D01*
X7644590Y-36748169D01*
X7644589Y-36748171D01*
X7604190Y-37055035D01*
X7604190Y-37055038D01*
X3469500Y-37055038D01*
X3469500Y-35015037D01*
X14829073Y-35015037D01*
X14865924Y-35271345D01*
X14927862Y-35406971D01*
X14930713Y-35414458D01*
X14937801Y-35437437D01*
X14945075Y-35444662D01*
X14973491Y-35506886D01*
X14973494Y-35506890D01*
X15047045Y-35591773D01*
X15081717Y-35631786D01*
X15086091Y-35637466D01*
X15096665Y-35652975D01*
X15103048Y-35656404D01*
X15143067Y-35702588D01*
X15143068Y-35702588D01*
X15143068Y-35702589D01*
X15297833Y-35802050D01*
X15302972Y-35805736D01*
X15311731Y-35812721D01*
X15315721Y-35813546D01*
X15360906Y-35842585D01*
X15457206Y-35870860D01*
X15558981Y-35900744D01*
X15564155Y-35902516D01*
X15564341Y-35902589D01*
X15565056Y-35902528D01*
X15609361Y-35915537D01*
X15609362Y-35915537D01*
X15868305Y-35915537D01*
X16116761Y-35842584D01*
X16131284Y-35833251D01*
X16334594Y-35702591D01*
X16334593Y-35702591D01*
X16334599Y-35702588D01*
X16504172Y-35506890D01*
X16504220Y-35506786D01*
X16611740Y-35271348D01*
X16611741Y-35271346D01*
X16648593Y-35015037D01*
X16611741Y-34758728D01*
X16599622Y-34732190D01*
X16504174Y-34523187D01*
X16504172Y-34523185D01*
X16504172Y-34523184D01*
X16334599Y-34327486D01*
X16334596Y-34327484D01*
X16334594Y-34327482D01*
X16116763Y-34187490D01*
X16116760Y-34187489D01*
X15868306Y-34114537D01*
X15868305Y-34114537D01*
X15609361Y-34114537D01*
X15609357Y-34114537D01*
X15565056Y-34127545D01*
X15564370Y-34127471D01*
X15564132Y-34127565D01*
X15558949Y-34129338D01*
X15360905Y-34187489D01*
X15360904Y-34187490D01*
X15315719Y-34216528D01*
X15311897Y-34217217D01*
X15302959Y-34224345D01*
X15297821Y-34228030D01*
X15143069Y-34327484D01*
X15143064Y-34327488D01*
X15103049Y-34373668D01*
X15096907Y-34376742D01*
X15086088Y-34392611D01*
X15081714Y-34398291D01*
X14973494Y-34523183D01*
X14945075Y-34585412D01*
X14937996Y-34592001D01*
X14930712Y-34615618D01*
X14927861Y-34623105D01*
X14865924Y-34758728D01*
X14829073Y-35015037D01*
X3469500Y-35015037D01*
X3469500Y-31000000D01*
X13203405Y-31000000D01*
X13242945Y-31300339D01*
X13242946Y-31300341D01*
X13358873Y-31580215D01*
X13398277Y-31631567D01*
X13543286Y-31820547D01*
X13612742Y-31873842D01*
X13783617Y-32004959D01*
X13783618Y-32004959D01*
X13783619Y-32004960D01*
X14063492Y-32120887D01*
X14178035Y-32135967D01*
X14363832Y-32160428D01*
X14363833Y-32160428D01*
X14363834Y-32160428D01*
X14463946Y-32147247D01*
X14664174Y-32120887D01*
X14944047Y-32004960D01*
X15184380Y-31820547D01*
X15368793Y-31580214D01*
X15484720Y-31300341D01*
X15506394Y-31135711D01*
X15553847Y-31053521D01*
X15645518Y-31028958D01*
X15727709Y-31076411D01*
X15753333Y-31151897D01*
X15753333Y-31924678D01*
X15767865Y-31997735D01*
X15767866Y-31997739D01*
X15767867Y-31997740D01*
X15823232Y-32080601D01*
X15906092Y-32135965D01*
X15906093Y-32135966D01*
X15906097Y-32135967D01*
X15979154Y-32150499D01*
X15979157Y-32150500D01*
X15979159Y-32150500D01*
X17828509Y-32150500D01*
X17828510Y-32150499D01*
X17901573Y-32135966D01*
X17984434Y-32080601D01*
X18039799Y-31997740D01*
X18054333Y-31924674D01*
X18054333Y-30075326D01*
X18054333Y-30075323D01*
X18054332Y-30075321D01*
X18039800Y-30002264D01*
X18039799Y-30002260D01*
X17990258Y-29928116D01*
X17984434Y-29919399D01*
X17901573Y-29864034D01*
X17901572Y-29864033D01*
X17901568Y-29864032D01*
X17828510Y-29849500D01*
X17828507Y-29849500D01*
X15979159Y-29849500D01*
X15979156Y-29849500D01*
X15906097Y-29864032D01*
X15906093Y-29864033D01*
X15823232Y-29919399D01*
X15767866Y-30002260D01*
X15767865Y-30002264D01*
X15753333Y-30075321D01*
X15753333Y-30848102D01*
X15717014Y-30935783D01*
X15629333Y-30972102D01*
X15541652Y-30935783D01*
X15506394Y-30864288D01*
X15504263Y-30848102D01*
X15484720Y-30699659D01*
X15368793Y-30419786D01*
X15368792Y-30419785D01*
X15368792Y-30419784D01*
X15244362Y-30257624D01*
X15184380Y-30179453D01*
X15048678Y-30075326D01*
X14944048Y-29995040D01*
X14664174Y-29879113D01*
X14664172Y-29879112D01*
X14363834Y-29839572D01*
X14363832Y-29839572D01*
X14063493Y-29879112D01*
X14063491Y-29879113D01*
X13783617Y-29995040D01*
X13543286Y-30179453D01*
X13358873Y-30419784D01*
X13242946Y-30699658D01*
X13242945Y-30699660D01*
X13203405Y-30999999D01*
X13203405Y-31000000D01*
X3469500Y-31000000D01*
X3469500Y-27784207D01*
X3469633Y-27780151D01*
X3469874Y-27776475D01*
X3504154Y-27253463D01*
X3505211Y-27245438D01*
X3607789Y-26729745D01*
X3609884Y-26721927D01*
X3778897Y-26224028D01*
X3781991Y-26216558D01*
X4014549Y-25744979D01*
X4018597Y-25737969D01*
X4310715Y-25300782D01*
X4315636Y-25294369D01*
X4662325Y-24899047D01*
X4668047Y-24893325D01*
X5063369Y-24546636D01*
X5069782Y-24541715D01*
X5506969Y-24249597D01*
X5513979Y-24245549D01*
X5985558Y-24012991D01*
X5993028Y-24009897D01*
X6490927Y-23840884D01*
X6498745Y-23838789D01*
X7014438Y-23736211D01*
X7022463Y-23735154D01*
X7549159Y-23700632D01*
X7553208Y-23700500D01*
X7659093Y-23700500D01*
X12150178Y-23700500D01*
X12169575Y-23702026D01*
X12193327Y-23705788D01*
X12218999Y-23709855D01*
X12219000Y-23709855D01*
X12219001Y-23709855D01*
X12244672Y-23705788D01*
X12268424Y-23702026D01*
X12287822Y-23700500D01*
X13295178Y-23700500D01*
X13314575Y-23702026D01*
X13338327Y-23705788D01*
X13363999Y-23709855D01*
X13364000Y-23709855D01*
X13364001Y-23709855D01*
X13389672Y-23705788D01*
X13413424Y-23702026D01*
X13432822Y-23700500D01*
X30574014Y-23700500D01*
X30574017Y-23700500D01*
X31021222Y-23636202D01*
X31068926Y-23629344D01*
X31068926Y-23629343D01*
X31068932Y-23629343D01*
X31548683Y-23488476D01*
X31548686Y-23488474D01*
X31548688Y-23488474D01*
X32003491Y-23280773D01*
X32003495Y-23280770D01*
X32003503Y-23280767D01*
X32424133Y-23010444D01*
X32802011Y-22683011D01*
X33129444Y-22305133D01*
X33399767Y-21884503D01*
X33399770Y-21884495D01*
X33399773Y-21884491D01*
X33607474Y-21429688D01*
X33607474Y-21429686D01*
X33607476Y-21429683D01*
X33748343Y-20949932D01*
X33760554Y-20865000D01*
X34358717Y-20865000D01*
X34399696Y-21202503D01*
X34520256Y-21520391D01*
X34520257Y-21520392D01*
X34618183Y-21662262D01*
X35325173Y-20955273D01*
X35370582Y-21095026D01*
X35498588Y-21237191D01*
X35672798Y-21314754D01*
X34964710Y-22022841D01*
X34964710Y-22022842D01*
X34967866Y-22025638D01*
X35268910Y-22183639D01*
X35599009Y-22265000D01*
X35938991Y-22265000D01*
X36269089Y-22183639D01*
X36570132Y-22025639D01*
X36573288Y-22022842D01*
X36573288Y-22022841D01*
X35856830Y-21306383D01*
X35956120Y-21285279D01*
X36110886Y-21172836D01*
X36206536Y-21007164D01*
X36212069Y-20954517D01*
X36919815Y-21662263D01*
X37017743Y-21520392D01*
X37017743Y-21520391D01*
X37138303Y-21202503D01*
X37179283Y-20865000D01*
X37179283Y-20864999D01*
X37138303Y-20527496D01*
X37017743Y-20209608D01*
X37017743Y-20209607D01*
X36919815Y-20067736D01*
X36919815Y-20067735D01*
X36212826Y-20774725D01*
X36167418Y-20634974D01*
X36039412Y-20492809D01*
X35865201Y-20415245D01*
X36573289Y-19707157D01*
X36570130Y-19704358D01*
X36566063Y-19701551D01*
X36564857Y-19699686D01*
X36564517Y-19699385D01*
X36564601Y-19699290D01*
X36514533Y-19621854D01*
X36534450Y-19529062D01*
X36614147Y-19477532D01*
X36636501Y-19475500D01*
X36693676Y-19475500D01*
X36693677Y-19475499D01*
X36766740Y-19460966D01*
X36849601Y-19405601D01*
X36904966Y-19322740D01*
X36919500Y-19249674D01*
X36919500Y-19249500D01*
X36919522Y-19249444D01*
X36920097Y-19243614D01*
X36921865Y-19243788D01*
X36955819Y-19161819D01*
X37043500Y-19125500D01*
X38355035Y-19125500D01*
X38355069Y-19125502D01*
X38366197Y-19125501D01*
X38366201Y-19125503D01*
X38454450Y-19125500D01*
X38454455Y-19125500D01*
X38511310Y-19125500D01*
X38511337Y-19125497D01*
X38593821Y-19125495D01*
X38867201Y-19071109D01*
X39124719Y-18964436D01*
X39356479Y-18809576D01*
X39356482Y-18809572D01*
X39356486Y-18809570D01*
X39553570Y-18612486D01*
X39553572Y-18612482D01*
X39553576Y-18612479D01*
X39708436Y-18380719D01*
X39815109Y-18123201D01*
X39869495Y-17849821D01*
X39869497Y-17767336D01*
X39869500Y-17767309D01*
X39869500Y-17700413D01*
X39869500Y-17700405D01*
X39869503Y-17622201D01*
X39869501Y-17622197D01*
X39869502Y-17612228D01*
X39869500Y-17612190D01*
X39869500Y-15688799D01*
X39869501Y-15688778D01*
X39869500Y-15676962D01*
X39869502Y-15676960D01*
X39869500Y-15600919D01*
X39871882Y-15576731D01*
X39882620Y-15522740D01*
X39889098Y-15490168D01*
X39907610Y-15445473D01*
X39949725Y-15382441D01*
X39983930Y-15348234D01*
X40046963Y-15306115D01*
X40091654Y-15287602D01*
X40157791Y-15274446D01*
X40178030Y-15270420D01*
X40202222Y-15268037D01*
X44569293Y-15268037D01*
X44621621Y-15283910D01*
X44622652Y-15281423D01*
X44633938Y-15286097D01*
X44848730Y-15328822D01*
X44848732Y-15328822D01*
X44848734Y-15328822D01*
X45063523Y-15286098D01*
X45063523Y-15286097D01*
X45063526Y-15286097D01*
X45245620Y-15164425D01*
X45367292Y-14982331D01*
X45393426Y-14850949D01*
X45410017Y-14767539D01*
X45410017Y-14767534D01*
X45367293Y-14552745D01*
X45367292Y-14552744D01*
X45367292Y-14552743D01*
X45249956Y-14377138D01*
X45245620Y-14370648D01*
X45109357Y-14279600D01*
X45063526Y-14248977D01*
X45063525Y-14248976D01*
X45063524Y-14248976D01*
X45063523Y-14248975D01*
X44848734Y-14206252D01*
X44848730Y-14206252D01*
X44633938Y-14248976D01*
X44622652Y-14253651D01*
X44621621Y-14251163D01*
X44569293Y-14267037D01*
X40290267Y-14267037D01*
X40290247Y-14267035D01*
X40241573Y-14267035D01*
X40241486Y-14266999D01*
X40041259Y-14267002D01*
X40041258Y-14267002D01*
X39750880Y-14333285D01*
X39482540Y-14462519D01*
X39249686Y-14648221D01*
X39249683Y-14648223D01*
X39063986Y-14881091D01*
X38934766Y-15149433D01*
X38868496Y-15439815D01*
X38868496Y-15439817D01*
X38868500Y-15588710D01*
X38868500Y-17700653D01*
X38866973Y-17720055D01*
X38851302Y-17818976D01*
X38839313Y-17855871D01*
X38798327Y-17936307D01*
X38775524Y-17967691D01*
X38711691Y-18031524D01*
X38680307Y-18054327D01*
X38599871Y-18095313D01*
X38562976Y-18107302D01*
X38474748Y-18121278D01*
X38464053Y-18122973D01*
X38444653Y-18124500D01*
X37043500Y-18124500D01*
X36955819Y-18088181D01*
X36919500Y-18000500D01*
X36919500Y-17400323D01*
X36919499Y-17400321D01*
X36904967Y-17327264D01*
X36904966Y-17327260D01*
X36849601Y-17244399D01*
X36766740Y-17189034D01*
X36766739Y-17189033D01*
X36766735Y-17189032D01*
X36693677Y-17174500D01*
X36693674Y-17174500D01*
X34844326Y-17174500D01*
X34844323Y-17174500D01*
X34771264Y-17189032D01*
X34771260Y-17189033D01*
X34688399Y-17244399D01*
X34633033Y-17327260D01*
X34633032Y-17327264D01*
X34618500Y-17400321D01*
X34618500Y-19249678D01*
X34633032Y-19322735D01*
X34633033Y-19322739D01*
X34633034Y-19322740D01*
X34688399Y-19405601D01*
X34771259Y-19460966D01*
X34771260Y-19460966D01*
X34771264Y-19460967D01*
X34844321Y-19475499D01*
X34844324Y-19475500D01*
X34901499Y-19475500D01*
X34989180Y-19511819D01*
X35025499Y-19599500D01*
X34989180Y-19687181D01*
X34971932Y-19701555D01*
X34967866Y-19704360D01*
X34964709Y-19707156D01*
X34964709Y-19707157D01*
X35681169Y-20423616D01*
X35581880Y-20444721D01*
X35427114Y-20557164D01*
X35331464Y-20722836D01*
X35325930Y-20775482D01*
X34618182Y-20067735D01*
X34520257Y-20209607D01*
X34520256Y-20209608D01*
X34399696Y-20527496D01*
X34358717Y-20864999D01*
X34358717Y-20865000D01*
X33760554Y-20865000D01*
X33819500Y-20455017D01*
X33819500Y-20205015D01*
X33819500Y-20097109D01*
X33819500Y-11985000D01*
X34358717Y-11985000D01*
X34399696Y-12322503D01*
X34520256Y-12640391D01*
X34520257Y-12640392D01*
X34618183Y-12782262D01*
X35325173Y-12075273D01*
X35370582Y-12215026D01*
X35498588Y-12357191D01*
X35672798Y-12434754D01*
X34964710Y-13142841D01*
X34964710Y-13142842D01*
X34967867Y-13145639D01*
X34971943Y-13148453D01*
X34973149Y-13150319D01*
X34973483Y-13150615D01*
X34973400Y-13150707D01*
X35023468Y-13228154D01*
X35003545Y-13320945D01*
X34923844Y-13372470D01*
X34901498Y-13374500D01*
X34844323Y-13374500D01*
X34771264Y-13389032D01*
X34771260Y-13389033D01*
X34688399Y-13444399D01*
X34633033Y-13527260D01*
X34633032Y-13527264D01*
X34618500Y-13600321D01*
X34618500Y-15449678D01*
X34633032Y-15522735D01*
X34633033Y-15522739D01*
X34633034Y-15522740D01*
X34688399Y-15605601D01*
X34771259Y-15660965D01*
X34771260Y-15660966D01*
X34771264Y-15660967D01*
X34844321Y-15675499D01*
X34844324Y-15675500D01*
X34844326Y-15675500D01*
X36693676Y-15675500D01*
X36693677Y-15675499D01*
X36766740Y-15660966D01*
X36849601Y-15605601D01*
X36904966Y-15522740D01*
X36919500Y-15449674D01*
X36919500Y-13600326D01*
X36919500Y-13600323D01*
X36919499Y-13600321D01*
X36904967Y-13527264D01*
X36904966Y-13527260D01*
X36849601Y-13444399D01*
X36766740Y-13389034D01*
X36766739Y-13389033D01*
X36766735Y-13389032D01*
X36693677Y-13374500D01*
X36693674Y-13374500D01*
X36636502Y-13374500D01*
X36548821Y-13338181D01*
X36512502Y-13250500D01*
X36548821Y-13162819D01*
X36566052Y-13148457D01*
X36570130Y-13145641D01*
X36573288Y-13142842D01*
X36573288Y-13142841D01*
X35856830Y-12426383D01*
X35956120Y-12405279D01*
X36110886Y-12292836D01*
X36206536Y-12127164D01*
X36212069Y-12074516D01*
X36919815Y-12782263D01*
X37017743Y-12640392D01*
X37017743Y-12640391D01*
X37138303Y-12322503D01*
X37179283Y-11985000D01*
X37179283Y-11984999D01*
X37138303Y-11647496D01*
X37017743Y-11329608D01*
X37017743Y-11329607D01*
X36919815Y-11187736D01*
X36919815Y-11187735D01*
X36212826Y-11894725D01*
X36167418Y-11754974D01*
X36039412Y-11612809D01*
X35865200Y-11535244D01*
X36573289Y-10827157D01*
X36570132Y-10824360D01*
X36269092Y-10666361D01*
X36269093Y-10666361D01*
X35938991Y-10585000D01*
X35599009Y-10585000D01*
X35268910Y-10666360D01*
X34967866Y-10824361D01*
X34964709Y-10827156D01*
X34964709Y-10827157D01*
X35681169Y-11543616D01*
X35581880Y-11564721D01*
X35427114Y-11677164D01*
X35331464Y-11842836D01*
X35325930Y-11895482D01*
X34618182Y-11187735D01*
X34520257Y-11329607D01*
X34520256Y-11329608D01*
X34399696Y-11647496D01*
X34358717Y-11984999D01*
X34358717Y-11985000D01*
X33819500Y-11985000D01*
X33819500Y-6461279D01*
X33855819Y-6373599D01*
X33864846Y-6366075D01*
X33864804Y-6366028D01*
X33992710Y-6252711D01*
X34124988Y-6135524D01*
X34318189Y-5855625D01*
X34438791Y-5537623D01*
X34445904Y-5479041D01*
X34492527Y-5396378D01*
X34583947Y-5370893D01*
X34666611Y-5417516D01*
X34692096Y-5479042D01*
X34699209Y-5537624D01*
X34819811Y-5855625D01*
X34819811Y-5855626D01*
X34848044Y-5896528D01*
X35013012Y-6135524D01*
X35013014Y-6135526D01*
X35013016Y-6135528D01*
X35267579Y-6361052D01*
X35267580Y-6361052D01*
X35267582Y-6361054D01*
X35568728Y-6519108D01*
X35568730Y-6519108D01*
X35568731Y-6519109D01*
X35898949Y-6600500D01*
X36239051Y-6600500D01*
X36569268Y-6519109D01*
X36569268Y-6519108D01*
X36569272Y-6519108D01*
X36870418Y-6361054D01*
X37124988Y-6135524D01*
X37318189Y-5855625D01*
X37420045Y-5587052D01*
X37819000Y-5587052D01*
X37848298Y-5847084D01*
X37963661Y-6176774D01*
X38149493Y-6472524D01*
X38396475Y-6719506D01*
X38692223Y-6905337D01*
X39021910Y-7020700D01*
X39021915Y-7020701D01*
X39118999Y-7031639D01*
X39119000Y-7031639D01*
X39119000Y-5994434D01*
X39154401Y-6018089D01*
X39369000Y-6060775D01*
X39583599Y-6018089D01*
X39619000Y-5994434D01*
X39619000Y-7031639D01*
X39716084Y-7020701D01*
X39716089Y-7020700D01*
X40045776Y-6905337D01*
X40341524Y-6719506D01*
X40588506Y-6472524D01*
X40774338Y-6176774D01*
X40889701Y-5847084D01*
X40918999Y-5587052D01*
X40919000Y-5587050D01*
X40919000Y-5450000D01*
X39919000Y-5450000D01*
X39919000Y-4950000D01*
X40919000Y-4950000D01*
X40919000Y-4812949D01*
X40918999Y-4812947D01*
X40889701Y-4552915D01*
X40774338Y-4223225D01*
X40588506Y-3927475D01*
X40341524Y-3680493D01*
X40045774Y-3494661D01*
X39716084Y-3379298D01*
X39619000Y-3368359D01*
X39619000Y-4405565D01*
X39583599Y-4381911D01*
X39369000Y-4339225D01*
X39154401Y-4381911D01*
X39119000Y-4405565D01*
X39119000Y-3368359D01*
X39021915Y-3379298D01*
X38692225Y-3494661D01*
X38396475Y-3680493D01*
X38149493Y-3927475D01*
X37963661Y-4223225D01*
X37848298Y-4552915D01*
X37819000Y-4812947D01*
X37819000Y-4950000D01*
X38819000Y-4950000D01*
X38819000Y-5450000D01*
X37819000Y-5450000D01*
X37819000Y-5587052D01*
X37420045Y-5587052D01*
X37438791Y-5537623D01*
X37479786Y-5200000D01*
X37438791Y-4862377D01*
X37318189Y-4544375D01*
X37314709Y-4539334D01*
X37172795Y-4333736D01*
X37124988Y-4264476D01*
X37124985Y-4264473D01*
X37124983Y-4264471D01*
X36870420Y-4038947D01*
X36569268Y-3880890D01*
X36239051Y-3799500D01*
X35898949Y-3799500D01*
X35568731Y-3880890D01*
X35267579Y-4038947D01*
X35013016Y-4264471D01*
X35013010Y-4264478D01*
X34819811Y-4544373D01*
X34819811Y-4544374D01*
X34699209Y-4862375D01*
X34692096Y-4920957D01*
X34645473Y-5003621D01*
X34554053Y-5029106D01*
X34471389Y-4982483D01*
X34445904Y-4920957D01*
X34445263Y-4915681D01*
X34438791Y-4862377D01*
X34318189Y-4544375D01*
X34314709Y-4539334D01*
X34172795Y-4333736D01*
X34124988Y-4264476D01*
X34124985Y-4264473D01*
X34124983Y-4264471D01*
X33870420Y-4038947D01*
X33569268Y-3880890D01*
X33239051Y-3799500D01*
X32898949Y-3799500D01*
X32568731Y-3880890D01*
X32267579Y-4038947D01*
X32013016Y-4264471D01*
X32013010Y-4264478D01*
X31819811Y-4544373D01*
X31819811Y-4544374D01*
X31699209Y-4862375D01*
X31692096Y-4920957D01*
X31645473Y-5003621D01*
X31554053Y-5029106D01*
X31471389Y-4982483D01*
X31445904Y-4920957D01*
X31445263Y-4915681D01*
X31438791Y-4862377D01*
X31318189Y-4544375D01*
X31314709Y-4539334D01*
X31172795Y-4333736D01*
X31124988Y-4264476D01*
X31124985Y-4264473D01*
X31124983Y-4264471D01*
X30870420Y-4038947D01*
X30569268Y-3880890D01*
X30239051Y-3799500D01*
X29898949Y-3799500D01*
X29568731Y-3880890D01*
X29267579Y-4038947D01*
X29013016Y-4264471D01*
X29013010Y-4264478D01*
X28819811Y-4544373D01*
X28819811Y-4544374D01*
X28699209Y-4862375D01*
X28658214Y-5200000D01*
X28699209Y-5537624D01*
X28819811Y-5855625D01*
X28819811Y-5855626D01*
X28848044Y-5896528D01*
X29013012Y-6135524D01*
X29013014Y-6135526D01*
X29013016Y-6135528D01*
X29267579Y-6361052D01*
X29267580Y-6361052D01*
X29267582Y-6361054D01*
X29568728Y-6519108D01*
X29568730Y-6519108D01*
X29568731Y-6519109D01*
X29898949Y-6600500D01*
X30239051Y-6600500D01*
X30569268Y-6519109D01*
X30569268Y-6519108D01*
X30569272Y-6519108D01*
X30870418Y-6361054D01*
X31124988Y-6135524D01*
X31318189Y-5855625D01*
X31438791Y-5537623D01*
X31445904Y-5479041D01*
X31492527Y-5396378D01*
X31583947Y-5370893D01*
X31666611Y-5417516D01*
X31692096Y-5479042D01*
X31699209Y-5537624D01*
X31819811Y-5855625D01*
X31819811Y-5855626D01*
X31848044Y-5896528D01*
X32013012Y-6135524D01*
X32013014Y-6135526D01*
X32013016Y-6135528D01*
X32273196Y-6366028D01*
X32270961Y-6368550D01*
X32316465Y-6438914D01*
X32318499Y-6461279D01*
X32318499Y-20202311D01*
X32318263Y-20207717D01*
X32289145Y-20540547D01*
X32285392Y-20561834D01*
X32201026Y-20876692D01*
X32193633Y-20897002D01*
X32055875Y-21192427D01*
X32045068Y-21211146D01*
X31858103Y-21478160D01*
X31844209Y-21494718D01*
X31613718Y-21725209D01*
X31597160Y-21739103D01*
X31330146Y-21926068D01*
X31311427Y-21936875D01*
X31016002Y-22074633D01*
X30995692Y-22082026D01*
X30680834Y-22166392D01*
X30659547Y-22170145D01*
X30326717Y-22199263D01*
X30321311Y-22199499D01*
X30206122Y-22199499D01*
X30206110Y-22199500D01*
X19464947Y-22199500D01*
X19377266Y-22163181D01*
X19340947Y-22075500D01*
X19377266Y-21987819D01*
X19411145Y-21963780D01*
X19482997Y-21929177D01*
X19542056Y-21900736D01*
X19779990Y-21710990D01*
X19969736Y-21473056D01*
X20101780Y-21198864D01*
X20169500Y-20902165D01*
X20169500Y-20750000D01*
X20169500Y-20661748D01*
X20169500Y-20637086D01*
X20169499Y-20637080D01*
X20169500Y-13050707D01*
X20169500Y-12940886D01*
X20169499Y-12940882D01*
X20159897Y-12892611D01*
X20107418Y-12628776D01*
X20013226Y-12401378D01*
X19985639Y-12334776D01*
X19985634Y-12334767D01*
X19808841Y-12070179D01*
X19808838Y-12070175D01*
X19583824Y-11845161D01*
X19583820Y-11845158D01*
X19319232Y-11668365D01*
X19319223Y-11668360D01*
X19025224Y-11546582D01*
X19025216Y-11546580D01*
X18713117Y-11484500D01*
X18713113Y-11484500D01*
X18603293Y-11484500D01*
X7089833Y-11484500D01*
X7002152Y-11448181D01*
X6975271Y-11407951D01*
X6973960Y-11404786D01*
X6789547Y-11164453D01*
X6666734Y-11070216D01*
X6549215Y-10980040D01*
X6269341Y-10864113D01*
X6269339Y-10864112D01*
X5969001Y-10824572D01*
X5968999Y-10824572D01*
X5668660Y-10864112D01*
X5668658Y-10864113D01*
X5388784Y-10980040D01*
X5148453Y-11164453D01*
X4964040Y-11404784D01*
X4848113Y-11684658D01*
X4848112Y-11684660D01*
X4808572Y-11984999D01*
X4808572Y-11985000D01*
X4848112Y-12285339D01*
X4848113Y-12285341D01*
X4964040Y-12565215D01*
X5012818Y-12628783D01*
X5148453Y-12805547D01*
X5261918Y-12892611D01*
X5388784Y-12989959D01*
X5388785Y-12989959D01*
X5388786Y-12989960D01*
X5668659Y-13105887D01*
X5833288Y-13127561D01*
X5915479Y-13175014D01*
X5940042Y-13266685D01*
X5892589Y-13348876D01*
X5817103Y-13374500D01*
X5044323Y-13374500D01*
X4971264Y-13389032D01*
X4971260Y-13389033D01*
X4888399Y-13444399D01*
X4833033Y-13527260D01*
X4833032Y-13527264D01*
X4818500Y-13600321D01*
X4818500Y-15449678D01*
X4833032Y-15522735D01*
X4833033Y-15522739D01*
X4833034Y-15522740D01*
X4888399Y-15605601D01*
X4971260Y-15660966D01*
X4971264Y-15660967D01*
X5044321Y-15675499D01*
X5044324Y-15675500D01*
X5044326Y-15675500D01*
X6893676Y-15675500D01*
X6893677Y-15675499D01*
X6966740Y-15660966D01*
X7049601Y-15605601D01*
X7104966Y-15522740D01*
X7119500Y-15449674D01*
X7119500Y-13600326D01*
X7119500Y-13600325D01*
X7119500Y-13600323D01*
X7119499Y-13600321D01*
X7104967Y-13527264D01*
X7104966Y-13527260D01*
X7049601Y-13444399D01*
X6966740Y-13389034D01*
X6966739Y-13389033D01*
X6966735Y-13389032D01*
X6893677Y-13374500D01*
X6893674Y-13374500D01*
X6120897Y-13374500D01*
X6033216Y-13338181D01*
X5996897Y-13250500D01*
X6033216Y-13162819D01*
X6104712Y-13127561D01*
X6269341Y-13105887D01*
X6549214Y-12989960D01*
X6789547Y-12805547D01*
X6973960Y-12565214D01*
X6975271Y-12562048D01*
X6976495Y-12560824D01*
X6978025Y-12558175D01*
X6978734Y-12558584D01*
X7042379Y-12494939D01*
X7089833Y-12485500D01*
X18465748Y-12485500D01*
X18544243Y-12485500D01*
X18563641Y-12487027D01*
X18724492Y-12512503D01*
X18761387Y-12524490D01*
X18897697Y-12593944D01*
X18929082Y-12616747D01*
X19037252Y-12724917D01*
X19060056Y-12756303D01*
X19129508Y-12892611D01*
X19141496Y-12929507D01*
X19166973Y-13090357D01*
X19168500Y-13109756D01*
X19168500Y-20737789D01*
X19166117Y-20761980D01*
X19146708Y-20859555D01*
X19128193Y-20904256D01*
X19079836Y-20976626D01*
X19045626Y-21010836D01*
X18973256Y-21059193D01*
X18928555Y-21077708D01*
X18830980Y-21097117D01*
X18806789Y-21099500D01*
X17648439Y-21099500D01*
X17596110Y-21083626D01*
X17595080Y-21086114D01*
X17583793Y-21081439D01*
X17369002Y-21038715D01*
X17368998Y-21038715D01*
X17154208Y-21081438D01*
X17154207Y-21081439D01*
X16972111Y-21203111D01*
X16850439Y-21385207D01*
X16850438Y-21385208D01*
X16807715Y-21599997D01*
X16807715Y-21600002D01*
X16850438Y-21814791D01*
X16850439Y-21814792D01*
X16978607Y-22006609D01*
X16997122Y-22099691D01*
X16944396Y-22178602D01*
X16875505Y-22199500D01*
X13432822Y-22199500D01*
X13413424Y-22197973D01*
X13389672Y-22194211D01*
X13364001Y-22190145D01*
X13363999Y-22190145D01*
X13338327Y-22194211D01*
X13314575Y-22197973D01*
X13295178Y-22199500D01*
X12287822Y-22199500D01*
X12268424Y-22197973D01*
X12244672Y-22194211D01*
X12219001Y-22190145D01*
X12218999Y-22190145D01*
X12193327Y-22194211D01*
X12169575Y-22197973D01*
X12150178Y-22199500D01*
X7669093Y-22199500D01*
X7669080Y-22199499D01*
X7659092Y-22199499D01*
X7551187Y-22199500D01*
X7237665Y-22199500D01*
X7237661Y-22199501D01*
X6614591Y-22269703D01*
X6614577Y-22269706D01*
X6003265Y-22409234D01*
X6003253Y-22409238D01*
X5411414Y-22616332D01*
X4846482Y-22888389D01*
X4315557Y-23221992D01*
X3825322Y-23612941D01*
X3381941Y-24056322D01*
X2990992Y-24546557D01*
X2657389Y-25077482D01*
X2385332Y-25642414D01*
X2178238Y-26234253D01*
X2178234Y-26234265D01*
X2038706Y-26845577D01*
X2038703Y-26845591D01*
X1968501Y-27468661D01*
X1968500Y-27468665D01*
X1968500Y-27782187D01*
X1968499Y-27900080D01*
X500Y-27900080D01*
X500Y-20865000D01*
X4808572Y-20865000D01*
X4848112Y-21165339D01*
X4848113Y-21165341D01*
X4964040Y-21445215D01*
X5021725Y-21520391D01*
X5148453Y-21685547D01*
X5305056Y-21805712D01*
X5388784Y-21869959D01*
X5388785Y-21869959D01*
X5388786Y-21869960D01*
X5668659Y-21985887D01*
X5818829Y-22005657D01*
X5968999Y-22025428D01*
X5969000Y-22025428D01*
X5969001Y-22025428D01*
X6111943Y-22006609D01*
X6269341Y-21985887D01*
X6549214Y-21869960D01*
X6789547Y-21685547D01*
X6973960Y-21445214D01*
X7089887Y-21165341D01*
X7129428Y-20865000D01*
X7089887Y-20564659D01*
X7089886Y-20564657D01*
X7087783Y-20556808D01*
X7092900Y-20555436D01*
X7092918Y-20477022D01*
X7160042Y-20409928D01*
X7207469Y-20400500D01*
X18039561Y-20400500D01*
X18091889Y-20416373D01*
X18092920Y-20413886D01*
X18104206Y-20418560D01*
X18318998Y-20461285D01*
X18319000Y-20461285D01*
X18319002Y-20461285D01*
X18533791Y-20418561D01*
X18533791Y-20418560D01*
X18533794Y-20418560D01*
X18715888Y-20296888D01*
X18837560Y-20114794D01*
X18840953Y-20097740D01*
X18880285Y-19900002D01*
X18880285Y-19899997D01*
X18837561Y-19685208D01*
X18837560Y-19685207D01*
X18837560Y-19685206D01*
X18776724Y-19594159D01*
X18715888Y-19503111D01*
X18562508Y-19400626D01*
X18533794Y-19381440D01*
X18533793Y-19381439D01*
X18533792Y-19381439D01*
X18533791Y-19381438D01*
X18319002Y-19338715D01*
X18318998Y-19338715D01*
X18104206Y-19381439D01*
X18092920Y-19386114D01*
X18091889Y-19383626D01*
X18039561Y-19399500D01*
X7240792Y-19399500D01*
X7153111Y-19363181D01*
X7116792Y-19275500D01*
X7119176Y-19251301D01*
X7119499Y-19249678D01*
X7119500Y-19249674D01*
X7119500Y-17400326D01*
X7119500Y-17400323D01*
X7119499Y-17400321D01*
X7104967Y-17327264D01*
X7104966Y-17327260D01*
X7104965Y-17327259D01*
X7049601Y-17244399D01*
X6966740Y-17189034D01*
X6966739Y-17189033D01*
X6966735Y-17189032D01*
X6893677Y-17174500D01*
X6893674Y-17174500D01*
X5044326Y-17174500D01*
X5044323Y-17174500D01*
X4971264Y-17189032D01*
X4971260Y-17189033D01*
X4888399Y-17244399D01*
X4833033Y-17327260D01*
X4833032Y-17327264D01*
X4818500Y-17400321D01*
X4818500Y-19249678D01*
X4833032Y-19322735D01*
X4833033Y-19322739D01*
X4833034Y-19322740D01*
X4888399Y-19405601D01*
X4971260Y-19460966D01*
X4971264Y-19460967D01*
X5044321Y-19475499D01*
X5044324Y-19475500D01*
X5044326Y-19475500D01*
X5817102Y-19475500D01*
X5904783Y-19511819D01*
X5941102Y-19599500D01*
X5904783Y-19687181D01*
X5833288Y-19722439D01*
X5668659Y-19744113D01*
X5668658Y-19744113D01*
X5388784Y-19860040D01*
X5148453Y-20044453D01*
X4964040Y-20284784D01*
X4848113Y-20564658D01*
X4848112Y-20564660D01*
X4808572Y-20864999D01*
X4808572Y-20865000D01*
X500Y-20865000D01*
X500Y-8001438D01*
X566Y-7998574D01*
X8478Y-7827435D01*
X37014Y-7246561D01*
X37534Y-7241035D01*
X80866Y-6930397D01*
X145913Y-6491884D01*
X146874Y-6486860D01*
X224985Y-6154752D01*
X326117Y-5751016D01*
X327447Y-5746470D01*
X439368Y-5412542D01*
X439641Y-5411756D01*
X567275Y-5055041D01*
X1539825Y-5055041D01*
X1578470Y-5570739D01*
X1578471Y-5570744D01*
X1693547Y-6074927D01*
X1693549Y-6074936D01*
X1693551Y-6074941D01*
X1882490Y-6556351D01*
X2141069Y-7004223D01*
X2162933Y-7031639D01*
X2463515Y-7408558D01*
X2686060Y-7615048D01*
X2842616Y-7760311D01*
X3269913Y-8051636D01*
X3735856Y-8276023D01*
X4230039Y-8428458D01*
X4741421Y-8505537D01*
X4741422Y-8505537D01*
X5258578Y-8505537D01*
X5258579Y-8505537D01*
X5769961Y-8428458D01*
X6264144Y-8276023D01*
X6730088Y-8051636D01*
X7157384Y-7760311D01*
X7536488Y-7408554D01*
X7858931Y-7004223D01*
X8117510Y-6556351D01*
X8306449Y-6074941D01*
X8417807Y-5587052D01*
X25219000Y-5587052D01*
X25248298Y-5847084D01*
X25363661Y-6176774D01*
X25549493Y-6472524D01*
X25796475Y-6719506D01*
X26092223Y-6905337D01*
X26421910Y-7020700D01*
X26421915Y-7020701D01*
X26518999Y-7031639D01*
X26519000Y-7031639D01*
X26519000Y-5994434D01*
X26554401Y-6018089D01*
X26769000Y-6060775D01*
X26983599Y-6018089D01*
X27019000Y-5994434D01*
X27019000Y-7031639D01*
X27116084Y-7020701D01*
X27116089Y-7020700D01*
X27445776Y-6905337D01*
X27741524Y-6719506D01*
X27988506Y-6472524D01*
X28174338Y-6176774D01*
X28289701Y-5847084D01*
X28318999Y-5587052D01*
X28319000Y-5587050D01*
X28319000Y-5450000D01*
X27319000Y-5450000D01*
X27319000Y-4950000D01*
X28319000Y-4950000D01*
X28319000Y-4812949D01*
X28318999Y-4812947D01*
X28289701Y-4552915D01*
X28174338Y-4223225D01*
X27988506Y-3927475D01*
X27741524Y-3680493D01*
X27445774Y-3494661D01*
X27116084Y-3379298D01*
X27019000Y-3368359D01*
X27019000Y-4405565D01*
X26983599Y-4381911D01*
X26769000Y-4339225D01*
X26554401Y-4381911D01*
X26519000Y-4405565D01*
X26519000Y-3368359D01*
X26421915Y-3379298D01*
X26092225Y-3494661D01*
X25796475Y-3680493D01*
X25549493Y-3927475D01*
X25363661Y-4223225D01*
X25248298Y-4552915D01*
X25219000Y-4812947D01*
X25219000Y-4950000D01*
X26219000Y-4950000D01*
X26219000Y-5450000D01*
X25219000Y-5450000D01*
X25219000Y-5587052D01*
X8417807Y-5587052D01*
X8421528Y-5570749D01*
X8421529Y-5570739D01*
X8460175Y-5055041D01*
X8460175Y-5055032D01*
X8421529Y-4539334D01*
X8421528Y-4539329D01*
X8421528Y-4539325D01*
X8306449Y-4035133D01*
X8253413Y-3900000D01*
X10126244Y-3900000D01*
X10939496Y-3900000D01*
X10926650Y-3903442D01*
X10822442Y-4007649D01*
X10784299Y-4150000D01*
X10822442Y-4292350D01*
X10926650Y-4396558D01*
X10939496Y-4400000D01*
X10126245Y-4400000D01*
X10172988Y-4559194D01*
X10172989Y-4559197D01*
X10324563Y-4795050D01*
X10324565Y-4795052D01*
X10536455Y-4978656D01*
X10536456Y-4978657D01*
X10791482Y-5095125D01*
X10791486Y-5095126D01*
X10968999Y-5120648D01*
X10969000Y-5120648D01*
X10969000Y-4407905D01*
X11032796Y-4425000D01*
X11405204Y-4425000D01*
X11469000Y-4407905D01*
X11469000Y-5120648D01*
X11646513Y-5095126D01*
X11646517Y-5095125D01*
X11901543Y-4978657D01*
X11901544Y-4978656D01*
X12113434Y-4795052D01*
X12113436Y-4795050D01*
X12265010Y-4559197D01*
X12265011Y-4559194D01*
X12311755Y-4400000D01*
X11498504Y-4400000D01*
X11511350Y-4396558D01*
X11615558Y-4292351D01*
X11653701Y-4150000D01*
X11615558Y-4007650D01*
X11511350Y-3903442D01*
X11498504Y-3900000D01*
X12311755Y-3900000D01*
X15126244Y-3900000D01*
X15939496Y-3900000D01*
X15926650Y-3903442D01*
X15822442Y-4007649D01*
X15784299Y-4150000D01*
X15822442Y-4292350D01*
X15926650Y-4396558D01*
X15939496Y-4400000D01*
X15126245Y-4400000D01*
X15172988Y-4559194D01*
X15172989Y-4559197D01*
X15324563Y-4795050D01*
X15324565Y-4795052D01*
X15536455Y-4978656D01*
X15536456Y-4978657D01*
X15791482Y-5095125D01*
X15791486Y-5095126D01*
X15968999Y-5120648D01*
X15969000Y-5120647D01*
X15969000Y-4407905D01*
X16032796Y-4425000D01*
X16405204Y-4425000D01*
X16468999Y-4407905D01*
X16469000Y-5120648D01*
X16646513Y-5095126D01*
X16646517Y-5095125D01*
X16901543Y-4978657D01*
X16901544Y-4978656D01*
X17113434Y-4795052D01*
X17113436Y-4795050D01*
X17265010Y-4559197D01*
X17265011Y-4559194D01*
X17311755Y-4400000D01*
X16498504Y-4400000D01*
X16511350Y-4396558D01*
X16615558Y-4292351D01*
X16653701Y-4150000D01*
X16615558Y-4007650D01*
X16511350Y-3903442D01*
X16498504Y-3900000D01*
X17311755Y-3900000D01*
X17265011Y-3740805D01*
X17265010Y-3740802D01*
X17113436Y-3504949D01*
X17113434Y-3504947D01*
X16901544Y-3321343D01*
X16901541Y-3321340D01*
X16646513Y-3204874D01*
X16646512Y-3204873D01*
X16469000Y-3179351D01*
X16469000Y-3892094D01*
X16405204Y-3875000D01*
X16032796Y-3875000D01*
X15968999Y-3892094D01*
X15969000Y-3179351D01*
X15791487Y-3204873D01*
X15791486Y-3204874D01*
X15536458Y-3321340D01*
X15536455Y-3321343D01*
X15324565Y-3504947D01*
X15324563Y-3504949D01*
X15172989Y-3740802D01*
X15172988Y-3740805D01*
X15126244Y-3900000D01*
X12311755Y-3900000D01*
X12265011Y-3740805D01*
X12265010Y-3740802D01*
X12113436Y-3504949D01*
X12113434Y-3504947D01*
X11901544Y-3321343D01*
X11901541Y-3321340D01*
X11646513Y-3204874D01*
X11646512Y-3204873D01*
X11469000Y-3179351D01*
X11469000Y-3892094D01*
X11405204Y-3875000D01*
X11032796Y-3875000D01*
X10969000Y-3892094D01*
X10969000Y-3179351D01*
X10791487Y-3204873D01*
X10791486Y-3204874D01*
X10536458Y-3321340D01*
X10536455Y-3321343D01*
X10324565Y-3504947D01*
X10324563Y-3504949D01*
X10172989Y-3740802D01*
X10172988Y-3740805D01*
X10126244Y-3900000D01*
X8253413Y-3900000D01*
X8117510Y-3553723D01*
X7858931Y-3105851D01*
X7536488Y-2701520D01*
X7536487Y-2701519D01*
X7536484Y-2701515D01*
X7157384Y-2349763D01*
X7078757Y-2296156D01*
X6730088Y-2058438D01*
X6730084Y-2058436D01*
X6730083Y-2058435D01*
X6264144Y-1834051D01*
X5769969Y-1681618D01*
X5769965Y-1681617D01*
X5769961Y-1681616D01*
X5523972Y-1644539D01*
X5258584Y-1604537D01*
X5258579Y-1604537D01*
X4741421Y-1604537D01*
X4741415Y-1604537D01*
X4422948Y-1652539D01*
X4230039Y-1681616D01*
X4230035Y-1681617D01*
X4230036Y-1681617D01*
X4230030Y-1681618D01*
X3735855Y-1834051D01*
X3269916Y-2058436D01*
X3269912Y-2058438D01*
X2842618Y-2349761D01*
X2463515Y-2701515D01*
X2141069Y-3105851D01*
X1882490Y-3553722D01*
X1693553Y-4035127D01*
X1693547Y-4035146D01*
X1578471Y-4539329D01*
X1578470Y-4539334D01*
X1539825Y-5055032D01*
X1539825Y-5055041D01*
X567275Y-5055041D01*
X575990Y-5030683D01*
X577604Y-5026638D01*
X722239Y-4699070D01*
X722802Y-4697839D01*
X893281Y-4337391D01*
X895146Y-4333763D01*
X1071017Y-4018015D01*
X1071919Y-4016453D01*
X1275180Y-3677332D01*
X1277142Y-3674274D01*
X1482566Y-3374390D01*
X1483859Y-3372578D01*
X1718236Y-3056557D01*
X1720249Y-3053993D01*
X1953186Y-2773478D01*
X1954838Y-2771574D01*
X2218507Y-2480660D01*
X2220518Y-2478549D01*
X2478549Y-2220518D01*
X2480660Y-2218507D01*
X2771574Y-1954838D01*
X2773478Y-1953186D01*
X3053993Y-1720249D01*
X3056557Y-1718236D01*
X3372578Y-1483859D01*
X3374390Y-1482566D01*
X3674274Y-1277142D01*
X3677332Y-1275180D01*
X4016453Y-1071919D01*
X4018015Y-1071017D01*
X4333763Y-895146D01*
X4337391Y-893281D01*
X4697839Y-722802D01*
X4699070Y-722239D01*
X5026638Y-577604D01*
X5030683Y-575990D01*
X5411756Y-439641D01*
X5412542Y-439368D01*
X5746470Y-327447D01*
X5751016Y-326117D01*
X6154752Y-224985D01*
X6486851Y-146877D01*
X6491893Y-145912D01*
X6930336Y-80874D01*
X7111298Y-55631D01*
X7119872Y-55037D01*
X9705883Y-55037D01*
X9793564Y-91356D01*
G37*
G04 #@! TD.AperFunction*
M02*
