G04 #@! TF.GenerationSoftware,KiCad,Pcbnew,7.0.5*
G04 #@! TF.CreationDate,2023-09-08T12:24:19+07:00*
G04 #@! TF.ProjectId,Node_Vote,4e6f6465-5f56-46f7-9465-2e6b69636164,rev?*
G04 #@! TF.SameCoordinates,Original*
G04 #@! TF.FileFunction,Paste,Top*
G04 #@! TF.FilePolarity,Positive*
%FSLAX46Y46*%
G04 Gerber Fmt 4.6, Leading zero omitted, Abs format (unit mm)*
G04 Created by KiCad (PCBNEW 7.0.5) date 2023-09-08 12:24:19*
%MOMM*%
%LPD*%
G01*
G04 APERTURE LIST*
G04 Aperture macros list*
%AMRoundRect*
0 Rectangle with rounded corners*
0 $1 Rounding radius*
0 $2 $3 $4 $5 $6 $7 $8 $9 X,Y pos of 4 corners*
0 Add a 4 corners polygon primitive as box body*
4,1,4,$2,$3,$4,$5,$6,$7,$8,$9,$2,$3,0*
0 Add four circle primitives for the rounded corners*
1,1,$1+$1,$2,$3*
1,1,$1+$1,$4,$5*
1,1,$1+$1,$6,$7*
1,1,$1+$1,$8,$9*
0 Add four rect primitives between the rounded corners*
20,1,$1+$1,$2,$3,$4,$5,0*
20,1,$1+$1,$4,$5,$6,$7,0*
20,1,$1+$1,$6,$7,$8,$9,0*
20,1,$1+$1,$8,$9,$2,$3,0*%
G04 Aperture macros list end*
%ADD10C,0.010000*%
%ADD11RoundRect,0.127500X0.297500X0.322500X-0.297500X0.322500X-0.297500X-0.322500X0.297500X-0.322500X0*%
%ADD12RoundRect,0.127500X-0.297500X-0.322500X0.297500X-0.322500X0.297500X0.322500X-0.297500X0.322500X0*%
%ADD13RoundRect,0.162500X-0.162500X0.362500X-0.162500X-0.362500X0.162500X-0.362500X0.162500X0.362500X0*%
%ADD14RoundRect,0.090000X-0.210000X0.560000X-0.210000X-0.560000X0.210000X-0.560000X0.210000X0.560000X0*%
%ADD15RoundRect,0.127500X-0.322500X0.297500X-0.322500X-0.297500X0.322500X-0.297500X0.322500X0.297500X0*%
%ADD16RoundRect,0.127500X0.322500X-0.297500X0.322500X0.297500X-0.322500X0.297500X-0.322500X-0.297500X0*%
%ADD17O,0.890000X1.550000*%
%ADD18O,1.250000X0.950000*%
%ADD19R,0.400000X1.350000*%
%ADD20R,1.200000X1.550000*%
%ADD21R,1.500000X1.550000*%
%ADD22R,2.500000X1.000000*%
%ADD23R,1.000000X1.800000*%
%ADD24RoundRect,0.042000X-0.258000X0.943000X-0.258000X-0.943000X0.258000X-0.943000X0.258000X0.943000X0*%
%ADD25RoundRect,0.090000X0.210000X-0.410000X0.210000X0.410000X-0.210000X0.410000X-0.210000X-0.410000X0*%
%ADD26RoundRect,0.162500X0.162500X-0.362500X0.162500X0.362500X-0.162500X0.362500X-0.162500X-0.362500X0*%
%ADD27RoundRect,0.020000X-0.180000X0.760000X-0.180000X-0.760000X0.180000X-0.760000X0.180000X0.760000X0*%
G04 APERTURE END LIST*
D10*
X16089000Y-15845000D02*
X14449000Y-15845000D01*
X14449000Y-14555000D01*
X16089000Y-14555000D01*
X16089000Y-15845000D01*
G36*
X16089000Y-15845000D02*
G01*
X14449000Y-15845000D01*
X14449000Y-14555000D01*
X16089000Y-14555000D01*
X16089000Y-15845000D01*
G37*
D11*
X70727885Y-18755037D03*
X69177885Y-18755037D03*
D12*
X45694000Y-10767537D03*
X47244000Y-10767537D03*
D13*
X73898000Y-2642537D03*
X73898000Y-7292537D03*
X71748000Y-2642537D03*
X71748000Y-7292537D03*
D14*
X22019000Y-23501745D03*
X21069000Y-23501745D03*
X20119000Y-23501745D03*
X20119000Y-25776745D03*
X21069000Y-25776745D03*
X22019000Y-25776745D03*
D11*
X78631167Y-31000000D03*
X77081167Y-31000000D03*
X78631167Y-32700000D03*
X77081167Y-32700000D03*
D15*
X15020000Y-6675000D03*
X15020000Y-8225000D03*
D11*
X16184000Y-21600000D03*
X14634000Y-21600000D03*
D15*
X32019000Y-16700000D03*
X32019000Y-18250000D03*
D12*
X69183000Y-12655037D03*
X70733000Y-12655037D03*
D15*
X47069000Y-22767537D03*
X47069000Y-24317537D03*
D16*
X21069000Y-21475000D03*
X21069000Y-19925000D03*
D11*
X17454000Y-19900000D03*
X15904000Y-19900000D03*
X17005000Y-25948963D03*
X15455000Y-25948963D03*
D15*
X45369000Y-22767537D03*
X45369000Y-24317537D03*
D14*
X30069000Y-15975000D03*
X29119000Y-15975000D03*
X28169000Y-15975000D03*
X28169000Y-18250000D03*
X30069000Y-18250000D03*
D15*
X28169000Y-22767537D03*
X28169000Y-24317537D03*
D17*
X17219000Y-1450000D03*
D18*
X16219000Y-4150000D03*
X11219000Y-4150000D03*
D17*
X10219000Y-1450000D03*
D19*
X15019000Y-4150000D03*
X14369000Y-4150000D03*
X13719000Y-4150000D03*
X13069000Y-4150000D03*
X12419000Y-4150000D03*
D20*
X16619000Y-1450000D03*
D21*
X14719000Y-1450000D03*
X12719000Y-1450000D03*
D20*
X10819000Y-1450000D03*
D11*
X40844000Y-12767537D03*
X39294000Y-12767537D03*
D12*
X45694000Y-12767537D03*
X47244000Y-12767537D03*
D11*
X59717055Y-32700000D03*
X58167055Y-32700000D03*
D15*
X30069000Y-22767537D03*
X30069000Y-24317537D03*
D16*
X77685000Y-7275000D03*
X77685000Y-5725000D03*
D22*
X50593000Y-8767537D03*
X50593000Y-10767537D03*
X50593000Y-12767537D03*
X50593000Y-14767537D03*
X50593000Y-16767537D03*
X50593000Y-18767537D03*
X50593000Y-20767537D03*
X50593000Y-22767537D03*
D23*
X53193000Y-24267537D03*
X55193000Y-24267537D03*
X57193000Y-24267537D03*
X59193000Y-24267537D03*
X61193000Y-24267537D03*
X63193000Y-24267537D03*
D22*
X65793000Y-22767537D03*
X65793000Y-20767537D03*
X65793000Y-18767537D03*
X65793000Y-16767537D03*
X65793000Y-14767537D03*
X65793000Y-12767537D03*
X65793000Y-10767537D03*
X65793000Y-8767537D03*
D15*
X13364000Y-24398963D03*
X13364000Y-25948963D03*
D11*
X40802944Y-32700000D03*
X39252944Y-32700000D03*
X44049232Y-12767537D03*
X42499232Y-12767537D03*
D24*
X17174000Y-12725000D03*
X15904000Y-12725000D03*
X14634000Y-12725000D03*
X13364000Y-12725000D03*
X13364000Y-17675000D03*
X14634000Y-17675000D03*
X15904000Y-17675000D03*
X17174000Y-17675000D03*
D25*
X72658000Y-12592537D03*
X74558000Y-12592537D03*
X73608000Y-10317537D03*
D15*
X75669000Y-5725000D03*
X75669000Y-7275000D03*
D11*
X17459000Y-10325000D03*
X15909000Y-10325000D03*
D12*
X42499232Y-10767537D03*
X44049232Y-10767537D03*
X15455000Y-24274963D03*
X17005000Y-24274963D03*
D11*
X21888833Y-32700000D03*
X20338833Y-32700000D03*
X59717055Y-31000000D03*
X58167055Y-31000000D03*
D12*
X30069000Y-12767537D03*
X31619000Y-12767537D03*
D11*
X40802944Y-31000000D03*
X39252944Y-31000000D03*
D26*
X42499232Y-7267537D03*
X42499232Y-2617537D03*
X44649232Y-7267537D03*
X44649232Y-2617537D03*
D11*
X47244000Y-14767537D03*
X45694000Y-14767537D03*
X21888833Y-31000000D03*
X20338833Y-31000000D03*
D27*
X24894000Y-12320000D03*
X24244000Y-12320000D03*
X23594000Y-12320000D03*
X22944000Y-12320000D03*
X22944000Y-18080000D03*
X23594000Y-18080000D03*
X24244000Y-18080000D03*
X24894000Y-18080000D03*
D12*
X69162885Y-20787037D03*
X70712885Y-20787037D03*
D15*
X13369000Y-6675000D03*
X13369000Y-8225000D03*
D12*
X39294000Y-10750000D03*
X40844000Y-10750000D03*
M02*
